%
M48
M72
T01C0.0197
T02C0.0236
T03C0.0276
T04C0.0315
T05C0.0320
T06C0.0354
T07C0.0360
T08C0.0420
T09C0.0472
T10C0.0900
T11C0.1280
T12C0.1300
%
T01
X9997Y11415
X8997Y13915
X8997Y18415
X16997Y16915
X19997Y14415
X21497Y13415
X26497Y13915
X28247Y17665
X28247Y18165
X28247Y18665
X32997Y18415
X32997Y17415
X33123Y19415
X34997Y19415
X37497Y18415
X38506Y21659
X38497Y24415
X37247Y25665
X36247Y25315
X34747Y24665
X32997Y24665
X33747Y27665
X32247Y28915
X32997Y29415
X31497Y29415
X29247Y29415
X29247Y28415
X27747Y27665
X26497Y28415
X27497Y29415
X28747Y32415
X24747Y32415
X21997Y29915
X22497Y29415
X21997Y28915
X22497Y28415
X21997Y27915
X22497Y27415
X21997Y26915
X22997Y24415
X24997Y25915
X28247Y25915
X35247Y27665
X34874Y29377
X36997Y28415
X37997Y28415
X38497Y28915
X39497Y28915
X39497Y28415
X39497Y26415
X38997Y25915
X41997Y26415
X42747Y25915
X44997Y24915
X44997Y23915
X45997Y27415
X45997Y28415
X45997Y29415
X45997Y30165
X45997Y31915
X47997Y28415
X41997Y28415
X41997Y30165
X40747Y32415
X39497Y30915
X37497Y30915
X36747Y32415
X32747Y32415
X20497Y34415
X19997Y33915
X17997Y34665
X17497Y33915
X17497Y36415
X19497Y36165
X17247Y40415
X13997Y38915
X12247Y38915
X13997Y32915
X14597Y32915
X17497Y31165
X20247Y31165
X19997Y24415
X18497Y23165
X9747Y28665
X8997Y25415
X47997Y41915
T02
X46997Y40665
X46497Y40665
X42247Y40665
X38247Y40665
X34247Y40665
X30247Y40665
X26247Y40665
X25597Y27615
X21997Y24915
X21247Y24915
X19247Y24415
X18497Y25415
X13997Y21415
X13351Y19558
X15197Y17315
X16497Y18415
X12797Y15565
X15197Y14465
X17747Y14415
X14897Y11315
X8897Y11815
X9597Y3165
X21897Y7415
X22897Y4415
X30997Y11415
X29997Y12915
X29997Y14415
X28247Y13115
X27747Y12565
X27747Y11915
X31497Y4415
X35497Y4065
X40197Y4915
X43497Y6815
X28997Y19415
X28247Y19665
X27997Y22415
X33497Y21915
X36997Y22415
X9897Y26965
T03
X42917Y15457
X42921Y14473
X46207Y14476
X46203Y15461
X46005Y25685
X46990Y25689
T04
X45497Y33915
X44497Y33915
X41497Y33915
X40497Y33915
X37497Y33915
X36497Y33915
X33497Y33915
X32497Y33915
X29497Y33915
X28497Y33915
X25497Y33915
X24497Y33915
X12997Y28915
X12497Y33915
T05
X7896Y36142
X7896Y38142
X5097Y39815
X3097Y39815
T06
X6704Y27689
X5704Y27189
X5704Y26189
X5704Y25189
X6704Y25689
X6704Y26689
X8997Y27165
X7997Y21415
X6704Y21189
X6704Y20189
X6704Y19189
X5704Y19689
X5704Y20689
X5704Y18689
X6704Y14689
X6704Y13689
X6704Y12689
X5704Y13189
X5704Y14189
X5704Y12189
X7847Y10415
X6704Y8189
X6704Y7189
X6704Y6189
X5704Y6689
X5704Y7689
X5704Y5689
X8497Y5415
X13697Y14215
X11997Y14715
X13697Y18415
X11947Y18865
X21448Y6694
X22448Y6694
X23448Y6694
X24448Y6694
X25448Y6694
X25448Y3694
X24448Y3694
X23448Y3694
X22448Y3694
X21448Y3694
X30347Y6065
X31147Y6965
X35847Y5815
X36097Y4915
X44247Y3165
X44547Y4265
T07
X46897Y6765
X47677Y6765
X47677Y7750
X46897Y7750
X40497Y16415
X40497Y17415
X36501Y15604
X36501Y14604
X29347Y10215
X28347Y10215
X28347Y9215
X28347Y8215
X29347Y8215
X29347Y9215
X18997Y7415
X17997Y7415
X17997Y6415
X17997Y5415
X17997Y4415
X17997Y3415
X18997Y3415
X18997Y4415
X18997Y5415
X18997Y6415
X18747Y10415
X17747Y10415
X17747Y11415
X17747Y12415
X18747Y12415
X18747Y11415
X10497Y29465
X10497Y30465
X5879Y32172
X5879Y33172
X2879Y32172
X5879Y36172
X5879Y37172
X5879Y38172
X6497Y40115
X7497Y40115
X8497Y40115
X8497Y41665
X7497Y41665
X2879Y38172
T08
X46097Y23515
X47347Y23515
X49847Y23515
X49847Y17265
X46097Y17265
T09
X50497Y27009
X50497Y28978
X50497Y30946
X50497Y32915
X50497Y34883
X50497Y36852
X50497Y38820
X50497Y40789
X46840Y43915
X44871Y43915
X42903Y43915
X40934Y43915
X38966Y43915
X36997Y43915
X35029Y43915
X33060Y43915
X31092Y43915
X29123Y43915
X27155Y43915
X25186Y43915
X22919Y43915
X20950Y43915
X18982Y43915
X17013Y43915
X15045Y43915
X13076Y43915
X7497Y43915
X5529Y43915
T10
X48747Y9627
X48747Y4887
T11
X3204Y4939
X3204Y8939
X3204Y11439
X3204Y15439
X3204Y17939
X3204Y21939
X3204Y24439
X3204Y28439
T12
X3347Y2415
X49997Y2415
X49997Y43665
X3197Y43765
M30
