G75*
G70*
%OFA0B0*%
%FSLAX24Y24*%
%IPPOS*%
%LPD*%
%AMOC8*
5,1,8,0,0,1.08239X$1,22.5*
%
%ADD10C,0.0050*%
%ADD11C,0.0080*%
%ADD12C,0.0060*%
%ADD13R,0.0050X0.0010*%
%ADD14R,0.0040X0.0010*%
%ADD15R,0.0100X0.0010*%
%ADD16R,0.0090X0.0010*%
%ADD17R,0.0160X0.0010*%
%ADD18R,0.0140X0.0010*%
%ADD19R,0.0220X0.0010*%
%ADD20R,0.0010X0.0010*%
%ADD21R,0.0170X0.0010*%
%ADD22R,0.0260X0.0010*%
%ADD23R,0.0240X0.0010*%
%ADD24R,0.0320X0.0010*%
%ADD25R,0.0290X0.0010*%
%ADD26R,0.0370X0.0010*%
%ADD27R,0.0330X0.0010*%
%ADD28R,0.0420X0.0010*%
%ADD29R,0.0390X0.0010*%
%ADD30R,0.0430X0.0010*%
%ADD31R,0.0440X0.0010*%
%ADD32R,0.0450X0.0010*%
%ADD33R,0.0460X0.0010*%
%ADD34R,0.0470X0.0010*%
%ADD35R,0.0480X0.0010*%
%ADD36R,0.0490X0.0010*%
%ADD37R,0.0500X0.0010*%
%ADD38R,0.0510X0.0010*%
%ADD39R,0.0520X0.0010*%
%ADD40R,0.0530X0.0010*%
%ADD41R,0.0540X0.0010*%
%ADD42R,0.0030X0.0010*%
%ADD43R,0.0080X0.0010*%
%ADD44R,0.0550X0.0010*%
%ADD45R,0.0560X0.0010*%
%ADD46R,0.0130X0.0010*%
%ADD47R,0.0060X0.0010*%
%ADD48R,0.0150X0.0010*%
%ADD49R,0.0190X0.0010*%
%ADD50R,0.0570X0.0010*%
%ADD51R,0.0210X0.0010*%
%ADD52R,0.0580X0.0010*%
%ADD53R,0.0590X0.0010*%
%ADD54R,0.1470X0.0010*%
%ADD55R,0.1450X0.0010*%
%ADD56R,0.0280X0.0010*%
%ADD57R,0.1460X0.0010*%
%ADD58R,0.0380X0.0010*%
%ADD59R,0.0310X0.0010*%
%ADD60R,0.1440X0.0010*%
%ADD61R,0.0410X0.0010*%
%ADD62R,0.0340X0.0010*%
%ADD63R,0.0360X0.0010*%
%ADD64R,0.1420X0.0010*%
%ADD65R,0.1410X0.0010*%
%ADD66R,0.1430X0.0010*%
%ADD67R,0.1490X0.0010*%
%ADD68R,0.1510X0.0010*%
%ADD69R,0.1520X0.0010*%
%ADD70R,0.1540X0.0010*%
%ADD71R,0.0600X0.0010*%
%ADD72R,0.1560X0.0010*%
%ADD73R,0.0110X0.0010*%
%ADD74R,0.1570X0.0010*%
%ADD75R,0.0620X0.0010*%
%ADD76R,0.0610X0.0010*%
%ADD77R,0.1580X0.0010*%
%ADD78R,0.2230X0.0010*%
%ADD79R,0.0180X0.0010*%
%ADD80R,0.2210X0.0010*%
%ADD81R,0.0200X0.0010*%
%ADD82R,0.2200X0.0010*%
%ADD83R,0.0870X0.0010*%
%ADD84R,0.2190X0.0010*%
%ADD85R,0.0860X0.0010*%
%ADD86R,0.2170X0.0010*%
%ADD87R,0.0850X0.0010*%
%ADD88R,0.2150X0.0010*%
%ADD89R,0.2140X0.0010*%
%ADD90R,0.2120X0.0010*%
%ADD91R,0.2110X0.0010*%
%ADD92R,0.2090X0.0010*%
%ADD93R,0.2080X0.0010*%
%ADD94R,0.0840X0.0010*%
%ADD95R,0.2060X0.0010*%
%ADD96R,0.2040X0.0010*%
%ADD97R,0.2030X0.0010*%
%ADD98R,0.2020X0.0010*%
%ADD99R,0.2010X0.0010*%
%ADD100R,0.1990X0.0010*%
%ADD101R,0.1980X0.0010*%
%ADD102R,0.1970X0.0010*%
%ADD103R,0.1950X0.0010*%
%ADD104R,0.1930X0.0010*%
%ADD105R,0.0830X0.0010*%
%ADD106R,0.1920X0.0010*%
%ADD107R,0.1910X0.0010*%
%ADD108R,0.1900X0.0010*%
%ADD109R,0.1890X0.0010*%
%ADD110R,0.1870X0.0010*%
%ADD111R,0.1850X0.0010*%
%ADD112R,0.0820X0.0010*%
%ADD113R,0.1840X0.0010*%
%ADD114R,0.1820X0.0010*%
%ADD115R,0.1830X0.0010*%
%ADD116R,0.0880X0.0010*%
%ADD117R,0.0900X0.0010*%
%ADD118R,0.0910X0.0010*%
%ADD119R,0.0120X0.0010*%
%ADD120R,0.0930X0.0010*%
%ADD121R,0.0940X0.0010*%
%ADD122R,0.0950X0.0010*%
%ADD123R,0.0970X0.0010*%
%ADD124R,0.0270X0.0010*%
%ADD125R,0.1860X0.0010*%
%ADD126R,0.0300X0.0010*%
%ADD127R,0.0980X0.0010*%
%ADD128R,0.1000X0.0010*%
%ADD129R,0.1010X0.0010*%
%ADD130R,0.0250X0.0010*%
%ADD131R,0.1030X0.0010*%
%ADD132R,0.1040X0.0010*%
%ADD133R,0.1050X0.0010*%
%ADD134R,0.0350X0.0010*%
%ADD135R,0.1070X0.0010*%
%ADD136R,0.2400X0.0010*%
%ADD137R,0.2410X0.0010*%
%ADD138R,0.1100X0.0010*%
%ADD139R,0.1110X0.0010*%
%ADD140R,0.1660X0.0010*%
%ADD141R,0.1670X0.0010*%
%ADD142R,0.1690X0.0010*%
%ADD143R,0.2390X0.0010*%
%ADD144R,0.1700X0.0010*%
%ADD145R,0.1710X0.0010*%
%ADD146R,0.1720X0.0010*%
%ADD147R,0.1730X0.0010*%
%ADD148R,0.1740X0.0010*%
%ADD149R,0.2380X0.0010*%
%ADD150R,0.1750X0.0010*%
%ADD151R,0.1760X0.0010*%
%ADD152R,0.1770X0.0010*%
%ADD153R,0.1790X0.0010*%
%ADD154R,0.2360X0.0010*%
%ADD155R,0.2350X0.0010*%
%ADD156R,0.1810X0.0010*%
%ADD157R,0.2330X0.0010*%
%ADD158R,0.2310X0.0010*%
%ADD159R,0.2280X0.0010*%
%ADD160R,0.2250X0.0010*%
%ADD161R,0.2240X0.0010*%
%ADD162R,0.2180X0.0010*%
%ADD163R,0.2160X0.0010*%
%ADD164R,0.1800X0.0010*%
%ADD165R,0.1780X0.0010*%
%ADD166R,0.2070X0.0010*%
%ADD167R,0.1960X0.0010*%
%ADD168R,0.1940X0.0010*%
%ADD169R,0.1880X0.0010*%
%ADD170R,0.1680X0.0010*%
%ADD171R,0.1640X0.0010*%
%ADD172R,0.1650X0.0010*%
%ADD173R,0.1620X0.0010*%
%ADD174R,0.1610X0.0010*%
%ADD175R,0.1630X0.0010*%
%ADD176R,0.0020X0.0010*%
%ADD177R,0.2100X0.0010*%
%ADD178R,0.2300X0.0010*%
%ADD179R,0.2050X0.0010*%
%ADD180R,0.2320X0.0010*%
%ADD181R,0.2000X0.0010*%
%ADD182R,0.2340X0.0010*%
%ADD183R,0.2370X0.0010*%
%ADD184R,0.2420X0.0010*%
%ADD185R,0.2430X0.0010*%
%ADD186R,0.2440X0.0010*%
%ADD187R,0.2460X0.0010*%
%ADD188R,0.2450X0.0010*%
%ADD189R,0.1350X0.0010*%
%ADD190R,0.1360X0.0010*%
%ADD191R,0.1340X0.0010*%
%ADD192R,0.1310X0.0010*%
%ADD193R,0.1280X0.0010*%
%ADD194R,0.1230X0.0010*%
%ADD195R,0.1210X0.0010*%
%ADD196R,0.1390X0.0010*%
%ADD197R,0.1160X0.0010*%
%ADD198R,0.1150X0.0010*%
%ADD199R,0.1120X0.0010*%
%ADD200R,0.1290X0.0010*%
%ADD201R,0.1090X0.0010*%
%ADD202R,0.1270X0.0010*%
%ADD203R,0.1250X0.0010*%
%ADD204R,0.1240X0.0010*%
%ADD205R,0.0960X0.0010*%
%ADD206R,0.1220X0.0010*%
%ADD207R,0.1190X0.0010*%
%ADD208R,0.1180X0.0010*%
%ADD209R,0.1170X0.0010*%
%ADD210R,0.1130X0.0010*%
%ADD211R,0.1140X0.0010*%
%ADD212R,0.0990X0.0010*%
%ADD213R,0.1080X0.0010*%
%ADD214R,0.1060X0.0010*%
%ADD215R,0.1020X0.0010*%
%ADD216R,0.1200X0.0010*%
%ADD217R,0.1260X0.0010*%
%ADD218R,0.1320X0.0010*%
%ADD219R,0.1370X0.0010*%
%ADD220R,0.1400X0.0010*%
%ADD221R,0.1500X0.0010*%
%ADD222R,0.1530X0.0010*%
%ADD223R,0.0400X0.0010*%
%ADD224R,0.0230X0.0010*%
%ADD225R,0.1550X0.0010*%
%ADD226R,0.1480X0.0010*%
%ADD227R,0.1590X0.0010*%
%ADD228R,0.1600X0.0010*%
%ADD229R,0.1330X0.0010*%
%ADD230R,0.0920X0.0010*%
%ADD231R,0.1380X0.0010*%
%ADD232R,0.0630X0.0010*%
%ADD233R,0.0720X0.0010*%
%ADD234R,0.0700X0.0010*%
%ADD235R,0.0690X0.0010*%
%ADD236R,0.0800X0.0010*%
%ADD237R,0.0660X0.0010*%
%ADD238R,0.0780X0.0010*%
%ADD239R,0.0670X0.0010*%
%ADD240R,0.0760X0.0010*%
%ADD241R,0.0650X0.0010*%
%ADD242R,0.0750X0.0010*%
%ADD243R,0.0640X0.0010*%
%ADD244R,0.0710X0.0010*%
%ADD245R,0.0070X0.0010*%
%ADD246C,0.0160*%
%ADD247C,0.0150*%
%ADD248C,0.0030*%
%ADD249C,0.0100*%
%ADD250C,0.0040*%
%ADD251C,0.0348*%
%ADD252C,0.0020*%
%ADD253R,0.0450X0.0364*%
%ADD254R,0.0079X0.0079*%
%ADD255R,0.0059X0.0098*%
%ADD256C,0.0120*%
%ADD257R,0.0098X0.0059*%
%ADD258C,0.0079*%
D10*
X007822Y002815D02*
X007897Y002740D01*
X008197Y002740D01*
X008272Y002815D01*
X008272Y002965D01*
X008197Y003040D01*
X008272Y003200D02*
X007972Y003200D01*
X007822Y003350D01*
X007972Y003501D01*
X008272Y003501D01*
X008272Y003661D02*
X007822Y003661D01*
X008272Y003961D01*
X007822Y003961D01*
X007822Y004121D02*
X008272Y004121D01*
X008047Y004121D02*
X008047Y004421D01*
X007972Y004582D02*
X007822Y004732D01*
X008272Y004732D01*
X008272Y004582D02*
X008272Y004882D01*
X008272Y004421D02*
X007822Y004421D01*
X008047Y003501D02*
X008047Y003200D01*
X007897Y003040D02*
X007822Y002965D01*
X007822Y002815D01*
X011834Y002165D02*
X011834Y001555D01*
X011834Y001758D02*
X012139Y001758D01*
X012241Y001860D01*
X012241Y002064D01*
X012139Y002165D01*
X011834Y002165D01*
X012442Y001860D02*
X012442Y001657D01*
X012544Y001555D01*
X012747Y001555D01*
X012849Y001657D01*
X012849Y001860D01*
X012747Y001962D01*
X012544Y001962D01*
X012442Y001860D01*
X013050Y001555D02*
X013253Y001555D01*
X013151Y001555D02*
X013151Y002165D01*
X013050Y002165D01*
X013455Y001962D02*
X013455Y001657D01*
X013556Y001555D01*
X013862Y001555D01*
X013862Y001453D02*
X013760Y001351D01*
X013658Y001351D01*
X013862Y001453D02*
X013862Y001962D01*
X014670Y001860D02*
X014670Y001657D01*
X014772Y001555D01*
X014975Y001555D01*
X015077Y001758D02*
X014670Y001758D01*
X014670Y001860D02*
X014772Y001962D01*
X014975Y001962D01*
X015077Y001860D01*
X015077Y001758D01*
X015278Y001758D02*
X015583Y001758D01*
X015685Y001860D01*
X015685Y002064D01*
X015583Y002165D01*
X015278Y002165D01*
X015278Y001555D01*
X015481Y001758D02*
X015685Y001555D01*
X015886Y001657D02*
X015987Y001758D01*
X016293Y001758D01*
X016293Y001860D02*
X016293Y001555D01*
X015987Y001555D01*
X015886Y001657D01*
X015987Y001962D02*
X016191Y001962D01*
X016293Y001860D01*
X016493Y001860D02*
X016493Y001657D01*
X016595Y001555D01*
X016900Y001555D01*
X017101Y001555D02*
X017305Y001555D01*
X017203Y001555D02*
X017203Y001962D01*
X017101Y001962D01*
X016900Y001962D02*
X016595Y001962D01*
X016493Y001860D01*
X017203Y002165D02*
X017203Y002267D01*
X017506Y001962D02*
X017506Y001555D01*
X017456Y001175D02*
X017354Y001074D01*
X017354Y000972D01*
X017456Y000870D01*
X017659Y000870D01*
X017761Y000768D01*
X017761Y000667D01*
X017659Y000565D01*
X017456Y000565D01*
X017354Y000667D01*
X017154Y000565D02*
X017154Y001175D01*
X016950Y000972D01*
X016747Y001175D01*
X016747Y000565D01*
X016546Y000667D02*
X016444Y000565D01*
X016139Y000565D01*
X016139Y001175D01*
X016444Y001175D01*
X016546Y001074D01*
X016546Y000972D01*
X016444Y000870D01*
X016139Y000870D01*
X016444Y000870D02*
X016546Y000768D01*
X016546Y000667D01*
X017456Y001175D02*
X017659Y001175D01*
X017761Y001074D01*
X018064Y000972D02*
X018267Y000972D01*
X018369Y000870D01*
X018369Y000565D01*
X018064Y000565D01*
X017962Y000667D01*
X018064Y000768D01*
X018369Y000768D01*
X018570Y000870D02*
X018773Y000870D01*
X018975Y000870D02*
X019077Y000972D01*
X019280Y000972D01*
X019382Y000870D01*
X019382Y000768D01*
X018975Y000768D01*
X018975Y000667D02*
X018975Y000870D01*
X018975Y000667D02*
X019077Y000565D01*
X019280Y000565D01*
X018671Y000565D02*
X018671Y001074D01*
X018773Y001175D01*
X018521Y001453D02*
X018521Y001962D01*
X018216Y001962D01*
X018114Y001860D01*
X018114Y001657D01*
X018216Y001555D01*
X018521Y001555D01*
X018521Y001453D02*
X018419Y001351D01*
X018317Y001351D01*
X017913Y001555D02*
X017913Y001860D01*
X017811Y001962D01*
X017506Y001962D01*
X016987Y003190D02*
X016837Y003190D01*
X016762Y003265D01*
X016762Y003565D01*
X016837Y003640D01*
X016987Y003640D01*
X017062Y003565D01*
X017062Y003415D02*
X016912Y003415D01*
X017062Y003415D02*
X017062Y003265D01*
X016987Y003190D01*
X016987Y004190D02*
X016762Y004190D01*
X016762Y004640D01*
X016987Y004640D01*
X017062Y004565D01*
X017062Y004490D01*
X016987Y004415D01*
X016762Y004415D01*
X016987Y004415D02*
X017062Y004340D01*
X017062Y004265D01*
X016987Y004190D01*
X016762Y005190D02*
X016762Y005640D01*
X017062Y005640D01*
X016912Y005415D02*
X016762Y005415D01*
X016837Y006190D02*
X016987Y006190D01*
X017062Y006265D01*
X016837Y006190D02*
X016762Y006265D01*
X016762Y006565D01*
X016837Y006640D01*
X016987Y006640D01*
X017062Y006565D01*
X016912Y007190D02*
X016762Y007340D01*
X016762Y007640D01*
X016602Y007640D02*
X016302Y007640D01*
X016302Y007415D01*
X016452Y007490D01*
X016527Y007490D01*
X016602Y007415D01*
X016602Y007265D01*
X016527Y007190D01*
X016377Y007190D01*
X016302Y007265D01*
X016912Y007190D02*
X017062Y007340D01*
X017062Y007640D01*
X019722Y007640D02*
X019722Y007415D01*
X019873Y007490D01*
X019948Y007490D01*
X020023Y007415D01*
X020023Y007265D01*
X019948Y007190D01*
X019798Y007190D01*
X019722Y007265D01*
X019722Y007640D02*
X020023Y007640D01*
X020183Y007640D02*
X020183Y007340D01*
X020333Y007190D01*
X020483Y007340D01*
X020483Y007640D01*
X019873Y006640D02*
X020023Y006490D01*
X020023Y006190D01*
X020023Y006415D02*
X019722Y006415D01*
X019722Y006490D02*
X019722Y006190D01*
X019722Y006490D02*
X019873Y006640D01*
X019948Y005640D02*
X019722Y005640D01*
X019722Y005190D01*
X019948Y005190D01*
X020023Y005265D01*
X020023Y005565D01*
X019948Y005640D01*
X020183Y005640D02*
X020183Y005190D01*
X020183Y005340D02*
X020408Y005340D01*
X020483Y005415D01*
X020483Y005565D01*
X020408Y005640D01*
X020183Y005640D01*
X020023Y004640D02*
X019722Y004640D01*
X019722Y004190D01*
X020023Y004190D01*
X019873Y004415D02*
X019722Y004415D01*
X019722Y003640D02*
X019948Y003640D01*
X020023Y003565D01*
X020023Y003265D01*
X019948Y003190D01*
X019722Y003190D01*
X019722Y003640D01*
X020545Y002165D02*
X020952Y002165D01*
X021254Y001962D02*
X021152Y001860D01*
X021152Y001657D01*
X021254Y001555D01*
X021458Y001555D01*
X021559Y001657D01*
X021559Y001860D01*
X021458Y001962D01*
X021254Y001962D01*
X021760Y001962D02*
X021760Y001555D01*
X021760Y001758D02*
X021964Y001962D01*
X022065Y001962D01*
X022267Y001962D02*
X022267Y001555D01*
X022470Y001555D02*
X022470Y001860D01*
X022572Y001962D01*
X022674Y001860D01*
X022674Y001555D01*
X022874Y001657D02*
X022874Y001962D01*
X022874Y001657D02*
X022976Y001555D01*
X023281Y001555D01*
X023281Y001962D01*
X023482Y002165D02*
X023584Y002165D01*
X023584Y001555D01*
X023482Y001555D02*
X023686Y001555D01*
X023887Y001657D02*
X023887Y001860D01*
X023989Y001962D01*
X024192Y001962D01*
X024294Y001860D01*
X024294Y001758D01*
X023887Y001758D01*
X023887Y001657D02*
X023989Y001555D01*
X024192Y001555D01*
X024039Y000972D02*
X024243Y000565D01*
X024446Y000972D01*
X024647Y001074D02*
X024749Y001175D01*
X024952Y001175D01*
X025054Y001074D01*
X025054Y000972D01*
X024647Y000565D01*
X025054Y000565D01*
X025255Y000565D02*
X025356Y000565D01*
X025356Y000667D01*
X025255Y000667D01*
X025255Y000565D01*
X025558Y000667D02*
X025558Y001074D01*
X025660Y001175D01*
X025864Y001175D01*
X025965Y001074D01*
X025558Y000667D01*
X025660Y000565D01*
X025864Y000565D01*
X025965Y000667D01*
X025965Y001074D01*
X025914Y001555D02*
X025710Y001555D01*
X025812Y001555D02*
X025812Y002165D01*
X025710Y002165D01*
X025510Y001962D02*
X025103Y001962D01*
X025103Y001555D01*
X025510Y001555D01*
X025306Y001758D02*
X025103Y001758D01*
X025204Y002165D02*
X025408Y002267D01*
X026116Y001860D02*
X026116Y001657D01*
X026217Y001555D01*
X026421Y001555D01*
X026523Y001758D02*
X026116Y001758D01*
X026116Y001860D02*
X026217Y001962D01*
X026421Y001962D01*
X026523Y001860D01*
X026523Y001758D01*
X026723Y001657D02*
X026825Y001555D01*
X027130Y001555D01*
X027433Y001657D02*
X027433Y002064D01*
X027534Y001962D02*
X027331Y001962D01*
X027130Y001962D02*
X026825Y001962D01*
X026723Y001860D01*
X026723Y001657D01*
X027433Y001657D02*
X027534Y001555D01*
X027736Y001555D02*
X027736Y001962D01*
X027736Y001758D02*
X027940Y001962D01*
X028041Y001962D01*
X028243Y001962D02*
X028344Y001962D01*
X028344Y001555D01*
X028243Y001555D02*
X028446Y001555D01*
X028648Y001657D02*
X028648Y001860D01*
X028749Y001962D01*
X029055Y001962D01*
X029055Y001351D01*
X029055Y001555D02*
X028749Y001555D01*
X028648Y001657D01*
X028344Y002165D02*
X028344Y002267D01*
X029255Y001962D02*
X029255Y001657D01*
X029357Y001555D01*
X029662Y001555D01*
X029662Y001962D01*
X029863Y001860D02*
X029965Y001962D01*
X030168Y001962D01*
X030270Y001860D01*
X030270Y001758D01*
X029863Y001758D01*
X029863Y001657D02*
X029863Y001860D01*
X029863Y001657D02*
X029965Y001555D01*
X030168Y001555D01*
X029633Y005840D02*
X029333Y006290D01*
X029173Y006290D02*
X028872Y006290D01*
X029023Y006290D02*
X029023Y005840D01*
X029333Y005840D02*
X029633Y006290D01*
X029722Y006740D02*
X029722Y007190D01*
X029948Y007190D01*
X030023Y007115D01*
X030023Y006965D01*
X029948Y006890D01*
X029722Y006890D01*
X029873Y006890D02*
X030023Y006740D01*
X030183Y006740D02*
X030483Y007190D01*
X030183Y007190D02*
X030483Y006740D01*
X030373Y007990D02*
X030523Y008140D01*
X030523Y008440D01*
X030683Y008440D02*
X030683Y007990D01*
X030908Y007990D01*
X030983Y008065D01*
X030983Y008365D01*
X030908Y008440D01*
X030683Y008440D01*
X030758Y008890D02*
X030683Y008965D01*
X030758Y008890D02*
X030908Y008890D01*
X030983Y008965D01*
X030983Y009040D01*
X030908Y009115D01*
X030758Y009115D01*
X030683Y009190D01*
X030683Y009265D01*
X030758Y009340D01*
X030908Y009340D01*
X030983Y009265D01*
X031143Y009340D02*
X031444Y009340D01*
X031293Y009340D02*
X031293Y008890D01*
X031368Y008440D02*
X031143Y008440D01*
X031143Y007990D01*
X031368Y007990D01*
X031444Y008065D01*
X031444Y008365D01*
X031368Y008440D01*
X030523Y008890D02*
X030373Y009040D01*
X030448Y009040D02*
X030222Y009040D01*
X030222Y008890D02*
X030222Y009340D01*
X030448Y009340D01*
X030523Y009265D01*
X030523Y009115D01*
X030448Y009040D01*
X030222Y008440D02*
X030222Y008140D01*
X030373Y007990D01*
X030448Y009940D02*
X030523Y010015D01*
X030523Y010165D01*
X030373Y010165D01*
X030523Y010315D02*
X030448Y010390D01*
X030298Y010390D01*
X030222Y010315D01*
X030222Y010015D01*
X030298Y009940D01*
X030448Y009940D01*
X030683Y009940D02*
X030683Y010390D01*
X030983Y009940D01*
X030983Y010390D01*
X031143Y010390D02*
X031143Y009940D01*
X031368Y009940D01*
X031444Y010015D01*
X031444Y010315D01*
X031368Y010390D01*
X031143Y010390D01*
X028654Y011015D02*
X028654Y011315D01*
X028579Y011390D01*
X028354Y011390D01*
X028354Y010940D01*
X028579Y010940D01*
X028654Y011015D01*
X028194Y011015D02*
X028194Y011165D01*
X028043Y011165D01*
X027893Y011015D02*
X027968Y010940D01*
X028118Y010940D01*
X028194Y011015D01*
X028194Y011315D02*
X028118Y011390D01*
X027968Y011390D01*
X027893Y011315D01*
X027893Y011015D01*
X027733Y010940D02*
X027508Y011165D01*
X027433Y011090D02*
X027733Y011390D01*
X027433Y011390D02*
X027433Y010940D01*
X027273Y011015D02*
X027273Y011090D01*
X027198Y011165D01*
X026972Y011165D01*
X026972Y010940D02*
X026972Y011390D01*
X027198Y011390D01*
X027273Y011315D01*
X027273Y011240D01*
X027198Y011165D01*
X027273Y011015D02*
X027198Y010940D01*
X026972Y010940D01*
X019773Y010565D02*
X019773Y010490D01*
X019698Y010415D01*
X019773Y010340D01*
X019773Y010265D01*
X019698Y010190D01*
X019548Y010190D01*
X019472Y010265D01*
X019623Y010415D02*
X019698Y010415D01*
X019773Y010565D02*
X019698Y010640D01*
X019548Y010640D01*
X019472Y010565D01*
X016944Y010640D02*
X016793Y010565D01*
X016643Y010415D01*
X016868Y010415D01*
X016944Y010340D01*
X016944Y010265D01*
X016868Y010190D01*
X016718Y010190D01*
X016643Y010265D01*
X016643Y010415D01*
X016483Y010265D02*
X016408Y010190D01*
X016258Y010190D01*
X016183Y010265D01*
X016483Y010565D01*
X016483Y010265D01*
X016183Y010265D02*
X016183Y010565D01*
X016258Y010640D01*
X016408Y010640D01*
X016483Y010565D01*
X016023Y010190D02*
X015722Y010190D01*
X015873Y010190D02*
X015873Y010640D01*
X015722Y010490D01*
X015722Y011190D02*
X016023Y011190D01*
X015873Y011190D02*
X015873Y011640D01*
X015722Y011490D01*
X016183Y011565D02*
X016258Y011640D01*
X016408Y011640D01*
X016483Y011565D01*
X016183Y011265D01*
X016258Y011190D01*
X016408Y011190D01*
X016483Y011265D01*
X016483Y011565D01*
X016643Y011640D02*
X016643Y011415D01*
X016793Y011490D01*
X016868Y011490D01*
X016944Y011415D01*
X016944Y011265D01*
X016868Y011190D01*
X016718Y011190D01*
X016643Y011265D01*
X016643Y011640D02*
X016944Y011640D01*
X016868Y012190D02*
X016868Y012640D01*
X016643Y012415D01*
X016944Y012415D01*
X016483Y012415D02*
X016183Y012415D01*
X016408Y012640D01*
X016408Y012190D01*
X016023Y012190D02*
X015722Y012190D01*
X015873Y012190D02*
X015873Y012640D01*
X015722Y012490D01*
X016183Y011565D02*
X016183Y011265D01*
X014312Y014740D02*
X014012Y014740D01*
X014162Y014740D02*
X014162Y015190D01*
X014012Y015040D01*
X013852Y015190D02*
X013552Y014740D01*
X013392Y014740D02*
X013241Y014890D01*
X013316Y014890D02*
X013091Y014890D01*
X013091Y014740D02*
X013091Y015190D01*
X013316Y015190D01*
X013392Y015115D01*
X013392Y014965D01*
X013316Y014890D01*
X013552Y015190D02*
X013852Y014740D01*
X011462Y014790D02*
X011162Y014790D01*
X011312Y014790D02*
X011312Y015240D01*
X011162Y015090D01*
X011002Y015240D02*
X010702Y014790D01*
X011002Y014790D02*
X010702Y015240D01*
X010542Y015240D02*
X010241Y015240D01*
X010391Y015240D02*
X010391Y014790D01*
X008322Y013132D02*
X008322Y012832D01*
X008322Y012982D02*
X007872Y012982D01*
X008022Y012832D01*
X008322Y012671D02*
X008322Y012371D01*
X007872Y012371D01*
X007872Y012211D02*
X008322Y012211D01*
X007872Y011911D01*
X008322Y011911D01*
X008322Y011751D02*
X008022Y011751D01*
X007872Y011600D01*
X008022Y011450D01*
X008322Y011450D01*
X008247Y011290D02*
X008322Y011215D01*
X008322Y011065D01*
X008247Y010990D01*
X007947Y010990D01*
X007872Y011065D01*
X007872Y011215D01*
X007947Y011290D01*
X008097Y011450D02*
X008097Y011751D01*
X008372Y010142D02*
X008372Y009842D01*
X008822Y009842D01*
X008597Y009842D02*
X008597Y009992D01*
X008372Y009682D02*
X008372Y009382D01*
X008822Y009382D01*
X008747Y009221D02*
X008447Y009221D01*
X008372Y009146D01*
X008372Y008996D01*
X008447Y008921D01*
X008747Y008921D01*
X008822Y008996D01*
X008822Y009146D01*
X008747Y009221D01*
X008597Y009382D02*
X008597Y009532D01*
X008372Y008761D02*
X008822Y008461D01*
X008822Y008301D02*
X008372Y008301D01*
X008372Y008000D02*
X008822Y008301D01*
X008822Y008000D02*
X008372Y008000D01*
X008447Y007840D02*
X008372Y007765D01*
X008372Y007615D01*
X008447Y007540D01*
X008747Y007540D01*
X008822Y007615D01*
X008822Y007765D01*
X008747Y007840D01*
X008447Y007840D01*
X019329Y001860D02*
X019736Y001860D01*
X020545Y001860D02*
X020748Y001860D01*
X020545Y001555D02*
X020545Y002165D01*
X020597Y001175D02*
X020394Y000972D01*
X020190Y001175D01*
X020190Y000565D01*
X020597Y000565D02*
X020597Y001175D01*
X020900Y000972D02*
X021103Y000972D01*
X021205Y000870D01*
X021205Y000565D01*
X020900Y000565D01*
X020798Y000667D01*
X020900Y000768D01*
X021205Y000768D01*
X021507Y000565D02*
X021609Y000565D01*
X021609Y000972D01*
X021507Y000972D01*
X021406Y001175D02*
X021609Y001379D01*
X021813Y001175D01*
X022014Y001074D02*
X022014Y000667D01*
X022116Y000565D01*
X022317Y000565D02*
X022317Y000972D01*
X022116Y000972D02*
X021912Y000972D01*
X022317Y000768D02*
X022521Y000972D01*
X022623Y000972D01*
X022824Y000870D02*
X022925Y000972D01*
X023129Y000972D01*
X023231Y000870D01*
X023231Y000768D01*
X022824Y000768D01*
X022824Y000667D02*
X022824Y000870D01*
X022824Y000667D02*
X022925Y000565D01*
X023129Y000565D01*
X022470Y001860D02*
X022368Y001962D01*
X022267Y001962D01*
X034973Y007140D02*
X034973Y007590D01*
X035123Y007590D02*
X034822Y007590D01*
X035283Y007590D02*
X035583Y007140D01*
X035743Y007140D02*
X035968Y007140D01*
X036044Y007215D01*
X036044Y007515D01*
X035968Y007590D01*
X035743Y007590D01*
X035743Y007140D01*
X035283Y007140D02*
X035583Y007590D01*
X035633Y010840D02*
X035333Y011290D01*
X035173Y011215D02*
X035173Y011065D01*
X035098Y010990D01*
X034872Y010990D01*
X034872Y010840D02*
X034872Y011290D01*
X035098Y011290D01*
X035173Y011215D01*
X035023Y010990D02*
X035173Y010840D01*
X035333Y010840D02*
X035633Y011290D01*
X035793Y011290D02*
X036018Y011290D01*
X036094Y011215D01*
X036094Y010915D01*
X036018Y010840D01*
X035793Y010840D01*
X035793Y011290D01*
X037543Y014753D02*
X037843Y014753D01*
X037994Y014903D01*
X037843Y015053D01*
X037543Y015053D01*
X037543Y015213D02*
X037543Y015438D01*
X037618Y015513D01*
X037918Y015513D01*
X037994Y015438D01*
X037994Y015213D01*
X037543Y015213D01*
X037543Y015673D02*
X037543Y015898D01*
X037618Y015974D01*
X037918Y015974D01*
X037994Y015898D01*
X037994Y015673D01*
X037543Y015673D01*
X041425Y016288D02*
X041500Y016213D01*
X041800Y016213D01*
X041875Y016288D01*
X041875Y016438D01*
X041800Y016513D01*
X041650Y016513D01*
X041650Y016363D01*
X041500Y016513D02*
X041425Y016438D01*
X041425Y016288D01*
X041425Y016673D02*
X041875Y016974D01*
X041425Y016974D01*
X041425Y017134D02*
X041425Y017359D01*
X041500Y017434D01*
X041800Y017434D01*
X041875Y017359D01*
X041875Y017134D01*
X041425Y017134D01*
X041425Y016673D02*
X041875Y016673D01*
X041972Y018790D02*
X041972Y019015D01*
X041897Y019090D01*
X041747Y019090D01*
X041672Y019015D01*
X041672Y018790D01*
X042122Y018790D01*
X042122Y019250D02*
X041972Y019400D01*
X042122Y019551D01*
X041672Y019551D01*
X041672Y019711D02*
X041672Y019936D01*
X041747Y020011D01*
X041897Y020011D01*
X041972Y019936D01*
X041972Y019711D01*
X041972Y019861D02*
X042122Y020011D01*
X042122Y019711D02*
X041672Y019711D01*
X041672Y019250D02*
X042122Y019250D01*
X045497Y016665D02*
X045497Y024115D01*
X050447Y024115D01*
X050447Y016665D01*
X045497Y016665D01*
X038994Y022265D02*
X038994Y022565D01*
X038918Y022640D01*
X038768Y022640D01*
X038693Y022565D01*
X038693Y022265D01*
X038768Y022190D01*
X038918Y022190D01*
X038994Y022265D01*
X038533Y022265D02*
X038533Y022565D01*
X038458Y022640D01*
X038233Y022640D01*
X038233Y022190D01*
X038458Y022190D01*
X038533Y022265D01*
X038073Y022190D02*
X038073Y022640D01*
X037772Y022640D02*
X037772Y022190D01*
X037923Y022340D01*
X038073Y022190D01*
X048883Y026025D02*
X052112Y026025D01*
X052112Y041773D01*
X048883Y041773D01*
X048883Y026025D01*
X044622Y040477D02*
X044622Y040665D01*
X044935Y040665D01*
X044622Y040665D02*
X044372Y040477D01*
X044372Y040665D01*
X044060Y040665D01*
X044372Y040665D02*
X044372Y040852D01*
X044622Y040665D01*
X044622Y040852D01*
X047824Y042301D02*
X047824Y045490D01*
X024202Y045490D01*
X024202Y042301D01*
X047824Y042301D01*
X040935Y040665D02*
X040622Y040665D01*
X040622Y040477D01*
X040622Y040665D02*
X040372Y040852D01*
X040372Y040665D01*
X040060Y040665D01*
X040372Y040665D02*
X040372Y040477D01*
X040622Y040665D01*
X040622Y040852D01*
X036935Y040665D02*
X036622Y040665D01*
X036622Y040477D01*
X036622Y040665D02*
X036372Y040852D01*
X036372Y040665D01*
X036060Y040665D01*
X036372Y040665D02*
X036372Y040477D01*
X036622Y040665D01*
X036622Y040852D01*
X032935Y040665D02*
X032622Y040665D01*
X032622Y040477D01*
X032622Y040665D02*
X032372Y040477D01*
X032372Y040665D01*
X032060Y040665D01*
X032372Y040665D02*
X032372Y040852D01*
X032622Y040665D01*
X032622Y040852D01*
X028935Y040665D02*
X028622Y040665D01*
X028622Y040477D01*
X028622Y040665D02*
X028372Y040852D01*
X028372Y040665D01*
X028060Y040665D01*
X028372Y040665D02*
X028372Y040477D01*
X028622Y040665D01*
X028622Y040852D01*
X024935Y040665D02*
X024622Y040665D01*
X024622Y040477D01*
X024622Y040665D02*
X024372Y040477D01*
X024372Y040665D01*
X024060Y040665D01*
X024372Y040665D02*
X024372Y040852D01*
X024622Y040665D01*
X024622Y040852D01*
X023903Y042301D02*
X023903Y045529D01*
X012092Y045529D01*
X012092Y042301D01*
X023903Y042301D01*
X012122Y032695D02*
X012047Y032770D01*
X011747Y032770D01*
X011672Y032695D01*
X011672Y032545D01*
X011747Y032470D01*
X012047Y032470D01*
X012122Y032545D01*
X012122Y032695D01*
X012047Y032309D02*
X012122Y032234D01*
X012122Y032084D01*
X012047Y032009D01*
X011897Y032084D02*
X011897Y032234D01*
X011972Y032309D01*
X012047Y032309D01*
X011897Y032084D02*
X011822Y032009D01*
X011747Y032009D01*
X011672Y032084D01*
X011672Y032234D01*
X011747Y032309D01*
X011672Y031852D02*
X011672Y031702D01*
X011672Y031777D02*
X012122Y031777D01*
X012122Y031702D02*
X012122Y031852D01*
X012047Y031082D02*
X012122Y031007D01*
X012122Y030857D01*
X012047Y030782D01*
X011747Y030782D01*
X011672Y030857D01*
X011672Y031007D01*
X011747Y031082D01*
X011747Y030621D02*
X011672Y030546D01*
X011672Y030321D01*
X012122Y030321D01*
X012122Y030546D01*
X012047Y030621D01*
X011747Y030621D01*
X011672Y030161D02*
X012122Y029861D01*
X012047Y029701D02*
X012122Y029626D01*
X012122Y029475D01*
X012047Y029400D01*
X011747Y029400D01*
X011672Y029475D01*
X011672Y029626D01*
X011747Y029701D01*
X011747Y029240D02*
X011672Y029165D01*
X011672Y028940D01*
X012122Y028940D01*
X012122Y029165D01*
X012047Y029240D01*
X011747Y029240D01*
X008572Y026607D02*
X008572Y026457D01*
X008497Y026382D01*
X008197Y026682D01*
X008497Y026682D01*
X008572Y026607D01*
X008497Y026382D02*
X008197Y026382D01*
X008122Y026457D01*
X008122Y026607D01*
X008197Y026682D01*
X008572Y026221D02*
X008572Y025921D01*
X008122Y025921D01*
X008122Y025761D02*
X008572Y025761D01*
X008122Y025461D01*
X008572Y025461D01*
X008572Y025301D02*
X008272Y025301D01*
X008122Y025150D01*
X008272Y025000D01*
X008572Y025000D01*
X008497Y024840D02*
X008572Y024765D01*
X008572Y024615D01*
X008497Y024540D01*
X008197Y024540D01*
X008122Y024615D01*
X008122Y024765D01*
X008197Y024840D01*
X008347Y025000D02*
X008347Y025301D01*
X008472Y022780D02*
X008922Y022780D01*
X008472Y022480D01*
X008922Y022480D01*
X008847Y022319D02*
X008547Y022319D01*
X008472Y022244D01*
X008472Y022094D01*
X008547Y022019D01*
X008847Y022019D01*
X008922Y022094D01*
X008922Y022244D01*
X008847Y022319D01*
X008472Y021859D02*
X008922Y021559D01*
X008697Y021249D02*
X008697Y021098D01*
X008472Y021098D02*
X008472Y021399D01*
X008472Y021098D02*
X008922Y021098D01*
X008697Y020788D02*
X008697Y020638D01*
X008547Y020478D02*
X008472Y020403D01*
X008472Y020253D01*
X008547Y020178D01*
X008847Y020178D01*
X008922Y020253D01*
X008922Y020403D01*
X008847Y020478D01*
X008547Y020478D01*
X008472Y020638D02*
X008472Y020938D01*
X008472Y020638D02*
X008922Y020638D01*
X008172Y020607D02*
X008172Y020757D01*
X008097Y020832D01*
X007797Y020832D01*
X008097Y020532D01*
X008172Y020607D01*
X008097Y020532D02*
X007797Y020532D01*
X007722Y020607D01*
X007722Y020757D01*
X007797Y020832D01*
X007722Y020371D02*
X008172Y020371D01*
X007947Y020371D02*
X007947Y020071D01*
X008172Y020071D02*
X007722Y020071D01*
X007722Y019911D02*
X008172Y019911D01*
X007722Y019611D01*
X008172Y019611D01*
X008172Y019451D02*
X007872Y019451D01*
X007722Y019300D01*
X007872Y019150D01*
X008172Y019150D01*
X008097Y018990D02*
X008172Y018915D01*
X008172Y018765D01*
X008097Y018690D01*
X007797Y018690D01*
X007722Y018765D01*
X007722Y018915D01*
X007797Y018990D01*
X007947Y019150D02*
X007947Y019451D01*
X009891Y019090D02*
X010192Y019090D01*
X010041Y019090D02*
X010041Y018640D01*
X010352Y018640D02*
X010652Y019090D01*
X010812Y019015D02*
X010887Y019090D01*
X011037Y019090D01*
X011112Y019015D01*
X010812Y018715D01*
X010887Y018640D01*
X011037Y018640D01*
X011112Y018715D01*
X011112Y019015D01*
X010812Y019015D02*
X010812Y018715D01*
X010652Y018640D02*
X010352Y019090D01*
X014291Y018640D02*
X014291Y018190D01*
X014291Y018340D02*
X014516Y018340D01*
X014592Y018415D01*
X014592Y018565D01*
X014516Y018640D01*
X014291Y018640D01*
X014441Y018340D02*
X014592Y018190D01*
X014752Y018190D02*
X015052Y018640D01*
X015212Y018565D02*
X015287Y018640D01*
X015437Y018640D01*
X015512Y018565D01*
X015212Y018265D01*
X015287Y018190D01*
X015437Y018190D01*
X015512Y018265D01*
X015512Y018565D01*
X015212Y018565D02*
X015212Y018265D01*
X015052Y018190D02*
X014752Y018640D01*
X010622Y038690D02*
X010172Y038690D01*
X010397Y038690D02*
X010397Y038990D01*
X010172Y038990D02*
X010622Y038990D01*
X010622Y039150D02*
X010622Y039300D01*
X010622Y039225D02*
X010172Y039225D01*
X010172Y039150D02*
X010172Y039300D01*
X010247Y039457D02*
X010547Y039457D01*
X010622Y039532D01*
X010622Y039682D01*
X010547Y039758D01*
X010397Y039758D01*
X010397Y039607D01*
X010247Y039457D02*
X010172Y039532D01*
X010172Y039682D01*
X010247Y039758D01*
X010172Y039918D02*
X010622Y039918D01*
X010397Y039918D02*
X010397Y040218D01*
X010172Y040218D02*
X010622Y040218D01*
X010472Y040838D02*
X010622Y040989D01*
X010472Y041139D01*
X010172Y041139D01*
X010247Y041299D02*
X010547Y041299D01*
X010622Y041374D01*
X010622Y041524D01*
X010547Y041599D01*
X010247Y041599D01*
X010172Y041524D01*
X010172Y041374D01*
X010247Y041299D01*
X010172Y041759D02*
X010622Y041759D01*
X010622Y042059D01*
X010622Y042370D02*
X010172Y042370D01*
X010172Y042220D02*
X010172Y042520D01*
X010322Y042680D02*
X010172Y042830D01*
X010322Y042980D01*
X010622Y042980D01*
X010547Y043140D02*
X010622Y043215D01*
X010622Y043366D01*
X010547Y043441D01*
X010397Y043441D01*
X010397Y043291D01*
X010247Y043441D02*
X010172Y043366D01*
X010172Y043215D01*
X010247Y043140D01*
X010547Y043140D01*
X010397Y042980D02*
X010397Y042680D01*
X010322Y042680D02*
X010622Y042680D01*
X010622Y043601D02*
X010172Y043601D01*
X010172Y043901D01*
X010397Y043751D02*
X010397Y043601D01*
X010622Y043601D02*
X010622Y043901D01*
X008482Y045490D02*
X008482Y042301D01*
X004545Y042301D01*
X004545Y045490D01*
X008482Y045490D01*
X010172Y040838D02*
X010472Y040838D01*
X009394Y039340D02*
X009394Y039040D01*
X009243Y038890D01*
X009093Y039040D01*
X009093Y039340D01*
X008933Y039340D02*
X008633Y039340D01*
X008633Y039115D01*
X008783Y039190D01*
X008858Y039190D01*
X008933Y039115D01*
X008933Y038965D01*
X008858Y038890D01*
X008708Y038890D01*
X008633Y038965D01*
X008579Y039090D02*
X008522Y039147D01*
X008473Y039115D02*
X008172Y039115D01*
X008323Y039265D02*
X008323Y038965D01*
X008579Y039090D02*
X008693Y039090D01*
X008749Y039147D01*
X008749Y039203D01*
X008693Y039260D01*
X008636Y039260D01*
X008693Y039260D02*
X008749Y039317D01*
X008749Y039374D01*
X008693Y039430D01*
X008579Y039430D01*
X008522Y039374D01*
X007883Y039340D02*
X007883Y039040D01*
X007733Y038890D01*
X007583Y039040D01*
X007583Y039340D01*
X007522Y039374D02*
X007579Y039430D01*
X007693Y039430D01*
X007749Y039374D01*
X007749Y039317D01*
X007522Y039090D01*
X007749Y039090D01*
X007423Y038965D02*
X007348Y038890D01*
X007198Y038890D01*
X007122Y038965D01*
X007423Y039265D01*
X007423Y038965D01*
X007423Y039265D02*
X007348Y039340D01*
X007198Y039340D01*
X007122Y039265D01*
X007122Y038965D01*
X006744Y039040D02*
X006744Y039340D01*
X006636Y039430D02*
X006636Y039090D01*
X006749Y039090D02*
X006522Y039090D01*
X006443Y039040D02*
X006593Y038890D01*
X006744Y039040D01*
X006443Y039040D02*
X006443Y039340D01*
X006522Y039317D02*
X006636Y039430D01*
X006283Y039340D02*
X005983Y039340D01*
X005983Y039115D01*
X006133Y039190D01*
X006208Y039190D01*
X006283Y039115D01*
X006283Y038965D01*
X006208Y038890D01*
X006058Y038890D01*
X005983Y038965D01*
X005823Y039115D02*
X005522Y039115D01*
X045122Y004540D02*
X045348Y004540D01*
X045423Y004465D01*
X045423Y004165D01*
X045348Y004090D01*
X045122Y004090D01*
X045122Y004540D01*
X045583Y004315D02*
X045883Y004315D01*
X045433Y003315D02*
X045433Y003015D01*
X045283Y003165D02*
X045583Y003165D01*
X045123Y003015D02*
X045123Y003315D01*
X045048Y003390D01*
X044822Y003390D01*
X044822Y002940D01*
X045048Y002940D01*
X045123Y003015D01*
D11*
X046378Y004895D02*
X047914Y004895D01*
X046378Y004895D02*
X046378Y009620D01*
X047914Y009620D01*
X049567Y009620D02*
X051063Y009620D01*
X050497Y012015D02*
X034497Y012015D01*
X034147Y011665D01*
X034147Y001415D01*
X033397Y001415D01*
X033397Y011965D01*
X034247Y012815D01*
X050497Y012815D01*
X050497Y012015D01*
X050497Y012079D02*
X033512Y012079D01*
X033590Y012158D02*
X050497Y012158D01*
X050497Y012236D02*
X033669Y012236D01*
X033747Y012315D02*
X050497Y012315D01*
X050497Y012393D02*
X033826Y012393D01*
X033904Y012472D02*
X050497Y012472D01*
X050497Y012550D02*
X033983Y012550D01*
X034061Y012629D02*
X050497Y012629D01*
X050497Y012707D02*
X034140Y012707D01*
X034218Y012786D02*
X050497Y012786D01*
X051063Y004895D02*
X049567Y004895D01*
X040713Y006276D02*
X040713Y002260D01*
X038666Y002260D01*
X038666Y006276D01*
X040713Y006276D01*
X034405Y011922D02*
X033397Y011922D01*
X033397Y011844D02*
X034326Y011844D01*
X034248Y011765D02*
X033397Y011765D01*
X033397Y011687D02*
X034169Y011687D01*
X034147Y011608D02*
X033397Y011608D01*
X033397Y011530D02*
X034147Y011530D01*
X034147Y011451D02*
X033397Y011451D01*
X033397Y011373D02*
X034147Y011373D01*
X034147Y011294D02*
X033397Y011294D01*
X033397Y011216D02*
X034147Y011216D01*
X034147Y011137D02*
X033397Y011137D01*
X033397Y011059D02*
X034147Y011059D01*
X034147Y010980D02*
X033397Y010980D01*
X033397Y010902D02*
X034147Y010902D01*
X034147Y010823D02*
X033397Y010823D01*
X033397Y010745D02*
X034147Y010745D01*
X034147Y010666D02*
X033397Y010666D01*
X033397Y010588D02*
X034147Y010588D01*
X034147Y010509D02*
X033397Y010509D01*
X033397Y010431D02*
X034147Y010431D01*
X034147Y010352D02*
X033397Y010352D01*
X033397Y010274D02*
X034147Y010274D01*
X034147Y010195D02*
X033397Y010195D01*
X033397Y010117D02*
X034147Y010117D01*
X034147Y010038D02*
X033397Y010038D01*
X033397Y009960D02*
X034147Y009960D01*
X034147Y009881D02*
X033397Y009881D01*
X033397Y009803D02*
X034147Y009803D01*
X034147Y009724D02*
X033397Y009724D01*
X033397Y009646D02*
X034147Y009646D01*
X034147Y009567D02*
X033397Y009567D01*
X033397Y009489D02*
X034147Y009489D01*
X034147Y009410D02*
X033397Y009410D01*
X033397Y009332D02*
X034147Y009332D01*
X034147Y009253D02*
X033397Y009253D01*
X033397Y009175D02*
X034147Y009175D01*
X034147Y009096D02*
X033397Y009096D01*
X033397Y009018D02*
X034147Y009018D01*
X034147Y008939D02*
X033397Y008939D01*
X033397Y008861D02*
X034147Y008861D01*
X034147Y008782D02*
X033397Y008782D01*
X033397Y008704D02*
X034147Y008704D01*
X034147Y008625D02*
X033397Y008625D01*
X033397Y008547D02*
X034147Y008547D01*
X034147Y008468D02*
X033397Y008468D01*
X033397Y008390D02*
X034147Y008390D01*
X034147Y008311D02*
X033397Y008311D01*
X033397Y008233D02*
X034147Y008233D01*
X034147Y008154D02*
X033397Y008154D01*
X033397Y008076D02*
X034147Y008076D01*
X034147Y007997D02*
X033397Y007997D01*
X033397Y007919D02*
X034147Y007919D01*
X034147Y007840D02*
X033397Y007840D01*
X033397Y007762D02*
X034147Y007762D01*
X034147Y007683D02*
X033397Y007683D01*
X033397Y007605D02*
X034147Y007605D01*
X034147Y007526D02*
X033397Y007526D01*
X033397Y007448D02*
X034147Y007448D01*
X034147Y007369D02*
X033397Y007369D01*
X033397Y007291D02*
X034147Y007291D01*
X034147Y007212D02*
X033397Y007212D01*
X033397Y007134D02*
X034147Y007134D01*
X034147Y007055D02*
X033397Y007055D01*
X033397Y006977D02*
X034147Y006977D01*
X034147Y006898D02*
X033397Y006898D01*
X033397Y006820D02*
X034147Y006820D01*
X034147Y006741D02*
X033397Y006741D01*
X033397Y006663D02*
X034147Y006663D01*
X034147Y006584D02*
X033397Y006584D01*
X033397Y006506D02*
X034147Y006506D01*
X034147Y006427D02*
X033397Y006427D01*
X033397Y006349D02*
X034147Y006349D01*
X034147Y006270D02*
X033397Y006270D01*
X033397Y006192D02*
X034147Y006192D01*
X034147Y006113D02*
X033397Y006113D01*
X033397Y006035D02*
X034147Y006035D01*
X034147Y005956D02*
X033397Y005956D01*
X033397Y005878D02*
X034147Y005878D01*
X034147Y005799D02*
X033397Y005799D01*
X033397Y005721D02*
X034147Y005721D01*
X034147Y005642D02*
X033397Y005642D01*
X033397Y005564D02*
X034147Y005564D01*
X034147Y005485D02*
X033397Y005485D01*
X033397Y005407D02*
X034147Y005407D01*
X034147Y005328D02*
X033397Y005328D01*
X033397Y005250D02*
X034147Y005250D01*
X034147Y005171D02*
X033397Y005171D01*
X033397Y005093D02*
X034147Y005093D01*
X034147Y005014D02*
X033397Y005014D01*
X033397Y004936D02*
X034147Y004936D01*
X034147Y004857D02*
X033397Y004857D01*
X033397Y004779D02*
X034147Y004779D01*
X034147Y004700D02*
X033397Y004700D01*
X033397Y004622D02*
X034147Y004622D01*
X034147Y004543D02*
X033397Y004543D01*
X033397Y004465D02*
X034147Y004465D01*
X034147Y004386D02*
X033397Y004386D01*
X033397Y004308D02*
X034147Y004308D01*
X034147Y004229D02*
X033397Y004229D01*
X033397Y004151D02*
X034147Y004151D01*
X034147Y004072D02*
X033397Y004072D01*
X033397Y003994D02*
X034147Y003994D01*
X034147Y003915D02*
X033397Y003915D01*
X033397Y003837D02*
X034147Y003837D01*
X034147Y003758D02*
X033397Y003758D01*
X033397Y003680D02*
X034147Y003680D01*
X034147Y003601D02*
X033397Y003601D01*
X033397Y003523D02*
X034147Y003523D01*
X034147Y003444D02*
X033397Y003444D01*
X033397Y003366D02*
X034147Y003366D01*
X034147Y003287D02*
X033397Y003287D01*
X033397Y003209D02*
X034147Y003209D01*
X034147Y003130D02*
X033397Y003130D01*
X033397Y003052D02*
X034147Y003052D01*
X034147Y002973D02*
X033397Y002973D01*
X033397Y002895D02*
X034147Y002895D01*
X034147Y002816D02*
X033397Y002816D01*
X033397Y002738D02*
X034147Y002738D01*
X034147Y002659D02*
X033397Y002659D01*
X033397Y002581D02*
X034147Y002581D01*
X034147Y002502D02*
X033397Y002502D01*
X033397Y002424D02*
X034147Y002424D01*
X034147Y002345D02*
X033397Y002345D01*
X033397Y002267D02*
X034147Y002267D01*
X034147Y002188D02*
X033397Y002188D01*
X033397Y002110D02*
X034147Y002110D01*
X034147Y002031D02*
X033397Y002031D01*
X033397Y001953D02*
X034147Y001953D01*
X034147Y001874D02*
X033397Y001874D01*
X033397Y001796D02*
X034147Y001796D01*
X034147Y001717D02*
X033397Y001717D01*
X033397Y001639D02*
X034147Y001639D01*
X034147Y001560D02*
X033397Y001560D01*
X033397Y001482D02*
X034147Y001482D01*
X034483Y012001D02*
X033433Y012001D01*
X031562Y018269D02*
X031326Y018269D01*
X031562Y018269D02*
X031562Y022757D01*
X031326Y022757D01*
X029909Y022757D02*
X029673Y022757D01*
X029673Y018269D01*
X029909Y018269D01*
X026448Y015584D02*
X018799Y015584D01*
X018799Y023229D01*
X026448Y023229D01*
X026448Y015584D01*
X036830Y023455D02*
X036832Y023470D01*
X036838Y023483D01*
X036847Y023495D01*
X036858Y023504D01*
X036872Y023510D01*
X036887Y023512D01*
X036902Y023510D01*
X036915Y023504D01*
X036927Y023495D01*
X036936Y023484D01*
X036942Y023470D01*
X036944Y023455D01*
X036942Y023440D01*
X036936Y023427D01*
X036927Y023415D01*
X036916Y023406D01*
X036902Y023400D01*
X036887Y023398D01*
X036872Y023400D01*
X036859Y023406D01*
X036847Y023415D01*
X036838Y023426D01*
X036832Y023440D01*
X036830Y023455D01*
X041830Y023455D02*
X041832Y023470D01*
X041838Y023483D01*
X041847Y023495D01*
X041858Y023504D01*
X041872Y023510D01*
X041887Y023512D01*
X041902Y023510D01*
X041915Y023504D01*
X041927Y023495D01*
X041936Y023484D01*
X041942Y023470D01*
X041944Y023455D01*
X041942Y023440D01*
X041936Y023427D01*
X041927Y023415D01*
X041916Y023406D01*
X041902Y023400D01*
X041887Y023398D01*
X041872Y023400D01*
X041859Y023406D01*
X041847Y023415D01*
X041838Y023426D01*
X041832Y023440D01*
X041830Y023455D01*
X043946Y028614D02*
X043946Y029716D01*
X045049Y029716D01*
X045049Y028614D01*
X043946Y028614D01*
X044183Y028732D02*
X044183Y028968D01*
X044163Y028966D01*
X044143Y028961D01*
X044124Y028952D01*
X044107Y028940D01*
X044093Y028926D01*
X044081Y028909D01*
X044072Y028890D01*
X044067Y028870D01*
X044065Y028850D01*
X044067Y028830D01*
X044072Y028810D01*
X044081Y028791D01*
X044093Y028774D01*
X044107Y028760D01*
X044124Y028748D01*
X044143Y028739D01*
X044163Y028734D01*
X044183Y028732D01*
X035698Y028293D02*
X034419Y028293D01*
X034419Y030261D01*
X035698Y030261D01*
X035698Y028293D01*
X035364Y028489D02*
X035366Y028508D01*
X035371Y028527D01*
X035381Y028543D01*
X035393Y028558D01*
X035408Y028570D01*
X035424Y028580D01*
X035443Y028585D01*
X035462Y028587D01*
X035481Y028585D01*
X035500Y028580D01*
X035516Y028570D01*
X035531Y028558D01*
X035543Y028543D01*
X035553Y028527D01*
X035558Y028508D01*
X035560Y028489D01*
X035558Y028470D01*
X035553Y028451D01*
X035543Y028435D01*
X035531Y028420D01*
X035516Y028408D01*
X035500Y028398D01*
X035481Y028393D01*
X035462Y028391D01*
X035443Y028393D01*
X035424Y028398D01*
X035408Y028408D01*
X035393Y028420D01*
X035381Y028435D01*
X035371Y028451D01*
X035366Y028470D01*
X035364Y028489D01*
X029805Y028299D02*
X028525Y028299D01*
X028525Y030267D01*
X029805Y030267D01*
X029805Y028299D01*
X029470Y028496D02*
X029472Y028515D01*
X029477Y028534D01*
X029487Y028550D01*
X029499Y028565D01*
X029514Y028577D01*
X029530Y028587D01*
X029549Y028592D01*
X029568Y028594D01*
X029587Y028592D01*
X029606Y028587D01*
X029622Y028577D01*
X029637Y028565D01*
X029649Y028550D01*
X029659Y028534D01*
X029664Y028515D01*
X029666Y028496D01*
X029664Y028477D01*
X029659Y028458D01*
X029649Y028442D01*
X029637Y028427D01*
X029622Y028415D01*
X029606Y028405D01*
X029587Y028400D01*
X029568Y028398D01*
X029549Y028400D01*
X029530Y028405D01*
X029514Y028415D01*
X029499Y028427D01*
X029487Y028442D01*
X029477Y028458D01*
X029472Y028477D01*
X029470Y028496D01*
X020049Y039364D02*
X018946Y039364D01*
X018946Y040466D01*
X020049Y040466D01*
X020049Y039364D01*
X019301Y040230D02*
X019064Y040230D01*
X019065Y040230D02*
X019067Y040250D01*
X019072Y040270D01*
X019081Y040289D01*
X019093Y040306D01*
X019107Y040320D01*
X019124Y040332D01*
X019143Y040341D01*
X019163Y040346D01*
X019183Y040348D01*
X019203Y040346D01*
X019223Y040341D01*
X019242Y040332D01*
X019259Y040320D01*
X019273Y040306D01*
X019285Y040289D01*
X019294Y040270D01*
X019299Y040250D01*
X019301Y040230D01*
X011647Y040261D02*
X010947Y040261D01*
X010947Y040339D02*
X011647Y040339D01*
X011647Y040418D02*
X010947Y040418D01*
X010947Y040496D02*
X011647Y040496D01*
X011647Y040575D02*
X010947Y040575D01*
X010947Y040653D02*
X011647Y040653D01*
X011647Y040732D02*
X010947Y040732D01*
X010947Y040810D02*
X011647Y040810D01*
X011647Y040889D02*
X010947Y040889D01*
X010947Y040967D02*
X011647Y040967D01*
X011647Y041046D02*
X010947Y041046D01*
X010947Y041124D02*
X011647Y041124D01*
X011647Y041203D02*
X010947Y041203D01*
X010947Y041281D02*
X011647Y041281D01*
X011647Y041360D02*
X010947Y041360D01*
X010947Y041438D02*
X011647Y041438D01*
X011647Y041517D02*
X010947Y041517D01*
X010947Y041595D02*
X011647Y041595D01*
X011647Y041674D02*
X010947Y041674D01*
X010947Y041752D02*
X011647Y041752D01*
X011647Y041831D02*
X010947Y041831D01*
X010947Y041909D02*
X011647Y041909D01*
X011647Y041988D02*
X010947Y041988D01*
X010947Y042066D02*
X011647Y042066D01*
X011647Y042145D02*
X010947Y042145D01*
X010947Y042223D02*
X011647Y042223D01*
X011647Y042302D02*
X010947Y042302D01*
X010947Y042380D02*
X011647Y042380D01*
X011647Y042459D02*
X010947Y042459D01*
X010947Y042537D02*
X011647Y042537D01*
X011647Y042616D02*
X010947Y042616D01*
X010947Y042694D02*
X011647Y042694D01*
X011647Y042773D02*
X010947Y042773D01*
X010947Y042851D02*
X011647Y042851D01*
X011647Y042930D02*
X010947Y042930D01*
X010947Y043008D02*
X011647Y043008D01*
X011647Y043087D02*
X010947Y043087D01*
X010947Y043165D02*
X011647Y043165D01*
X011647Y043244D02*
X010947Y043244D01*
X010947Y043322D02*
X011647Y043322D01*
X011647Y043401D02*
X010947Y043401D01*
X010947Y043479D02*
X011647Y043479D01*
X011647Y043558D02*
X010947Y043558D01*
X010947Y043636D02*
X011647Y043636D01*
X011647Y043715D02*
X010947Y043715D01*
X010947Y043793D02*
X011647Y043793D01*
X011647Y043865D02*
X011647Y036015D01*
X010447Y034315D01*
X002397Y034315D01*
X002497Y035015D01*
X010061Y035015D01*
X010947Y036402D01*
X010947Y043865D01*
X011647Y043865D01*
X011647Y040182D02*
X010947Y040182D01*
X010947Y040104D02*
X011647Y040104D01*
X011647Y040025D02*
X010947Y040025D01*
X010947Y039947D02*
X011647Y039947D01*
X011647Y039868D02*
X010947Y039868D01*
X010947Y039790D02*
X011647Y039790D01*
X011647Y039711D02*
X010947Y039711D01*
X010947Y039633D02*
X011647Y039633D01*
X011647Y039554D02*
X010947Y039554D01*
X010947Y039476D02*
X011647Y039476D01*
X011647Y039397D02*
X010947Y039397D01*
X010947Y039319D02*
X011647Y039319D01*
X011647Y039240D02*
X010947Y039240D01*
X010947Y039162D02*
X011647Y039162D01*
X011647Y039083D02*
X010947Y039083D01*
X010947Y039005D02*
X011647Y039005D01*
X011647Y038926D02*
X010947Y038926D01*
X010947Y038848D02*
X011647Y038848D01*
X011647Y038769D02*
X010947Y038769D01*
X010947Y038691D02*
X011647Y038691D01*
X011647Y038612D02*
X010947Y038612D01*
X010947Y038534D02*
X011647Y038534D01*
X011647Y038455D02*
X010947Y038455D01*
X010947Y038377D02*
X011647Y038377D01*
X011647Y038298D02*
X010947Y038298D01*
X010947Y038220D02*
X011647Y038220D01*
X011647Y038141D02*
X010947Y038141D01*
X010947Y038063D02*
X011647Y038063D01*
X011647Y037984D02*
X010947Y037984D01*
X010947Y037906D02*
X011647Y037906D01*
X011647Y037827D02*
X010947Y037827D01*
X010947Y037749D02*
X011647Y037749D01*
X011647Y037670D02*
X010947Y037670D01*
X010947Y037592D02*
X011647Y037592D01*
X011647Y037513D02*
X010947Y037513D01*
X010947Y037435D02*
X011647Y037435D01*
X011647Y037356D02*
X010947Y037356D01*
X010947Y037278D02*
X011647Y037278D01*
X011647Y037199D02*
X010947Y037199D01*
X010947Y037121D02*
X011647Y037121D01*
X011647Y037042D02*
X010947Y037042D01*
X010947Y036964D02*
X011647Y036964D01*
X011647Y036885D02*
X010947Y036885D01*
X010947Y036807D02*
X011647Y036807D01*
X011647Y036728D02*
X010947Y036728D01*
X010947Y036650D02*
X011647Y036650D01*
X011647Y036571D02*
X010947Y036571D01*
X010947Y036493D02*
X011647Y036493D01*
X011647Y036414D02*
X010947Y036414D01*
X010905Y036336D02*
X011647Y036336D01*
X011647Y036257D02*
X010855Y036257D01*
X010805Y036179D02*
X011647Y036179D01*
X011647Y036100D02*
X010755Y036100D01*
X010705Y036022D02*
X011647Y036022D01*
X011597Y035943D02*
X010654Y035943D01*
X010604Y035865D02*
X011541Y035865D01*
X011486Y035786D02*
X010554Y035786D01*
X010504Y035708D02*
X011431Y035708D01*
X011375Y035629D02*
X010454Y035629D01*
X010404Y035551D02*
X011320Y035551D01*
X011264Y035472D02*
X010353Y035472D01*
X010303Y035394D02*
X011209Y035394D01*
X011154Y035315D02*
X010253Y035315D01*
X010203Y035237D02*
X011098Y035237D01*
X011043Y035158D02*
X010153Y035158D01*
X010102Y035080D02*
X010987Y035080D01*
X010932Y035001D02*
X002496Y035001D01*
X002484Y034923D02*
X010877Y034923D01*
X010821Y034844D02*
X002473Y034844D01*
X002462Y034766D02*
X010766Y034766D01*
X010710Y034687D02*
X002451Y034687D01*
X002439Y034609D02*
X010655Y034609D01*
X010599Y034530D02*
X002428Y034530D01*
X002417Y034452D02*
X010544Y034452D01*
X010489Y034373D02*
X002406Y034373D01*
X000140Y029146D02*
X007463Y029146D01*
X007463Y023731D01*
X000140Y023731D01*
X000140Y029146D01*
X000140Y022646D02*
X007463Y022646D01*
X007463Y017231D01*
X000140Y017231D01*
X000140Y022646D01*
X000140Y016146D02*
X007463Y016146D01*
X007463Y010731D01*
X000140Y010731D01*
X000140Y016146D01*
X000140Y009646D02*
X007463Y009646D01*
X007463Y004231D01*
X000140Y004231D01*
X000140Y009646D01*
X010234Y010179D02*
X010234Y010474D01*
X011809Y010474D01*
X011809Y010179D01*
X011357Y012268D02*
X011359Y012283D01*
X011365Y012296D01*
X011374Y012308D01*
X011385Y012317D01*
X011399Y012323D01*
X011414Y012325D01*
X011429Y012323D01*
X011442Y012317D01*
X011454Y012308D01*
X011463Y012297D01*
X011469Y012283D01*
X011471Y012268D01*
X011469Y012253D01*
X011463Y012240D01*
X011454Y012228D01*
X011443Y012219D01*
X011429Y012213D01*
X011414Y012211D01*
X011399Y012213D01*
X011386Y012219D01*
X011374Y012228D01*
X011365Y012239D01*
X011359Y012253D01*
X011357Y012268D01*
X011456Y016461D02*
X011458Y016476D01*
X011464Y016489D01*
X011473Y016501D01*
X011484Y016510D01*
X011498Y016516D01*
X011513Y016518D01*
X011528Y016516D01*
X011541Y016510D01*
X011553Y016501D01*
X011562Y016490D01*
X011568Y016476D01*
X011570Y016461D01*
X011568Y016446D01*
X011562Y016433D01*
X011553Y016421D01*
X011542Y016412D01*
X011528Y016406D01*
X011513Y016404D01*
X011498Y016406D01*
X011485Y016412D01*
X011473Y016421D01*
X011464Y016432D01*
X011458Y016446D01*
X011456Y016461D01*
X011911Y019750D02*
X010336Y019750D01*
X010336Y020045D01*
X011911Y020045D02*
X011911Y019750D01*
X011223Y022921D02*
X011225Y022945D01*
X011231Y022969D01*
X011240Y022991D01*
X011253Y023011D01*
X011269Y023029D01*
X011288Y023044D01*
X011309Y023057D01*
X011331Y023065D01*
X011355Y023070D01*
X011379Y023071D01*
X011403Y023068D01*
X011426Y023061D01*
X011448Y023051D01*
X011468Y023037D01*
X011485Y023020D01*
X011500Y023001D01*
X011511Y022980D01*
X011519Y022957D01*
X011523Y022933D01*
X011523Y022909D01*
X011519Y022885D01*
X011511Y022862D01*
X011500Y022841D01*
X011485Y022822D01*
X011468Y022805D01*
X011448Y022791D01*
X011426Y022781D01*
X011403Y022774D01*
X011379Y022771D01*
X011355Y022772D01*
X011331Y022777D01*
X011309Y022785D01*
X011288Y022798D01*
X011269Y022813D01*
X011253Y022831D01*
X011240Y022851D01*
X011231Y022873D01*
X011225Y022897D01*
X011223Y022921D01*
X011911Y022998D02*
X011911Y023293D01*
X010336Y023293D01*
X010336Y022998D01*
X010621Y007302D02*
X010623Y007326D01*
X010629Y007350D01*
X010638Y007372D01*
X010651Y007392D01*
X010667Y007410D01*
X010686Y007425D01*
X010707Y007438D01*
X010729Y007446D01*
X010753Y007451D01*
X010777Y007452D01*
X010801Y007449D01*
X010824Y007442D01*
X010846Y007432D01*
X010866Y007418D01*
X010883Y007401D01*
X010898Y007382D01*
X010909Y007361D01*
X010917Y007338D01*
X010921Y007314D01*
X010921Y007290D01*
X010917Y007266D01*
X010909Y007243D01*
X010898Y007222D01*
X010883Y007203D01*
X010866Y007186D01*
X010846Y007172D01*
X010824Y007162D01*
X010801Y007155D01*
X010777Y007152D01*
X010753Y007153D01*
X010729Y007158D01*
X010707Y007166D01*
X010686Y007179D01*
X010667Y007194D01*
X010651Y007212D01*
X010638Y007232D01*
X010629Y007254D01*
X010623Y007278D01*
X010621Y007302D01*
X010234Y007226D02*
X010234Y006931D01*
X011809Y006931D01*
X011809Y007226D01*
D12*
X017247Y010065D02*
X017247Y010765D01*
X017397Y010915D01*
X017247Y011065D01*
X017247Y011765D01*
X017397Y011915D01*
X017247Y012065D01*
X017247Y012765D01*
X017397Y012915D01*
X019097Y012915D01*
X019247Y012765D01*
X019247Y012065D01*
X019097Y011915D01*
X019247Y011765D01*
X019247Y011065D01*
X019097Y010915D01*
X019247Y010765D01*
X019247Y010065D01*
X019097Y009915D01*
X017397Y009915D01*
X017247Y010065D01*
X017647Y007915D02*
X017497Y007765D01*
X017497Y007065D01*
X017647Y006915D01*
X017497Y006765D01*
X017497Y006065D01*
X017647Y005915D01*
X017497Y005765D01*
X017497Y005065D01*
X017647Y004915D01*
X017497Y004765D01*
X017497Y004065D01*
X017647Y003915D01*
X017497Y003765D01*
X017497Y003065D01*
X017647Y002915D01*
X019347Y002915D01*
X019497Y003065D01*
X019497Y003765D01*
X019347Y003915D01*
X019497Y004065D01*
X019497Y004765D01*
X019347Y004915D01*
X019497Y005065D01*
X019497Y005765D01*
X019347Y005915D01*
X019497Y006065D01*
X019497Y006765D01*
X019347Y006915D01*
X019497Y007065D01*
X019497Y007765D01*
X019347Y007915D01*
X017647Y007915D01*
X020918Y007056D02*
X025969Y007056D01*
X025969Y003333D01*
X020918Y003333D01*
X020918Y007056D01*
X027847Y007865D02*
X027847Y008565D01*
X027997Y008715D01*
X027847Y008865D01*
X027847Y009565D01*
X027997Y009715D01*
X027847Y009865D01*
X027847Y010565D01*
X027997Y010715D01*
X029697Y010715D01*
X029847Y010565D01*
X029847Y009865D01*
X029697Y009715D01*
X029847Y009565D01*
X029847Y008865D01*
X029697Y008715D01*
X029847Y008565D01*
X029847Y007865D01*
X029697Y007715D01*
X027997Y007715D01*
X027847Y007865D01*
X036001Y014204D02*
X036101Y014104D01*
X036901Y014104D01*
X037001Y014204D01*
X037001Y015004D01*
X036901Y015104D01*
X037001Y015204D01*
X037001Y016004D01*
X036901Y016104D01*
X036101Y016104D01*
X036001Y016004D01*
X036001Y015204D01*
X036101Y015104D01*
X036001Y015004D01*
X036001Y014204D01*
X039997Y016015D02*
X040097Y015915D01*
X040897Y015915D01*
X040997Y016015D01*
X040997Y016815D01*
X040897Y016915D01*
X040997Y017015D01*
X040997Y017815D01*
X040897Y017915D01*
X040097Y017915D01*
X039997Y017815D01*
X039997Y017015D01*
X040097Y016915D01*
X039997Y016815D01*
X039997Y016015D01*
X038015Y019802D02*
X038015Y021202D01*
X038013Y021219D01*
X038009Y021236D01*
X038002Y021252D01*
X037992Y021266D01*
X037979Y021279D01*
X037965Y021289D01*
X037949Y021296D01*
X037932Y021300D01*
X037915Y021302D01*
X037565Y021302D02*
X037465Y021302D01*
X037065Y021302D02*
X036965Y021302D01*
X036565Y021302D02*
X036465Y021302D01*
X036115Y021302D02*
X036098Y021300D01*
X036081Y021296D01*
X036065Y021289D01*
X036051Y021279D01*
X036038Y021266D01*
X036028Y021252D01*
X036021Y021236D01*
X036017Y021219D01*
X036015Y021202D01*
X036015Y019802D01*
X036017Y019785D01*
X036021Y019768D01*
X036028Y019752D01*
X036038Y019738D01*
X036051Y019725D01*
X036065Y019715D01*
X036081Y019708D01*
X036098Y019704D01*
X036115Y019702D01*
X036465Y019702D02*
X036565Y019702D01*
X036965Y019702D02*
X037065Y019702D01*
X037465Y019702D02*
X037565Y019702D01*
X037915Y019702D02*
X037932Y019704D01*
X037949Y019708D01*
X037965Y019715D01*
X037979Y019725D01*
X037992Y019738D01*
X038002Y019752D01*
X038009Y019768D01*
X038013Y019785D01*
X038015Y019802D01*
X036165Y020102D02*
X036167Y020126D01*
X036173Y020150D01*
X036182Y020172D01*
X036195Y020192D01*
X036211Y020210D01*
X036230Y020225D01*
X036251Y020238D01*
X036273Y020246D01*
X036297Y020251D01*
X036321Y020252D01*
X036345Y020249D01*
X036368Y020242D01*
X036390Y020232D01*
X036410Y020218D01*
X036427Y020201D01*
X036442Y020182D01*
X036453Y020161D01*
X036461Y020138D01*
X036465Y020114D01*
X036465Y020090D01*
X036461Y020066D01*
X036453Y020043D01*
X036442Y020022D01*
X036427Y020003D01*
X036410Y019986D01*
X036390Y019972D01*
X036368Y019962D01*
X036345Y019955D01*
X036321Y019952D01*
X036297Y019953D01*
X036273Y019958D01*
X036251Y019966D01*
X036230Y019979D01*
X036211Y019994D01*
X036195Y020012D01*
X036182Y020032D01*
X036173Y020054D01*
X036167Y020078D01*
X036165Y020102D01*
X035788Y023235D02*
X037207Y023235D01*
X037207Y025095D02*
X035788Y025095D01*
X038437Y027107D02*
X038437Y027722D01*
X039557Y027722D02*
X039557Y027107D01*
X040788Y025095D02*
X042207Y025095D01*
X042207Y023235D02*
X040788Y023235D01*
X046199Y027195D02*
X046313Y027195D01*
X046256Y027195D02*
X046256Y027535D01*
X046199Y027535D02*
X046313Y027535D01*
X046445Y027479D02*
X046445Y027252D01*
X046502Y027195D01*
X046615Y027195D01*
X046672Y027252D01*
X046672Y027365D01*
X046558Y027365D01*
X046445Y027479D02*
X046502Y027535D01*
X046615Y027535D01*
X046672Y027479D01*
X046813Y027535D02*
X047040Y027195D01*
X047040Y027535D01*
X047181Y027535D02*
X047295Y027535D01*
X047238Y027535D02*
X047238Y027195D01*
X047181Y027195D02*
X047295Y027195D01*
X047540Y027195D02*
X047540Y027535D01*
X047427Y027535D02*
X047654Y027535D01*
X047795Y027535D02*
X047909Y027535D01*
X047852Y027535D02*
X047852Y027195D01*
X047795Y027195D02*
X047909Y027195D01*
X048041Y027252D02*
X048098Y027195D01*
X048211Y027195D01*
X048268Y027252D01*
X048268Y027479D01*
X048211Y027535D01*
X048098Y027535D01*
X048041Y027479D01*
X048041Y027252D01*
X048409Y027195D02*
X048409Y027535D01*
X048636Y027195D01*
X048636Y027535D01*
X048636Y028695D02*
X048409Y028695D01*
X048409Y029035D01*
X048636Y029035D01*
X048523Y028865D02*
X048409Y028865D01*
X048268Y029035D02*
X048041Y029035D01*
X048154Y029035D02*
X048154Y028695D01*
X047899Y028695D02*
X047899Y028922D01*
X047786Y029035D01*
X047673Y028922D01*
X047673Y028695D01*
X047673Y028865D02*
X047899Y028865D01*
X047531Y029035D02*
X047304Y029035D01*
X047418Y029035D02*
X047418Y028695D01*
X047163Y028752D02*
X047106Y028695D01*
X046993Y028695D01*
X046936Y028752D01*
X046993Y028865D02*
X046936Y028922D01*
X046936Y028979D01*
X046993Y029035D01*
X047106Y029035D01*
X047163Y028979D01*
X047106Y028865D02*
X047163Y028808D01*
X047163Y028752D01*
X047106Y028865D02*
X046993Y028865D01*
X046794Y028638D02*
X046568Y028638D01*
X046313Y028695D02*
X046313Y029035D01*
X046426Y029035D02*
X046199Y029035D01*
X046058Y029035D02*
X046058Y028695D01*
X045831Y029035D01*
X045831Y028695D01*
X045699Y028695D02*
X045585Y028695D01*
X045642Y028695D02*
X045642Y029035D01*
X045585Y029035D02*
X045699Y029035D01*
X046813Y027535D02*
X046813Y027195D01*
X046426Y030638D02*
X046199Y030638D01*
X046058Y030695D02*
X045944Y030808D01*
X046001Y030808D02*
X045831Y030808D01*
X045831Y030695D02*
X045831Y031035D01*
X046001Y031035D01*
X046058Y030979D01*
X046058Y030865D01*
X046001Y030808D01*
X045690Y030865D02*
X045690Y030979D01*
X045633Y031035D01*
X045463Y031035D01*
X045463Y030695D01*
X045463Y030808D02*
X045633Y030808D01*
X045690Y030865D01*
X045576Y030808D02*
X045690Y030695D01*
X045321Y030695D02*
X045094Y030695D01*
X045094Y031035D01*
X045321Y031035D01*
X045208Y030865D02*
X045094Y030865D01*
X046568Y030808D02*
X046738Y030808D01*
X046794Y030865D01*
X046794Y030979D01*
X046738Y031035D01*
X046568Y031035D01*
X046568Y030695D01*
X046681Y030808D02*
X046794Y030695D01*
X046936Y030752D02*
X046993Y030695D01*
X047106Y030695D01*
X047163Y030752D01*
X047163Y030808D01*
X047106Y030865D01*
X046993Y030865D01*
X046936Y030922D01*
X046936Y030979D01*
X046993Y031035D01*
X047106Y031035D01*
X047163Y030979D01*
X047304Y031035D02*
X047531Y031035D01*
X047418Y031035D02*
X047418Y030695D01*
X047673Y030638D02*
X047899Y030638D01*
X048041Y030752D02*
X048098Y030695D01*
X048211Y030695D01*
X048268Y030752D01*
X048268Y030808D01*
X048211Y030865D01*
X048098Y030865D01*
X048041Y030922D01*
X048041Y030979D01*
X048098Y031035D01*
X048211Y031035D01*
X048268Y030979D01*
X048409Y031035D02*
X048409Y030695D01*
X048523Y030808D01*
X048636Y030695D01*
X048636Y031035D01*
X048636Y032695D02*
X048409Y032695D01*
X048409Y033035D01*
X048268Y033035D02*
X048041Y033035D01*
X048154Y033035D02*
X048154Y032695D01*
X047786Y032695D02*
X047786Y033035D01*
X047673Y033035D02*
X047899Y033035D01*
X047531Y032638D02*
X047304Y032638D01*
X047163Y032695D02*
X046936Y032695D01*
X046936Y033035D01*
X047163Y033035D01*
X047049Y032865D02*
X046936Y032865D01*
X046794Y033035D02*
X046568Y033035D01*
X046681Y033035D02*
X046681Y032695D01*
X046426Y032695D02*
X046426Y032922D01*
X046313Y033035D01*
X046199Y032922D01*
X046199Y032695D01*
X046199Y032865D02*
X046426Y032865D01*
X046058Y033035D02*
X045831Y033035D01*
X045944Y033035D02*
X045944Y032695D01*
X045690Y032752D02*
X045633Y032695D01*
X045519Y032695D01*
X045463Y032752D01*
X045519Y032865D02*
X045633Y032865D01*
X045690Y032808D01*
X045690Y032752D01*
X045519Y032865D02*
X045463Y032922D01*
X045463Y032979D01*
X045519Y033035D01*
X045633Y033035D01*
X045690Y032979D01*
X045321Y032638D02*
X045094Y032638D01*
X044953Y032752D02*
X044896Y032695D01*
X044726Y032695D01*
X044726Y033035D01*
X044896Y033035D01*
X044953Y032979D01*
X044953Y032752D01*
X044585Y032695D02*
X044585Y033035D01*
X044471Y032922D01*
X044358Y033035D01*
X044358Y032695D01*
X044226Y032695D02*
X044112Y032695D01*
X044169Y032695D02*
X044169Y033035D01*
X044112Y033035D02*
X044226Y033035D01*
X046322Y034695D02*
X046435Y034695D01*
X046379Y034695D02*
X046379Y035035D01*
X046435Y035035D02*
X046322Y035035D01*
X046568Y035035D02*
X046681Y034922D01*
X046794Y035035D01*
X046794Y034695D01*
X046936Y034695D02*
X047106Y034695D01*
X047163Y034752D01*
X047163Y034979D01*
X047106Y035035D01*
X046936Y035035D01*
X046936Y034695D01*
X046568Y034695D02*
X046568Y035035D01*
X047304Y034638D02*
X047531Y034638D01*
X047673Y034695D02*
X047673Y035035D01*
X047843Y035035D01*
X047899Y034979D01*
X047899Y034865D01*
X047843Y034808D01*
X047673Y034808D01*
X048041Y034695D02*
X048154Y034808D01*
X048268Y034695D01*
X048268Y035035D01*
X048409Y035035D02*
X048523Y034922D01*
X048636Y035035D01*
X048636Y034695D01*
X048409Y034695D02*
X048409Y035035D01*
X048041Y035035D02*
X048041Y034695D01*
X048098Y036695D02*
X048211Y036695D01*
X048268Y036752D01*
X048268Y036979D01*
X048211Y037035D01*
X048098Y037035D01*
X048041Y036979D01*
X048041Y036752D01*
X048098Y036695D01*
X047899Y036695D02*
X047899Y037035D01*
X047786Y036922D01*
X047673Y037035D01*
X047673Y036695D01*
X047531Y036638D02*
X047304Y036638D01*
X047163Y036752D02*
X047106Y036695D01*
X046993Y036695D01*
X046936Y036752D01*
X046936Y036979D01*
X046993Y037035D01*
X047106Y037035D01*
X047163Y036979D01*
X046794Y036979D02*
X046794Y036752D01*
X046738Y036695D01*
X046568Y036695D01*
X046568Y037035D01*
X046738Y037035D01*
X046794Y036979D01*
X046426Y036979D02*
X046369Y037035D01*
X046256Y037035D01*
X046199Y036979D01*
X046199Y036752D01*
X046256Y036695D01*
X046369Y036695D01*
X046426Y036752D01*
X046058Y036752D02*
X046058Y036979D01*
X046001Y037035D01*
X045831Y037035D01*
X045831Y036695D01*
X046001Y036695D01*
X046058Y036752D01*
X046687Y037355D02*
X047007Y037355D01*
X047007Y037575D01*
X047007Y038255D02*
X047007Y038475D01*
X046687Y038475D01*
X046794Y038695D02*
X046681Y038808D01*
X046738Y038808D02*
X046568Y038808D01*
X046568Y038695D02*
X046568Y039035D01*
X046738Y039035D01*
X046794Y038979D01*
X046794Y038865D01*
X046738Y038808D01*
X046936Y038752D02*
X046993Y038695D01*
X047106Y038695D01*
X047163Y038752D01*
X047163Y038808D01*
X047106Y038865D01*
X046993Y038865D01*
X046936Y038922D01*
X046936Y038979D01*
X046993Y039035D01*
X047106Y039035D01*
X047163Y038979D01*
X047304Y039035D02*
X047531Y039035D01*
X047418Y039035D02*
X047418Y038695D01*
X047673Y038638D02*
X047899Y038638D01*
X048041Y038695D02*
X048041Y039035D01*
X048211Y039035D01*
X048268Y038979D01*
X048268Y038865D01*
X048211Y038808D01*
X048041Y038808D01*
X048409Y038865D02*
X048579Y038865D01*
X048636Y038808D01*
X048636Y038752D01*
X048579Y038695D01*
X048409Y038695D01*
X048409Y039035D01*
X048579Y039035D01*
X048636Y038979D01*
X048636Y038922D01*
X048579Y038865D01*
X048636Y037035D02*
X048636Y036695D01*
X048409Y037035D01*
X048409Y036695D01*
X046426Y038638D02*
X046199Y038638D01*
X046058Y038695D02*
X045944Y038808D01*
X046001Y038808D02*
X045831Y038808D01*
X045831Y038695D02*
X045831Y039035D01*
X046001Y039035D01*
X046058Y038979D01*
X046058Y038865D01*
X046001Y038808D01*
X045690Y038865D02*
X045633Y038808D01*
X045463Y038808D01*
X045463Y038695D02*
X045463Y039035D01*
X045633Y039035D01*
X045690Y038979D01*
X045690Y038865D01*
X045576Y038808D02*
X045690Y038695D01*
X045321Y038695D02*
X045094Y038695D01*
X045094Y039035D01*
X045321Y039035D01*
X045208Y038865D02*
X045094Y038865D01*
X046127Y039395D02*
X046127Y039622D01*
X046241Y039763D02*
X046127Y039877D01*
X046467Y039877D01*
X046467Y039990D02*
X046467Y039763D01*
X046297Y039508D02*
X046297Y039395D01*
X046467Y039395D02*
X046127Y039395D01*
X047479Y040695D02*
X047423Y040752D01*
X047423Y040979D01*
X047479Y041035D01*
X047593Y041035D01*
X047649Y040979D01*
X047649Y040865D02*
X047536Y040865D01*
X047649Y040865D02*
X047649Y040752D01*
X047593Y040695D01*
X047479Y040695D01*
X047791Y040695D02*
X047791Y041035D01*
X048018Y040695D01*
X048018Y041035D01*
X048159Y041035D02*
X048329Y041035D01*
X048386Y040979D01*
X048386Y040752D01*
X048329Y040695D01*
X048159Y040695D01*
X048159Y041035D01*
X047291Y041808D02*
X047291Y042035D01*
X047291Y041808D02*
X047178Y041695D01*
X047064Y041808D01*
X047064Y042035D01*
X046866Y042035D02*
X046696Y041865D01*
X046923Y041865D01*
X046866Y041695D02*
X046866Y042035D01*
X046554Y041979D02*
X046498Y042035D01*
X046384Y042035D01*
X046327Y041979D01*
X046554Y041979D02*
X046554Y041922D01*
X046327Y041695D01*
X046554Y041695D01*
X045291Y041808D02*
X045291Y042035D01*
X045291Y041808D02*
X045178Y041695D01*
X045064Y041808D01*
X045064Y042035D01*
X044866Y042035D02*
X044696Y041865D01*
X044923Y041865D01*
X044866Y041695D02*
X044866Y042035D01*
X044554Y041979D02*
X044554Y041922D01*
X044327Y041695D01*
X044554Y041695D01*
X044554Y041979D02*
X044498Y042035D01*
X044384Y042035D01*
X044327Y041979D01*
X043559Y041979D02*
X043332Y041752D01*
X043389Y041695D01*
X043503Y041695D01*
X043559Y041752D01*
X043559Y041979D01*
X043503Y042035D01*
X043389Y042035D01*
X043332Y041979D01*
X043332Y041752D01*
X043191Y041695D02*
X043078Y041808D01*
X043134Y041808D02*
X042964Y041808D01*
X042964Y041695D02*
X042964Y042035D01*
X043134Y042035D01*
X043191Y041979D01*
X043191Y041865D01*
X043134Y041808D01*
X042823Y041752D02*
X042766Y041695D01*
X042653Y041695D01*
X042596Y041752D01*
X042596Y041979D01*
X042653Y042035D01*
X042766Y042035D01*
X042823Y041979D01*
X042454Y042035D02*
X042454Y041695D01*
X042227Y041695D02*
X042227Y042035D01*
X042341Y041922D01*
X042454Y042035D01*
X041659Y041695D02*
X041432Y041695D01*
X041546Y041695D02*
X041546Y042035D01*
X041432Y041922D01*
X041291Y041979D02*
X041291Y041865D01*
X041234Y041808D01*
X041064Y041808D01*
X041064Y041695D02*
X041064Y042035D01*
X041234Y042035D01*
X041291Y041979D01*
X041178Y041808D02*
X041291Y041695D01*
X040923Y041752D02*
X040866Y041695D01*
X040753Y041695D01*
X040696Y041752D01*
X040696Y041979D01*
X040753Y042035D01*
X040866Y042035D01*
X040923Y041979D01*
X040554Y042035D02*
X040554Y041695D01*
X040327Y041695D02*
X040327Y042035D01*
X040441Y041922D01*
X040554Y042035D01*
X039659Y041979D02*
X039659Y041922D01*
X039432Y041695D01*
X039659Y041695D01*
X039659Y041979D02*
X039603Y042035D01*
X039489Y042035D01*
X039432Y041979D01*
X039291Y041979D02*
X039291Y041865D01*
X039234Y041808D01*
X039064Y041808D01*
X039064Y041695D02*
X039064Y042035D01*
X039234Y042035D01*
X039291Y041979D01*
X039178Y041808D02*
X039291Y041695D01*
X038923Y041752D02*
X038866Y041695D01*
X038753Y041695D01*
X038696Y041752D01*
X038696Y041979D01*
X038753Y042035D01*
X038866Y042035D01*
X038923Y041979D01*
X038554Y042035D02*
X038554Y041695D01*
X038327Y041695D02*
X038327Y042035D01*
X038441Y041922D01*
X038554Y042035D01*
X037491Y042029D02*
X037491Y041802D01*
X037434Y041745D01*
X037264Y041745D01*
X037264Y042085D01*
X037434Y042085D01*
X037491Y042029D01*
X037123Y042085D02*
X037123Y041745D01*
X036896Y042085D01*
X036896Y041745D01*
X036754Y041802D02*
X036754Y041915D01*
X036641Y041915D01*
X036754Y041802D02*
X036698Y041745D01*
X036584Y041745D01*
X036527Y041802D01*
X036527Y042029D01*
X036584Y042085D01*
X036698Y042085D01*
X036754Y042029D01*
X035659Y042029D02*
X035659Y041972D01*
X035603Y041915D01*
X035659Y041858D01*
X035659Y041802D01*
X035603Y041745D01*
X035489Y041745D01*
X035432Y041802D01*
X035291Y041745D02*
X035178Y041858D01*
X035234Y041858D02*
X035064Y041858D01*
X035064Y041745D02*
X035064Y042085D01*
X035234Y042085D01*
X035291Y042029D01*
X035291Y041915D01*
X035234Y041858D01*
X035432Y042029D02*
X035489Y042085D01*
X035603Y042085D01*
X035659Y042029D01*
X035603Y041915D02*
X035546Y041915D01*
X034923Y041802D02*
X034866Y041745D01*
X034753Y041745D01*
X034696Y041802D01*
X034696Y042029D01*
X034753Y042085D01*
X034866Y042085D01*
X034923Y042029D01*
X034554Y042085D02*
X034554Y041745D01*
X034327Y041745D02*
X034327Y042085D01*
X034441Y041972D01*
X034554Y042085D01*
X033659Y041915D02*
X033432Y041915D01*
X033603Y042085D01*
X033603Y041745D01*
X033291Y041745D02*
X033178Y041858D01*
X033234Y041858D02*
X033064Y041858D01*
X033064Y041745D02*
X033064Y042085D01*
X033234Y042085D01*
X033291Y042029D01*
X033291Y041915D01*
X033234Y041858D01*
X032923Y041802D02*
X032866Y041745D01*
X032753Y041745D01*
X032696Y041802D01*
X032696Y042029D01*
X032753Y042085D01*
X032866Y042085D01*
X032923Y042029D01*
X032554Y042085D02*
X032554Y041745D01*
X032327Y041745D02*
X032327Y042085D01*
X032441Y041972D01*
X032554Y042085D01*
X031759Y042085D02*
X031532Y042085D01*
X031532Y041915D01*
X031646Y041972D01*
X031703Y041972D01*
X031759Y041915D01*
X031759Y041802D01*
X031703Y041745D01*
X031589Y041745D01*
X031532Y041802D01*
X031391Y041745D02*
X031278Y041858D01*
X031334Y041858D02*
X031164Y041858D01*
X031164Y041745D02*
X031164Y042085D01*
X031334Y042085D01*
X031391Y042029D01*
X031391Y041915D01*
X031334Y041858D01*
X031023Y041802D02*
X030966Y041745D01*
X030853Y041745D01*
X030796Y041802D01*
X030796Y042029D01*
X030853Y042085D01*
X030966Y042085D01*
X031023Y042029D01*
X030654Y042085D02*
X030654Y041745D01*
X030427Y041745D02*
X030427Y042085D01*
X030541Y041972D01*
X030654Y042085D01*
X029591Y042029D02*
X029591Y041802D01*
X029534Y041745D01*
X029364Y041745D01*
X029364Y042085D01*
X029534Y042085D01*
X029591Y042029D01*
X029223Y042085D02*
X029223Y041745D01*
X028996Y042085D01*
X028996Y041745D01*
X028854Y041802D02*
X028854Y041915D01*
X028741Y041915D01*
X028854Y041802D02*
X028798Y041745D01*
X028684Y041745D01*
X028627Y041802D01*
X028627Y042029D01*
X028684Y042085D01*
X028798Y042085D01*
X028854Y042029D01*
X027759Y042029D02*
X027703Y042085D01*
X027589Y042085D01*
X027532Y042029D01*
X027532Y041802D01*
X027589Y041745D01*
X027703Y041745D01*
X027759Y041802D01*
X027391Y041802D02*
X027391Y042029D01*
X027334Y042085D01*
X027164Y042085D01*
X027164Y041745D01*
X027334Y041745D01*
X027391Y041802D01*
X027023Y041802D02*
X026966Y041745D01*
X026853Y041745D01*
X026796Y041802D01*
X026796Y042029D01*
X026853Y042085D01*
X026966Y042085D01*
X027023Y042029D01*
X026654Y042029D02*
X026654Y041802D01*
X026598Y041745D01*
X026427Y041745D01*
X026427Y042085D01*
X026598Y042085D01*
X026654Y042029D01*
X025691Y042029D02*
X025691Y041802D01*
X025634Y041745D01*
X025464Y041745D01*
X025464Y042085D01*
X025634Y042085D01*
X025691Y042029D01*
X025323Y042085D02*
X025096Y042085D01*
X025096Y041745D01*
X025323Y041745D01*
X025209Y041915D02*
X025096Y041915D01*
X024954Y041745D02*
X024727Y041745D01*
X024727Y042085D01*
X023705Y041695D02*
X023478Y041695D01*
X023591Y041695D02*
X023591Y042035D01*
X023478Y041922D01*
X023337Y041979D02*
X023337Y041752D01*
X023280Y041695D01*
X023166Y041695D01*
X023110Y041752D01*
X023110Y041979D01*
X023166Y042035D01*
X023280Y042035D01*
X023337Y041979D01*
X022978Y042035D02*
X022864Y042035D01*
X022921Y042035D02*
X022921Y041695D01*
X022864Y041695D02*
X022978Y041695D01*
X022723Y041865D02*
X022666Y041808D01*
X022496Y041808D01*
X022496Y041695D02*
X022496Y042035D01*
X022666Y042035D01*
X022723Y041979D01*
X022723Y041865D01*
X022354Y041865D02*
X022241Y041865D01*
X022354Y041865D02*
X022354Y041752D01*
X022298Y041695D01*
X022184Y041695D01*
X022127Y041752D01*
X022127Y041979D01*
X022184Y042035D01*
X022298Y042035D01*
X022354Y041979D01*
X021705Y041979D02*
X021705Y041922D01*
X021478Y041695D01*
X021705Y041695D01*
X021705Y041979D02*
X021648Y042035D01*
X021535Y042035D01*
X021478Y041979D01*
X021337Y041979D02*
X021280Y042035D01*
X021166Y042035D01*
X021110Y041979D01*
X021110Y041752D01*
X021166Y041695D01*
X021280Y041695D01*
X021337Y041752D01*
X021337Y041979D01*
X020978Y042035D02*
X020864Y042035D01*
X020921Y042035D02*
X020921Y041695D01*
X020864Y041695D02*
X020978Y041695D01*
X020723Y041865D02*
X020666Y041808D01*
X020496Y041808D01*
X020496Y041695D02*
X020496Y042035D01*
X020666Y042035D01*
X020723Y041979D01*
X020723Y041865D01*
X020354Y041865D02*
X020241Y041865D01*
X020354Y041865D02*
X020354Y041752D01*
X020298Y041695D01*
X020184Y041695D01*
X020127Y041752D01*
X020127Y041979D01*
X020184Y042035D01*
X020298Y042035D01*
X020354Y041979D01*
X019341Y041902D02*
X019341Y042129D01*
X019284Y042185D01*
X019114Y042185D01*
X019114Y041845D01*
X019284Y041845D01*
X019341Y041902D01*
X018973Y041845D02*
X018973Y042185D01*
X018746Y042185D02*
X018973Y041845D01*
X018746Y041845D02*
X018746Y042185D01*
X018604Y042129D02*
X018548Y042185D01*
X018434Y042185D01*
X018377Y042129D01*
X018377Y041902D01*
X018434Y041845D01*
X018548Y041845D01*
X018604Y041902D01*
X018604Y042015D01*
X018491Y042015D01*
X018486Y041435D02*
X018316Y041435D01*
X018316Y041095D01*
X018316Y041208D02*
X018486Y041208D01*
X018542Y041265D01*
X018542Y041379D01*
X018486Y041435D01*
X018429Y041208D02*
X018542Y041095D01*
X018174Y041152D02*
X018174Y041379D01*
X018117Y041435D01*
X018004Y041435D01*
X017947Y041379D01*
X017947Y041152D01*
X018004Y041095D01*
X018117Y041095D01*
X018174Y041152D01*
X017806Y041152D02*
X017749Y041095D01*
X017636Y041095D01*
X017579Y041152D01*
X017636Y041265D02*
X017749Y041265D01*
X017806Y041208D01*
X017806Y041152D01*
X017636Y041265D02*
X017579Y041322D01*
X017579Y041379D01*
X017636Y041435D01*
X017749Y041435D01*
X017806Y041379D01*
X017437Y041435D02*
X017437Y041095D01*
X017211Y041435D01*
X017211Y041095D01*
X017069Y041095D02*
X016842Y041095D01*
X016842Y041435D01*
X017069Y041435D01*
X016956Y041265D02*
X016842Y041265D01*
X016701Y041208D02*
X016701Y041152D01*
X016644Y041095D01*
X016531Y041095D01*
X016474Y041152D01*
X016531Y041265D02*
X016644Y041265D01*
X016701Y041208D01*
X016701Y041379D02*
X016644Y041435D01*
X016531Y041435D01*
X016474Y041379D01*
X016474Y041322D01*
X016531Y041265D01*
X016634Y041845D02*
X016748Y041845D01*
X016804Y041902D01*
X016946Y041845D02*
X016946Y042185D01*
X016804Y042129D02*
X016748Y042185D01*
X016634Y042185D01*
X016577Y042129D01*
X016577Y041902D01*
X016634Y041845D01*
X016946Y042015D02*
X017173Y042015D01*
X017314Y042072D02*
X017428Y042185D01*
X017428Y041845D01*
X017541Y041845D02*
X017314Y041845D01*
X017173Y041845D02*
X017173Y042185D01*
X015964Y041435D02*
X015737Y041435D01*
X015851Y041435D02*
X015851Y041095D01*
X015596Y041095D02*
X015596Y041435D01*
X015369Y041435D02*
X015596Y041095D01*
X015369Y041095D02*
X015369Y041435D01*
X015228Y041435D02*
X015001Y041435D01*
X015001Y041095D01*
X015228Y041095D01*
X015114Y041265D02*
X015001Y041265D01*
X014859Y041265D02*
X014803Y041208D01*
X014632Y041208D01*
X014632Y041095D02*
X014632Y041435D01*
X014803Y041435D01*
X014859Y041379D01*
X014859Y041265D01*
X014746Y041208D02*
X014859Y041095D01*
X014491Y041095D02*
X014378Y041208D01*
X014434Y041208D02*
X014264Y041208D01*
X014264Y041095D02*
X014264Y041435D01*
X014434Y041435D01*
X014491Y041379D01*
X014491Y041265D01*
X014434Y041208D01*
X014123Y041152D02*
X014123Y041435D01*
X013896Y041435D02*
X013896Y041152D01*
X013953Y041095D01*
X014066Y041095D01*
X014123Y041152D01*
X013754Y041152D02*
X013698Y041095D01*
X013584Y041095D01*
X013527Y041152D01*
X013527Y041379D01*
X013584Y041435D01*
X013698Y041435D01*
X013754Y041379D01*
X014477Y041902D02*
X014534Y041845D01*
X014648Y041845D01*
X014704Y041902D01*
X014846Y041845D02*
X014846Y042185D01*
X014704Y042129D02*
X014648Y042185D01*
X014534Y042185D01*
X014477Y042129D01*
X014477Y041902D01*
X014846Y042015D02*
X015073Y042015D01*
X015073Y042185D02*
X015073Y041845D01*
X015214Y041845D02*
X015441Y042072D01*
X015441Y042129D01*
X015384Y042185D01*
X015271Y042185D01*
X015214Y042129D01*
X015214Y041845D02*
X015441Y041845D01*
X013273Y041958D02*
X013273Y042185D01*
X013273Y041958D02*
X013159Y041845D01*
X013046Y041958D01*
X013046Y042185D01*
X012904Y042185D02*
X012677Y042185D01*
X012677Y042015D01*
X012791Y042072D01*
X012848Y042072D01*
X012904Y042015D01*
X012904Y041902D01*
X012848Y041845D01*
X012734Y041845D01*
X012677Y041902D01*
X008997Y042065D02*
X008997Y041265D01*
X008897Y041165D01*
X008097Y041165D01*
X007997Y041265D01*
X007897Y041165D01*
X007097Y041165D01*
X006997Y041265D01*
X006997Y042065D01*
X007097Y042165D01*
X007897Y042165D01*
X007997Y042065D01*
X008097Y042165D01*
X008897Y042165D01*
X008997Y042065D01*
X008897Y040615D02*
X008097Y040615D01*
X007997Y040515D01*
X007897Y040615D01*
X007097Y040615D01*
X006997Y040515D01*
X006897Y040615D01*
X006097Y040615D01*
X005997Y040515D01*
X005997Y039715D01*
X006097Y039615D01*
X006897Y039615D01*
X006997Y039715D01*
X007097Y039615D01*
X007897Y039615D01*
X007997Y039715D01*
X008097Y039615D01*
X008897Y039615D01*
X008997Y039715D01*
X008997Y040515D01*
X008897Y040615D01*
X006379Y038672D02*
X005379Y038672D01*
X005379Y031672D01*
X004779Y031672D01*
X004777Y031711D01*
X004771Y031750D01*
X004762Y031788D01*
X004749Y031825D01*
X004732Y031861D01*
X004712Y031894D01*
X004688Y031926D01*
X004662Y031955D01*
X004633Y031981D01*
X004601Y032005D01*
X004568Y032025D01*
X004532Y032042D01*
X004495Y032055D01*
X004457Y032064D01*
X004418Y032070D01*
X004379Y032072D01*
X004340Y032070D01*
X004301Y032064D01*
X004263Y032055D01*
X004226Y032042D01*
X004190Y032025D01*
X004157Y032005D01*
X004125Y031981D01*
X004096Y031955D01*
X004070Y031926D01*
X004046Y031894D01*
X004026Y031861D01*
X004009Y031825D01*
X003996Y031788D01*
X003987Y031750D01*
X003981Y031711D01*
X003979Y031672D01*
X003379Y031672D01*
X003379Y038672D01*
X005379Y038672D01*
X004747Y039365D02*
X003447Y039365D01*
X003421Y039367D01*
X003395Y039372D01*
X003370Y039380D01*
X003347Y039392D01*
X003325Y039406D01*
X003306Y039424D01*
X003288Y039443D01*
X003274Y039465D01*
X003262Y039488D01*
X003254Y039513D01*
X003249Y039539D01*
X003247Y039565D01*
X003597Y039815D02*
X003967Y039815D01*
X004217Y039815D02*
X004597Y039815D01*
X004947Y040065D02*
X004945Y040091D01*
X004940Y040117D01*
X004932Y040142D01*
X004920Y040165D01*
X004906Y040187D01*
X004888Y040206D01*
X004869Y040224D01*
X004847Y040238D01*
X004824Y040250D01*
X004799Y040258D01*
X004773Y040263D01*
X004747Y040265D01*
X003447Y040265D01*
X003421Y040263D01*
X003395Y040258D01*
X003370Y040250D01*
X003347Y040238D01*
X003325Y040224D01*
X003306Y040206D01*
X003288Y040187D01*
X003274Y040165D01*
X003262Y040142D01*
X003254Y040117D01*
X003249Y040091D01*
X003247Y040065D01*
X003379Y038672D02*
X002379Y038672D01*
X002379Y031672D01*
X003379Y031672D01*
X005379Y031672D02*
X006379Y031672D01*
X006379Y038672D01*
X007446Y037792D02*
X007446Y036492D01*
X007448Y036466D01*
X007453Y036440D01*
X007461Y036415D01*
X007473Y036392D01*
X007487Y036370D01*
X007505Y036351D01*
X007524Y036333D01*
X007546Y036319D01*
X007569Y036307D01*
X007594Y036299D01*
X007620Y036294D01*
X007646Y036292D01*
X007896Y036642D02*
X007896Y037022D01*
X007896Y037272D02*
X007896Y037642D01*
X007646Y037992D02*
X007620Y037990D01*
X007594Y037985D01*
X007569Y037977D01*
X007546Y037965D01*
X007524Y037951D01*
X007505Y037933D01*
X007487Y037914D01*
X007473Y037892D01*
X007461Y037869D01*
X007453Y037844D01*
X007448Y037818D01*
X007446Y037792D01*
X008146Y037992D02*
X008172Y037990D01*
X008198Y037985D01*
X008223Y037977D01*
X008246Y037965D01*
X008268Y037951D01*
X008287Y037933D01*
X008305Y037914D01*
X008319Y037892D01*
X008331Y037869D01*
X008339Y037844D01*
X008344Y037818D01*
X008346Y037792D01*
X008346Y036492D01*
X008344Y036466D01*
X008339Y036440D01*
X008331Y036415D01*
X008319Y036392D01*
X008305Y036370D01*
X008287Y036351D01*
X008268Y036333D01*
X008246Y036319D01*
X008223Y036307D01*
X008198Y036299D01*
X008172Y036294D01*
X008146Y036292D01*
X004947Y039565D02*
X004945Y039539D01*
X004940Y039513D01*
X004932Y039488D01*
X004920Y039465D01*
X004906Y039443D01*
X004888Y039424D01*
X004869Y039406D01*
X004847Y039392D01*
X004824Y039380D01*
X004799Y039372D01*
X004773Y039367D01*
X004747Y039365D01*
X010097Y030965D02*
X009997Y030865D01*
X009997Y030065D01*
X010097Y029965D01*
X009997Y029865D01*
X009997Y029065D01*
X010097Y028965D01*
X010897Y028965D01*
X010997Y029065D01*
X010997Y029865D01*
X010897Y029965D01*
X010997Y030065D01*
X010997Y030865D01*
X010897Y030965D01*
X010097Y030965D01*
X017190Y034855D02*
X017805Y034855D01*
X017805Y035975D02*
X017190Y035975D01*
X019690Y035975D02*
X020305Y035975D01*
X020305Y034855D02*
X019690Y034855D01*
X038437Y030222D02*
X038437Y029607D01*
X039557Y029607D02*
X039557Y030222D01*
X011833Y018101D02*
X010414Y018101D01*
X010414Y016241D02*
X011833Y016241D01*
X011734Y013907D02*
X010314Y013907D01*
X010314Y012048D02*
X011734Y012048D01*
D13*
X017787Y026265D03*
X017527Y026695D03*
X017467Y026695D03*
X018797Y026625D03*
X019577Y027345D03*
X015307Y027405D03*
X015707Y030665D03*
X016617Y031215D03*
D14*
X018392Y031195D03*
X019292Y030615D03*
X019872Y029735D03*
X016592Y026885D03*
X017052Y026275D03*
D15*
X017812Y026275D03*
X018802Y026645D03*
X019562Y027355D03*
X016052Y026685D03*
X015322Y027415D03*
X015712Y030645D03*
D16*
X016607Y031195D03*
X018407Y031175D03*
X016057Y026675D03*
X017037Y026285D03*
D17*
X017832Y026285D03*
X016562Y026925D03*
X016052Y026705D03*
D18*
X016052Y026695D03*
X017012Y026295D03*
X016592Y031185D03*
D19*
X015732Y030595D03*
X017862Y026295D03*
D20*
X017427Y026695D03*
X017407Y026695D03*
X017387Y026695D03*
X017367Y026695D03*
X017347Y026695D03*
X017327Y026695D03*
X017307Y026695D03*
X016897Y026305D03*
X016057Y026645D03*
X015837Y027415D03*
X015597Y027485D03*
X015567Y027475D03*
X015407Y027425D03*
X015307Y027395D03*
X015287Y027395D03*
X015127Y027755D03*
X015197Y027815D03*
X015327Y028335D03*
X015137Y028355D03*
X015057Y028365D03*
X014967Y028375D03*
X014997Y028805D03*
X015017Y028815D03*
X015087Y028835D03*
X015207Y029795D03*
X015307Y029785D03*
X015387Y029775D03*
X015457Y029765D03*
X015627Y029895D03*
X016247Y030535D03*
X016317Y030805D03*
X016307Y031095D03*
X016547Y031195D03*
X018777Y029445D03*
X019497Y029705D03*
X019617Y029715D03*
X019837Y029735D03*
X019947Y029335D03*
X019757Y028795D03*
X019767Y028785D03*
X019787Y028785D03*
X019807Y028775D03*
X019617Y028835D03*
X019717Y028285D03*
X019607Y028275D03*
X019837Y028295D03*
X019857Y028295D03*
X019977Y028305D03*
X020007Y028305D03*
X020017Y028315D03*
X019587Y027335D03*
X019567Y027335D03*
X019537Y027345D03*
X019477Y027365D03*
X018797Y026605D03*
X018327Y026865D03*
D21*
X016997Y026305D03*
X015347Y027435D03*
X016587Y031175D03*
X018427Y031145D03*
X019817Y029725D03*
X019537Y027375D03*
D22*
X018812Y026705D03*
X017882Y026305D03*
X016042Y026745D03*
X019212Y029825D03*
X019762Y029715D03*
X019252Y030535D03*
X015732Y030585D03*
D23*
X016562Y031155D03*
X019512Y027395D03*
X018812Y026695D03*
X016972Y026315D03*
X016052Y026735D03*
D24*
X017902Y026315D03*
X018822Y026725D03*
X019242Y030515D03*
X016542Y031125D03*
D25*
X016547Y031135D03*
X015737Y030575D03*
X018457Y031105D03*
X015387Y027465D03*
X016957Y026325D03*
D26*
X017927Y026325D03*
X018817Y026745D03*
X019207Y029745D03*
X019237Y030495D03*
D27*
X018467Y031095D03*
X019207Y029775D03*
X018817Y026735D03*
X016937Y026335D03*
D28*
X016902Y026355D03*
X016902Y026365D03*
X017942Y026355D03*
X017942Y026345D03*
X017942Y026335D03*
X019202Y029705D03*
D29*
X019207Y029725D03*
X016517Y031105D03*
X015427Y027495D03*
X016917Y026345D03*
D30*
X016907Y026375D03*
X016907Y026385D03*
X017937Y026385D03*
X017937Y026365D03*
X015437Y027505D03*
D31*
X016042Y026815D03*
X016912Y026405D03*
X016912Y026395D03*
X017932Y026405D03*
X017932Y026375D03*
X018822Y026775D03*
X019202Y029695D03*
X019222Y030465D03*
X018492Y031055D03*
X015762Y030515D03*
D32*
X016507Y031085D03*
X019447Y027455D03*
X017927Y026425D03*
X017927Y026415D03*
X017927Y026395D03*
X016917Y026415D03*
X016917Y026425D03*
X016917Y026435D03*
X016037Y026825D03*
D33*
X015452Y027515D03*
X016922Y026445D03*
X017922Y026445D03*
X017922Y026435D03*
X015282Y029755D03*
D34*
X015757Y030505D03*
X016507Y031065D03*
X016507Y031075D03*
X016517Y031055D03*
X018497Y031045D03*
X019217Y030455D03*
X018827Y026785D03*
X017917Y026455D03*
X016927Y026455D03*
X016927Y026465D03*
X016927Y026475D03*
D35*
X016932Y026485D03*
X016932Y026495D03*
X016942Y026505D03*
X017912Y026485D03*
X017922Y026475D03*
X017912Y026465D03*
X018832Y026795D03*
X019432Y027465D03*
X019672Y029695D03*
X018492Y031025D03*
X018502Y031035D03*
X016522Y031035D03*
X016522Y031045D03*
D36*
X016527Y031025D03*
X018477Y030995D03*
X018487Y031015D03*
X016037Y026835D03*
X017907Y026515D03*
X017907Y026505D03*
X017917Y026495D03*
D37*
X017902Y026525D03*
X017902Y026545D03*
X016942Y026545D03*
X016942Y026535D03*
X016942Y026525D03*
X016942Y026515D03*
X015772Y030495D03*
X016552Y030975D03*
X016542Y031005D03*
X016532Y031015D03*
X018472Y030985D03*
X018482Y031005D03*
X019212Y030445D03*
D38*
X018457Y030965D03*
X016547Y030985D03*
X016537Y030995D03*
X015467Y027525D03*
X016037Y026845D03*
X016947Y026555D03*
X016957Y026565D03*
X016957Y026585D03*
X017897Y026565D03*
X017897Y026555D03*
X017907Y026535D03*
D39*
X017892Y026585D03*
X016952Y026575D03*
X018832Y026805D03*
X019422Y027475D03*
X016632Y030625D03*
X016552Y030965D03*
X015772Y030485D03*
X018452Y030945D03*
X018462Y030955D03*
X018472Y030975D03*
D40*
X018447Y030935D03*
X019207Y030435D03*
X016627Y030615D03*
X016567Y030935D03*
X016567Y030945D03*
X016557Y030955D03*
X016037Y026855D03*
X016957Y026595D03*
X016967Y026605D03*
X016967Y026615D03*
X017887Y026615D03*
X017887Y026595D03*
X017897Y026575D03*
D41*
X017892Y026605D03*
X017882Y026625D03*
X017882Y026635D03*
X016972Y026635D03*
X016962Y026625D03*
X018832Y026815D03*
X016612Y030605D03*
X016632Y030635D03*
X016632Y030645D03*
X016582Y030915D03*
X016572Y030925D03*
X018432Y030905D03*
X018442Y030915D03*
X018442Y030925D03*
D42*
X019887Y028745D03*
X018797Y026615D03*
X016057Y026655D03*
X015207Y028865D03*
X015087Y029805D03*
D43*
X016602Y031205D03*
X016582Y026895D03*
X018802Y026635D03*
D44*
X017877Y026665D03*
X016977Y026665D03*
X016977Y026655D03*
X016967Y026645D03*
X019207Y030425D03*
X018427Y030895D03*
X016637Y030665D03*
X016627Y030655D03*
X016607Y030595D03*
X016587Y030895D03*
X016577Y030905D03*
X015777Y030475D03*
D45*
X016592Y030575D03*
X016632Y030675D03*
X016632Y030685D03*
X016602Y030865D03*
X016592Y030875D03*
X016592Y030885D03*
X018412Y030865D03*
X018422Y030875D03*
X018422Y030885D03*
X018832Y026825D03*
X017882Y026645D03*
X017872Y026655D03*
X017872Y026675D03*
X016982Y026675D03*
X016982Y026685D03*
X016032Y026865D03*
D46*
X016567Y026915D03*
X018807Y026655D03*
X015127Y029795D03*
X015717Y030635D03*
D47*
X018402Y031185D03*
X016052Y026665D03*
D48*
X018807Y026665D03*
X019277Y030575D03*
X018417Y031155D03*
X015717Y030625D03*
D49*
X019267Y030565D03*
X018807Y026675D03*
X016047Y026715D03*
D50*
X016037Y026875D03*
X017877Y026685D03*
X018817Y026845D03*
X018827Y026835D03*
X018397Y030815D03*
X018397Y030835D03*
X018407Y030845D03*
X018407Y030855D03*
X016637Y030705D03*
X016637Y030695D03*
X016597Y030585D03*
X015777Y030465D03*
D51*
X015727Y030605D03*
X015167Y029785D03*
X015357Y027445D03*
X016047Y026725D03*
X018807Y026685D03*
X018437Y031135D03*
D52*
X018402Y030825D03*
X018392Y030805D03*
X018392Y030795D03*
X018382Y030785D03*
X018382Y030775D03*
X018382Y030755D03*
X018372Y030745D03*
X018362Y030705D03*
X018352Y030675D03*
X019202Y030415D03*
X016642Y030725D03*
X016612Y030835D03*
X016612Y030845D03*
X016602Y030855D03*
X016052Y026895D03*
X016992Y026695D03*
X018802Y026865D03*
X018812Y026855D03*
D53*
X018797Y026875D03*
X017857Y026695D03*
X016047Y026885D03*
X016577Y030565D03*
X016637Y030715D03*
X016637Y030735D03*
X016627Y030805D03*
X016627Y030815D03*
X016617Y030825D03*
X018347Y030655D03*
X018357Y030685D03*
X018367Y030715D03*
X018367Y030725D03*
X018367Y030735D03*
X018377Y030765D03*
D54*
X019017Y028785D03*
X017517Y026845D03*
X017427Y026705D03*
X015727Y029425D03*
D55*
X017487Y026825D03*
X017437Y026755D03*
X017427Y026745D03*
X017427Y026725D03*
X017427Y026715D03*
X019017Y028795D03*
D56*
X019212Y029805D03*
X019252Y030525D03*
X016042Y026755D03*
X018812Y026715D03*
D57*
X017502Y026835D03*
X017432Y026735D03*
X015732Y029415D03*
D58*
X015242Y029765D03*
X016042Y026795D03*
X018822Y026755D03*
X019462Y027435D03*
X019712Y029705D03*
X019202Y029735D03*
X018472Y031075D03*
D59*
X019207Y029785D03*
X016047Y026765D03*
X015397Y027475D03*
X015747Y030565D03*
D60*
X017442Y026775D03*
X017432Y026765D03*
D61*
X018827Y026765D03*
X019457Y027445D03*
X016037Y026805D03*
X015757Y030525D03*
X018487Y031065D03*
X019227Y030475D03*
D62*
X019242Y030505D03*
X019212Y029765D03*
X019482Y027425D03*
X016042Y026775D03*
X015742Y030555D03*
D63*
X015752Y030545D03*
X016532Y031115D03*
X016042Y026785D03*
D64*
X017442Y026785D03*
X017452Y026795D03*
X019012Y028805D03*
X015742Y029395D03*
D65*
X017457Y026805D03*
D66*
X017467Y026815D03*
X015737Y029405D03*
D67*
X017537Y026855D03*
X018527Y029955D03*
X018527Y029975D03*
X018537Y029995D03*
X018547Y030005D03*
D68*
X018567Y030045D03*
X018527Y029935D03*
X017547Y026865D03*
D69*
X017562Y026875D03*
X019032Y028775D03*
X018532Y029925D03*
X018572Y030055D03*
X018582Y030065D03*
X018582Y030075D03*
X018592Y030085D03*
X018592Y030095D03*
X015802Y029715D03*
X015792Y029685D03*
X015782Y029655D03*
X015772Y029615D03*
X015762Y029605D03*
X015752Y029575D03*
X015752Y029565D03*
X015742Y029545D03*
X015742Y029535D03*
X015732Y029515D03*
X015722Y029495D03*
X015722Y029485D03*
X015712Y029465D03*
X015712Y029455D03*
X015712Y029445D03*
D70*
X015742Y029555D03*
X018522Y029905D03*
X018602Y030105D03*
X018612Y030125D03*
X018622Y030135D03*
X017582Y026885D03*
D71*
X018782Y026895D03*
X018792Y026885D03*
X016062Y026905D03*
X015782Y030455D03*
X016562Y030535D03*
X016572Y030555D03*
X016642Y030755D03*
X016642Y030775D03*
X018332Y030615D03*
X018332Y030605D03*
X018342Y030625D03*
X018342Y030635D03*
X018342Y030645D03*
X018352Y030665D03*
X018362Y030695D03*
D72*
X018722Y030395D03*
X018642Y030175D03*
X018632Y030155D03*
X018532Y029885D03*
X017602Y026895D03*
D73*
X016577Y026905D03*
X019277Y030595D03*
X018417Y031165D03*
D74*
X018667Y030215D03*
X018657Y030205D03*
X018657Y030195D03*
X018647Y030185D03*
X018527Y029875D03*
X017617Y026905D03*
D75*
X018772Y026905D03*
X016092Y026945D03*
X016642Y030765D03*
X018332Y030575D03*
D76*
X018327Y030585D03*
X018327Y030595D03*
X019197Y030405D03*
X016637Y030745D03*
X016637Y030785D03*
X016627Y030795D03*
X016557Y030545D03*
X016087Y026935D03*
X016077Y026925D03*
X016067Y026915D03*
X018767Y026915D03*
D77*
X017632Y026915D03*
X019052Y028765D03*
X018532Y029855D03*
X018532Y029865D03*
X018672Y030225D03*
X018732Y030375D03*
X018732Y030385D03*
D78*
X017957Y026925D03*
D79*
X016552Y026935D03*
X015722Y030615D03*
D80*
X016087Y028375D03*
X017957Y026935D03*
X018587Y027745D03*
D81*
X019522Y027385D03*
X016542Y026945D03*
X019262Y030555D03*
X016572Y031165D03*
D82*
X017962Y026945D03*
D83*
X016357Y027325D03*
X016357Y027335D03*
X016217Y026955D03*
X018397Y030435D03*
D84*
X018587Y027755D03*
X017967Y026955D03*
D85*
X016262Y027065D03*
X016242Y027035D03*
X016232Y027005D03*
X016222Y026975D03*
X016222Y026965D03*
D86*
X017967Y026965D03*
X017967Y026975D03*
D87*
X016357Y027315D03*
X016277Y027095D03*
X016267Y027075D03*
X016257Y027045D03*
X016247Y027025D03*
X016247Y027015D03*
X016237Y026995D03*
X016227Y026985D03*
X018397Y030445D03*
D88*
X017967Y026985D03*
D89*
X017972Y026995D03*
X018582Y027785D03*
D90*
X018582Y027795D03*
X017972Y027005D03*
X016132Y028365D03*
D91*
X017977Y027015D03*
X018577Y027805D03*
D92*
X018977Y028335D03*
X018987Y028345D03*
X017977Y027035D03*
X017977Y027025D03*
D93*
X017982Y027045D03*
X018572Y027815D03*
X018962Y028315D03*
D94*
X016362Y027305D03*
X016332Y027225D03*
X016322Y027195D03*
X016312Y027185D03*
X016302Y027165D03*
X016302Y027155D03*
X016302Y027145D03*
X016292Y027135D03*
X016292Y027125D03*
X016282Y027115D03*
X016282Y027105D03*
X016272Y027085D03*
X016262Y027055D03*
D95*
X017982Y027055D03*
X017982Y027065D03*
X018992Y028365D03*
D96*
X019012Y028405D03*
X018572Y027845D03*
X018572Y027835D03*
X017982Y027075D03*
X016172Y028355D03*
D97*
X017987Y027085D03*
X019017Y028415D03*
X019017Y028425D03*
D98*
X019022Y028435D03*
X019032Y028445D03*
X018922Y028305D03*
X017982Y027095D03*
D99*
X017987Y027105D03*
X018567Y027855D03*
D100*
X018567Y027865D03*
X019047Y028485D03*
X017987Y027115D03*
D101*
X017992Y027125D03*
X019052Y028495D03*
X019052Y028505D03*
X019062Y028515D03*
D102*
X018567Y027875D03*
X017997Y027135D03*
D103*
X017987Y027145D03*
X017997Y027155D03*
X019077Y028555D03*
X016207Y028345D03*
D104*
X017997Y027165D03*
X019087Y028575D03*
D105*
X018387Y030455D03*
X016357Y027275D03*
X016347Y027265D03*
X016347Y027255D03*
X016337Y027235D03*
X016327Y027215D03*
X016327Y027205D03*
X016317Y027175D03*
D106*
X018002Y027175D03*
X018562Y027905D03*
X018862Y028295D03*
X019092Y028585D03*
X019092Y028595D03*
D107*
X019097Y028605D03*
X017997Y027185D03*
D108*
X018002Y027195D03*
X019102Y028615D03*
X019112Y028625D03*
D109*
X019107Y028635D03*
X019117Y028645D03*
X018557Y027915D03*
X018007Y027205D03*
D110*
X018007Y027215D03*
X019127Y028665D03*
X019127Y028675D03*
D111*
X018177Y027445D03*
X018167Y027435D03*
X018157Y027425D03*
X018137Y027405D03*
X018127Y027385D03*
X018107Y027365D03*
X018007Y027235D03*
X018007Y027225D03*
D112*
X016362Y027285D03*
X016362Y027295D03*
X016342Y027245D03*
X018382Y030465D03*
D113*
X019132Y028695D03*
X018552Y027945D03*
X018132Y027395D03*
X018112Y027375D03*
X018092Y027345D03*
X018082Y027335D03*
X018072Y027325D03*
X018012Y027245D03*
X016032Y027735D03*
X016022Y027725D03*
X016022Y027715D03*
X016262Y028335D03*
D114*
X016022Y027705D03*
X018012Y027255D03*
X018022Y027265D03*
X018552Y027955D03*
D115*
X018097Y027355D03*
X018067Y027315D03*
X018057Y027305D03*
X018047Y027295D03*
X018037Y027285D03*
X018027Y027275D03*
X016037Y027745D03*
D116*
X016352Y027345D03*
X018402Y030425D03*
D117*
X016352Y027355D03*
D118*
X016347Y027365D03*
X018407Y030415D03*
D119*
X019272Y030585D03*
X019552Y027365D03*
X015332Y027425D03*
D120*
X016347Y027375D03*
X019447Y029685D03*
D121*
X019442Y029675D03*
X016342Y027385D03*
D122*
X016337Y027395D03*
X015797Y028905D03*
X019437Y029665D03*
D123*
X019437Y029655D03*
X016187Y030005D03*
X016177Y029985D03*
X016167Y029965D03*
X015817Y028995D03*
X015817Y028985D03*
X015807Y028955D03*
X015787Y028895D03*
X016337Y027415D03*
X016337Y027405D03*
D124*
X019507Y027405D03*
X019217Y029815D03*
X018447Y031115D03*
X016557Y031145D03*
D125*
X019132Y028685D03*
X018552Y027935D03*
X018202Y027475D03*
X018192Y027465D03*
X018182Y027455D03*
X018152Y027415D03*
D126*
X019492Y027415D03*
X019212Y029795D03*
X015212Y029775D03*
D127*
X016152Y029935D03*
X016162Y029945D03*
X016172Y029975D03*
X016182Y029995D03*
X016192Y030025D03*
X016192Y030035D03*
X015832Y029045D03*
X015832Y029025D03*
X015822Y029015D03*
X015822Y029005D03*
X015812Y028975D03*
X016332Y027425D03*
X019432Y029635D03*
X019432Y029645D03*
D128*
X019432Y029625D03*
X016142Y029915D03*
X016132Y029885D03*
X016122Y029875D03*
X015852Y029125D03*
X015842Y029095D03*
X015842Y029085D03*
X015832Y029055D03*
X016332Y027435D03*
D129*
X016327Y027445D03*
X015767Y028885D03*
X015847Y029115D03*
X015857Y029135D03*
X015857Y029145D03*
X015857Y029155D03*
X016097Y029825D03*
X016107Y029835D03*
X016107Y029845D03*
X016117Y029855D03*
X016117Y029865D03*
X016187Y030055D03*
X019427Y029615D03*
D130*
X019217Y029835D03*
X015377Y027455D03*
D131*
X016327Y027455D03*
X015747Y028865D03*
X015867Y029205D03*
X016067Y029755D03*
X016067Y029765D03*
X016077Y029785D03*
D132*
X016182Y030085D03*
X016182Y030095D03*
X015862Y029215D03*
X015742Y028875D03*
X016322Y027465D03*
X019062Y029125D03*
X019072Y029135D03*
X019422Y029585D03*
X019422Y029595D03*
D133*
X019417Y029575D03*
X019107Y029175D03*
X019097Y029165D03*
X019067Y029115D03*
X016317Y027475D03*
D134*
X015407Y027485D03*
X019207Y029755D03*
X018477Y031085D03*
D135*
X019137Y029195D03*
X016177Y030105D03*
X016177Y030115D03*
X016317Y027495D03*
X016317Y027485D03*
D136*
X016072Y028575D03*
X016082Y028585D03*
X016082Y028605D03*
X018482Y027485D03*
X018502Y027515D03*
X018512Y027525D03*
X018522Y027545D03*
X018542Y027565D03*
D137*
X018517Y027535D03*
X018497Y027505D03*
X018487Y027495D03*
X016077Y028595D03*
D138*
X015842Y029245D03*
X016172Y030145D03*
X016312Y027515D03*
X016312Y027505D03*
X019162Y029215D03*
X019172Y029225D03*
D139*
X019187Y029235D03*
X019047Y029055D03*
X019037Y029045D03*
X019407Y029525D03*
X016167Y030155D03*
X016307Y027525D03*
D140*
X016042Y027535D03*
X016262Y028105D03*
X018702Y028255D03*
X018712Y028265D03*
D141*
X018697Y028245D03*
X018697Y028235D03*
X018687Y028225D03*
X016267Y028145D03*
X016267Y028135D03*
X016267Y028125D03*
X016197Y027955D03*
X016187Y027935D03*
X016037Y027545D03*
D142*
X016037Y027555D03*
X016037Y027565D03*
X016177Y027925D03*
X016267Y028155D03*
X016267Y028165D03*
X018667Y028185D03*
X018667Y028195D03*
X018677Y028205D03*
X019087Y028735D03*
D143*
X018587Y027635D03*
X018577Y027625D03*
X018567Y027605D03*
X018557Y027595D03*
X018547Y027585D03*
X018547Y027575D03*
X018527Y027555D03*
X016077Y028565D03*
D144*
X016272Y028175D03*
X016172Y027915D03*
X016162Y027905D03*
X016032Y027575D03*
X018652Y028165D03*
X018662Y028175D03*
X018742Y028275D03*
D145*
X018647Y028155D03*
X018647Y028145D03*
X018637Y028135D03*
X016267Y028185D03*
X016267Y028195D03*
X016147Y027885D03*
X016037Y027585D03*
D146*
X016032Y027595D03*
X016152Y027895D03*
X016272Y028205D03*
X018622Y028115D03*
X018632Y028125D03*
D147*
X018627Y028105D03*
X018617Y028095D03*
X018607Y028085D03*
X019097Y028725D03*
X016267Y028215D03*
X016137Y027875D03*
X016037Y027605D03*
D148*
X016032Y027615D03*
X016122Y027855D03*
X016132Y027865D03*
X016272Y028225D03*
X016272Y028235D03*
X016272Y028245D03*
X018602Y028075D03*
D149*
X018602Y027655D03*
X018592Y027645D03*
X018572Y027615D03*
X016072Y028535D03*
X016072Y028545D03*
X016072Y028555D03*
D150*
X016117Y027845D03*
X016027Y027625D03*
X018587Y028045D03*
X018597Y028055D03*
X018597Y028065D03*
X019107Y028715D03*
D151*
X018582Y028035D03*
X018572Y028025D03*
X018572Y028015D03*
X016272Y028255D03*
X016102Y027835D03*
X016032Y027635D03*
D152*
X016027Y027645D03*
X016027Y027655D03*
X016097Y027815D03*
X016097Y027825D03*
X016267Y028265D03*
X016277Y028275D03*
X018557Y027995D03*
X018567Y028005D03*
D153*
X018547Y027975D03*
X016277Y028305D03*
X016077Y027795D03*
X016027Y027675D03*
X016027Y027665D03*
D154*
X016062Y028495D03*
X016062Y028505D03*
X018602Y027665D03*
D155*
X018597Y027675D03*
X016067Y028485D03*
X016057Y028475D03*
D156*
X016057Y027775D03*
X016057Y027765D03*
X016047Y027755D03*
X016027Y027695D03*
X016027Y027685D03*
X018797Y028285D03*
D157*
X018597Y027685D03*
X016057Y028435D03*
X016057Y028445D03*
X016057Y028455D03*
D158*
X016047Y028395D03*
X018597Y027695D03*
D159*
X018592Y027705D03*
X018592Y027715D03*
D160*
X018587Y027725D03*
D161*
X018592Y027735D03*
D162*
X018582Y027765D03*
D163*
X018582Y027775D03*
D164*
X018552Y027965D03*
X019122Y028705D03*
X016272Y028325D03*
X016272Y028315D03*
X016072Y027785D03*
D165*
X016082Y027805D03*
X016272Y028285D03*
X016272Y028295D03*
X018552Y027985D03*
D166*
X018577Y027825D03*
X018987Y028355D03*
X018997Y028375D03*
D167*
X019062Y028525D03*
X019072Y028535D03*
X018562Y027885D03*
D168*
X018562Y027895D03*
X019072Y028545D03*
X019082Y028565D03*
D169*
X019122Y028655D03*
X018562Y027925D03*
D170*
X018682Y028215D03*
X016192Y027945D03*
D171*
X016212Y027965D03*
X016222Y027985D03*
X016232Y027995D03*
X016262Y028075D03*
D172*
X016267Y028095D03*
X016267Y028115D03*
X016217Y027975D03*
D173*
X016242Y028005D03*
X016262Y028065D03*
X018722Y030315D03*
X018732Y030325D03*
X018732Y030335D03*
X018742Y030345D03*
D174*
X018737Y030355D03*
X018717Y030305D03*
X018717Y030295D03*
X019067Y028755D03*
X019057Y028745D03*
X016267Y028055D03*
X016267Y028045D03*
X016257Y028035D03*
X016257Y028025D03*
X016247Y028015D03*
D175*
X016267Y028085D03*
D176*
X015062Y028825D03*
X015122Y029805D03*
X015702Y030675D03*
X016622Y031225D03*
X019292Y030625D03*
X019952Y028305D03*
D177*
X018972Y028325D03*
D178*
X016052Y028385D03*
D179*
X018997Y028385D03*
X019007Y028395D03*
D180*
X016052Y028405D03*
X016052Y028415D03*
X016052Y028425D03*
D181*
X019032Y028455D03*
X019032Y028465D03*
X019042Y028475D03*
D182*
X016062Y028465D03*
D183*
X016067Y028515D03*
X016067Y028525D03*
D184*
X016082Y028615D03*
X016082Y028625D03*
D185*
X016087Y028635D03*
X016087Y028645D03*
X016087Y028655D03*
D186*
X016092Y028665D03*
X016092Y028675D03*
X016092Y028685D03*
D187*
X016092Y028695D03*
X016092Y028715D03*
D188*
X016097Y028705D03*
D189*
X015537Y028725D03*
X015537Y028735D03*
X015537Y028745D03*
X015767Y029365D03*
X016127Y030375D03*
X018987Y028825D03*
D190*
X016142Y030435D03*
X015542Y028765D03*
X015542Y028755D03*
D191*
X015562Y028775D03*
X016132Y030365D03*
D192*
X016137Y030335D03*
X015777Y029345D03*
X015577Y028785D03*
D193*
X015592Y028795D03*
X016142Y030305D03*
X018972Y028855D03*
X018962Y028835D03*
D194*
X019327Y029345D03*
X019377Y029405D03*
X019377Y029415D03*
X016147Y030265D03*
X015807Y029305D03*
X015627Y028805D03*
D195*
X015637Y028815D03*
X018997Y028935D03*
X019007Y028945D03*
X019307Y029325D03*
X019387Y029435D03*
D196*
X018997Y028815D03*
D197*
X019012Y028985D03*
X019022Y028995D03*
X019392Y029475D03*
X016162Y030195D03*
X015662Y028825D03*
D198*
X015677Y028835D03*
X019027Y029005D03*
X019227Y029265D03*
X019237Y029275D03*
X019397Y029485D03*
D199*
X019402Y029505D03*
X019402Y029515D03*
X019032Y029035D03*
X015842Y029255D03*
X015692Y028845D03*
D200*
X015787Y029335D03*
X016137Y030315D03*
X016137Y030325D03*
X018977Y028845D03*
D201*
X019047Y029065D03*
X019047Y029075D03*
X019407Y029535D03*
X016177Y030135D03*
X015707Y028855D03*
D202*
X018977Y028865D03*
D203*
X018977Y028875D03*
X018987Y028885D03*
X018987Y028895D03*
X019377Y029395D03*
X016147Y030275D03*
X016147Y030285D03*
X015797Y029315D03*
D204*
X018992Y028905D03*
X019342Y029355D03*
D205*
X016192Y030015D03*
X015812Y028965D03*
X015812Y028945D03*
X015802Y028935D03*
X015802Y028925D03*
X015802Y028915D03*
D206*
X016152Y030245D03*
X016152Y030255D03*
X018992Y028915D03*
X019002Y028925D03*
X019322Y029335D03*
X019382Y029425D03*
D207*
X019387Y029445D03*
X019277Y029305D03*
X019267Y029295D03*
X019007Y028955D03*
X016157Y030225D03*
D208*
X016162Y030215D03*
X015822Y029285D03*
X019012Y028965D03*
X019392Y029455D03*
D209*
X019387Y029465D03*
X019247Y029285D03*
X019017Y028975D03*
X016157Y030205D03*
X015827Y029275D03*
D210*
X016167Y030165D03*
X019027Y029015D03*
X019197Y029245D03*
D211*
X019212Y029255D03*
X019032Y029025D03*
X019402Y029495D03*
X016162Y030175D03*
X016162Y030185D03*
X015832Y029265D03*
D212*
X015847Y029105D03*
X015837Y029075D03*
X015837Y029065D03*
X015827Y029035D03*
X016137Y029895D03*
X016137Y029905D03*
X016147Y029925D03*
X016157Y029955D03*
X016187Y030045D03*
D213*
X016172Y030125D03*
X015852Y029235D03*
X019052Y029085D03*
X019142Y029205D03*
X019412Y029545D03*
X019412Y029555D03*
D214*
X019412Y029565D03*
X019122Y029185D03*
X019062Y029105D03*
X019052Y029095D03*
X015862Y029225D03*
D215*
X015872Y029195D03*
X015862Y029185D03*
X015862Y029175D03*
X015862Y029165D03*
X016082Y029775D03*
X016082Y029795D03*
X016092Y029805D03*
X016092Y029815D03*
X016182Y030065D03*
X016182Y030075D03*
X019072Y029145D03*
X019082Y029155D03*
X019422Y029605D03*
D216*
X019292Y029315D03*
X016152Y030235D03*
X015812Y029295D03*
D217*
X015792Y029325D03*
X016142Y030295D03*
X019362Y029365D03*
X019372Y029375D03*
X019372Y029385D03*
D218*
X016132Y030345D03*
X015772Y029355D03*
D219*
X015757Y029375D03*
X016127Y030385D03*
X016127Y030395D03*
X016127Y030405D03*
X016137Y030425D03*
D220*
X015752Y029385D03*
D221*
X015712Y029435D03*
X018522Y029945D03*
X018552Y030015D03*
X018552Y030025D03*
X018562Y030035D03*
D222*
X018607Y030115D03*
X018527Y029915D03*
X015817Y029745D03*
X015807Y029735D03*
X015807Y029725D03*
X015797Y029705D03*
X015797Y029695D03*
X015787Y029675D03*
X015787Y029665D03*
X015777Y029645D03*
X015777Y029635D03*
X015767Y029625D03*
X015757Y029595D03*
X015757Y029585D03*
X015737Y029525D03*
X015727Y029505D03*
X015717Y029475D03*
D223*
X015752Y030535D03*
X016522Y031095D03*
X019232Y030485D03*
X019202Y029715D03*
D224*
X019217Y029845D03*
X019257Y030545D03*
X018447Y031125D03*
D225*
X018637Y030165D03*
X018627Y030145D03*
X018527Y029895D03*
D226*
X018522Y029965D03*
X018532Y029985D03*
D227*
X018677Y030235D03*
X018687Y030245D03*
X018687Y030255D03*
X018697Y030265D03*
X018737Y030365D03*
D228*
X018702Y030285D03*
X018702Y030275D03*
D229*
X016127Y030355D03*
D230*
X018412Y030405D03*
D231*
X016132Y030415D03*
D232*
X015787Y030445D03*
X016547Y030525D03*
D233*
X016472Y030445D03*
X018362Y030515D03*
D234*
X016492Y030465D03*
X016482Y030455D03*
D235*
X016497Y030475D03*
X018347Y030535D03*
D236*
X018382Y030475D03*
D237*
X018342Y030555D03*
X016512Y030485D03*
D238*
X018372Y030485D03*
D239*
X018347Y030545D03*
X016517Y030495D03*
D240*
X018372Y030495D03*
D241*
X016527Y030505D03*
D242*
X018367Y030505D03*
D243*
X018332Y030565D03*
X016532Y030515D03*
D244*
X018357Y030525D03*
D245*
X019287Y030605D03*
X015707Y030655D03*
D246*
X015997Y009165D02*
X013997Y009165D01*
X013997Y003415D01*
X015997Y003415D01*
X015997Y009165D01*
X011247Y002415D02*
X011247Y000415D01*
X030997Y000415D01*
X030997Y002415D01*
X011247Y002415D01*
D247*
X026497Y008915D02*
X026747Y008665D01*
X026497Y008915D02*
X026747Y009165D01*
X026497Y008915D02*
X027497Y008915D01*
D248*
X027250Y009430D02*
X027126Y009430D01*
X027188Y009430D02*
X027188Y009800D01*
X027126Y009800D01*
X026943Y009800D02*
X026943Y009862D01*
X026943Y009677D02*
X026881Y009677D01*
X026943Y009677D02*
X026943Y009430D01*
X027004Y009430D02*
X026881Y009430D01*
X026636Y009615D02*
X026512Y009615D01*
X026512Y009430D02*
X026512Y009800D01*
X026759Y009800D01*
X005128Y001739D02*
X005128Y001677D01*
X005066Y001615D01*
X004881Y001615D01*
X004759Y001553D02*
X004759Y001492D01*
X004698Y001430D01*
X004574Y001430D01*
X004512Y001492D01*
X004574Y001615D02*
X004698Y001615D01*
X004759Y001553D01*
X004881Y001430D02*
X005066Y001430D01*
X005128Y001492D01*
X005128Y001553D01*
X005066Y001615D01*
X005128Y001739D02*
X005066Y001800D01*
X004881Y001800D01*
X004881Y001430D01*
X004759Y001739D02*
X004698Y001800D01*
X004574Y001800D01*
X004512Y001739D01*
X004512Y001677D01*
X004574Y001615D01*
D249*
X018984Y016060D02*
X018986Y016094D01*
X018992Y016128D01*
X019002Y016161D01*
X019015Y016192D01*
X019033Y016222D01*
X019053Y016250D01*
X019077Y016275D01*
X019103Y016297D01*
X019131Y016315D01*
X019162Y016331D01*
X019194Y016343D01*
X019228Y016351D01*
X019262Y016355D01*
X019296Y016355D01*
X019330Y016351D01*
X019364Y016343D01*
X019396Y016331D01*
X019426Y016315D01*
X019455Y016297D01*
X019481Y016275D01*
X019505Y016250D01*
X019525Y016222D01*
X019543Y016192D01*
X019556Y016161D01*
X019566Y016128D01*
X019572Y016094D01*
X019574Y016060D01*
X019572Y016026D01*
X019566Y015992D01*
X019556Y015959D01*
X019543Y015928D01*
X019525Y015898D01*
X019505Y015870D01*
X019481Y015845D01*
X019455Y015823D01*
X019427Y015805D01*
X019396Y015789D01*
X019364Y015777D01*
X019330Y015769D01*
X019296Y015765D01*
X019262Y015765D01*
X019228Y015769D01*
X019194Y015777D01*
X019162Y015789D01*
X019131Y015805D01*
X019103Y015823D01*
X019077Y015845D01*
X019053Y015870D01*
X019033Y015898D01*
X019015Y015928D01*
X019002Y015959D01*
X018992Y015992D01*
X018986Y016026D01*
X018984Y016060D01*
X033303Y006281D02*
X033305Y006296D01*
X033310Y006309D01*
X033319Y006321D01*
X033330Y006331D01*
X033344Y006337D01*
X033358Y006340D01*
X033373Y006339D01*
X033387Y006334D01*
X033400Y006326D01*
X033410Y006316D01*
X033417Y006303D01*
X033421Y006288D01*
X033421Y006274D01*
X033417Y006259D01*
X033410Y006246D01*
X033400Y006236D01*
X033387Y006228D01*
X033373Y006223D01*
X033358Y006222D01*
X033344Y006225D01*
X033330Y006231D01*
X033319Y006241D01*
X033310Y006253D01*
X033305Y006266D01*
X033303Y006281D01*
X041657Y014965D02*
X041659Y015035D01*
X041665Y015105D01*
X041675Y015175D01*
X041689Y015243D01*
X041706Y015311D01*
X041728Y015378D01*
X041753Y015444D01*
X041782Y015508D01*
X041814Y015570D01*
X041850Y015630D01*
X041890Y015688D01*
X041932Y015744D01*
X041978Y015797D01*
X042026Y015848D01*
X042078Y015896D01*
X042132Y015941D01*
X042188Y015982D01*
X042247Y016021D01*
X042308Y016056D01*
X042370Y016088D01*
X042435Y016116D01*
X042500Y016140D01*
X042568Y016160D01*
X042636Y016177D01*
X042705Y016190D01*
X042774Y016199D01*
X042844Y016204D01*
X042915Y016205D01*
X042985Y016202D01*
X043055Y016195D01*
X043124Y016184D01*
X043192Y016169D01*
X043260Y016151D01*
X043327Y016128D01*
X043392Y016102D01*
X043455Y016072D01*
X043517Y016039D01*
X043577Y016002D01*
X043634Y015962D01*
X043690Y015919D01*
X043742Y015872D01*
X043792Y015823D01*
X043839Y015771D01*
X043883Y015716D01*
X043924Y015659D01*
X043962Y015600D01*
X043996Y015539D01*
X044027Y015476D01*
X044054Y015411D01*
X044077Y015345D01*
X044097Y015277D01*
X044113Y015209D01*
X044125Y015140D01*
X044133Y015070D01*
X044137Y015000D01*
X044137Y014930D01*
X044133Y014860D01*
X044125Y014790D01*
X044113Y014721D01*
X044097Y014653D01*
X044077Y014585D01*
X044054Y014519D01*
X044027Y014454D01*
X043996Y014391D01*
X043962Y014330D01*
X043924Y014271D01*
X043883Y014214D01*
X043839Y014159D01*
X043792Y014107D01*
X043742Y014058D01*
X043690Y014011D01*
X043634Y013968D01*
X043577Y013928D01*
X043517Y013891D01*
X043455Y013858D01*
X043392Y013828D01*
X043327Y013802D01*
X043260Y013779D01*
X043192Y013761D01*
X043124Y013746D01*
X043055Y013735D01*
X042985Y013728D01*
X042915Y013725D01*
X042844Y013726D01*
X042774Y013731D01*
X042705Y013740D01*
X042636Y013753D01*
X042568Y013770D01*
X042500Y013790D01*
X042435Y013814D01*
X042370Y013842D01*
X042308Y013874D01*
X042247Y013909D01*
X042188Y013948D01*
X042132Y013989D01*
X042078Y014034D01*
X042026Y014082D01*
X041978Y014133D01*
X041932Y014186D01*
X041890Y014242D01*
X041850Y014300D01*
X041814Y014360D01*
X041782Y014422D01*
X041753Y014486D01*
X041728Y014552D01*
X041706Y014619D01*
X041689Y014687D01*
X041675Y014755D01*
X041665Y014825D01*
X041659Y014895D01*
X041657Y014965D01*
X044944Y014969D02*
X044946Y015039D01*
X044952Y015109D01*
X044962Y015179D01*
X044976Y015247D01*
X044993Y015315D01*
X045015Y015382D01*
X045040Y015448D01*
X045069Y015512D01*
X045101Y015574D01*
X045137Y015634D01*
X045177Y015692D01*
X045219Y015748D01*
X045265Y015801D01*
X045313Y015852D01*
X045365Y015900D01*
X045419Y015945D01*
X045475Y015986D01*
X045534Y016025D01*
X045595Y016060D01*
X045657Y016092D01*
X045722Y016120D01*
X045787Y016144D01*
X045855Y016164D01*
X045923Y016181D01*
X045992Y016194D01*
X046061Y016203D01*
X046131Y016208D01*
X046202Y016209D01*
X046272Y016206D01*
X046342Y016199D01*
X046411Y016188D01*
X046479Y016173D01*
X046547Y016155D01*
X046614Y016132D01*
X046679Y016106D01*
X046742Y016076D01*
X046804Y016043D01*
X046864Y016006D01*
X046921Y015966D01*
X046977Y015923D01*
X047029Y015876D01*
X047079Y015827D01*
X047126Y015775D01*
X047170Y015720D01*
X047211Y015663D01*
X047249Y015604D01*
X047283Y015543D01*
X047314Y015480D01*
X047341Y015415D01*
X047364Y015349D01*
X047384Y015281D01*
X047400Y015213D01*
X047412Y015144D01*
X047420Y015074D01*
X047424Y015004D01*
X047424Y014934D01*
X047420Y014864D01*
X047412Y014794D01*
X047400Y014725D01*
X047384Y014657D01*
X047364Y014589D01*
X047341Y014523D01*
X047314Y014458D01*
X047283Y014395D01*
X047249Y014334D01*
X047211Y014275D01*
X047170Y014218D01*
X047126Y014163D01*
X047079Y014111D01*
X047029Y014062D01*
X046977Y014015D01*
X046921Y013972D01*
X046864Y013932D01*
X046804Y013895D01*
X046742Y013862D01*
X046679Y013832D01*
X046614Y013806D01*
X046547Y013783D01*
X046479Y013765D01*
X046411Y013750D01*
X046342Y013739D01*
X046272Y013732D01*
X046202Y013729D01*
X046131Y013730D01*
X046061Y013735D01*
X045992Y013744D01*
X045923Y013757D01*
X045855Y013774D01*
X045787Y013794D01*
X045722Y013818D01*
X045657Y013846D01*
X045595Y013878D01*
X045534Y013913D01*
X045475Y013952D01*
X045419Y013993D01*
X045365Y014038D01*
X045313Y014086D01*
X045265Y014137D01*
X045219Y014190D01*
X045177Y014246D01*
X045137Y014304D01*
X045101Y014364D01*
X045069Y014426D01*
X045040Y014490D01*
X045015Y014556D01*
X044993Y014623D01*
X044976Y014691D01*
X044962Y014759D01*
X044952Y014829D01*
X044946Y014899D01*
X044944Y014969D01*
X045257Y025665D02*
X045259Y025735D01*
X045265Y025805D01*
X045275Y025875D01*
X045289Y025943D01*
X045306Y026011D01*
X045328Y026078D01*
X045353Y026144D01*
X045382Y026208D01*
X045414Y026270D01*
X045450Y026330D01*
X045490Y026388D01*
X045532Y026444D01*
X045578Y026497D01*
X045626Y026548D01*
X045678Y026596D01*
X045732Y026641D01*
X045788Y026682D01*
X045847Y026721D01*
X045908Y026756D01*
X045970Y026788D01*
X046035Y026816D01*
X046100Y026840D01*
X046168Y026860D01*
X046236Y026877D01*
X046305Y026890D01*
X046374Y026899D01*
X046444Y026904D01*
X046515Y026905D01*
X046585Y026902D01*
X046655Y026895D01*
X046724Y026884D01*
X046792Y026869D01*
X046860Y026851D01*
X046927Y026828D01*
X046992Y026802D01*
X047055Y026772D01*
X047117Y026739D01*
X047177Y026702D01*
X047234Y026662D01*
X047290Y026619D01*
X047342Y026572D01*
X047392Y026523D01*
X047439Y026471D01*
X047483Y026416D01*
X047524Y026359D01*
X047562Y026300D01*
X047596Y026239D01*
X047627Y026176D01*
X047654Y026111D01*
X047677Y026045D01*
X047697Y025977D01*
X047713Y025909D01*
X047725Y025840D01*
X047733Y025770D01*
X047737Y025700D01*
X047737Y025630D01*
X047733Y025560D01*
X047725Y025490D01*
X047713Y025421D01*
X047697Y025353D01*
X047677Y025285D01*
X047654Y025219D01*
X047627Y025154D01*
X047596Y025091D01*
X047562Y025030D01*
X047524Y024971D01*
X047483Y024914D01*
X047439Y024859D01*
X047392Y024807D01*
X047342Y024758D01*
X047290Y024711D01*
X047234Y024668D01*
X047177Y024628D01*
X047117Y024591D01*
X047055Y024558D01*
X046992Y024528D01*
X046927Y024502D01*
X046860Y024479D01*
X046792Y024461D01*
X046724Y024446D01*
X046655Y024435D01*
X046585Y024428D01*
X046515Y024425D01*
X046444Y024426D01*
X046374Y024431D01*
X046305Y024440D01*
X046236Y024453D01*
X046168Y024470D01*
X046100Y024490D01*
X046035Y024514D01*
X045970Y024542D01*
X045908Y024574D01*
X045847Y024609D01*
X045788Y024648D01*
X045732Y024689D01*
X045678Y024734D01*
X045626Y024782D01*
X045578Y024833D01*
X045532Y024886D01*
X045490Y024942D01*
X045450Y025000D01*
X045414Y025060D01*
X045382Y025122D01*
X045353Y025186D01*
X045328Y025252D01*
X045306Y025319D01*
X045289Y025387D01*
X045275Y025455D01*
X045265Y025525D01*
X045259Y025595D01*
X045257Y025665D01*
X019497Y040915D02*
X019497Y041665D01*
X012497Y041665D01*
X012497Y040915D01*
X019497Y040915D01*
X019497Y041665D02*
X019497Y042415D01*
X012497Y042415D02*
X012497Y041665D01*
D250*
X012309Y044919D02*
X012309Y045380D01*
X012616Y045380D01*
X012769Y045380D02*
X012769Y044919D01*
X012769Y045073D02*
X012999Y045073D01*
X013076Y045149D01*
X013076Y045303D01*
X012999Y045380D01*
X012769Y045380D01*
X012923Y045073D02*
X013076Y044919D01*
X013230Y044996D02*
X013230Y045303D01*
X013306Y045380D01*
X013460Y045380D01*
X013537Y045303D01*
X013537Y044996D01*
X013460Y044919D01*
X013306Y044919D01*
X013230Y044996D01*
X013690Y044919D02*
X013690Y045380D01*
X013997Y044919D01*
X013997Y045380D01*
X014150Y045380D02*
X014457Y045380D01*
X014304Y045380D02*
X014304Y044919D01*
X012462Y045149D02*
X012309Y045149D01*
X006910Y045380D02*
X006603Y045380D01*
X006450Y045380D02*
X006450Y044919D01*
X006143Y045380D01*
X006143Y044919D01*
X005989Y044996D02*
X005989Y045303D01*
X005913Y045380D01*
X005759Y045380D01*
X005682Y045303D01*
X005682Y044996D01*
X005759Y044919D01*
X005913Y044919D01*
X005989Y044996D01*
X005529Y044919D02*
X005375Y045073D01*
X005452Y045073D02*
X005222Y045073D01*
X005222Y044919D02*
X005222Y045380D01*
X005452Y045380D01*
X005529Y045303D01*
X005529Y045149D01*
X005452Y045073D01*
X005069Y045380D02*
X004762Y045380D01*
X004762Y044919D01*
X004762Y045149D02*
X004915Y045149D01*
X006757Y044919D02*
X006757Y045380D01*
X024419Y045380D02*
X024419Y044919D01*
X024419Y045149D02*
X024573Y045149D01*
X024419Y045380D02*
X024726Y045380D01*
X024879Y045380D02*
X024879Y044919D01*
X024879Y045073D02*
X025110Y045073D01*
X025186Y045149D01*
X025186Y045303D01*
X025110Y045380D01*
X024879Y045380D01*
X025033Y045073D02*
X025186Y044919D01*
X025340Y044996D02*
X025340Y045303D01*
X025417Y045380D01*
X025570Y045380D01*
X025647Y045303D01*
X025647Y044996D01*
X025570Y044919D01*
X025417Y044919D01*
X025340Y044996D01*
X025800Y044919D02*
X025800Y045380D01*
X026107Y044919D01*
X026107Y045380D01*
X026261Y045380D02*
X026568Y045380D01*
X026414Y045380D02*
X026414Y044919D01*
X051501Y041443D02*
X051501Y041136D01*
X051501Y041289D02*
X051962Y041289D01*
X051962Y040983D02*
X051501Y040983D01*
X051501Y040676D02*
X051962Y040983D01*
X051962Y040676D02*
X051501Y040676D01*
X051578Y040522D02*
X051501Y040445D01*
X051501Y040292D01*
X051578Y040215D01*
X051885Y040215D01*
X051962Y040292D01*
X051962Y040445D01*
X051885Y040522D01*
X051578Y040522D01*
X051578Y040062D02*
X051732Y040062D01*
X051808Y039985D01*
X051808Y039755D01*
X051808Y039908D02*
X051962Y040062D01*
X051962Y039755D02*
X051501Y039755D01*
X051501Y039985D01*
X051578Y040062D01*
X051501Y039601D02*
X051501Y039294D01*
X051962Y039294D01*
X051732Y039294D02*
X051732Y039448D01*
X047727Y022181D02*
X047267Y022181D01*
X047267Y021875D02*
X047727Y021875D01*
X047574Y022028D01*
X047727Y022181D01*
X047651Y021721D02*
X047344Y021721D01*
X047651Y021414D01*
X047727Y021491D01*
X047727Y021644D01*
X047651Y021721D01*
X047651Y021414D02*
X047344Y021414D01*
X047267Y021491D01*
X047267Y021644D01*
X047344Y021721D01*
X047344Y021261D02*
X047651Y020954D01*
X047727Y021031D01*
X047727Y021184D01*
X047651Y021261D01*
X047344Y021261D01*
X047267Y021184D01*
X047267Y021031D01*
X047344Y020954D01*
X047651Y020954D01*
X047651Y020800D02*
X047727Y020724D01*
X047727Y020570D01*
X047651Y020493D01*
X047344Y020800D01*
X047651Y020800D01*
X047651Y020493D02*
X047344Y020493D01*
X047267Y020570D01*
X047267Y020724D01*
X047344Y020800D01*
X047344Y020340D02*
X047421Y020340D01*
X047497Y020263D01*
X047497Y020110D01*
X047421Y020033D01*
X047344Y020033D01*
X047267Y020110D01*
X047267Y020263D01*
X047344Y020340D01*
X047497Y020263D02*
X047574Y020340D01*
X047651Y020340D01*
X047727Y020263D01*
X047727Y020110D01*
X047651Y020033D01*
X047574Y020033D01*
X047497Y020110D01*
X047344Y019880D02*
X047651Y019573D01*
X047727Y019573D01*
X047727Y019419D02*
X047267Y019419D01*
X047267Y019573D02*
X047267Y019880D01*
X047344Y019880D01*
X047727Y019419D02*
X047267Y019112D01*
X047727Y019112D01*
X047727Y018805D02*
X047267Y018805D01*
X047267Y018652D02*
X047267Y018959D01*
X047344Y018498D02*
X047497Y018498D01*
X047574Y018422D01*
X047574Y018191D01*
X047727Y018191D02*
X047267Y018191D01*
X047267Y018422D01*
X047344Y018498D01*
X048167Y019543D02*
X048167Y019774D01*
X048244Y019850D01*
X048551Y019850D01*
X048627Y019774D01*
X048627Y019543D01*
X048167Y019543D01*
X048244Y020004D02*
X048551Y020004D01*
X048627Y020081D01*
X048627Y020234D01*
X048551Y020311D01*
X048627Y020464D02*
X048627Y020694D01*
X048551Y020771D01*
X048244Y020771D01*
X048167Y020694D01*
X048167Y020464D01*
X048627Y020464D01*
X048244Y020311D02*
X048167Y020234D01*
X048167Y020081D01*
X048244Y020004D01*
X048244Y020925D02*
X048551Y020925D01*
X048627Y021001D01*
X048627Y021155D01*
X048551Y021231D01*
X048244Y021231D02*
X048167Y021155D01*
X048167Y021001D01*
X048244Y020925D01*
X043194Y019682D02*
X043217Y019659D01*
X043237Y019633D01*
X043254Y019605D01*
X043268Y019576D01*
X043279Y019545D01*
X043286Y019514D01*
X043290Y019481D01*
X043290Y019449D01*
X043286Y019416D01*
X043279Y019385D01*
X043268Y019354D01*
X043254Y019325D01*
X043237Y019297D01*
X043217Y019271D01*
X043194Y019248D01*
X042800Y019248D02*
X042777Y019271D01*
X042757Y019297D01*
X042740Y019325D01*
X042726Y019354D01*
X042715Y019385D01*
X042708Y019416D01*
X042704Y019449D01*
X042704Y019481D01*
X042708Y019514D01*
X042715Y019545D01*
X042726Y019576D01*
X042740Y019605D01*
X042757Y019633D01*
X042777Y019659D01*
X042800Y019682D01*
X035694Y010148D02*
X035671Y010171D01*
X035645Y010191D01*
X035617Y010208D01*
X035588Y010222D01*
X035557Y010233D01*
X035526Y010240D01*
X035493Y010244D01*
X035461Y010244D01*
X035428Y010240D01*
X035397Y010233D01*
X035366Y010222D01*
X035337Y010208D01*
X035309Y010191D01*
X035283Y010171D01*
X035260Y010148D01*
X035260Y009754D02*
X035283Y009731D01*
X035309Y009711D01*
X035337Y009694D01*
X035366Y009680D01*
X035397Y009669D01*
X035428Y009662D01*
X035461Y009658D01*
X035493Y009658D01*
X035526Y009662D01*
X035557Y009669D01*
X035588Y009680D01*
X035617Y009694D01*
X035645Y009711D01*
X035671Y009731D01*
X035694Y009754D01*
X035669Y008541D02*
X035646Y008564D01*
X035620Y008584D01*
X035592Y008601D01*
X035563Y008615D01*
X035532Y008626D01*
X035501Y008633D01*
X035468Y008637D01*
X035436Y008637D01*
X035403Y008633D01*
X035372Y008626D01*
X035341Y008615D01*
X035312Y008601D01*
X035284Y008584D01*
X035258Y008564D01*
X035235Y008541D01*
X035235Y008147D02*
X035258Y008124D01*
X035284Y008104D01*
X035312Y008087D01*
X035341Y008073D01*
X035372Y008062D01*
X035403Y008055D01*
X035436Y008051D01*
X035468Y008051D01*
X035501Y008055D01*
X035532Y008062D01*
X035563Y008073D01*
X035592Y008087D01*
X035620Y008104D01*
X035646Y008124D01*
X035669Y008147D01*
X015652Y008118D02*
X015422Y008118D01*
X015346Y008195D01*
X015422Y008272D01*
X015652Y008272D01*
X015422Y008118D02*
X015346Y008041D01*
X015346Y007965D01*
X015652Y007965D01*
X015576Y007811D02*
X015422Y007811D01*
X015346Y007734D01*
X015346Y007581D01*
X015422Y007504D01*
X015576Y007504D01*
X015652Y007581D01*
X015652Y007734D01*
X015576Y007811D01*
X015652Y007351D02*
X015652Y007121D01*
X015576Y007044D01*
X015422Y007044D01*
X015346Y007121D01*
X015346Y007351D01*
X014902Y007504D02*
X014826Y007428D01*
X014672Y007428D01*
X014596Y007504D01*
X014596Y007658D01*
X014672Y007734D01*
X014749Y007734D01*
X014749Y007428D01*
X014902Y007504D02*
X014902Y007658D01*
X014826Y007965D02*
X014519Y007965D01*
X014596Y007888D02*
X014596Y008041D01*
X014672Y008195D02*
X014596Y008272D01*
X014596Y008425D01*
X014672Y008502D01*
X014749Y008502D01*
X014749Y008195D01*
X014826Y008195D02*
X014672Y008195D01*
X014826Y008195D02*
X014902Y008272D01*
X014902Y008425D01*
X014902Y008041D02*
X014826Y007965D01*
X014442Y008272D02*
X014365Y008425D01*
X014596Y007274D02*
X014596Y007044D01*
X014672Y006967D01*
X014749Y007044D01*
X014749Y007197D01*
X014826Y007274D01*
X014902Y007197D01*
X014902Y006967D01*
X014902Y006814D02*
X014596Y006814D01*
X014902Y006814D02*
X014902Y006584D01*
X014826Y006507D01*
X014596Y006507D01*
X014672Y006353D02*
X014749Y006353D01*
X014749Y006046D01*
X014672Y006046D02*
X014596Y006123D01*
X014596Y006277D01*
X014672Y006353D01*
X014902Y006277D02*
X014902Y006123D01*
X014826Y006046D01*
X014672Y006046D01*
X014596Y005816D02*
X014902Y005816D01*
X014902Y005739D02*
X014902Y005893D01*
X015192Y005893D02*
X015652Y005893D01*
X015652Y006123D01*
X015576Y006200D01*
X015422Y006200D01*
X015346Y006123D01*
X015346Y005893D01*
X015422Y005739D02*
X015652Y005739D01*
X015652Y005509D01*
X015576Y005433D01*
X015499Y005509D01*
X015499Y005739D01*
X015422Y005739D02*
X015346Y005663D01*
X015346Y005509D01*
X015192Y005202D02*
X015652Y005202D01*
X015652Y005126D02*
X015652Y005279D01*
X015576Y004972D02*
X015422Y004972D01*
X015346Y004895D01*
X015346Y004742D01*
X015422Y004665D01*
X015576Y004665D01*
X015652Y004742D01*
X015652Y004895D01*
X015576Y004972D01*
X015192Y005126D02*
X015192Y005202D01*
X014902Y005126D02*
X014902Y004895D01*
X014826Y004819D01*
X014749Y004895D01*
X014749Y005126D01*
X014672Y005126D02*
X014902Y005126D01*
X014826Y005279D02*
X014902Y005356D01*
X014902Y005586D01*
X014596Y005586D02*
X014596Y005356D01*
X014672Y005279D01*
X014826Y005279D01*
X014672Y005126D02*
X014596Y005049D01*
X014596Y004895D01*
X014596Y004665D02*
X014596Y004588D01*
X014749Y004435D01*
X014902Y004435D02*
X014596Y004435D01*
X014672Y004282D02*
X014672Y004128D01*
X014672Y004282D02*
X014826Y004282D01*
X014902Y004205D01*
X014902Y004051D01*
X014826Y003975D01*
X014519Y003975D01*
X014442Y004051D01*
X014442Y004205D01*
X014519Y004282D01*
X015346Y004282D02*
X015422Y004205D01*
X015576Y004205D01*
X015652Y004282D01*
X015652Y004512D01*
X015729Y004512D02*
X015346Y004512D01*
X015346Y004282D01*
X015729Y004512D02*
X015806Y004435D01*
X015806Y004358D01*
X014596Y005739D02*
X014596Y005816D01*
X014442Y005816D02*
X014365Y005816D01*
X015346Y006430D02*
X015346Y006584D01*
X015422Y006660D01*
X015576Y006660D01*
X015652Y006584D01*
X015652Y006430D01*
X015576Y006353D01*
X015422Y006353D01*
X015346Y006430D01*
X015576Y006814D02*
X015576Y006890D01*
X015652Y006890D01*
X015652Y006814D01*
X015576Y006814D01*
D251*
X039049Y005921D03*
D252*
X038015Y019872D02*
X036015Y019872D01*
D253*
X001269Y004021D03*
X001269Y009857D03*
X001269Y010521D03*
X001269Y016357D03*
X001269Y017021D03*
X001269Y022857D03*
X001269Y023521D03*
X001269Y029357D03*
D254*
X035477Y009951D03*
X035452Y008344D03*
X042997Y019465D03*
D255*
X035684Y009724D03*
X035659Y008118D03*
D256*
X008196Y037022D02*
X007896Y037022D01*
X007596Y037022D01*
X007596Y037272D02*
X007896Y037272D01*
X008196Y037272D01*
X004217Y039515D02*
X004217Y039815D01*
X004217Y040115D01*
X003967Y040115D02*
X003967Y039815D01*
X003967Y039515D01*
D257*
X043224Y019672D03*
D258*
X038545Y027218D03*
X038545Y029718D03*
X020194Y034962D03*
X017694Y034962D03*
M02*
