G75*
G70*
%OFA0B0*%
%FSLAX24Y24*%
%IPPOS*%
%LPD*%
%AMOC8*
5,1,8,0,0,1.08239X$1,22.5*
%
%ADD10C,0.0591*%
%ADD11C,0.0554*%
%ADD12C,0.0660*%
%ADD13C,0.1300*%
%ADD14OC8,0.0630*%
%ADD15OC8,0.0520*%
%ADD16C,0.0630*%
%ADD17C,0.0476*%
%ADD18C,0.0560*%
%ADD19OC8,0.0560*%
%ADD20R,0.0860X0.0860*%
%ADD21C,0.0250*%
%ADD22C,0.0396*%
%ADD23C,0.0357*%
%ADD24C,0.0300*%
%ADD25C,0.0240*%
%ADD26C,0.0475*%
%ADD27C,0.0500*%
%ADD28C,0.0160*%
%ADD29C,0.0531*%
%ADD30C,0.0150*%
%ADD31C,0.0120*%
%ADD32C,0.0100*%
%ADD33C,0.0860*%
D10*
X021448Y003694D03*
X022448Y003694D03*
X023448Y003694D03*
X024448Y003694D03*
X025448Y003694D03*
X025448Y006694D03*
X024448Y006694D03*
X023448Y006694D03*
X022448Y006694D03*
X021448Y006694D03*
D11*
X006704Y007189D03*
X006704Y008189D03*
X005704Y007689D03*
X005704Y006689D03*
X005704Y005689D03*
X006704Y006189D03*
X005704Y012189D03*
X005704Y013189D03*
X005704Y014189D03*
X006704Y014689D03*
X006704Y013689D03*
X006704Y012689D03*
X005704Y018689D03*
X005704Y019689D03*
X005704Y020689D03*
X006704Y021189D03*
X006704Y020189D03*
X006704Y019189D03*
X005704Y025189D03*
X005704Y026189D03*
X005704Y027189D03*
X006704Y027689D03*
X006704Y026689D03*
X006704Y025689D03*
D12*
X046897Y007750D03*
X047677Y007750D03*
X047677Y006765D03*
X046897Y006765D03*
D13*
X048747Y004887D03*
X048747Y009627D03*
D14*
X005879Y032172D03*
X005879Y033172D03*
X002879Y032172D03*
X005879Y036172D03*
X005879Y037172D03*
X005879Y038172D03*
X002879Y038172D03*
D15*
X003097Y039815D03*
X005097Y039815D03*
X007896Y038142D03*
X007896Y036142D03*
D16*
X046097Y023515D03*
X047347Y023515D03*
X049847Y023515D03*
X049847Y017265D03*
X046097Y017265D03*
D17*
X046203Y015461D03*
X046207Y014476D03*
X042921Y014473D03*
X042917Y015457D03*
X046005Y025685D03*
X046990Y025689D03*
D18*
X040777Y017415D02*
X040217Y017415D01*
X040217Y016415D02*
X040777Y016415D01*
X036781Y015604D02*
X036221Y015604D01*
X036221Y014604D02*
X036781Y014604D01*
X010777Y029465D02*
X010217Y029465D01*
X010217Y030465D02*
X010777Y030465D01*
X008497Y039835D02*
X008497Y040395D01*
X008497Y041385D02*
X008497Y041945D01*
X007497Y041945D02*
X007497Y041385D01*
X007497Y040395D02*
X007497Y039835D01*
X006497Y039835D02*
X006497Y040395D01*
D19*
X017747Y012415D03*
X017747Y011415D03*
X017747Y010415D03*
X018747Y010415D03*
X018747Y011415D03*
X018747Y012415D03*
X018997Y007415D03*
X017997Y007415D03*
X017997Y006415D03*
X017997Y005415D03*
X017997Y004415D03*
X017997Y003415D03*
X018997Y003415D03*
X018997Y004415D03*
X018997Y005415D03*
X018997Y006415D03*
X028347Y008215D03*
X028347Y009215D03*
X029347Y009215D03*
X029347Y008215D03*
X029347Y010215D03*
X028347Y010215D03*
D20*
X050497Y027009D03*
X050497Y028978D03*
X050497Y030946D03*
X050497Y032915D03*
X050497Y034883D03*
X050497Y036852D03*
X050497Y038820D03*
X050497Y040789D03*
X046840Y043915D03*
X044871Y043915D03*
X042903Y043915D03*
X040934Y043915D03*
X038966Y043915D03*
X036997Y043915D03*
X035029Y043915D03*
X033060Y043915D03*
X031092Y043915D03*
X029123Y043915D03*
X027155Y043915D03*
X025186Y043915D03*
X022919Y043915D03*
X020950Y043915D03*
X018982Y043915D03*
X017013Y043915D03*
X015045Y043915D03*
X013076Y043915D03*
X007497Y043915D03*
X005529Y043915D03*
D21*
X015197Y017315D02*
X015197Y014465D01*
X009597Y003315D02*
X009597Y003165D01*
D22*
X009597Y003165D03*
X014897Y011315D03*
X015197Y014465D03*
X012797Y015565D03*
X015197Y017315D03*
X016497Y018415D03*
X013351Y019558D03*
X013997Y021415D03*
X018497Y025415D03*
X019247Y024415D03*
X021247Y024915D03*
X021997Y024915D03*
X025597Y027615D03*
X027997Y022415D03*
X028247Y019665D03*
X028997Y019415D03*
X033497Y021915D03*
X036997Y022415D03*
X029997Y014415D03*
X029997Y012915D03*
X028247Y013115D03*
X027747Y012565D03*
X027747Y011915D03*
X030997Y011415D03*
X031497Y004415D03*
X035497Y004065D03*
X040197Y004915D03*
X043497Y006815D03*
X022897Y004415D03*
X021897Y007415D03*
X017747Y014415D03*
X008897Y011815D03*
X009897Y026965D03*
X026247Y040665D03*
X030247Y040665D03*
X034247Y040665D03*
X038247Y040665D03*
X042247Y040665D03*
X046497Y040665D03*
X046997Y040665D03*
D23*
X047997Y041915D03*
X040747Y032415D03*
X039497Y030915D03*
X037497Y030915D03*
X036747Y032415D03*
X034874Y029377D03*
X035247Y027665D03*
X033747Y027665D03*
X032247Y028915D03*
X032997Y029415D03*
X031497Y029415D03*
X029247Y029415D03*
X029247Y028415D03*
X027747Y027665D03*
X026497Y028415D03*
X027497Y029415D03*
X028747Y032415D03*
X024747Y032415D03*
X021997Y029915D03*
X022497Y029415D03*
X021997Y028915D03*
X022497Y028415D03*
X021997Y027915D03*
X022497Y027415D03*
X021997Y026915D03*
X022997Y024415D03*
X024997Y025915D03*
X028247Y025915D03*
X032997Y024665D03*
X034747Y024665D03*
X036247Y025315D03*
X037247Y025665D03*
X038497Y024415D03*
X038997Y025915D03*
X039497Y026415D03*
X039497Y028415D03*
X039497Y028915D03*
X038497Y028915D03*
X037997Y028415D03*
X036997Y028415D03*
X041997Y028415D03*
X041997Y030165D03*
X041997Y026415D03*
X042747Y025915D03*
X044997Y024915D03*
X044997Y023915D03*
X045997Y027415D03*
X045997Y028415D03*
X045997Y029415D03*
X045997Y030165D03*
X045997Y031915D03*
X047997Y028415D03*
X038506Y021659D03*
X037497Y018415D03*
X034997Y019415D03*
X033123Y019415D03*
X032997Y018415D03*
X032997Y017415D03*
X028247Y017665D03*
X028247Y018165D03*
X028247Y018665D03*
X026497Y013915D03*
X021497Y013415D03*
X019997Y014415D03*
X016997Y016915D03*
X018497Y023165D03*
X019997Y024415D03*
X020247Y031165D03*
X017497Y031165D03*
X017497Y033915D03*
X017997Y034665D03*
X017497Y036415D03*
X019497Y036165D03*
X020497Y034415D03*
X019997Y033915D03*
X014597Y032915D03*
X013997Y032915D03*
X009747Y028665D03*
X008997Y025415D03*
X008997Y018415D03*
X008997Y013915D03*
X009997Y011415D03*
X032747Y032415D03*
X017247Y040415D03*
X013997Y038915D03*
X012247Y038915D03*
D24*
X027747Y027665D02*
X033747Y027665D01*
D25*
X035247Y027665D01*
X036997Y026165D01*
X038997Y025915D01*
X038497Y026415D02*
X039497Y026415D01*
X038497Y026415D02*
X036997Y026915D01*
X036497Y027415D01*
X036497Y028915D01*
X034997Y030415D01*
X026997Y030415D01*
X024997Y028415D01*
X022497Y028415D01*
X021997Y028915D02*
X024497Y028915D01*
X026497Y030915D01*
X035497Y030915D01*
X037997Y028415D01*
X037997Y027915D01*
X038247Y027665D01*
X044247Y027665D01*
X045997Y029415D01*
X046997Y030415D01*
X046997Y030915D01*
X049497Y033415D01*
X049497Y034415D01*
X049966Y034883D01*
X050497Y034883D01*
X048997Y033915D02*
X048997Y036415D01*
X049434Y036852D01*
X050497Y036852D01*
X049403Y038820D02*
X048497Y037915D01*
X048497Y034415D01*
X045997Y031915D01*
X045997Y030915D02*
X045997Y030165D01*
X045997Y030915D02*
X048997Y033915D01*
X049997Y032915D02*
X049497Y032415D01*
X049497Y031915D01*
X045997Y028415D01*
X049997Y032915D02*
X050497Y032915D01*
X050497Y038820D02*
X049403Y038820D01*
X039497Y028915D02*
X038497Y029915D01*
X037497Y029915D01*
X035997Y031415D01*
X025997Y031415D01*
X023997Y029415D01*
X022497Y029415D01*
X021997Y029915D02*
X023497Y029915D01*
X025497Y031915D01*
X036497Y031915D01*
X037497Y030915D01*
X027747Y027665D02*
X025647Y027665D01*
X025597Y027615D01*
X038506Y021659D02*
X038512Y021665D01*
X038515Y021665D01*
X012497Y038415D02*
X012247Y038665D01*
X012247Y038915D01*
D26*
X012497Y033915D03*
X012997Y028915D03*
X024497Y033915D03*
X025497Y033915D03*
X028497Y033915D03*
X029497Y033915D03*
X032497Y033915D03*
X033497Y033915D03*
X036497Y033915D03*
X037497Y033915D03*
X040497Y033915D03*
X041497Y033915D03*
X044497Y033915D03*
X045497Y033915D03*
D27*
X046497Y040665D02*
X042247Y040665D01*
X038247Y040665D01*
X034247Y040665D01*
X030247Y040665D01*
X026247Y040665D01*
X019997Y033915D02*
X017497Y033915D01*
X012497Y033915D01*
X012997Y028915D02*
X016497Y025415D01*
X018497Y025415D01*
X046497Y040665D02*
X046997Y040665D01*
D28*
X017646Y004031D02*
X004124Y004031D01*
X004002Y004153D02*
X004100Y004251D01*
X004247Y004507D01*
X004324Y004792D01*
X004324Y005086D01*
X004247Y005371D01*
X004100Y005627D01*
X003891Y005835D01*
X003636Y005983D01*
X003351Y006059D01*
X003056Y006059D01*
X002771Y005983D01*
X002516Y005835D01*
X002497Y005817D01*
X002497Y008061D01*
X002516Y008043D01*
X002771Y007895D01*
X003056Y007819D01*
X003351Y007819D01*
X003636Y007895D01*
X003891Y008043D01*
X004100Y008251D01*
X004247Y008507D01*
X004324Y008792D01*
X004324Y009086D01*
X004247Y009371D01*
X004100Y009627D01*
X003891Y009835D01*
X003636Y009983D01*
X003351Y010059D01*
X003056Y010059D01*
X002771Y009983D01*
X002516Y009835D01*
X002497Y009817D01*
X002497Y010561D01*
X002516Y010543D01*
X002771Y010395D01*
X003056Y010319D01*
X003351Y010319D01*
X003636Y010395D01*
X003891Y010543D01*
X004100Y010751D01*
X004247Y011007D01*
X004324Y011292D01*
X004324Y011586D01*
X004247Y011871D01*
X004100Y012127D01*
X003891Y012335D01*
X003636Y012483D01*
X003351Y012559D01*
X003056Y012559D01*
X002771Y012483D01*
X002516Y012335D01*
X002497Y012317D01*
X002497Y014561D01*
X002516Y014543D01*
X002771Y014395D01*
X003056Y014319D01*
X003351Y014319D01*
X003636Y014395D01*
X003891Y014543D01*
X004100Y014751D01*
X004247Y015007D01*
X004324Y015292D01*
X004324Y015586D01*
X004247Y015871D01*
X004100Y016127D01*
X003891Y016335D01*
X003636Y016483D01*
X003351Y016559D01*
X003056Y016559D01*
X002771Y016483D01*
X002516Y016335D01*
X002497Y016317D01*
X002497Y017061D01*
X002516Y017043D01*
X002771Y016895D01*
X003056Y016819D01*
X003351Y016819D01*
X003636Y016895D01*
X003891Y017043D01*
X004100Y017251D01*
X004247Y017507D01*
X004324Y017792D01*
X004324Y018086D01*
X004247Y018371D01*
X004100Y018627D01*
X003891Y018835D01*
X003636Y018983D01*
X003351Y019059D01*
X003056Y019059D01*
X002771Y018983D01*
X002516Y018835D01*
X002497Y018817D01*
X002497Y021061D01*
X002516Y021043D01*
X002771Y020895D01*
X003056Y020819D01*
X003351Y020819D01*
X003636Y020895D01*
X003891Y021043D01*
X004100Y021251D01*
X004247Y021507D01*
X004324Y021792D01*
X004324Y022086D01*
X004247Y022371D01*
X004100Y022627D01*
X003891Y022835D01*
X003636Y022983D01*
X003351Y023059D01*
X003056Y023059D01*
X002771Y022983D01*
X002516Y022835D01*
X002497Y022817D01*
X002497Y023561D01*
X002516Y023543D01*
X002771Y023395D01*
X003056Y023319D01*
X003351Y023319D01*
X003636Y023395D01*
X003891Y023543D01*
X004100Y023751D01*
X004247Y024007D01*
X004324Y024292D01*
X004324Y024586D01*
X004247Y024871D01*
X004100Y025127D01*
X003891Y025335D01*
X003636Y025483D01*
X003351Y025559D01*
X003056Y025559D01*
X002771Y025483D01*
X002516Y025335D01*
X002497Y025317D01*
X002497Y027561D01*
X002516Y027543D01*
X002771Y027395D01*
X003056Y027319D01*
X003351Y027319D01*
X003636Y027395D01*
X003891Y027543D01*
X004100Y027751D01*
X004247Y028007D01*
X004324Y028292D01*
X004324Y028586D01*
X004247Y028871D01*
X004100Y029127D01*
X003891Y029335D01*
X003636Y029483D01*
X003351Y029559D01*
X003056Y029559D01*
X002771Y029483D01*
X002516Y029335D01*
X002495Y029314D01*
X002488Y031778D01*
X002649Y031617D01*
X003109Y031617D01*
X003434Y031943D01*
X003434Y032402D01*
X003109Y032727D01*
X002649Y032727D01*
X002486Y032565D01*
X002484Y033665D01*
X010849Y033675D01*
X012229Y035923D01*
X012197Y043915D01*
X012406Y043915D01*
X012406Y043437D01*
X012443Y043349D01*
X012510Y043281D01*
X012598Y043245D01*
X013554Y043245D01*
X013642Y043281D01*
X013710Y043349D01*
X013746Y043437D01*
X013746Y043915D01*
X014375Y043915D01*
X014375Y043437D01*
X014411Y043349D01*
X014479Y043281D01*
X014567Y043245D01*
X015522Y043245D01*
X015611Y043281D01*
X015678Y043349D01*
X015715Y043437D01*
X015715Y043915D01*
X016343Y043915D01*
X016343Y043437D01*
X016380Y043349D01*
X016447Y043281D01*
X016535Y043245D01*
X017491Y043245D01*
X017579Y043281D01*
X017647Y043349D01*
X017683Y043437D01*
X017683Y043915D01*
X018944Y043915D01*
X018944Y043877D01*
X019020Y043877D01*
X019020Y043915D01*
X020280Y043915D01*
X020280Y043437D01*
X020317Y043349D01*
X020384Y043281D01*
X020472Y043245D01*
X021428Y043245D01*
X021516Y043281D01*
X021584Y043349D01*
X021620Y043437D01*
X021620Y043915D01*
X022249Y043915D01*
X022249Y043437D01*
X022285Y043349D01*
X022353Y043281D01*
X022441Y043245D01*
X023396Y043245D01*
X023485Y043281D01*
X023552Y043349D01*
X023589Y043437D01*
X023589Y043915D01*
X024516Y043915D01*
X024516Y043437D01*
X024553Y043349D01*
X024621Y043281D01*
X024709Y043245D01*
X025664Y043245D01*
X025752Y043281D01*
X025820Y043349D01*
X025856Y043437D01*
X025856Y043915D01*
X026485Y043915D01*
X026485Y043437D01*
X026521Y043349D01*
X026589Y043281D01*
X026677Y043245D01*
X027633Y043245D01*
X027721Y043281D01*
X027788Y043349D01*
X027825Y043437D01*
X027825Y043915D01*
X029085Y043915D01*
X029085Y043877D01*
X028513Y043877D01*
X028513Y043461D01*
X028526Y043415D01*
X028549Y043374D01*
X028583Y043341D01*
X028624Y043317D01*
X028670Y043305D01*
X029085Y043305D01*
X029085Y043877D01*
X029162Y043877D01*
X029162Y043915D01*
X030422Y043915D01*
X030422Y043437D01*
X030459Y043349D01*
X030526Y043281D01*
X030614Y043245D01*
X031570Y043245D01*
X031658Y043281D01*
X031725Y043349D01*
X031762Y043437D01*
X031762Y043915D01*
X032390Y043915D01*
X032390Y043437D01*
X032427Y043349D01*
X032495Y043281D01*
X032583Y043245D01*
X033538Y043245D01*
X033626Y043281D01*
X033694Y043349D01*
X033730Y043437D01*
X033730Y043915D01*
X034359Y043915D01*
X034359Y043437D01*
X034396Y043349D01*
X034463Y043281D01*
X034551Y043245D01*
X035507Y043245D01*
X035595Y043281D01*
X035662Y043349D01*
X035699Y043437D01*
X035699Y043915D01*
X036959Y043915D01*
X036959Y043877D01*
X036387Y043877D01*
X036387Y043461D01*
X036400Y043415D01*
X036423Y043374D01*
X036457Y043341D01*
X036498Y043317D01*
X036544Y043305D01*
X036959Y043305D01*
X036959Y043877D01*
X037036Y043877D01*
X037036Y043915D01*
X038296Y043915D01*
X038296Y043437D01*
X038333Y043349D01*
X038400Y043281D01*
X038488Y043245D01*
X039444Y043245D01*
X039532Y043281D01*
X039599Y043349D01*
X039636Y043437D01*
X039636Y043915D01*
X040264Y043915D01*
X040264Y043437D01*
X040301Y043349D01*
X040369Y043281D01*
X040457Y043245D01*
X041412Y043245D01*
X041500Y043281D01*
X041568Y043349D01*
X041604Y043437D01*
X041604Y043915D01*
X042233Y043915D01*
X042233Y043437D01*
X042270Y043349D01*
X042337Y043281D01*
X042425Y043245D01*
X043381Y043245D01*
X043469Y043281D01*
X043536Y043349D01*
X043573Y043437D01*
X043573Y043915D01*
X044201Y043915D01*
X044201Y043437D01*
X044238Y043349D01*
X044306Y043281D01*
X044394Y043245D01*
X045349Y043245D01*
X045437Y043281D01*
X045505Y043349D01*
X045541Y043437D01*
X045541Y043915D01*
X046170Y043915D01*
X046170Y043437D01*
X046207Y043349D01*
X046274Y043281D01*
X046362Y043245D01*
X047318Y043245D01*
X047406Y043281D01*
X047473Y043349D01*
X047510Y043437D01*
X047510Y043902D01*
X049315Y042098D01*
X048896Y041888D01*
X048859Y041873D01*
X048852Y041866D01*
X048844Y041862D01*
X048818Y041832D01*
X047441Y040455D01*
X047487Y040567D01*
X047487Y040762D01*
X047413Y040943D01*
X047275Y041080D01*
X047095Y041155D01*
X026150Y041155D01*
X025970Y041080D01*
X025832Y040943D01*
X025757Y040762D01*
X025757Y040567D01*
X025832Y040387D01*
X025970Y040250D01*
X026150Y040175D01*
X047095Y040175D01*
X047208Y040222D01*
X046040Y039054D01*
X046002Y038964D01*
X046002Y035516D01*
X045396Y034910D01*
X023949Y034910D01*
X023859Y034873D01*
X023790Y034804D01*
X023752Y034714D01*
X023752Y033366D01*
X023784Y033290D01*
X023752Y033214D01*
X023752Y033116D01*
X023790Y033026D01*
X023859Y032957D01*
X023949Y032920D01*
X046296Y032920D01*
X046386Y032957D01*
X047886Y034457D01*
X047955Y034526D01*
X047992Y034616D01*
X047992Y038063D01*
X049955Y040026D01*
X049992Y040116D01*
X049992Y040130D01*
X050020Y040119D01*
X050497Y040119D01*
X050497Y039490D01*
X050020Y039490D01*
X049932Y039454D01*
X049864Y039386D01*
X049827Y039298D01*
X049827Y039180D01*
X049331Y039180D01*
X049199Y039126D01*
X048294Y038220D01*
X048192Y038119D01*
X048137Y037987D01*
X048137Y034564D01*
X045902Y032328D01*
X045760Y032270D01*
X045643Y032152D01*
X045579Y031998D01*
X045579Y031832D01*
X045643Y031678D01*
X045760Y031560D01*
X045914Y031497D01*
X046070Y031497D01*
X045794Y031220D01*
X045692Y031119D01*
X045637Y030987D01*
X045637Y030389D01*
X045579Y030248D01*
X045579Y030082D01*
X045643Y029928D01*
X045760Y029810D01*
X045809Y029790D01*
X045760Y029770D01*
X045643Y029652D01*
X045584Y029511D01*
X044098Y028025D01*
X038397Y028025D01*
X038357Y028064D01*
X038357Y028191D01*
X038416Y028332D01*
X038416Y028498D01*
X038352Y028652D01*
X038234Y028770D01*
X038093Y028828D01*
X037325Y029597D01*
X037426Y029555D01*
X038348Y029555D01*
X039084Y028819D01*
X039143Y028678D01*
X039260Y028560D01*
X039414Y028497D01*
X039581Y028497D01*
X039734Y028560D01*
X039852Y028678D01*
X039916Y028832D01*
X039916Y028998D01*
X039852Y029152D01*
X039734Y029270D01*
X039593Y029328D01*
X038701Y030220D01*
X038569Y030275D01*
X037647Y030275D01*
X037425Y030497D01*
X037581Y030497D01*
X037734Y030560D01*
X037852Y030678D01*
X037916Y030832D01*
X037916Y030998D01*
X037852Y031152D01*
X037734Y031270D01*
X037593Y031328D01*
X036701Y032220D01*
X036569Y032275D01*
X025426Y032275D01*
X025294Y032220D01*
X025192Y032119D01*
X023348Y030275D01*
X022222Y030275D01*
X022081Y030333D01*
X021914Y030333D01*
X021760Y030270D01*
X021643Y030152D01*
X021579Y029998D01*
X021579Y029832D01*
X021643Y029678D01*
X021760Y029560D01*
X021914Y029497D01*
X022079Y029497D01*
X022079Y029333D01*
X021914Y029333D01*
X021760Y029270D01*
X021643Y029152D01*
X021579Y028998D01*
X021579Y028832D01*
X021643Y028678D01*
X021760Y028560D01*
X021914Y028497D01*
X022079Y028497D01*
X022079Y028333D01*
X021914Y028333D01*
X021760Y028270D01*
X021643Y028152D01*
X021579Y027998D01*
X021579Y027832D01*
X021643Y027678D01*
X021760Y027560D01*
X021914Y027497D01*
X022079Y027497D01*
X022079Y027333D01*
X021914Y027333D01*
X021760Y027270D01*
X021643Y027152D01*
X021579Y026998D01*
X021579Y026832D01*
X021643Y026678D01*
X021760Y026560D01*
X021914Y026497D01*
X022081Y026497D01*
X022234Y026560D01*
X022269Y026595D01*
X023365Y026595D01*
X023726Y026234D01*
X023816Y026144D01*
X023934Y026095D01*
X029615Y026095D01*
X030476Y025234D01*
X030566Y025144D01*
X030684Y025095D01*
X033865Y025095D01*
X034329Y024631D01*
X034329Y024582D01*
X034393Y024428D01*
X034510Y024310D01*
X034664Y024247D01*
X034831Y024247D01*
X034984Y024310D01*
X035102Y024428D01*
X035166Y024582D01*
X035166Y024748D01*
X035102Y024902D01*
X034984Y025020D01*
X034831Y025083D01*
X034782Y025083D01*
X034770Y025095D01*
X035886Y025095D01*
X035893Y025078D01*
X036010Y024960D01*
X036164Y024897D01*
X036331Y024897D01*
X036484Y024960D01*
X036602Y025078D01*
X036666Y025232D01*
X036666Y025398D01*
X036602Y025552D01*
X036559Y025595D01*
X036615Y025595D01*
X036726Y025484D01*
X036816Y025394D01*
X036934Y025345D01*
X036976Y025345D01*
X037010Y025310D01*
X037164Y025247D01*
X037331Y025247D01*
X037484Y025310D01*
X037602Y025428D01*
X037666Y025582D01*
X037666Y025719D01*
X038736Y025585D01*
X038760Y025560D01*
X038914Y025497D01*
X039081Y025497D01*
X039159Y025529D01*
X038463Y024833D01*
X038414Y024833D01*
X038260Y024770D01*
X038143Y024652D01*
X038079Y024498D01*
X038079Y024332D01*
X038143Y024178D01*
X038260Y024060D01*
X038414Y023997D01*
X038581Y023997D01*
X038734Y024060D01*
X038852Y024178D01*
X038916Y024332D01*
X038916Y024381D01*
X040130Y025595D01*
X042476Y025595D01*
X042510Y025560D01*
X042664Y025497D01*
X042831Y025497D01*
X042984Y025560D01*
X043102Y025678D01*
X043166Y025832D01*
X043166Y025998D01*
X043102Y026152D01*
X042984Y026270D01*
X042831Y026333D01*
X042664Y026333D01*
X042510Y026270D01*
X042476Y026235D01*
X039934Y026235D01*
X039864Y026206D01*
X039916Y026332D01*
X039916Y026498D01*
X039852Y026652D01*
X039734Y026770D01*
X039581Y026833D01*
X039414Y026833D01*
X039273Y026775D01*
X038556Y026775D01*
X037192Y027230D01*
X036857Y027564D01*
X036857Y028987D01*
X036816Y029088D01*
X037584Y028319D01*
X037637Y028191D01*
X037637Y027843D01*
X037692Y027711D01*
X037794Y027610D01*
X037942Y027461D01*
X038044Y027360D01*
X038176Y027305D01*
X044319Y027305D01*
X044451Y027360D01*
X044553Y027461D01*
X045579Y028487D01*
X045579Y028332D01*
X045643Y028178D01*
X045760Y028060D01*
X045914Y027997D01*
X046081Y027997D01*
X046159Y028029D01*
X045963Y027833D01*
X045914Y027833D01*
X045760Y027770D01*
X045643Y027652D01*
X045579Y027498D01*
X045579Y027332D01*
X045643Y027178D01*
X045760Y027060D01*
X045914Y026997D01*
X046081Y026997D01*
X046234Y027060D01*
X046352Y027178D01*
X046416Y027332D01*
X046416Y027381D01*
X049630Y030595D01*
X049827Y030595D01*
X049827Y030469D01*
X049864Y030381D01*
X049932Y030313D01*
X050020Y030276D01*
X050497Y030276D01*
X050497Y029648D01*
X050020Y029648D01*
X049932Y029611D01*
X049864Y029544D01*
X049827Y029456D01*
X049827Y029235D01*
X048934Y029235D01*
X048816Y029186D01*
X048726Y029096D01*
X048226Y028596D01*
X048177Y028479D01*
X048177Y026548D01*
X047452Y025822D01*
X047395Y025959D01*
X047260Y026094D01*
X047085Y026166D01*
X046895Y026166D01*
X046719Y026094D01*
X046585Y025959D01*
X046512Y025784D01*
X046512Y025594D01*
X046585Y025418D01*
X046719Y025284D01*
X046836Y025235D01*
X045269Y025235D01*
X045234Y025270D01*
X045233Y025270D02*
X045952Y025270D01*
X045972Y025267D02*
X046005Y025267D01*
X046005Y025685D01*
X046005Y026102D01*
X045972Y026102D01*
X045908Y026092D01*
X045845Y026072D01*
X045786Y026042D01*
X045733Y026003D01*
X045687Y025957D01*
X045648Y025904D01*
X045618Y025845D01*
X045598Y025782D01*
X045588Y025718D01*
X045588Y025685D01*
X046005Y025685D01*
X046005Y025685D01*
X046005Y025685D01*
X045588Y025685D01*
X045588Y025652D01*
X045598Y025587D01*
X043011Y025587D01*
X043130Y025746D02*
X045592Y025746D01*
X045598Y025587D02*
X045618Y025524D01*
X045648Y025466D01*
X045687Y025412D01*
X045733Y025366D01*
X045786Y025327D01*
X045845Y025297D01*
X045908Y025277D01*
X045972Y025267D01*
X046005Y025267D02*
X046038Y025267D01*
X046103Y025277D01*
X046166Y025297D01*
X046224Y025327D01*
X046278Y025366D01*
X046324Y025412D01*
X046363Y025466D01*
X046393Y025524D01*
X046413Y025587D01*
X046514Y025587D01*
X046413Y025587D02*
X046423Y025652D01*
X046423Y025685D01*
X046423Y025718D01*
X046413Y025782D01*
X046393Y025845D01*
X046363Y025904D01*
X046324Y025957D01*
X046278Y026003D01*
X046224Y026042D01*
X046166Y026072D01*
X046103Y026092D01*
X046038Y026102D01*
X046005Y026102D01*
X046005Y025685D01*
X046423Y025685D01*
X046005Y025685D01*
X046005Y025685D01*
X046005Y025685D01*
X046005Y025267D01*
X046005Y025270D02*
X046005Y025270D01*
X046059Y025270D02*
X046751Y025270D01*
X046580Y025429D02*
X046336Y025429D01*
X046419Y025746D02*
X046512Y025746D01*
X046562Y025904D02*
X046362Y025904D01*
X046184Y026063D02*
X046688Y026063D01*
X047291Y026063D02*
X047693Y026063D01*
X047851Y026221D02*
X043033Y026221D01*
X043139Y026063D02*
X045827Y026063D01*
X046005Y026063D02*
X046005Y026063D01*
X046005Y025904D02*
X046005Y025904D01*
X046005Y025746D02*
X046005Y025746D01*
X046005Y025587D02*
X046005Y025587D01*
X046005Y025429D02*
X046005Y025429D01*
X045675Y025429D02*
X039964Y025429D01*
X040122Y025587D02*
X042484Y025587D01*
X042747Y025915D02*
X039997Y025915D01*
X038497Y024415D01*
X038321Y024795D02*
X035147Y024795D01*
X035166Y024636D02*
X038136Y024636D01*
X038079Y024478D02*
X035123Y024478D01*
X034993Y024319D02*
X038084Y024319D01*
X038160Y024161D02*
X020335Y024161D01*
X020352Y024178D02*
X020416Y024332D01*
X020416Y024498D01*
X020376Y024595D01*
X020948Y024595D01*
X020999Y024544D01*
X021160Y024477D01*
X021335Y024477D01*
X021496Y024544D01*
X021619Y024667D01*
X021622Y024675D01*
X021626Y024667D01*
X021749Y024544D01*
X021910Y024477D01*
X022085Y024477D01*
X022246Y024544D01*
X022369Y024667D01*
X022436Y024828D01*
X022436Y025002D01*
X022369Y025163D01*
X022246Y025286D01*
X022085Y025353D01*
X022012Y025353D01*
X021769Y025596D01*
X021679Y025686D01*
X021561Y025735D01*
X020130Y025735D01*
X014817Y031048D01*
X014817Y032553D01*
X014834Y032560D01*
X014952Y032678D01*
X015016Y032832D01*
X015016Y032998D01*
X014952Y033152D01*
X014834Y033270D01*
X014681Y033333D01*
X014514Y033333D01*
X014360Y033270D01*
X014297Y033207D01*
X014234Y033270D01*
X014081Y033333D01*
X013914Y033333D01*
X013760Y033270D01*
X013643Y033152D01*
X013579Y032998D01*
X013579Y032832D01*
X013643Y032678D01*
X013677Y032643D01*
X013677Y030851D01*
X013726Y030734D01*
X013816Y030644D01*
X018555Y025905D01*
X016700Y025905D01*
X013275Y029330D01*
X013095Y029405D01*
X012900Y029405D01*
X012720Y029330D01*
X012582Y029193D01*
X012507Y029012D01*
X012507Y028817D01*
X012582Y028637D01*
X016082Y025137D01*
X016220Y025000D01*
X016400Y024925D01*
X018595Y024925D01*
X018775Y025000D01*
X018913Y025137D01*
X018987Y025317D01*
X018987Y025472D01*
X019725Y024735D01*
X019643Y024652D01*
X019633Y024629D01*
X019619Y024663D01*
X019496Y024786D01*
X019335Y024853D01*
X019160Y024853D01*
X018999Y024786D01*
X018928Y024715D01*
X017938Y024715D01*
X017828Y024669D01*
X017743Y024585D01*
X017243Y024085D01*
X017197Y023975D01*
X017197Y016539D01*
X016743Y016085D01*
X016697Y015975D01*
X016697Y010855D01*
X016743Y010745D01*
X016828Y010661D01*
X017227Y010261D01*
X017227Y010200D01*
X017532Y009895D01*
X017963Y009895D01*
X018247Y010180D01*
X018532Y009895D01*
X018963Y009895D01*
X019267Y010200D01*
X019267Y010630D01*
X018983Y010915D01*
X019267Y011200D01*
X019267Y011630D01*
X018983Y011915D01*
X019267Y012200D01*
X019267Y012630D01*
X018963Y012935D01*
X018532Y012935D01*
X018247Y012650D01*
X017963Y012935D01*
X017547Y012935D01*
X017547Y014024D01*
X017660Y013977D01*
X017835Y013977D01*
X017996Y014044D01*
X018047Y014095D01*
X018365Y014095D01*
X020816Y011644D01*
X020934Y011595D01*
X027448Y011595D01*
X027499Y011544D01*
X027660Y011477D01*
X027835Y011477D01*
X027996Y011544D01*
X028119Y011667D01*
X028152Y011748D01*
X029246Y010675D01*
X029157Y010675D01*
X028887Y010405D01*
X028887Y010225D01*
X029337Y010225D01*
X029337Y010205D01*
X028887Y010205D01*
X028887Y010024D01*
X029157Y009755D01*
X029337Y009755D01*
X029337Y010205D01*
X029357Y010205D01*
X029357Y009755D01*
X029538Y009755D01*
X029807Y010024D01*
X029807Y010124D01*
X030047Y009889D01*
X030047Y006480D01*
X029919Y006351D01*
X029842Y006166D01*
X029842Y005964D01*
X029919Y005778D01*
X030061Y005636D01*
X030247Y005559D01*
X030448Y005559D01*
X030634Y005636D01*
X030776Y005778D01*
X030853Y005964D01*
X030853Y006166D01*
X030776Y006351D01*
X030647Y006480D01*
X030647Y006850D01*
X030719Y006678D01*
X030861Y006536D01*
X031047Y006459D01*
X031248Y006459D01*
X031434Y006536D01*
X031576Y006678D01*
X031653Y006864D01*
X031653Y007066D01*
X031576Y007251D01*
X031447Y007380D01*
X031447Y010275D01*
X031402Y010385D01*
X031317Y010469D01*
X028686Y013101D01*
X028686Y013141D01*
X030559Y011411D01*
X030559Y011328D01*
X030626Y011167D01*
X030749Y011044D01*
X030910Y010977D01*
X031085Y010977D01*
X031246Y011044D01*
X031369Y011167D01*
X031436Y011328D01*
X031436Y011502D01*
X031369Y011663D01*
X031246Y011786D01*
X031085Y011853D01*
X030965Y011853D01*
X028047Y014546D01*
X028047Y016662D01*
X028476Y016234D01*
X028566Y016144D01*
X028684Y016095D01*
X032061Y016095D01*
X032179Y016144D01*
X033032Y016997D01*
X033081Y016997D01*
X033234Y017060D01*
X033352Y017178D01*
X033416Y017332D01*
X033416Y017498D01*
X033352Y017652D01*
X033234Y017770D01*
X033081Y017833D01*
X032914Y017833D01*
X032760Y017770D01*
X032643Y017652D01*
X032579Y017498D01*
X032579Y017449D01*
X032317Y017188D01*
X032317Y017717D01*
X032893Y018005D01*
X032914Y017997D01*
X033081Y017997D01*
X033234Y018060D01*
X033352Y018178D01*
X033416Y018332D01*
X033416Y018498D01*
X033352Y018652D01*
X033234Y018770D01*
X033081Y018833D01*
X032914Y018833D01*
X032760Y018770D01*
X032643Y018652D01*
X032613Y018581D01*
X031865Y018206D01*
X031816Y018186D01*
X031808Y018178D01*
X031797Y018173D01*
X031763Y018133D01*
X031726Y018096D01*
X031722Y018085D01*
X031714Y018077D01*
X031697Y018027D01*
X031677Y017979D01*
X031677Y017967D01*
X031674Y017956D01*
X031677Y017904D01*
X031677Y017298D01*
X031615Y017235D01*
X029380Y017235D01*
X029317Y017298D01*
X029317Y017979D01*
X031678Y017979D01*
X031677Y017821D02*
X029317Y017821D01*
X029317Y017979D02*
X029269Y018096D01*
X029179Y018186D01*
X028929Y018436D01*
X028811Y018485D01*
X028519Y018485D01*
X028484Y018520D01*
X028331Y018583D01*
X028164Y018583D01*
X028047Y018535D01*
X028047Y018712D01*
X028812Y019018D01*
X028910Y018977D01*
X029085Y018977D01*
X029246Y019044D01*
X029369Y019167D01*
X029436Y019328D01*
X029436Y019502D01*
X029369Y019663D01*
X029317Y019715D01*
X029317Y023095D01*
X031576Y023095D01*
X032427Y021818D01*
X032427Y019590D01*
X032424Y019579D01*
X032427Y019527D01*
X032427Y019475D01*
X032432Y019464D01*
X032433Y019452D01*
X032456Y019406D01*
X029436Y019406D01*
X029410Y019564D02*
X032425Y019564D01*
X032427Y019723D02*
X029317Y019723D01*
X029317Y019881D02*
X032427Y019881D01*
X032427Y020040D02*
X029317Y020040D01*
X029317Y020198D02*
X032427Y020198D01*
X032427Y020357D02*
X029317Y020357D01*
X029317Y020515D02*
X032427Y020515D01*
X032427Y020674D02*
X029317Y020674D01*
X029317Y020832D02*
X032427Y020832D01*
X032427Y020991D02*
X029317Y020991D01*
X029317Y021149D02*
X032427Y021149D01*
X032427Y021308D02*
X029317Y021308D01*
X029317Y021466D02*
X032427Y021466D01*
X032427Y021625D02*
X029317Y021625D01*
X029317Y021783D02*
X032427Y021783D01*
X032345Y021942D02*
X029317Y021942D01*
X029317Y022100D02*
X032239Y022100D01*
X032134Y022259D02*
X029317Y022259D01*
X029317Y022417D02*
X032028Y022417D01*
X031922Y022576D02*
X029317Y022576D01*
X029317Y022734D02*
X031817Y022734D01*
X031711Y022893D02*
X029317Y022893D01*
X029317Y023051D02*
X031605Y023051D01*
X031747Y023415D02*
X032747Y021915D01*
X032747Y019539D01*
X033123Y019415D01*
X033507Y019247D02*
X034614Y019247D01*
X034643Y019178D02*
X034760Y019060D01*
X034914Y018997D01*
X035081Y018997D01*
X035234Y019060D01*
X035289Y019115D01*
X036373Y019115D01*
X037079Y018409D01*
X037079Y018332D01*
X037143Y018178D01*
X037260Y018060D01*
X037414Y017997D01*
X037581Y017997D01*
X037734Y018060D01*
X037852Y018178D01*
X037916Y018332D01*
X037916Y018498D01*
X037884Y018576D01*
X038177Y018282D01*
X038177Y017048D01*
X037865Y016735D01*
X033434Y016735D01*
X033316Y016686D01*
X031365Y014735D01*
X030297Y014735D01*
X030246Y014786D01*
X030085Y014853D01*
X029910Y014853D01*
X029749Y014786D01*
X029626Y014663D01*
X029559Y014502D01*
X029559Y014328D01*
X029626Y014167D01*
X029749Y014044D01*
X029910Y013977D01*
X030085Y013977D01*
X030246Y014044D01*
X030297Y014095D01*
X031561Y014095D01*
X031679Y014144D01*
X031769Y014234D01*
X033630Y016095D01*
X036047Y016095D01*
X035927Y016045D01*
X035781Y015899D01*
X035701Y015708D01*
X035701Y015501D01*
X035781Y015310D01*
X035927Y015164D01*
X036070Y015104D01*
X035927Y015045D01*
X035781Y014899D01*
X035701Y014708D01*
X035701Y014501D01*
X035781Y014310D01*
X035927Y014164D01*
X036118Y014084D01*
X036885Y014084D01*
X037076Y014164D01*
X037222Y014310D01*
X037301Y014501D01*
X037301Y014708D01*
X037222Y014899D01*
X037076Y015045D01*
X036933Y015104D01*
X037076Y015164D01*
X037222Y015310D01*
X037301Y015501D01*
X037301Y015708D01*
X037222Y015899D01*
X037076Y016045D01*
X036956Y016095D01*
X038061Y016095D01*
X038179Y016144D01*
X038269Y016234D01*
X038769Y016734D01*
X038817Y016851D01*
X038817Y018479D01*
X038769Y018596D01*
X038679Y018686D01*
X037317Y020048D01*
X037317Y022115D01*
X037369Y022167D01*
X037436Y022328D01*
X037436Y022502D01*
X037369Y022663D01*
X037246Y022786D01*
X037085Y022853D01*
X036910Y022853D01*
X036749Y022786D01*
X036626Y022663D01*
X036559Y022502D01*
X036559Y022328D01*
X036626Y022167D01*
X036677Y022115D01*
X036677Y019851D01*
X036726Y019734D01*
X037659Y018801D01*
X037581Y018833D01*
X037503Y018833D01*
X036667Y019669D01*
X036557Y019715D01*
X035289Y019715D01*
X035234Y019770D01*
X035081Y019833D01*
X034914Y019833D01*
X034760Y019770D01*
X034643Y019652D01*
X034579Y019498D01*
X034579Y019332D01*
X034643Y019178D01*
X034732Y019089D02*
X033389Y019089D01*
X033360Y019060D02*
X033478Y019178D01*
X033542Y019332D01*
X033542Y019498D01*
X033478Y019652D01*
X033360Y019770D01*
X033207Y019833D01*
X033067Y019833D01*
X033067Y021883D01*
X033074Y021915D01*
X033067Y021946D01*
X033067Y021979D01*
X033055Y022008D01*
X033049Y022040D01*
X033031Y022066D01*
X033019Y022096D01*
X032996Y022119D01*
X032165Y023365D01*
X036449Y023365D01*
X036866Y023171D01*
X038201Y022254D01*
X038208Y021953D01*
X038151Y021896D01*
X038087Y021742D01*
X038087Y021576D01*
X038151Y021422D01*
X038269Y021305D01*
X038423Y021241D01*
X038589Y021241D01*
X038743Y021305D01*
X038861Y021422D01*
X038924Y021576D01*
X038924Y021742D01*
X038861Y021896D01*
X038809Y021948D01*
X038798Y022387D01*
X038803Y022411D01*
X038797Y022446D01*
X038796Y022482D01*
X038786Y022504D01*
X038782Y022528D01*
X038762Y022558D01*
X038748Y022591D01*
X038730Y022608D01*
X038716Y022629D01*
X038687Y022649D01*
X038661Y022673D01*
X038638Y022682D01*
X037213Y023661D01*
X037196Y023680D01*
X037164Y023694D01*
X037136Y023714D01*
X037111Y023719D01*
X036690Y023915D01*
X036685Y023919D01*
X036636Y023940D01*
X036587Y023962D01*
X036581Y023962D01*
X036575Y023965D01*
X036522Y023965D01*
X036468Y023967D01*
X036462Y023965D01*
X026938Y023965D01*
X026828Y023919D01*
X026743Y023835D01*
X026697Y023725D01*
X026697Y014715D01*
X020289Y014715D01*
X020234Y014770D01*
X020081Y014833D01*
X019914Y014833D01*
X019760Y014770D01*
X019643Y014652D01*
X019579Y014498D01*
X019579Y014332D01*
X019643Y014178D01*
X019760Y014060D01*
X019914Y013997D01*
X020081Y013997D01*
X020234Y014060D01*
X020289Y014115D01*
X027057Y014115D01*
X027167Y014161D01*
X027252Y014245D01*
X027297Y014355D01*
X027297Y023365D01*
X028677Y023365D01*
X028677Y019772D01*
X028619Y019913D01*
X028496Y020036D01*
X028335Y020103D01*
X028297Y020103D01*
X028297Y022095D01*
X028369Y022167D01*
X028436Y022328D01*
X028436Y022502D01*
X028369Y022663D01*
X028246Y022786D01*
X028085Y022853D01*
X027910Y022853D01*
X027749Y022786D01*
X027626Y022663D01*
X027559Y022502D01*
X027559Y022328D01*
X027626Y022167D01*
X027697Y022095D01*
X027697Y019855D01*
X027743Y019745D01*
X027809Y019679D01*
X027809Y019578D01*
X027876Y019417D01*
X027967Y019326D01*
X027690Y019215D01*
X027688Y019215D01*
X027634Y019193D01*
X027581Y019171D01*
X027579Y019170D01*
X027578Y019169D01*
X027537Y019128D01*
X027495Y019088D01*
X027494Y019086D01*
X027493Y019085D01*
X027471Y019031D01*
X027448Y018978D01*
X027448Y018976D01*
X027447Y018975D01*
X027447Y018917D01*
X027447Y018859D01*
X027447Y018857D01*
X027447Y014468D01*
X027445Y014463D01*
X027447Y014409D01*
X027447Y014355D01*
X027450Y014350D01*
X027450Y014343D01*
X027473Y014295D01*
X027493Y014245D01*
X027498Y014241D01*
X027500Y014235D01*
X027540Y014199D01*
X027578Y014161D01*
X027583Y014158D01*
X028239Y013553D01*
X028160Y013553D01*
X027999Y013486D01*
X027876Y013363D01*
X027809Y013202D01*
X027809Y013028D01*
X027820Y013003D01*
X027660Y013003D01*
X027499Y012936D01*
X027376Y012813D01*
X027309Y012652D01*
X027309Y012478D01*
X027376Y012317D01*
X027453Y012240D01*
X027448Y012235D01*
X021130Y012235D01*
X018769Y014596D01*
X018679Y014686D01*
X018561Y014735D01*
X018047Y014735D01*
X017996Y014786D01*
X017835Y014853D01*
X017660Y014853D01*
X017547Y014806D01*
X017547Y015541D01*
X018167Y016161D01*
X018252Y016245D01*
X018297Y016355D01*
X018297Y018021D01*
X018309Y018001D01*
X018386Y017942D01*
X018480Y017916D01*
X024576Y018678D01*
X024661Y018726D01*
X024721Y018803D01*
X024747Y018897D01*
X024735Y018994D01*
X024686Y019078D01*
X024609Y019138D01*
X024515Y019164D01*
X018419Y018402D01*
X018334Y018354D01*
X018297Y018307D01*
X018297Y023291D01*
X018622Y023615D01*
X019831Y023615D01*
X019941Y023661D01*
X020025Y023745D01*
X020252Y023971D01*
X020297Y024082D01*
X020297Y024123D01*
X020352Y024178D01*
X020411Y024319D02*
X034502Y024319D01*
X034372Y024478D02*
X022086Y024478D01*
X021908Y024478D02*
X021336Y024478D01*
X021158Y024478D02*
X020416Y024478D01*
X020265Y024002D02*
X038401Y024002D01*
X038594Y024002D02*
X044581Y024002D01*
X044579Y023998D02*
X044579Y023832D01*
X044643Y023678D01*
X044760Y023560D01*
X044914Y023497D01*
X045081Y023497D01*
X045234Y023560D01*
X045352Y023678D01*
X045416Y023832D01*
X045416Y023881D01*
X045630Y024095D01*
X047561Y024095D01*
X047679Y024144D01*
X049179Y025644D01*
X049269Y025734D01*
X049317Y025851D01*
X049317Y026282D01*
X049630Y026595D01*
X049827Y026595D01*
X049827Y026532D01*
X049864Y026443D01*
X049932Y026376D01*
X050020Y026339D01*
X050497Y026339D01*
X050497Y013645D01*
X050423Y013571D01*
X033997Y013615D01*
X032692Y012270D01*
X032692Y001420D01*
X032087Y001415D01*
X006740Y001415D01*
X004002Y004153D01*
X004038Y004190D02*
X017487Y004190D01*
X017477Y004200D02*
X017762Y003915D01*
X017477Y003630D01*
X017477Y003200D01*
X017782Y002895D01*
X018213Y002895D01*
X018497Y003180D01*
X018782Y002895D01*
X019213Y002895D01*
X019517Y003200D01*
X019517Y003625D01*
X019877Y003625D01*
X020852Y002651D01*
X020933Y002569D01*
X021040Y002525D01*
X023855Y002525D01*
X023962Y002569D01*
X024552Y003159D01*
X024555Y003159D01*
X024751Y003241D01*
X024902Y003391D01*
X024948Y003503D01*
X024994Y003391D01*
X025145Y003241D01*
X025342Y003159D01*
X025555Y003159D01*
X025751Y003241D01*
X025902Y003391D01*
X025984Y003588D01*
X025984Y003801D01*
X025902Y003998D01*
X025751Y004148D01*
X025555Y004230D01*
X025342Y004230D01*
X025329Y004224D01*
X025287Y004265D01*
X025287Y006182D01*
X025342Y006159D01*
X025555Y006159D01*
X025751Y006241D01*
X025902Y006391D01*
X025984Y006588D01*
X025984Y006801D01*
X025902Y006998D01*
X025751Y007148D01*
X025555Y007230D01*
X025342Y007230D01*
X025287Y007207D01*
X025287Y007473D01*
X025243Y007579D01*
X025162Y007661D01*
X024662Y008161D01*
X024555Y008205D01*
X020940Y008205D01*
X020833Y008161D01*
X020752Y008079D01*
X019410Y006738D01*
X019233Y006915D01*
X019517Y007200D01*
X019517Y007630D01*
X019213Y007935D01*
X018782Y007935D01*
X018497Y007650D01*
X018213Y007935D01*
X017782Y007935D01*
X017477Y007630D01*
X017477Y007200D01*
X017762Y006915D01*
X017477Y006630D01*
X017477Y006200D01*
X017762Y005915D01*
X017477Y005630D01*
X017477Y005200D01*
X017762Y004915D01*
X017477Y004630D01*
X017477Y004200D01*
X017477Y004348D02*
X004156Y004348D01*
X004247Y004507D02*
X017477Y004507D01*
X017512Y004665D02*
X004290Y004665D01*
X004324Y004824D02*
X017671Y004824D01*
X017695Y004982D02*
X008774Y004982D01*
X008784Y004986D02*
X008926Y005128D01*
X009003Y005314D01*
X009003Y005516D01*
X008926Y005701D01*
X008784Y005844D01*
X008598Y005921D01*
X008397Y005921D01*
X008211Y005844D01*
X008069Y005701D01*
X007992Y005516D01*
X007992Y005314D01*
X008069Y005128D01*
X008211Y004986D01*
X008397Y004909D01*
X008598Y004909D01*
X008784Y004986D01*
X008931Y005141D02*
X017536Y005141D01*
X017477Y005299D02*
X008997Y005299D01*
X009003Y005458D02*
X017477Y005458D01*
X017477Y005616D02*
X008962Y005616D01*
X008853Y005775D02*
X017622Y005775D01*
X017744Y005933D02*
X007083Y005933D01*
X007095Y005949D02*
X007127Y006013D01*
X007150Y006082D01*
X007161Y006153D01*
X007161Y006180D01*
X006712Y006180D01*
X006712Y005732D01*
X006740Y005732D01*
X006811Y005743D01*
X006879Y005765D01*
X006943Y005798D01*
X007002Y005840D01*
X007052Y005891D01*
X007095Y005949D01*
X007151Y006092D02*
X017585Y006092D01*
X017477Y006250D02*
X007157Y006250D01*
X007161Y006225D02*
X007150Y006296D01*
X007127Y006364D01*
X007095Y006429D01*
X007052Y006487D01*
X007002Y006538D01*
X006943Y006580D01*
X006879Y006613D01*
X006811Y006635D01*
X006740Y006646D01*
X006712Y006646D01*
X006712Y006198D01*
X006695Y006198D01*
X006695Y006646D01*
X006668Y006646D01*
X006597Y006635D01*
X006528Y006613D01*
X006464Y006580D01*
X006406Y006538D01*
X006355Y006487D01*
X006313Y006429D01*
X006280Y006364D01*
X006258Y006296D01*
X006247Y006225D01*
X006247Y006198D01*
X006695Y006198D01*
X006695Y006180D01*
X006712Y006180D01*
X006712Y006198D01*
X007161Y006198D01*
X007161Y006225D01*
X007105Y006409D02*
X017477Y006409D01*
X017477Y006567D02*
X006961Y006567D01*
X006936Y006726D02*
X017573Y006726D01*
X017731Y006884D02*
X007130Y006884D01*
X007142Y006896D02*
X007221Y007086D01*
X007221Y007292D01*
X007142Y007482D01*
X006997Y007627D01*
X006807Y007706D01*
X006601Y007706D01*
X006411Y007627D01*
X006265Y007482D01*
X006187Y007292D01*
X006187Y007086D01*
X006265Y006896D01*
X006411Y006751D01*
X006601Y006672D01*
X006807Y006672D01*
X006997Y006751D01*
X007142Y006896D01*
X007203Y007043D02*
X017634Y007043D01*
X017477Y007201D02*
X007221Y007201D01*
X007193Y007360D02*
X017477Y007360D01*
X017477Y007518D02*
X007106Y007518D01*
X006878Y007677D02*
X017524Y007677D01*
X017682Y007835D02*
X006994Y007835D01*
X007002Y007840D02*
X006943Y007798D01*
X006879Y007765D01*
X006811Y007743D01*
X006740Y007732D01*
X006712Y007732D01*
X006712Y008180D01*
X006695Y008180D01*
X006695Y007732D01*
X006668Y007732D01*
X006597Y007743D01*
X006528Y007765D01*
X006464Y007798D01*
X006406Y007840D01*
X006355Y007891D01*
X006313Y007949D01*
X006280Y008013D01*
X006258Y008082D01*
X006247Y008153D01*
X006247Y008180D01*
X006695Y008180D01*
X006695Y008198D01*
X006695Y008646D01*
X006668Y008646D01*
X006597Y008635D01*
X006528Y008613D01*
X006464Y008580D01*
X006406Y008538D01*
X006355Y008487D01*
X006313Y008429D01*
X006280Y008364D01*
X006258Y008296D01*
X006247Y008225D01*
X006247Y008198D01*
X006695Y008198D01*
X006712Y008198D01*
X006712Y008646D01*
X006740Y008646D01*
X006811Y008635D01*
X006879Y008613D01*
X006943Y008580D01*
X007002Y008538D01*
X007052Y008487D01*
X007095Y008429D01*
X007127Y008364D01*
X007150Y008296D01*
X007161Y008225D01*
X007161Y008198D01*
X006712Y008198D01*
X006712Y008180D01*
X007161Y008180D01*
X007161Y008153D01*
X007150Y008082D01*
X007127Y008013D01*
X007095Y007949D01*
X007052Y007891D01*
X007002Y007840D01*
X007117Y007994D02*
X020666Y007994D01*
X020824Y008152D02*
X007161Y008152D01*
X007145Y008311D02*
X027827Y008311D01*
X027827Y008430D02*
X027827Y008000D01*
X028132Y007695D01*
X028563Y007695D01*
X028847Y007980D01*
X029132Y007695D01*
X029563Y007695D01*
X029867Y008000D01*
X029867Y008430D01*
X029583Y008715D01*
X029867Y009000D01*
X029867Y009430D01*
X029563Y009735D01*
X029132Y009735D01*
X028847Y009450D01*
X028583Y009715D01*
X028867Y010000D01*
X028867Y010430D01*
X028563Y010735D01*
X028132Y010735D01*
X027827Y010430D01*
X027827Y010000D01*
X028112Y009715D01*
X027827Y009430D01*
X027827Y009000D01*
X028112Y008715D01*
X027827Y008430D01*
X027866Y008469D02*
X007065Y008469D01*
X006833Y008628D02*
X028025Y008628D01*
X028041Y008786D02*
X004322Y008786D01*
X004324Y008945D02*
X027882Y008945D01*
X027827Y009103D02*
X004319Y009103D01*
X004277Y009262D02*
X027827Y009262D01*
X027827Y009420D02*
X004219Y009420D01*
X004128Y009579D02*
X027976Y009579D01*
X028090Y009737D02*
X003990Y009737D01*
X003787Y009896D02*
X017531Y009896D01*
X017373Y010054D02*
X008202Y010054D01*
X008134Y009986D02*
X008276Y010128D01*
X008353Y010314D01*
X008353Y010516D01*
X008276Y010701D01*
X008134Y010844D01*
X007948Y010921D01*
X007747Y010921D01*
X007561Y010844D01*
X007419Y010701D01*
X007342Y010516D01*
X007342Y010314D01*
X007419Y010128D01*
X007561Y009986D01*
X007747Y009909D01*
X007948Y009909D01*
X008134Y009986D01*
X008311Y010213D02*
X017227Y010213D01*
X017117Y010371D02*
X008353Y010371D01*
X008347Y010530D02*
X016959Y010530D01*
X016828Y010661D02*
X016828Y010661D01*
X016800Y010688D02*
X008282Y010688D01*
X008127Y010847D02*
X016701Y010847D01*
X016697Y011005D02*
X010101Y011005D01*
X010081Y010997D02*
X010234Y011060D01*
X010352Y011178D01*
X010416Y011332D01*
X010416Y011498D01*
X010352Y011652D01*
X010234Y011770D01*
X010081Y011833D01*
X010003Y011833D01*
X009297Y012539D01*
X009297Y013623D01*
X009352Y013678D01*
X009416Y013832D01*
X009416Y013998D01*
X009352Y014152D01*
X009234Y014270D01*
X009081Y014333D01*
X008914Y014333D01*
X008760Y014270D01*
X008643Y014152D01*
X008579Y013998D01*
X008579Y013832D01*
X008643Y013678D01*
X008697Y013623D01*
X008697Y012355D01*
X008743Y012245D01*
X009579Y011409D01*
X009579Y011332D01*
X009643Y011178D01*
X009760Y011060D01*
X009914Y010997D01*
X010081Y010997D01*
X009894Y011005D02*
X004247Y011005D01*
X004289Y011164D02*
X009657Y011164D01*
X009583Y011322D02*
X004324Y011322D01*
X004324Y011481D02*
X009508Y011481D01*
X009349Y011639D02*
X004310Y011639D01*
X004267Y011798D02*
X005364Y011798D01*
X005411Y011751D02*
X005601Y011672D01*
X005807Y011672D01*
X005997Y011751D01*
X006142Y011896D01*
X006221Y012086D01*
X006221Y012292D01*
X006142Y012482D01*
X005997Y012627D01*
X005848Y012689D01*
X005997Y012751D01*
X006142Y012896D01*
X006221Y013086D01*
X006221Y013292D01*
X006142Y013482D01*
X005997Y013627D01*
X005848Y013689D01*
X005997Y013751D01*
X006142Y013896D01*
X006221Y014086D01*
X006221Y014292D01*
X006142Y014482D01*
X005997Y014627D01*
X005807Y014706D01*
X005601Y014706D01*
X005411Y014627D01*
X005265Y014482D01*
X005187Y014292D01*
X005187Y014086D01*
X005265Y013896D01*
X005411Y013751D01*
X005559Y013689D01*
X005411Y013627D01*
X005265Y013482D01*
X005187Y013292D01*
X005187Y013086D01*
X005265Y012896D01*
X005411Y012751D01*
X005559Y012689D01*
X005411Y012627D01*
X005265Y012482D01*
X005187Y012292D01*
X005187Y012086D01*
X005265Y011896D01*
X005411Y011751D01*
X005240Y011956D02*
X004198Y011956D01*
X004107Y012115D02*
X005187Y012115D01*
X005187Y012273D02*
X003954Y012273D01*
X003725Y012432D02*
X005245Y012432D01*
X005374Y012590D02*
X002497Y012590D01*
X002497Y012432D02*
X002683Y012432D01*
X002497Y012749D02*
X005416Y012749D01*
X005261Y012907D02*
X002497Y012907D01*
X002497Y013066D02*
X005195Y013066D01*
X005187Y013224D02*
X002497Y013224D01*
X002497Y013383D02*
X005224Y013383D01*
X005325Y013541D02*
X002497Y013541D01*
X002497Y013700D02*
X005534Y013700D01*
X005303Y013858D02*
X002497Y013858D01*
X002497Y014017D02*
X005215Y014017D01*
X005187Y014175D02*
X002497Y014175D01*
X002497Y014334D02*
X003002Y014334D01*
X003406Y014334D02*
X005204Y014334D01*
X005276Y014492D02*
X003804Y014492D01*
X003999Y014651D02*
X005467Y014651D01*
X005941Y014651D02*
X006247Y014651D01*
X006247Y014653D02*
X006258Y014582D01*
X006280Y014513D01*
X006313Y014449D01*
X006355Y014391D01*
X006406Y014340D01*
X006464Y014298D01*
X006528Y014265D01*
X006597Y014243D01*
X006668Y014232D01*
X006695Y014232D01*
X006695Y014680D01*
X006712Y014680D01*
X006712Y014232D01*
X006740Y014232D01*
X006811Y014243D01*
X006879Y014265D01*
X006943Y014298D01*
X007002Y014340D01*
X007052Y014391D01*
X007095Y014449D01*
X007127Y014513D01*
X007150Y014582D01*
X007161Y014653D01*
X007161Y014680D01*
X006712Y014680D01*
X006712Y014698D01*
X006695Y014698D01*
X006695Y015146D01*
X006668Y015146D01*
X006597Y015135D01*
X006528Y015113D01*
X006464Y015080D01*
X006406Y015038D01*
X006355Y014987D01*
X006313Y014929D01*
X006280Y014864D01*
X006258Y014796D01*
X006247Y014725D01*
X006247Y014698D01*
X006695Y014698D01*
X006695Y014680D01*
X006247Y014680D01*
X006247Y014653D01*
X006262Y014809D02*
X004133Y014809D01*
X004225Y014968D02*
X006341Y014968D01*
X006570Y015126D02*
X004279Y015126D01*
X004322Y015285D02*
X014832Y015285D01*
X014832Y015443D02*
X004324Y015443D01*
X004320Y015602D02*
X014832Y015602D01*
X014832Y015760D02*
X004277Y015760D01*
X004220Y015919D02*
X014832Y015919D01*
X014832Y016077D02*
X004129Y016077D01*
X003991Y016236D02*
X014832Y016236D01*
X014832Y016394D02*
X003789Y016394D01*
X003375Y016553D02*
X014832Y016553D01*
X014832Y016711D02*
X002497Y016711D01*
X002497Y016553D02*
X003033Y016553D01*
X002867Y016870D02*
X002497Y016870D01*
X002497Y017028D02*
X002541Y017028D01*
X002497Y016394D02*
X002618Y016394D01*
X003540Y016870D02*
X014832Y016870D01*
X014832Y017028D02*
X003866Y017028D01*
X004035Y017187D02*
X014776Y017187D01*
X014759Y017228D02*
X014826Y017067D01*
X014832Y017060D01*
X014832Y014720D01*
X014826Y014713D01*
X014759Y014552D01*
X014759Y014378D01*
X014826Y014217D01*
X014949Y014094D01*
X015110Y014027D01*
X015285Y014027D01*
X015446Y014094D01*
X015569Y014217D01*
X015636Y014378D01*
X015636Y014552D01*
X015569Y014713D01*
X015562Y014720D01*
X015562Y017060D01*
X015569Y017067D01*
X015636Y017228D01*
X015636Y017402D01*
X015569Y017563D01*
X015567Y017565D01*
X015567Y017979D01*
X016405Y017979D01*
X016410Y017977D02*
X016585Y017977D01*
X016746Y018044D01*
X016869Y018167D01*
X016936Y018328D01*
X016936Y018502D01*
X016869Y018663D01*
X016746Y018786D01*
X016585Y018853D01*
X016410Y018853D01*
X016249Y018786D01*
X016178Y018715D01*
X016122Y018715D01*
X014297Y020539D01*
X014297Y021095D01*
X014369Y021167D01*
X014436Y021328D01*
X014436Y021502D01*
X014369Y021663D01*
X014246Y021786D01*
X014085Y021853D01*
X013910Y021853D01*
X013749Y021786D01*
X013626Y021663D01*
X013559Y021502D01*
X013559Y021328D01*
X013626Y021167D01*
X013697Y021095D01*
X013697Y020355D01*
X013743Y020245D01*
X013828Y020161D01*
X015828Y018161D01*
X015938Y018115D01*
X016178Y018115D01*
X016249Y018044D01*
X016410Y017977D01*
X016590Y017979D02*
X017197Y017979D01*
X017197Y017821D02*
X015567Y017821D01*
X015567Y017979D02*
X015519Y018096D01*
X015429Y018186D01*
X014088Y019527D01*
X014054Y019566D01*
X014044Y019571D01*
X014036Y019579D01*
X013987Y019599D01*
X013762Y019711D01*
X013722Y019806D01*
X013599Y019929D01*
X013438Y019996D01*
X013264Y019996D01*
X013103Y019929D01*
X012980Y019806D01*
X012913Y019645D01*
X012913Y019471D01*
X012980Y019310D01*
X013103Y019187D01*
X013264Y019120D01*
X013438Y019120D01*
X013479Y019137D01*
X013665Y019045D01*
X013789Y018921D01*
X013597Y018921D01*
X013411Y018844D01*
X013269Y018701D01*
X013192Y018516D01*
X013192Y018314D01*
X013269Y018128D01*
X013411Y017986D01*
X013597Y017909D01*
X013798Y017909D01*
X013984Y017986D01*
X014126Y018128D01*
X014203Y018314D01*
X014203Y018507D01*
X014927Y017782D01*
X014927Y017665D01*
X014826Y017563D01*
X014759Y017402D01*
X014759Y017228D01*
X014759Y017345D02*
X004154Y017345D01*
X004246Y017504D02*
X014801Y017504D01*
X014925Y017662D02*
X004289Y017662D01*
X004324Y017821D02*
X014889Y017821D01*
X014731Y017979D02*
X013967Y017979D01*
X014130Y018138D02*
X014572Y018138D01*
X014414Y018296D02*
X014196Y018296D01*
X014203Y018455D02*
X014255Y018455D01*
X014685Y018930D02*
X015058Y018930D01*
X015217Y018772D02*
X014843Y018772D01*
X015002Y018613D02*
X015375Y018613D01*
X015534Y018455D02*
X015160Y018455D01*
X015319Y018296D02*
X015692Y018296D01*
X015883Y018138D02*
X015477Y018138D01*
X015247Y017915D02*
X015247Y017365D01*
X015197Y017315D01*
X015594Y017504D02*
X017197Y017504D01*
X017197Y017662D02*
X015567Y017662D01*
X015636Y017345D02*
X017197Y017345D01*
X017197Y017187D02*
X015619Y017187D01*
X015562Y017028D02*
X017197Y017028D01*
X017197Y016870D02*
X015562Y016870D01*
X015562Y016711D02*
X017197Y016711D01*
X017197Y016553D02*
X015562Y016553D01*
X015562Y016394D02*
X017052Y016394D01*
X016894Y016236D02*
X015562Y016236D01*
X015562Y016077D02*
X016740Y016077D01*
X016697Y015919D02*
X015562Y015919D01*
X015562Y015760D02*
X016697Y015760D01*
X016697Y015602D02*
X015562Y015602D01*
X015562Y015443D02*
X016697Y015443D01*
X016697Y015285D02*
X015562Y015285D01*
X015562Y015126D02*
X016697Y015126D01*
X016697Y014968D02*
X015562Y014968D01*
X015562Y014809D02*
X016697Y014809D01*
X016697Y014651D02*
X015595Y014651D01*
X015636Y014492D02*
X016697Y014492D01*
X016697Y014334D02*
X015617Y014334D01*
X015527Y014175D02*
X016697Y014175D01*
X016697Y014017D02*
X014163Y014017D01*
X014126Y013928D02*
X014203Y014114D01*
X014203Y014316D01*
X014126Y014501D01*
X013984Y014644D01*
X013798Y014721D01*
X013597Y014721D01*
X013411Y014644D01*
X013269Y014501D01*
X013192Y014316D01*
X013192Y014114D01*
X013269Y013928D01*
X013411Y013786D01*
X013597Y013709D01*
X013798Y013709D01*
X013984Y013786D01*
X014126Y013928D01*
X014056Y013858D02*
X016697Y013858D01*
X016697Y013700D02*
X009361Y013700D01*
X009416Y013858D02*
X013339Y013858D01*
X013232Y014017D02*
X009408Y014017D01*
X009329Y014175D02*
X013192Y014175D01*
X013199Y014334D02*
X012331Y014334D01*
X012284Y014286D02*
X012426Y014428D01*
X012503Y014614D01*
X012503Y014816D01*
X012426Y015001D01*
X012284Y015144D01*
X012098Y015221D01*
X011897Y015221D01*
X011711Y015144D01*
X011569Y015001D01*
X011492Y014816D01*
X011492Y014614D01*
X011569Y014428D01*
X011711Y014286D01*
X011897Y014209D01*
X012098Y014209D01*
X012284Y014286D01*
X012453Y014492D02*
X013265Y014492D01*
X013428Y014651D02*
X012503Y014651D01*
X012503Y014809D02*
X014832Y014809D01*
X014832Y014968D02*
X012440Y014968D01*
X012302Y015126D02*
X014832Y015126D01*
X014800Y014651D02*
X013967Y014651D01*
X014130Y014492D02*
X014759Y014492D01*
X014778Y014334D02*
X014196Y014334D01*
X014203Y014175D02*
X014868Y014175D01*
X016697Y013541D02*
X009297Y013541D01*
X009297Y013383D02*
X016697Y013383D01*
X016697Y013224D02*
X009297Y013224D01*
X009297Y013066D02*
X016697Y013066D01*
X016697Y012907D02*
X009297Y012907D01*
X009297Y012749D02*
X016697Y012749D01*
X016697Y012590D02*
X009297Y012590D01*
X009405Y012432D02*
X016697Y012432D01*
X016697Y012273D02*
X009564Y012273D01*
X009722Y012115D02*
X016697Y012115D01*
X016697Y011956D02*
X009881Y011956D01*
X010167Y011798D02*
X016697Y011798D01*
X016697Y011639D02*
X010358Y011639D01*
X010416Y011481D02*
X016697Y011481D01*
X016697Y011322D02*
X010412Y011322D01*
X010338Y011164D02*
X016697Y011164D01*
X017964Y009896D02*
X018531Y009896D01*
X018373Y010054D02*
X018122Y010054D01*
X018964Y009896D02*
X027931Y009896D01*
X027827Y010054D02*
X019122Y010054D01*
X019267Y010213D02*
X027827Y010213D01*
X027827Y010371D02*
X019267Y010371D01*
X019267Y010530D02*
X027927Y010530D01*
X028085Y010688D02*
X019210Y010688D01*
X019051Y010847D02*
X029071Y010847D01*
X028909Y011005D02*
X019073Y011005D01*
X019232Y011164D02*
X028748Y011164D01*
X028586Y011322D02*
X019267Y011322D01*
X019267Y011481D02*
X027651Y011481D01*
X027844Y011481D02*
X028425Y011481D01*
X028263Y011639D02*
X028091Y011639D01*
X027747Y011915D02*
X020997Y011915D01*
X018497Y014415D01*
X017747Y014415D01*
X017564Y014017D02*
X017547Y014017D01*
X017547Y013858D02*
X018602Y013858D01*
X018760Y013700D02*
X017547Y013700D01*
X017547Y013541D02*
X018919Y013541D01*
X019077Y013383D02*
X017547Y013383D01*
X017547Y013224D02*
X019236Y013224D01*
X019394Y013066D02*
X017547Y013066D01*
X017991Y012907D02*
X018504Y012907D01*
X018346Y012749D02*
X018149Y012749D01*
X018991Y012907D02*
X019553Y012907D01*
X019711Y012749D02*
X019149Y012749D01*
X019267Y012590D02*
X019870Y012590D01*
X020028Y012432D02*
X019267Y012432D01*
X019267Y012273D02*
X020187Y012273D01*
X020345Y012115D02*
X019183Y012115D01*
X019024Y011956D02*
X020504Y011956D01*
X020662Y011798D02*
X019100Y011798D01*
X019259Y011639D02*
X020827Y011639D01*
X021092Y012273D02*
X027420Y012273D01*
X027329Y012432D02*
X020933Y012432D01*
X020775Y012590D02*
X027309Y012590D01*
X027349Y012749D02*
X020616Y012749D01*
X020458Y012907D02*
X027470Y012907D01*
X027809Y013066D02*
X020299Y013066D01*
X020141Y013224D02*
X027818Y013224D01*
X027896Y013383D02*
X019982Y013383D01*
X019824Y013541D02*
X028131Y013541D01*
X028080Y013700D02*
X019665Y013700D01*
X019507Y013858D02*
X027908Y013858D01*
X027737Y014017D02*
X020129Y014017D01*
X019866Y014017D02*
X019348Y014017D01*
X019190Y014175D02*
X019646Y014175D01*
X019579Y014334D02*
X019031Y014334D01*
X018873Y014492D02*
X019579Y014492D01*
X019642Y014651D02*
X018714Y014651D01*
X018443Y014017D02*
X017931Y014017D01*
X017941Y014809D02*
X019856Y014809D01*
X020139Y014809D02*
X026697Y014809D01*
X026697Y014968D02*
X017547Y014968D01*
X017547Y015126D02*
X026697Y015126D01*
X026697Y015285D02*
X017547Y015285D01*
X017547Y015443D02*
X020892Y015443D01*
X020920Y015428D02*
X021017Y015416D01*
X021111Y015442D01*
X024687Y018252D01*
X024735Y018337D01*
X024747Y018434D01*
X024720Y018528D01*
X024660Y018605D01*
X024575Y018652D01*
X024478Y018664D01*
X024384Y018638D01*
X020808Y015827D01*
X020760Y015743D01*
X020748Y015646D01*
X020775Y015552D01*
X020835Y015475D01*
X020920Y015428D01*
X021112Y015443D02*
X023643Y015443D01*
X023682Y015424D02*
X023779Y015417D01*
X023871Y015448D01*
X023945Y015512D01*
X025238Y018099D01*
X025245Y018196D01*
X025214Y018289D01*
X025151Y018362D01*
X025063Y018406D01*
X024966Y018413D01*
X024874Y018382D01*
X024800Y018318D01*
X023507Y015731D01*
X023500Y015634D01*
X023530Y015541D01*
X023594Y015468D01*
X023682Y015424D01*
X023857Y015443D02*
X026697Y015443D01*
X026697Y015602D02*
X023990Y015602D01*
X024069Y015760D02*
X026697Y015760D01*
X026697Y015919D02*
X024148Y015919D01*
X024227Y016077D02*
X026697Y016077D01*
X026697Y016236D02*
X024307Y016236D01*
X024386Y016394D02*
X026697Y016394D01*
X026697Y016553D02*
X024465Y016553D01*
X024544Y016711D02*
X026697Y016711D01*
X026697Y016870D02*
X024624Y016870D01*
X024703Y017028D02*
X026697Y017028D01*
X026697Y017187D02*
X024782Y017187D01*
X024861Y017345D02*
X026697Y017345D01*
X026697Y017504D02*
X024941Y017504D01*
X025020Y017662D02*
X026697Y017662D01*
X026697Y017821D02*
X025099Y017821D01*
X025178Y017979D02*
X026697Y017979D01*
X026697Y018138D02*
X025241Y018138D01*
X025208Y018296D02*
X026697Y018296D01*
X026697Y018455D02*
X024741Y018455D01*
X024712Y018296D02*
X024789Y018296D01*
X024710Y018138D02*
X024541Y018138D01*
X024631Y017979D02*
X024339Y017979D01*
X024138Y017821D02*
X024551Y017821D01*
X024472Y017662D02*
X023936Y017662D01*
X023734Y017504D02*
X024393Y017504D01*
X024314Y017345D02*
X023532Y017345D01*
X023331Y017187D02*
X024234Y017187D01*
X024155Y017028D02*
X023129Y017028D01*
X022927Y016870D02*
X024076Y016870D01*
X023997Y016711D02*
X022725Y016711D01*
X022524Y016553D02*
X023917Y016553D01*
X023838Y016394D02*
X022322Y016394D01*
X022120Y016236D02*
X023759Y016236D01*
X023680Y016077D02*
X021919Y016077D01*
X021717Y015919D02*
X023600Y015919D01*
X023521Y015760D02*
X021515Y015760D01*
X021313Y015602D02*
X023510Y015602D01*
X022336Y017028D02*
X018297Y017028D01*
X018297Y016870D02*
X022134Y016870D01*
X021932Y016711D02*
X018297Y016711D01*
X018297Y016553D02*
X021731Y016553D01*
X021529Y016394D02*
X018297Y016394D01*
X018242Y016236D02*
X021327Y016236D01*
X021125Y016077D02*
X018084Y016077D01*
X017925Y015919D02*
X020924Y015919D01*
X020770Y015760D02*
X017767Y015760D01*
X017608Y015602D02*
X020761Y015602D01*
X022538Y017187D02*
X018297Y017187D01*
X018297Y017345D02*
X022739Y017345D01*
X022941Y017504D02*
X018297Y017504D01*
X018297Y017662D02*
X023143Y017662D01*
X023344Y017821D02*
X018297Y017821D01*
X018297Y017979D02*
X018337Y017979D01*
X018986Y017979D02*
X023546Y017979D01*
X023748Y018138D02*
X020254Y018138D01*
X020107Y018613D02*
X018297Y018613D01*
X018297Y018455D02*
X018839Y018455D01*
X018297Y018772D02*
X021375Y018772D01*
X021522Y018296D02*
X023950Y018296D01*
X024151Y018455D02*
X022790Y018455D01*
X022643Y018930D02*
X018297Y018930D01*
X018297Y019089D02*
X023911Y019089D01*
X024189Y019406D02*
X018297Y019406D01*
X018297Y019564D02*
X024061Y019564D01*
X023932Y019723D02*
X018297Y019723D01*
X018297Y019881D02*
X023803Y019881D01*
X023674Y020040D02*
X018297Y020040D01*
X018297Y020198D02*
X023545Y020198D01*
X023417Y020357D02*
X018297Y020357D01*
X018297Y020515D02*
X023288Y020515D01*
X023159Y020674D02*
X018297Y020674D01*
X018297Y020832D02*
X023030Y020832D01*
X022902Y020991D02*
X018297Y020991D01*
X018297Y021149D02*
X022773Y021149D01*
X022644Y021308D02*
X018297Y021308D01*
X018297Y021466D02*
X022515Y021466D01*
X022386Y021625D02*
X018297Y021625D01*
X018297Y021783D02*
X022258Y021783D01*
X022129Y021942D02*
X018297Y021942D01*
X018297Y022100D02*
X022000Y022100D01*
X021871Y022259D02*
X018297Y022259D01*
X018297Y022417D02*
X021743Y022417D01*
X021614Y022576D02*
X018297Y022576D01*
X018297Y022734D02*
X021485Y022734D01*
X021356Y022893D02*
X018297Y022893D01*
X018297Y023051D02*
X021227Y023051D01*
X021099Y023210D02*
X018297Y023210D01*
X018375Y023368D02*
X021006Y023368D01*
X020999Y023392D02*
X021027Y023298D01*
X024338Y019223D01*
X024424Y019176D01*
X024521Y019166D01*
X024614Y019194D01*
X024690Y019256D01*
X024736Y019341D01*
X024746Y019438D01*
X024718Y019532D01*
X021407Y023607D01*
X021321Y023654D01*
X021224Y023664D01*
X021131Y023636D01*
X021055Y023574D01*
X021009Y023489D01*
X020999Y023392D01*
X021029Y023527D02*
X018533Y023527D01*
X017636Y024478D02*
X009297Y024478D01*
X009297Y024636D02*
X017794Y024636D01*
X017477Y024319D02*
X009297Y024319D01*
X009297Y024161D02*
X017319Y024161D01*
X017209Y024002D02*
X009297Y024002D01*
X009297Y023844D02*
X017197Y023844D01*
X017197Y023685D02*
X009297Y023685D01*
X009297Y023527D02*
X017197Y023527D01*
X017197Y023368D02*
X009297Y023368D01*
X009297Y023210D02*
X017197Y023210D01*
X017197Y023051D02*
X009297Y023051D01*
X009297Y022893D02*
X017197Y022893D01*
X017197Y022734D02*
X009297Y022734D01*
X009297Y022576D02*
X017197Y022576D01*
X017197Y022417D02*
X009297Y022417D01*
X009297Y022259D02*
X017197Y022259D01*
X017197Y022100D02*
X009297Y022100D01*
X009297Y021942D02*
X017197Y021942D01*
X017197Y021783D02*
X014249Y021783D01*
X014385Y021625D02*
X017197Y021625D01*
X017197Y021466D02*
X014436Y021466D01*
X014427Y021308D02*
X017197Y021308D01*
X017197Y021149D02*
X014351Y021149D01*
X014297Y020991D02*
X017197Y020991D01*
X017197Y020832D02*
X014297Y020832D01*
X014297Y020674D02*
X017197Y020674D01*
X017197Y020515D02*
X014322Y020515D01*
X014480Y020357D02*
X017197Y020357D01*
X017197Y020198D02*
X014639Y020198D01*
X014797Y020040D02*
X017197Y020040D01*
X017197Y019881D02*
X014956Y019881D01*
X015114Y019723D02*
X017197Y019723D01*
X017197Y019564D02*
X015273Y019564D01*
X015431Y019406D02*
X017197Y019406D01*
X017197Y019247D02*
X015590Y019247D01*
X015748Y019089D02*
X017197Y019089D01*
X017197Y018930D02*
X015907Y018930D01*
X016065Y018772D02*
X016235Y018772D01*
X016760Y018772D02*
X017197Y018772D01*
X017197Y018613D02*
X016890Y018613D01*
X016936Y018455D02*
X017197Y018455D01*
X017197Y018296D02*
X016922Y018296D01*
X016840Y018138D02*
X017197Y018138D01*
X018297Y019247D02*
X024318Y019247D01*
X024679Y019247D02*
X025502Y019247D01*
X025502Y019089D02*
X024673Y019089D01*
X024742Y018930D02*
X025502Y018930D01*
X025502Y018866D02*
X025540Y018776D01*
X025609Y018707D01*
X025699Y018670D01*
X025796Y018670D01*
X025886Y018707D01*
X025955Y018776D01*
X025992Y018866D01*
X025992Y020420D01*
X026296Y020420D01*
X026386Y020457D01*
X026455Y020526D01*
X026492Y020616D01*
X026492Y020714D01*
X026455Y020804D01*
X026386Y020873D01*
X026296Y020910D01*
X025699Y020910D01*
X025609Y020873D01*
X025540Y020804D01*
X025502Y020714D01*
X025502Y018866D01*
X025544Y018772D02*
X024696Y018772D01*
X024645Y018613D02*
X026697Y018613D01*
X026697Y018772D02*
X025951Y018772D01*
X025992Y018930D02*
X026697Y018930D01*
X026697Y019089D02*
X025992Y019089D01*
X025992Y019247D02*
X026697Y019247D01*
X026697Y019406D02*
X025992Y019406D01*
X025992Y019564D02*
X026697Y019564D01*
X026697Y019723D02*
X025992Y019723D01*
X025992Y019881D02*
X026697Y019881D01*
X026697Y020040D02*
X025992Y020040D01*
X025992Y020198D02*
X026697Y020198D01*
X026697Y020357D02*
X025992Y020357D01*
X026444Y020515D02*
X026697Y020515D01*
X026697Y020674D02*
X026492Y020674D01*
X026427Y020832D02*
X026697Y020832D01*
X026697Y020991D02*
X024945Y020991D01*
X024853Y021149D02*
X026697Y021149D01*
X026697Y021308D02*
X024760Y021308D01*
X024668Y021466D02*
X026697Y021466D01*
X026697Y021625D02*
X024575Y021625D01*
X024483Y021783D02*
X026697Y021783D01*
X026697Y021942D02*
X024391Y021942D01*
X024298Y022100D02*
X026697Y022100D01*
X026697Y022259D02*
X024206Y022259D01*
X024113Y022417D02*
X026697Y022417D01*
X026697Y022576D02*
X024021Y022576D01*
X023928Y022734D02*
X026697Y022734D01*
X026697Y022893D02*
X023836Y022893D01*
X023743Y023051D02*
X026697Y023051D01*
X026697Y023210D02*
X023651Y023210D01*
X023558Y023368D02*
X026697Y023368D01*
X026697Y023527D02*
X023466Y023527D01*
X023435Y023581D02*
X023357Y023639D01*
X023263Y023664D01*
X023166Y023651D01*
X023082Y023602D01*
X023023Y023524D01*
X022998Y023430D01*
X023011Y023334D01*
X024810Y020249D01*
X024888Y020190D01*
X024982Y020166D01*
X025079Y020179D01*
X025163Y020228D01*
X025222Y020305D01*
X025247Y020400D01*
X025234Y020496D01*
X023435Y023581D01*
X023025Y023527D02*
X021472Y023527D01*
X021601Y023368D02*
X023007Y023368D01*
X023084Y023210D02*
X021730Y023210D01*
X021859Y023051D02*
X023176Y023051D01*
X023269Y022893D02*
X021988Y022893D01*
X022116Y022734D02*
X023361Y022734D01*
X023453Y022576D02*
X022245Y022576D01*
X022374Y022417D02*
X023546Y022417D01*
X023638Y022259D02*
X022503Y022259D01*
X022631Y022100D02*
X023731Y022100D01*
X023823Y021942D02*
X022760Y021942D01*
X022889Y021783D02*
X023916Y021783D01*
X024008Y021625D02*
X023018Y021625D01*
X023147Y021466D02*
X024101Y021466D01*
X024193Y021308D02*
X023275Y021308D01*
X023404Y021149D02*
X024286Y021149D01*
X024378Y020991D02*
X023533Y020991D01*
X023662Y020832D02*
X024471Y020832D01*
X024563Y020674D02*
X023791Y020674D01*
X023919Y020515D02*
X024655Y020515D01*
X024748Y020357D02*
X024048Y020357D01*
X024177Y020198D02*
X024878Y020198D01*
X025112Y020198D02*
X025502Y020198D01*
X025502Y020040D02*
X024306Y020040D01*
X024434Y019881D02*
X025502Y019881D01*
X025502Y019723D02*
X024563Y019723D01*
X024692Y019564D02*
X025502Y019564D01*
X025502Y019406D02*
X024743Y019406D01*
X024353Y018613D02*
X024058Y018613D01*
X025235Y020357D02*
X025502Y020357D01*
X025502Y020515D02*
X025223Y020515D01*
X025130Y020674D02*
X025502Y020674D01*
X025568Y020832D02*
X025038Y020832D01*
X027297Y020832D02*
X027697Y020832D01*
X027697Y020674D02*
X027297Y020674D01*
X027297Y020515D02*
X027697Y020515D01*
X027697Y020357D02*
X027297Y020357D01*
X027297Y020198D02*
X027697Y020198D01*
X027697Y020040D02*
X027297Y020040D01*
X027297Y019881D02*
X027697Y019881D01*
X027766Y019723D02*
X027297Y019723D01*
X027297Y019564D02*
X027815Y019564D01*
X027887Y019406D02*
X027297Y019406D01*
X027297Y019247D02*
X027770Y019247D01*
X027496Y019089D02*
X027297Y019089D01*
X027297Y018930D02*
X027447Y018930D01*
X027447Y018772D02*
X027297Y018772D01*
X027297Y018613D02*
X027447Y018613D01*
X027447Y018455D02*
X027297Y018455D01*
X027297Y018296D02*
X027447Y018296D01*
X027447Y018138D02*
X027297Y018138D01*
X027297Y017979D02*
X027447Y017979D01*
X027447Y017821D02*
X027297Y017821D01*
X027297Y017662D02*
X027447Y017662D01*
X027447Y017504D02*
X027297Y017504D01*
X027297Y017345D02*
X027447Y017345D01*
X027447Y017187D02*
X027297Y017187D01*
X027297Y017028D02*
X027447Y017028D01*
X027447Y016870D02*
X027297Y016870D01*
X027297Y016711D02*
X027447Y016711D01*
X027447Y016553D02*
X027297Y016553D01*
X027297Y016394D02*
X027447Y016394D01*
X027447Y016236D02*
X027297Y016236D01*
X027297Y016077D02*
X027447Y016077D01*
X027447Y015919D02*
X027297Y015919D01*
X027297Y015760D02*
X027447Y015760D01*
X027447Y015602D02*
X027297Y015602D01*
X027297Y015443D02*
X027447Y015443D01*
X027447Y015285D02*
X027297Y015285D01*
X027297Y015126D02*
X027447Y015126D01*
X027447Y014968D02*
X027297Y014968D01*
X027297Y014809D02*
X027447Y014809D01*
X027447Y014651D02*
X027297Y014651D01*
X027297Y014492D02*
X027447Y014492D01*
X027455Y014334D02*
X027288Y014334D01*
X027182Y014175D02*
X027563Y014175D01*
X028106Y014492D02*
X029559Y014492D01*
X029559Y014334D02*
X028278Y014334D01*
X028450Y014175D02*
X029623Y014175D01*
X029814Y014017D02*
X028621Y014017D01*
X028793Y013858D02*
X050497Y013858D01*
X050497Y013700D02*
X028965Y013700D01*
X029136Y013541D02*
X033926Y013541D01*
X033772Y013383D02*
X029308Y013383D01*
X029480Y013224D02*
X033618Y013224D01*
X033464Y013066D02*
X029652Y013066D01*
X029823Y012907D02*
X033311Y012907D01*
X033157Y012749D02*
X029995Y012749D01*
X030167Y012590D02*
X033003Y012590D01*
X032849Y012432D02*
X030338Y012432D01*
X030510Y012273D02*
X032695Y012273D01*
X032692Y012115D02*
X030682Y012115D01*
X030854Y011956D02*
X032692Y011956D01*
X032692Y011798D02*
X031219Y011798D01*
X031379Y011639D02*
X032692Y011639D01*
X032692Y011481D02*
X031436Y011481D01*
X031433Y011322D02*
X032692Y011322D01*
X032692Y011164D02*
X031366Y011164D01*
X031153Y011005D02*
X032692Y011005D01*
X032692Y010847D02*
X030940Y010847D01*
X030842Y011005D02*
X030782Y011005D01*
X030629Y011164D02*
X030623Y011164D01*
X030562Y011322D02*
X030465Y011322D01*
X030484Y011481D02*
X030306Y011481D01*
X030312Y011639D02*
X030148Y011639D01*
X030141Y011798D02*
X029989Y011798D01*
X029969Y011956D02*
X029831Y011956D01*
X029797Y012115D02*
X029672Y012115D01*
X029626Y012273D02*
X029514Y012273D01*
X029454Y012432D02*
X029355Y012432D01*
X029282Y012590D02*
X029197Y012590D01*
X029110Y012749D02*
X029038Y012749D01*
X028939Y012907D02*
X028880Y012907D01*
X028767Y013066D02*
X028721Y013066D01*
X028047Y014651D02*
X029621Y014651D01*
X029804Y014809D02*
X028047Y014809D01*
X028047Y014968D02*
X031598Y014968D01*
X031756Y015126D02*
X028047Y015126D01*
X028047Y015285D02*
X031915Y015285D01*
X032073Y015443D02*
X028047Y015443D01*
X028047Y015602D02*
X032232Y015602D01*
X032390Y015760D02*
X028047Y015760D01*
X028047Y015919D02*
X032549Y015919D01*
X032707Y016077D02*
X028047Y016077D01*
X028047Y016236D02*
X028474Y016236D01*
X028316Y016394D02*
X028047Y016394D01*
X028047Y016553D02*
X028157Y016553D01*
X028247Y016915D02*
X028747Y016415D01*
X031997Y016415D01*
X032997Y017415D01*
X033157Y017028D02*
X038158Y017028D01*
X038177Y017187D02*
X033356Y017187D01*
X033416Y017345D02*
X038177Y017345D01*
X038177Y017504D02*
X033414Y017504D01*
X033342Y017662D02*
X038177Y017662D01*
X038177Y017821D02*
X033112Y017821D01*
X032883Y017821D02*
X032524Y017821D01*
X032653Y017662D02*
X032317Y017662D01*
X032317Y017504D02*
X032581Y017504D01*
X032475Y017345D02*
X032317Y017345D01*
X031997Y017165D02*
X031747Y016915D01*
X029247Y016915D01*
X028997Y017165D01*
X028997Y017915D01*
X028747Y018165D01*
X028247Y018165D01*
X028047Y018613D02*
X032627Y018613D01*
X032765Y018772D02*
X028197Y018772D01*
X028593Y018930D02*
X036558Y018930D01*
X036717Y018772D02*
X033230Y018772D01*
X033368Y018613D02*
X036875Y018613D01*
X037034Y018455D02*
X033416Y018455D01*
X033401Y018296D02*
X037094Y018296D01*
X037183Y018138D02*
X033312Y018138D01*
X032997Y018415D02*
X031997Y017915D01*
X031997Y017165D01*
X031677Y017345D02*
X029317Y017345D01*
X029317Y017504D02*
X031677Y017504D01*
X031677Y017662D02*
X029317Y017662D01*
X029227Y018138D02*
X031767Y018138D01*
X032044Y018296D02*
X029069Y018296D01*
X028884Y018455D02*
X032361Y018455D01*
X032886Y019060D02*
X033040Y018997D01*
X033207Y018997D01*
X033360Y019060D01*
X033542Y019406D02*
X034579Y019406D01*
X034606Y019564D02*
X033515Y019564D01*
X033408Y019723D02*
X034713Y019723D01*
X035282Y019723D02*
X036737Y019723D01*
X036773Y019564D02*
X036896Y019564D01*
X036931Y019406D02*
X037054Y019406D01*
X037090Y019247D02*
X037213Y019247D01*
X037248Y019089D02*
X037371Y019089D01*
X037407Y018930D02*
X037530Y018930D01*
X037916Y018455D02*
X038005Y018455D01*
X037901Y018296D02*
X038164Y018296D01*
X038177Y018138D02*
X037812Y018138D01*
X038177Y017979D02*
X032841Y017979D01*
X032905Y016870D02*
X038000Y016870D01*
X037997Y016415D02*
X038497Y016915D01*
X038497Y018415D01*
X036997Y019915D01*
X036997Y022415D01*
X036559Y022417D02*
X032797Y022417D01*
X032692Y022576D02*
X036590Y022576D01*
X036697Y022734D02*
X032586Y022734D01*
X032480Y022893D02*
X037272Y022893D01*
X037298Y022734D02*
X037503Y022734D01*
X037405Y022576D02*
X037733Y022576D01*
X037964Y022417D02*
X037436Y022417D01*
X037407Y022259D02*
X038195Y022259D01*
X038205Y022100D02*
X037317Y022100D01*
X037317Y021942D02*
X038196Y021942D01*
X038104Y021783D02*
X037317Y021783D01*
X037317Y021625D02*
X038087Y021625D01*
X038133Y021466D02*
X037317Y021466D01*
X037317Y021308D02*
X038266Y021308D01*
X038746Y021308D02*
X050497Y021308D01*
X050497Y021466D02*
X038879Y021466D01*
X038924Y021625D02*
X050497Y021625D01*
X050497Y021783D02*
X038907Y021783D01*
X038815Y021942D02*
X050497Y021942D01*
X050497Y022100D02*
X038805Y022100D01*
X038801Y022259D02*
X050497Y022259D01*
X050497Y022417D02*
X038802Y022417D01*
X038754Y022576D02*
X050497Y022576D01*
X050497Y022734D02*
X038563Y022734D01*
X038332Y022893D02*
X050497Y022893D01*
X050497Y023051D02*
X050022Y023051D01*
X050037Y023056D02*
X049963Y023032D01*
X049886Y023020D01*
X049872Y023020D01*
X049872Y023490D01*
X049822Y023490D01*
X049352Y023490D01*
X049352Y023476D01*
X049365Y023399D01*
X049389Y023325D01*
X049424Y023256D01*
X049470Y023192D01*
X049525Y023137D01*
X049588Y023092D01*
X049657Y023056D01*
X049732Y023032D01*
X049809Y023020D01*
X049822Y023020D01*
X049822Y023490D01*
X049822Y023540D01*
X049352Y023540D01*
X049352Y023554D01*
X049365Y023631D01*
X049389Y023705D01*
X049424Y023774D01*
X049470Y023837D01*
X049525Y023893D01*
X049588Y023938D01*
X049657Y023974D01*
X049732Y023998D01*
X049809Y024010D01*
X049822Y024010D01*
X049822Y023540D01*
X049872Y023540D01*
X049872Y024010D01*
X049886Y024010D01*
X049963Y023998D01*
X050037Y023974D01*
X050107Y023938D01*
X050170Y023893D01*
X050225Y023837D01*
X050271Y023774D01*
X050306Y023705D01*
X050330Y023631D01*
X050342Y023554D01*
X050342Y023540D01*
X049872Y023540D01*
X049872Y023490D01*
X050342Y023490D01*
X050342Y023476D01*
X050330Y023399D01*
X050306Y023325D01*
X050271Y023256D01*
X050225Y023192D01*
X050170Y023137D01*
X050107Y023092D01*
X050037Y023056D01*
X049872Y023051D02*
X049822Y023051D01*
X049673Y023051D02*
X047669Y023051D01*
X047662Y023044D02*
X047818Y023201D01*
X047902Y023405D01*
X047902Y023625D01*
X047818Y023829D01*
X047662Y023985D01*
X047458Y024070D01*
X047237Y024070D01*
X047033Y023985D01*
X046877Y023829D01*
X046792Y023625D01*
X046792Y023405D01*
X046877Y023201D01*
X047033Y023044D01*
X047237Y022960D01*
X047458Y022960D01*
X047662Y023044D01*
X047822Y023210D02*
X049457Y023210D01*
X049375Y023368D02*
X047887Y023368D01*
X047902Y023527D02*
X049822Y023527D01*
X049872Y023527D02*
X050497Y023527D01*
X050497Y023685D02*
X050313Y023685D01*
X050219Y023844D02*
X050497Y023844D01*
X050497Y024002D02*
X049936Y024002D01*
X049872Y024002D02*
X049822Y024002D01*
X049759Y024002D02*
X047622Y024002D01*
X047696Y024161D02*
X050497Y024161D01*
X050497Y024319D02*
X047854Y024319D01*
X048013Y024478D02*
X050497Y024478D01*
X050497Y024636D02*
X048171Y024636D01*
X048330Y024795D02*
X050497Y024795D01*
X050497Y024953D02*
X048488Y024953D01*
X048647Y025112D02*
X050497Y025112D01*
X050497Y025270D02*
X048805Y025270D01*
X048964Y025429D02*
X050497Y025429D01*
X050497Y025587D02*
X049122Y025587D01*
X049274Y025746D02*
X050497Y025746D01*
X050497Y025904D02*
X049317Y025904D01*
X049317Y026063D02*
X050497Y026063D01*
X050497Y026221D02*
X049317Y026221D01*
X049415Y026380D02*
X049928Y026380D01*
X049827Y026538D02*
X049573Y026538D01*
X049497Y026915D02*
X050403Y026915D01*
X050497Y027009D01*
X049497Y026915D02*
X048997Y026415D01*
X048997Y025915D01*
X047497Y024415D01*
X045497Y024415D01*
X044997Y023915D01*
X044842Y023527D02*
X037408Y023527D01*
X037184Y023685D02*
X044640Y023685D01*
X044579Y023844D02*
X036843Y023844D01*
X036783Y023210D02*
X032269Y023210D01*
X032375Y023051D02*
X037041Y023051D01*
X037639Y023368D02*
X045558Y023368D01*
X045542Y023405D02*
X045627Y023201D01*
X045783Y023044D01*
X045987Y022960D01*
X046208Y022960D01*
X046412Y023044D01*
X046568Y023201D01*
X046652Y023405D01*
X046652Y023625D01*
X046568Y023829D01*
X046412Y023985D01*
X046208Y024070D01*
X045987Y024070D01*
X045783Y023985D01*
X045627Y023829D01*
X045542Y023625D01*
X045542Y023405D01*
X045542Y023527D02*
X045153Y023527D01*
X045355Y023685D02*
X045567Y023685D01*
X045641Y023844D02*
X045416Y023844D01*
X045537Y024002D02*
X045823Y024002D01*
X046372Y024002D02*
X047073Y024002D01*
X046891Y023844D02*
X046554Y023844D01*
X046628Y023685D02*
X046817Y023685D01*
X046792Y023527D02*
X046652Y023527D01*
X046637Y023368D02*
X046808Y023368D01*
X046873Y023210D02*
X046572Y023210D01*
X046419Y023051D02*
X047026Y023051D01*
X047878Y023685D02*
X049382Y023685D01*
X049476Y023844D02*
X047804Y023844D01*
X046997Y024915D02*
X048497Y026415D01*
X048497Y028415D01*
X048997Y028915D01*
X050434Y028915D01*
X050497Y028978D01*
X049827Y029391D02*
X048426Y029391D01*
X048268Y029233D02*
X048928Y029233D01*
X048704Y029074D02*
X048109Y029074D01*
X047951Y028916D02*
X048546Y028916D01*
X048387Y028757D02*
X047792Y028757D01*
X047634Y028599D02*
X048229Y028599D01*
X048177Y028440D02*
X047475Y028440D01*
X047317Y028282D02*
X048177Y028282D01*
X048177Y028123D02*
X047158Y028123D01*
X047000Y027965D02*
X048177Y027965D01*
X048177Y027806D02*
X046841Y027806D01*
X046683Y027648D02*
X048177Y027648D01*
X048177Y027489D02*
X046524Y027489D01*
X046415Y027331D02*
X048177Y027331D01*
X048177Y027172D02*
X046346Y027172D01*
X046122Y027014D02*
X048177Y027014D01*
X048177Y026855D02*
X038315Y026855D01*
X037840Y027014D02*
X045873Y027014D01*
X045649Y027172D02*
X037364Y027172D01*
X037091Y027331D02*
X038114Y027331D01*
X037914Y027489D02*
X036932Y027489D01*
X036857Y027648D02*
X037756Y027648D01*
X037653Y027806D02*
X036857Y027806D01*
X036857Y027965D02*
X037637Y027965D01*
X037637Y028123D02*
X036857Y028123D01*
X036857Y028282D02*
X037600Y028282D01*
X037463Y028440D02*
X036857Y028440D01*
X036857Y028599D02*
X037305Y028599D01*
X037146Y028757D02*
X036857Y028757D01*
X036857Y028916D02*
X036988Y028916D01*
X036829Y029074D02*
X036821Y029074D01*
X037372Y029550D02*
X038354Y029550D01*
X038512Y029391D02*
X037530Y029391D01*
X037689Y029233D02*
X038671Y029233D01*
X038829Y029074D02*
X037847Y029074D01*
X038006Y028916D02*
X038988Y028916D01*
X039110Y028757D02*
X038247Y028757D01*
X038374Y028599D02*
X039222Y028599D01*
X039773Y028599D02*
X044672Y028599D01*
X044831Y028757D02*
X039885Y028757D01*
X039916Y028916D02*
X044989Y028916D01*
X045148Y029074D02*
X039884Y029074D01*
X039772Y029233D02*
X045306Y029233D01*
X045465Y029391D02*
X039530Y029391D01*
X039372Y029550D02*
X045600Y029550D01*
X045699Y029708D02*
X039213Y029708D01*
X039055Y029867D02*
X045704Y029867D01*
X045603Y030025D02*
X038896Y030025D01*
X038738Y030184D02*
X045579Y030184D01*
X045618Y030342D02*
X037579Y030342D01*
X037591Y030501D02*
X045637Y030501D01*
X045637Y030659D02*
X037833Y030659D01*
X037910Y030818D02*
X045637Y030818D01*
X045637Y030976D02*
X037916Y030976D01*
X037859Y031135D02*
X045708Y031135D01*
X045867Y031293D02*
X037678Y031293D01*
X037470Y031452D02*
X046025Y031452D01*
X045711Y031610D02*
X037311Y031610D01*
X037153Y031769D02*
X045605Y031769D01*
X045579Y031927D02*
X036994Y031927D01*
X036836Y032086D02*
X045615Y032086D01*
X045735Y032244D02*
X036644Y032244D01*
X038416Y028440D02*
X044514Y028440D01*
X044355Y028282D02*
X038395Y028282D01*
X038357Y028123D02*
X044197Y028123D01*
X044739Y027648D02*
X045641Y027648D01*
X045579Y027489D02*
X044581Y027489D01*
X044381Y027331D02*
X045580Y027331D01*
X045997Y027415D02*
X049497Y030915D01*
X050466Y030915D01*
X050497Y030946D01*
X049827Y030501D02*
X049536Y030501D01*
X049377Y030342D02*
X049902Y030342D01*
X050497Y030184D02*
X049219Y030184D01*
X049060Y030025D02*
X050497Y030025D01*
X050497Y029867D02*
X048902Y029867D01*
X048743Y029708D02*
X050497Y029708D01*
X049870Y029550D02*
X048585Y029550D01*
X046095Y027965D02*
X045056Y027965D01*
X045215Y028123D02*
X045698Y028123D01*
X045600Y028282D02*
X045373Y028282D01*
X045532Y028440D02*
X045579Y028440D01*
X045848Y027806D02*
X044898Y027806D01*
X045648Y025904D02*
X043166Y025904D01*
X044643Y025152D02*
X044579Y024998D01*
X044579Y024832D01*
X044643Y024678D01*
X044760Y024560D01*
X044914Y024497D01*
X045081Y024497D01*
X045159Y024529D01*
X044963Y024333D01*
X044914Y024333D01*
X044760Y024270D01*
X044643Y024152D01*
X044579Y023998D01*
X044651Y024161D02*
X038835Y024161D01*
X038911Y024319D02*
X044880Y024319D01*
X045108Y024478D02*
X039013Y024478D01*
X039171Y024636D02*
X044685Y024636D01*
X044594Y024795D02*
X039330Y024795D01*
X039488Y024953D02*
X044579Y024953D01*
X044626Y025112D02*
X039647Y025112D01*
X039805Y025270D02*
X044762Y025270D01*
X044760Y025270D02*
X044643Y025152D01*
X044760Y025270D02*
X044914Y025333D01*
X045081Y025333D01*
X045234Y025270D01*
X044997Y024915D02*
X046997Y024915D01*
X047417Y025904D02*
X047534Y025904D01*
X048010Y026380D02*
X039916Y026380D01*
X039899Y026538D02*
X048168Y026538D01*
X048177Y026697D02*
X039808Y026697D01*
X039870Y026221D02*
X039900Y026221D01*
X039059Y025429D02*
X037602Y025429D01*
X037666Y025587D02*
X038718Y025587D01*
X038900Y025270D02*
X037388Y025270D01*
X037107Y025270D02*
X036666Y025270D01*
X036653Y025429D02*
X036781Y025429D01*
X036623Y025587D02*
X036567Y025587D01*
X036747Y025915D02*
X036997Y025665D01*
X037247Y025665D01*
X036747Y025915D02*
X031497Y025915D01*
X030497Y026915D01*
X024497Y026915D01*
X023497Y027915D01*
X021997Y027915D01*
X021673Y027648D02*
X018217Y027648D01*
X018059Y027806D02*
X021590Y027806D01*
X021579Y027965D02*
X017900Y027965D01*
X017742Y028123D02*
X021631Y028123D01*
X021789Y028282D02*
X017583Y028282D01*
X017425Y028440D02*
X022079Y028440D01*
X021722Y028599D02*
X017266Y028599D01*
X017108Y028757D02*
X021610Y028757D01*
X021579Y028916D02*
X016949Y028916D01*
X016791Y029074D02*
X021611Y029074D01*
X021723Y029233D02*
X016632Y029233D01*
X016474Y029391D02*
X022079Y029391D01*
X021786Y029550D02*
X016315Y029550D01*
X016157Y029708D02*
X021630Y029708D01*
X021579Y029867D02*
X015998Y029867D01*
X015840Y030025D02*
X021590Y030025D01*
X021674Y030184D02*
X015681Y030184D01*
X015523Y030342D02*
X023416Y030342D01*
X023574Y030501D02*
X015364Y030501D01*
X015206Y030659D02*
X023733Y030659D01*
X023891Y030818D02*
X015047Y030818D01*
X014889Y030976D02*
X024050Y030976D01*
X024208Y031135D02*
X014817Y031135D01*
X014817Y031293D02*
X024367Y031293D01*
X024525Y031452D02*
X014817Y031452D01*
X014817Y031610D02*
X024684Y031610D01*
X024842Y031769D02*
X014817Y031769D01*
X014817Y031927D02*
X025001Y031927D01*
X025159Y032086D02*
X014817Y032086D01*
X014817Y032244D02*
X025351Y032244D01*
X023785Y033037D02*
X015000Y033037D01*
X015016Y032878D02*
X046452Y032878D01*
X046466Y033037D02*
X046610Y033037D01*
X046624Y033195D02*
X046769Y033195D01*
X046783Y033354D02*
X046927Y033354D01*
X046941Y033512D02*
X047086Y033512D01*
X047100Y033671D02*
X047244Y033671D01*
X047258Y033829D02*
X047403Y033829D01*
X047417Y033988D02*
X047561Y033988D01*
X047575Y034146D02*
X047720Y034146D01*
X047734Y034305D02*
X047878Y034305D01*
X047892Y034463D02*
X048037Y034463D01*
X047992Y034622D02*
X048137Y034622D01*
X048137Y034780D02*
X047992Y034780D01*
X047992Y034939D02*
X048137Y034939D01*
X048137Y035097D02*
X047992Y035097D01*
X047992Y035256D02*
X048137Y035256D01*
X048137Y035414D02*
X047992Y035414D01*
X047992Y035573D02*
X048137Y035573D01*
X048137Y035731D02*
X047992Y035731D01*
X047992Y035890D02*
X048137Y035890D01*
X048137Y036048D02*
X047992Y036048D01*
X047992Y036207D02*
X048137Y036207D01*
X048137Y036365D02*
X047992Y036365D01*
X047992Y036524D02*
X048137Y036524D01*
X048137Y036682D02*
X047992Y036682D01*
X047992Y036841D02*
X048137Y036841D01*
X048137Y036999D02*
X047992Y036999D01*
X047992Y037158D02*
X048137Y037158D01*
X048137Y037316D02*
X047992Y037316D01*
X047992Y037475D02*
X048137Y037475D01*
X048137Y037633D02*
X047992Y037633D01*
X047992Y037792D02*
X048137Y037792D01*
X048137Y037950D02*
X047992Y037950D01*
X048038Y038109D02*
X048188Y038109D01*
X048196Y038267D02*
X048341Y038267D01*
X048355Y038426D02*
X048499Y038426D01*
X048513Y038584D02*
X048658Y038584D01*
X048672Y038743D02*
X048816Y038743D01*
X048830Y038901D02*
X048975Y038901D01*
X048989Y039060D02*
X049133Y039060D01*
X049147Y039218D02*
X049827Y039218D01*
X049860Y039377D02*
X049306Y039377D01*
X049464Y039535D02*
X050497Y039535D01*
X050497Y039694D02*
X049623Y039694D01*
X049781Y039852D02*
X050497Y039852D01*
X050497Y040011D02*
X049940Y040011D01*
X048423Y041437D02*
X012207Y041437D01*
X012208Y041279D02*
X048265Y041279D01*
X048106Y041120D02*
X047179Y041120D01*
X047394Y040962D02*
X047948Y040962D01*
X047789Y040803D02*
X047471Y040803D01*
X047487Y040645D02*
X047631Y040645D01*
X047472Y040486D02*
X047454Y040486D01*
X047155Y040169D02*
X012212Y040169D01*
X012213Y040011D02*
X046997Y040011D01*
X046838Y039852D02*
X012214Y039852D01*
X012214Y039694D02*
X046680Y039694D01*
X046521Y039535D02*
X012215Y039535D01*
X012215Y039377D02*
X046363Y039377D01*
X046204Y039218D02*
X012216Y039218D01*
X012217Y039060D02*
X046046Y039060D01*
X046002Y038901D02*
X012217Y038901D01*
X012218Y038743D02*
X046002Y038743D01*
X046002Y038584D02*
X012219Y038584D01*
X012219Y038426D02*
X046002Y038426D01*
X046002Y038267D02*
X012220Y038267D01*
X012220Y038109D02*
X046002Y038109D01*
X046002Y037950D02*
X012221Y037950D01*
X012222Y037792D02*
X046002Y037792D01*
X046002Y037633D02*
X012222Y037633D01*
X012223Y037475D02*
X046002Y037475D01*
X046002Y037316D02*
X012224Y037316D01*
X012224Y037158D02*
X046002Y037158D01*
X046002Y036999D02*
X012225Y036999D01*
X012225Y036841D02*
X046002Y036841D01*
X046002Y036682D02*
X012226Y036682D01*
X012227Y036524D02*
X046002Y036524D01*
X046002Y036365D02*
X012227Y036365D01*
X012228Y036207D02*
X046002Y036207D01*
X046002Y036048D02*
X012229Y036048D01*
X012208Y035890D02*
X046002Y035890D01*
X046002Y035731D02*
X012111Y035731D01*
X012014Y035573D02*
X046002Y035573D01*
X045900Y035414D02*
X011916Y035414D01*
X011819Y035256D02*
X045742Y035256D01*
X045583Y035097D02*
X011722Y035097D01*
X011625Y034939D02*
X045425Y034939D01*
X046293Y032720D02*
X014969Y032720D01*
X014835Y032561D02*
X046135Y032561D01*
X045976Y032403D02*
X014817Y032403D01*
X014497Y032815D02*
X014597Y032915D01*
X014497Y032815D02*
X014497Y030915D01*
X019997Y025415D01*
X021497Y025415D01*
X021997Y024915D01*
X022390Y025112D02*
X030644Y025112D01*
X030440Y025270D02*
X022262Y025270D01*
X022436Y024953D02*
X034007Y024953D01*
X034165Y024795D02*
X022422Y024795D01*
X022338Y024636D02*
X034324Y024636D01*
X034747Y024665D02*
X033997Y025415D01*
X030747Y025415D01*
X029747Y026415D01*
X023997Y026415D01*
X023497Y026915D01*
X021997Y026915D01*
X021814Y026538D02*
X019327Y026538D01*
X019485Y026380D02*
X023580Y026380D01*
X023422Y026538D02*
X022181Y026538D01*
X021635Y026697D02*
X019168Y026697D01*
X019010Y026855D02*
X021579Y026855D01*
X021585Y027014D02*
X018851Y027014D01*
X018693Y027172D02*
X021663Y027172D01*
X021908Y027331D02*
X018534Y027331D01*
X018376Y027489D02*
X022079Y027489D01*
X022497Y027415D02*
X023497Y027415D01*
X024247Y026665D01*
X029997Y026665D01*
X030997Y025665D01*
X034247Y025665D01*
X034497Y025415D01*
X036147Y025415D01*
X036247Y025315D01*
X036616Y025112D02*
X038742Y025112D01*
X038583Y024953D02*
X036467Y024953D01*
X036028Y024953D02*
X035051Y024953D01*
X037870Y023210D02*
X045623Y023210D01*
X045776Y023051D02*
X038101Y023051D01*
X036588Y022259D02*
X032903Y022259D01*
X033015Y022100D02*
X036677Y022100D01*
X036677Y021942D02*
X033068Y021942D01*
X033067Y021783D02*
X036677Y021783D01*
X036677Y021625D02*
X033067Y021625D01*
X033067Y021466D02*
X036677Y021466D01*
X036677Y021308D02*
X033067Y021308D01*
X033067Y021149D02*
X036677Y021149D01*
X036677Y020991D02*
X033067Y020991D01*
X033067Y020832D02*
X036677Y020832D01*
X036677Y020674D02*
X033067Y020674D01*
X033067Y020515D02*
X036677Y020515D01*
X036677Y020357D02*
X033067Y020357D01*
X033067Y020198D02*
X036677Y020198D01*
X036677Y020040D02*
X033067Y020040D01*
X033067Y019881D02*
X036677Y019881D01*
X037325Y020040D02*
X050497Y020040D01*
X050497Y020198D02*
X037317Y020198D01*
X037317Y020357D02*
X050497Y020357D01*
X050497Y020515D02*
X037317Y020515D01*
X037317Y020674D02*
X050497Y020674D01*
X050497Y020832D02*
X037317Y020832D01*
X037317Y020991D02*
X050497Y020991D01*
X050497Y021149D02*
X037317Y021149D01*
X037484Y019881D02*
X050497Y019881D01*
X050497Y019723D02*
X037642Y019723D01*
X037801Y019564D02*
X050497Y019564D01*
X050497Y019406D02*
X037959Y019406D01*
X038118Y019247D02*
X050497Y019247D01*
X050497Y019089D02*
X038276Y019089D01*
X038435Y018930D02*
X050497Y018930D01*
X050497Y018772D02*
X038593Y018772D01*
X038752Y018613D02*
X050497Y018613D01*
X050497Y018455D02*
X038817Y018455D01*
X038817Y018296D02*
X050497Y018296D01*
X050497Y018138D02*
X038817Y018138D01*
X038817Y017979D02*
X050497Y017979D01*
X050497Y017821D02*
X040995Y017821D01*
X041019Y017808D02*
X040954Y017841D01*
X040885Y017864D01*
X040814Y017875D01*
X040507Y017875D01*
X040507Y017425D01*
X040487Y017425D01*
X040487Y017405D01*
X039757Y017405D01*
X039757Y017379D01*
X039769Y017307D01*
X039791Y017238D01*
X039824Y017174D01*
X039867Y017115D01*
X039918Y017064D01*
X039976Y017022D01*
X040041Y016989D01*
X040110Y016966D01*
X040181Y016955D01*
X040487Y016955D01*
X040487Y017405D01*
X040507Y017405D01*
X040507Y016955D01*
X040814Y016955D01*
X040885Y016966D01*
X040954Y016989D01*
X041019Y017022D01*
X041077Y017064D01*
X041128Y017115D01*
X041171Y017174D01*
X041204Y017238D01*
X041226Y017307D01*
X041237Y017379D01*
X041237Y017405D01*
X040507Y017405D01*
X040507Y017425D01*
X041237Y017425D01*
X041237Y017451D01*
X041226Y017523D01*
X041204Y017592D01*
X041171Y017656D01*
X041128Y017715D01*
X041077Y017766D01*
X041019Y017808D01*
X041167Y017662D02*
X045710Y017662D01*
X045783Y017735D02*
X045627Y017579D01*
X045542Y017375D01*
X045542Y017155D01*
X045627Y016951D01*
X045783Y016794D01*
X045987Y016710D01*
X046208Y016710D01*
X046412Y016794D01*
X046568Y016951D01*
X046652Y017155D01*
X046652Y017375D01*
X046568Y017579D01*
X046412Y017735D01*
X046208Y017820D01*
X045987Y017820D01*
X045783Y017735D01*
X045596Y017504D02*
X041229Y017504D01*
X041232Y017345D02*
X045542Y017345D01*
X045542Y017187D02*
X041177Y017187D01*
X041028Y017028D02*
X045595Y017028D01*
X045708Y016870D02*
X040848Y016870D01*
X040814Y016875D02*
X040507Y016875D01*
X040507Y016425D01*
X040487Y016425D01*
X040487Y016405D01*
X039757Y016405D01*
X039757Y016379D01*
X039769Y016307D01*
X039791Y016238D01*
X039824Y016174D01*
X039867Y016115D01*
X039918Y016064D01*
X039976Y016022D01*
X040041Y015989D01*
X040110Y015966D01*
X040181Y015955D01*
X040487Y015955D01*
X040487Y016405D01*
X040507Y016405D01*
X040507Y015955D01*
X040814Y015955D01*
X040885Y015966D01*
X040954Y015989D01*
X041019Y016022D01*
X041077Y016064D01*
X041128Y016115D01*
X041171Y016174D01*
X041204Y016238D01*
X041226Y016307D01*
X041237Y016379D01*
X041237Y016405D01*
X040507Y016405D01*
X040507Y016425D01*
X041237Y016425D01*
X041237Y016451D01*
X041226Y016523D01*
X041204Y016592D01*
X041171Y016656D01*
X041128Y016715D01*
X041077Y016766D01*
X041019Y016808D01*
X040954Y016841D01*
X040885Y016864D01*
X040814Y016875D01*
X040507Y016870D02*
X040487Y016870D01*
X040487Y016875D02*
X040181Y016875D01*
X040110Y016864D01*
X040041Y016841D01*
X039976Y016808D01*
X039918Y016766D01*
X039867Y016715D01*
X039824Y016656D01*
X039791Y016592D01*
X039769Y016523D01*
X039757Y016451D01*
X039757Y016425D01*
X040487Y016425D01*
X040487Y016875D01*
X040487Y017028D02*
X040507Y017028D01*
X040507Y017187D02*
X040487Y017187D01*
X040487Y017345D02*
X040507Y017345D01*
X040487Y017425D02*
X039757Y017425D01*
X039757Y017451D01*
X039769Y017523D01*
X039791Y017592D01*
X039824Y017656D01*
X039867Y017715D01*
X039918Y017766D01*
X039976Y017808D01*
X040041Y017841D01*
X040110Y017864D01*
X040181Y017875D01*
X040487Y017875D01*
X040487Y017425D01*
X040487Y017504D02*
X040507Y017504D01*
X040507Y017662D02*
X040487Y017662D01*
X040487Y017821D02*
X040507Y017821D01*
X040000Y017821D02*
X038817Y017821D01*
X038817Y017662D02*
X039828Y017662D01*
X039766Y017504D02*
X038817Y017504D01*
X038817Y017345D02*
X039763Y017345D01*
X039818Y017187D02*
X038817Y017187D01*
X038817Y017028D02*
X039967Y017028D01*
X040147Y016870D02*
X038817Y016870D01*
X038746Y016711D02*
X039864Y016711D01*
X039779Y016553D02*
X038588Y016553D01*
X038429Y016394D02*
X039757Y016394D01*
X039793Y016236D02*
X038271Y016236D01*
X037997Y016415D02*
X033497Y016415D01*
X031497Y014415D01*
X029997Y014415D01*
X030181Y014017D02*
X042774Y014017D01*
X042826Y013995D02*
X043016Y013995D01*
X043192Y014068D01*
X043326Y014202D01*
X043399Y014378D01*
X043399Y014568D01*
X043326Y014743D01*
X043192Y014878D01*
X043016Y014951D01*
X042826Y014951D01*
X042650Y014878D01*
X042516Y014743D01*
X042443Y014568D01*
X042443Y014378D01*
X042516Y014202D01*
X042650Y014068D01*
X042826Y013995D01*
X043068Y014017D02*
X046069Y014017D01*
X046112Y013999D02*
X046302Y013999D01*
X046478Y014071D01*
X046612Y014206D01*
X046685Y014381D01*
X046685Y014571D01*
X046612Y014747D01*
X046478Y014882D01*
X046302Y014954D01*
X046112Y014954D01*
X045937Y014882D01*
X045802Y014747D01*
X045730Y014571D01*
X045730Y014381D01*
X045802Y014206D01*
X045937Y014071D01*
X046112Y013999D01*
X046346Y014017D02*
X050497Y014017D01*
X050497Y014175D02*
X046582Y014175D01*
X046665Y014334D02*
X050497Y014334D01*
X050497Y014492D02*
X046685Y014492D01*
X046652Y014651D02*
X050497Y014651D01*
X050497Y014809D02*
X046550Y014809D01*
X046422Y015103D02*
X046476Y015142D01*
X046522Y015189D01*
X046561Y015242D01*
X046591Y015300D01*
X046611Y015363D01*
X046621Y015428D01*
X046621Y015461D01*
X046621Y015494D01*
X046611Y015559D01*
X046591Y015621D01*
X046561Y015680D01*
X046522Y015733D01*
X046476Y015779D01*
X046422Y015818D01*
X046364Y015848D01*
X046301Y015868D01*
X046236Y015879D01*
X046203Y015879D01*
X046171Y015879D01*
X046106Y015868D01*
X046043Y015848D01*
X045984Y015818D01*
X045931Y015779D01*
X045885Y015733D01*
X045846Y015680D01*
X045816Y015621D01*
X045796Y015559D01*
X045786Y015494D01*
X045786Y015461D01*
X046203Y015461D01*
X046203Y015461D01*
X046203Y015879D01*
X046203Y015461D01*
X046203Y015461D01*
X045786Y015461D01*
X045786Y015428D01*
X045796Y015363D01*
X045816Y015300D01*
X045846Y015242D01*
X045885Y015189D01*
X045931Y015142D01*
X045984Y015103D01*
X046043Y015074D01*
X046106Y015053D01*
X046171Y015043D01*
X046203Y015043D01*
X046203Y015461D01*
X046203Y015461D01*
X046621Y015461D01*
X046203Y015461D01*
X046203Y015461D01*
X046203Y015043D01*
X046236Y015043D01*
X046301Y015053D01*
X046364Y015074D01*
X046422Y015103D01*
X046454Y015126D02*
X050497Y015126D01*
X050497Y014968D02*
X037154Y014968D01*
X037260Y014809D02*
X042582Y014809D01*
X042478Y014651D02*
X037301Y014651D01*
X037298Y014492D02*
X042443Y014492D01*
X042462Y014334D02*
X037232Y014334D01*
X037088Y014175D02*
X042543Y014175D01*
X043299Y014175D02*
X045833Y014175D01*
X045749Y014334D02*
X043381Y014334D01*
X043399Y014492D02*
X045730Y014492D01*
X045762Y014651D02*
X043365Y014651D01*
X043261Y014809D02*
X045864Y014809D01*
X045953Y015126D02*
X043172Y015126D01*
X043189Y015138D02*
X043236Y015185D01*
X043274Y015238D01*
X043304Y015297D01*
X043325Y015359D01*
X043335Y015424D01*
X043335Y015457D01*
X042917Y015457D01*
X042499Y015457D01*
X042499Y015424D01*
X042510Y015359D01*
X042530Y015297D01*
X042560Y015238D01*
X042598Y015185D01*
X042645Y015138D01*
X042698Y015100D01*
X042757Y015070D01*
X042819Y015050D01*
X042884Y015039D01*
X042917Y015039D01*
X042917Y015457D01*
X042917Y015457D01*
X042917Y015457D01*
X042499Y015457D01*
X042499Y015490D01*
X042510Y015555D01*
X042530Y015617D01*
X042560Y015676D01*
X042598Y015729D01*
X042645Y015776D01*
X042698Y015814D01*
X042757Y015844D01*
X042819Y015865D01*
X042884Y015875D01*
X042917Y015875D01*
X042917Y015457D01*
X042917Y015457D01*
X042917Y015039D01*
X042950Y015039D01*
X043015Y015050D01*
X043078Y015070D01*
X043136Y015100D01*
X043189Y015138D01*
X043298Y015285D02*
X045824Y015285D01*
X045786Y015443D02*
X043335Y015443D01*
X043335Y015457D02*
X043335Y015490D01*
X043325Y015555D01*
X043304Y015617D01*
X043274Y015676D01*
X043236Y015729D01*
X043189Y015776D01*
X043136Y015814D01*
X043078Y015844D01*
X043015Y015865D01*
X042950Y015875D01*
X042917Y015875D01*
X042917Y015457D01*
X042917Y015457D01*
X043335Y015457D01*
X043310Y015602D02*
X045810Y015602D01*
X045912Y015760D02*
X043205Y015760D01*
X042917Y015760D02*
X042917Y015760D01*
X042917Y015602D02*
X042917Y015602D01*
X042917Y015443D02*
X042917Y015443D01*
X042917Y015285D02*
X042917Y015285D01*
X042917Y015126D02*
X042917Y015126D01*
X042662Y015126D02*
X036986Y015126D01*
X037197Y015285D02*
X042536Y015285D01*
X042499Y015443D02*
X037277Y015443D01*
X037301Y015602D02*
X042525Y015602D01*
X042629Y015760D02*
X037280Y015760D01*
X037203Y015919D02*
X050497Y015919D01*
X050497Y016077D02*
X041090Y016077D01*
X041202Y016236D02*
X050497Y016236D01*
X050497Y016394D02*
X041237Y016394D01*
X041216Y016553D02*
X050497Y016553D01*
X050497Y016711D02*
X049961Y016711D01*
X049958Y016710D02*
X050162Y016794D01*
X050318Y016951D01*
X050402Y017155D01*
X050402Y017375D01*
X050318Y017579D01*
X050162Y017735D01*
X049958Y017820D01*
X049737Y017820D01*
X049533Y017735D01*
X049377Y017579D01*
X049292Y017375D01*
X049292Y017155D01*
X049377Y016951D01*
X049533Y016794D01*
X049737Y016710D01*
X049958Y016710D01*
X049734Y016711D02*
X046211Y016711D01*
X045984Y016711D02*
X041131Y016711D01*
X040507Y016711D02*
X040487Y016711D01*
X040487Y016553D02*
X040507Y016553D01*
X040507Y016394D02*
X040487Y016394D01*
X040487Y016236D02*
X040507Y016236D01*
X040507Y016077D02*
X040487Y016077D01*
X039905Y016077D02*
X036999Y016077D01*
X036004Y016077D02*
X033612Y016077D01*
X033454Y015919D02*
X035800Y015919D01*
X035723Y015760D02*
X033295Y015760D01*
X033137Y015602D02*
X035701Y015602D01*
X035725Y015443D02*
X032978Y015443D01*
X032820Y015285D02*
X035806Y015285D01*
X036017Y015126D02*
X032661Y015126D01*
X032503Y014968D02*
X035849Y014968D01*
X035743Y014809D02*
X032344Y014809D01*
X032186Y014651D02*
X035701Y014651D01*
X035705Y014492D02*
X032027Y014492D01*
X031869Y014334D02*
X035771Y014334D01*
X035915Y014175D02*
X031710Y014175D01*
X031439Y014809D02*
X030191Y014809D01*
X032271Y016236D02*
X032866Y016236D01*
X033024Y016394D02*
X032429Y016394D01*
X032588Y016553D02*
X033183Y016553D01*
X033376Y016711D02*
X032746Y016711D01*
X032886Y019060D02*
X032769Y019178D01*
X032761Y019198D01*
X032696Y019219D01*
X032684Y019219D01*
X032636Y019239D01*
X032587Y019255D01*
X032578Y019263D01*
X032566Y019268D01*
X032530Y019304D01*
X032490Y019338D01*
X032485Y019349D01*
X032476Y019358D01*
X032456Y019406D01*
X032611Y019247D02*
X029402Y019247D01*
X029291Y019089D02*
X032858Y019089D01*
X035263Y019089D02*
X036400Y019089D01*
X031747Y023415D02*
X028997Y023415D01*
X028997Y019415D01*
X028677Y019881D02*
X028632Y019881D01*
X028677Y020040D02*
X028488Y020040D01*
X028677Y020198D02*
X028297Y020198D01*
X028297Y020357D02*
X028677Y020357D01*
X028677Y020515D02*
X028297Y020515D01*
X028297Y020674D02*
X028677Y020674D01*
X028677Y020832D02*
X028297Y020832D01*
X028297Y020991D02*
X028677Y020991D01*
X028677Y021149D02*
X028297Y021149D01*
X028297Y021308D02*
X028677Y021308D01*
X028677Y021466D02*
X028297Y021466D01*
X028297Y021625D02*
X028677Y021625D01*
X028677Y021783D02*
X028297Y021783D01*
X028297Y021942D02*
X028677Y021942D01*
X028677Y022100D02*
X028302Y022100D01*
X028407Y022259D02*
X028677Y022259D01*
X028677Y022417D02*
X028436Y022417D01*
X028405Y022576D02*
X028677Y022576D01*
X028677Y022734D02*
X028298Y022734D01*
X028677Y022893D02*
X027297Y022893D01*
X027297Y023051D02*
X028677Y023051D01*
X028677Y023210D02*
X027297Y023210D01*
X027297Y022734D02*
X027697Y022734D01*
X027590Y022576D02*
X027297Y022576D01*
X027297Y022417D02*
X027559Y022417D01*
X027588Y022259D02*
X027297Y022259D01*
X027297Y022100D02*
X027693Y022100D01*
X027697Y021942D02*
X027297Y021942D01*
X027297Y021783D02*
X027697Y021783D01*
X027697Y021625D02*
X027297Y021625D01*
X027297Y021466D02*
X027697Y021466D01*
X027697Y021308D02*
X027297Y021308D01*
X027297Y021149D02*
X027697Y021149D01*
X027697Y020991D02*
X027297Y020991D01*
X026697Y023685D02*
X019965Y023685D01*
X020025Y023745D02*
X020025Y023745D01*
X020124Y023844D02*
X026752Y023844D01*
X023739Y026221D02*
X019644Y026221D01*
X019802Y026063D02*
X029647Y026063D01*
X029806Y025904D02*
X019961Y025904D01*
X020119Y025746D02*
X029964Y025746D01*
X030123Y025587D02*
X021778Y025587D01*
X021936Y025429D02*
X030281Y025429D01*
X021657Y024636D02*
X021588Y024636D01*
X021247Y024915D02*
X019997Y024915D01*
X013997Y030915D01*
X013997Y032915D01*
X013686Y033195D02*
X006374Y033195D01*
X006374Y033182D02*
X006374Y033377D01*
X006084Y033667D01*
X005889Y033667D01*
X005889Y033182D01*
X006374Y033182D01*
X006374Y033162D02*
X005889Y033162D01*
X005889Y033182D01*
X005869Y033182D01*
X005869Y033162D01*
X005384Y033162D01*
X005384Y032967D01*
X005637Y032715D01*
X005324Y032402D01*
X005324Y031943D01*
X005649Y031617D01*
X006109Y031617D01*
X006434Y031943D01*
X006434Y032402D01*
X006121Y032715D01*
X006374Y032967D01*
X006374Y033162D01*
X006374Y033037D02*
X013595Y033037D01*
X013579Y032878D02*
X006285Y032878D01*
X006126Y032720D02*
X013625Y032720D01*
X013677Y032561D02*
X006275Y032561D01*
X006434Y032403D02*
X013677Y032403D01*
X013677Y032244D02*
X006434Y032244D01*
X006434Y032086D02*
X013677Y032086D01*
X013677Y031927D02*
X006419Y031927D01*
X006260Y031769D02*
X013677Y031769D01*
X013677Y031610D02*
X002489Y031610D01*
X002489Y031452D02*
X013677Y031452D01*
X013677Y031293D02*
X002490Y031293D01*
X002490Y031135D02*
X013677Y031135D01*
X013677Y030976D02*
X010902Y030976D01*
X010881Y030985D02*
X010114Y030985D01*
X009923Y030906D01*
X009777Y030760D01*
X009697Y030568D01*
X009697Y030362D01*
X009777Y030170D01*
X009923Y030024D01*
X010066Y029965D01*
X009923Y029906D01*
X009777Y029760D01*
X009697Y029568D01*
X009697Y029362D01*
X009777Y029170D01*
X009923Y029024D01*
X010114Y028945D01*
X010881Y028945D01*
X011072Y029024D01*
X011218Y029170D01*
X011297Y029362D01*
X011297Y029568D01*
X011218Y029760D01*
X011072Y029906D01*
X010929Y029965D01*
X011072Y030024D01*
X011218Y030170D01*
X011297Y030362D01*
X011297Y030568D01*
X011218Y030760D01*
X011072Y030906D01*
X010881Y030985D01*
X011160Y030818D02*
X013691Y030818D01*
X013801Y030659D02*
X011260Y030659D01*
X011297Y030501D02*
X013959Y030501D01*
X014118Y030342D02*
X011289Y030342D01*
X011224Y030184D02*
X014276Y030184D01*
X014435Y030025D02*
X011073Y030025D01*
X011111Y029867D02*
X014593Y029867D01*
X014752Y029708D02*
X011240Y029708D01*
X011297Y029550D02*
X014910Y029550D01*
X015069Y029391D02*
X013128Y029391D01*
X012867Y029391D02*
X011297Y029391D01*
X011244Y029233D02*
X012622Y029233D01*
X012533Y029074D02*
X011122Y029074D01*
X012507Y028916D02*
X004222Y028916D01*
X004278Y028757D02*
X012532Y028757D01*
X012621Y028599D02*
X004321Y028599D01*
X004324Y028440D02*
X012779Y028440D01*
X012938Y028282D02*
X004321Y028282D01*
X004279Y028123D02*
X006561Y028123D01*
X006528Y028113D02*
X006464Y028080D01*
X006406Y028038D01*
X006355Y027987D01*
X006313Y027929D01*
X006280Y027864D01*
X006258Y027796D01*
X006247Y027725D01*
X006247Y027698D01*
X006695Y027698D01*
X006695Y028146D01*
X006668Y028146D01*
X006597Y028135D01*
X006528Y028113D01*
X006695Y028123D02*
X006712Y028123D01*
X006712Y028146D02*
X006712Y027698D01*
X006695Y027698D01*
X006695Y027680D01*
X006712Y027680D01*
X006712Y027232D01*
X006740Y027232D01*
X006811Y027243D01*
X006879Y027265D01*
X006943Y027298D01*
X007002Y027340D01*
X007052Y027391D01*
X007095Y027449D01*
X007127Y027513D01*
X007150Y027582D01*
X007161Y027653D01*
X007161Y027680D01*
X006712Y027680D01*
X006712Y027698D01*
X007161Y027698D01*
X007161Y027725D01*
X007150Y027796D01*
X007127Y027864D01*
X007095Y027929D01*
X007052Y027987D01*
X007002Y028038D01*
X006943Y028080D01*
X006879Y028113D01*
X006811Y028135D01*
X006740Y028146D01*
X006712Y028146D01*
X006847Y028123D02*
X013096Y028123D01*
X013255Y027965D02*
X007069Y027965D01*
X007146Y027806D02*
X013413Y027806D01*
X013572Y027648D02*
X009154Y027648D01*
X009098Y027671D02*
X009284Y027594D01*
X009426Y027451D01*
X009503Y027266D01*
X009503Y027064D01*
X009426Y026878D01*
X009284Y026736D01*
X009098Y026659D01*
X008897Y026659D01*
X008711Y026736D01*
X008569Y026878D01*
X008492Y027064D01*
X008492Y027266D01*
X008569Y027451D01*
X008711Y027594D01*
X008897Y027671D01*
X009098Y027671D01*
X008841Y027648D02*
X007160Y027648D01*
X007115Y027489D02*
X008606Y027489D01*
X008519Y027331D02*
X006988Y027331D01*
X006889Y027172D02*
X008492Y027172D01*
X008513Y027014D02*
X007111Y027014D01*
X007142Y026982D02*
X006997Y027127D01*
X006807Y027206D01*
X006601Y027206D01*
X006411Y027127D01*
X006265Y026982D01*
X006187Y026792D01*
X006187Y026586D01*
X006265Y026396D01*
X006411Y026251D01*
X006601Y026172D01*
X006807Y026172D01*
X006997Y026251D01*
X007142Y026396D01*
X007221Y026586D01*
X007221Y026792D01*
X007142Y026982D01*
X007195Y026855D02*
X008592Y026855D01*
X008807Y026697D02*
X007221Y026697D01*
X007201Y026538D02*
X014681Y026538D01*
X014523Y026697D02*
X009188Y026697D01*
X009403Y026855D02*
X014364Y026855D01*
X014206Y027014D02*
X009482Y027014D01*
X009503Y027172D02*
X014047Y027172D01*
X013889Y027331D02*
X009476Y027331D01*
X009389Y027489D02*
X013730Y027489D01*
X014482Y028123D02*
X016337Y028123D01*
X016495Y027965D02*
X014641Y027965D01*
X014799Y027806D02*
X016654Y027806D01*
X016812Y027648D02*
X014958Y027648D01*
X015116Y027489D02*
X016971Y027489D01*
X017129Y027331D02*
X015275Y027331D01*
X015433Y027172D02*
X017288Y027172D01*
X017446Y027014D02*
X015592Y027014D01*
X015750Y026855D02*
X017605Y026855D01*
X017763Y026697D02*
X015909Y026697D01*
X016067Y026538D02*
X017922Y026538D01*
X018080Y026380D02*
X016226Y026380D01*
X016384Y026221D02*
X018239Y026221D01*
X018397Y026063D02*
X016543Y026063D01*
X015791Y025429D02*
X009416Y025429D01*
X009416Y025498D02*
X009352Y025652D01*
X009234Y025770D01*
X009081Y025833D01*
X008914Y025833D01*
X008760Y025770D01*
X008643Y025652D01*
X008579Y025498D01*
X008579Y025332D01*
X008643Y025178D01*
X008697Y025123D01*
X008697Y018707D01*
X008643Y018652D01*
X008579Y018498D01*
X008579Y018332D01*
X008643Y018178D01*
X008760Y018060D01*
X008914Y017997D01*
X009081Y017997D01*
X009234Y018060D01*
X009352Y018178D01*
X009416Y018332D01*
X009416Y018498D01*
X009352Y018652D01*
X009297Y018707D01*
X009297Y025123D01*
X009352Y025178D01*
X009416Y025332D01*
X009416Y025498D01*
X009379Y025587D02*
X015632Y025587D01*
X015474Y025746D02*
X009259Y025746D01*
X009390Y025270D02*
X015949Y025270D01*
X016108Y025112D02*
X009297Y025112D01*
X009297Y024953D02*
X016332Y024953D01*
X015315Y025904D02*
X007107Y025904D01*
X007095Y025929D02*
X007052Y025987D01*
X007002Y026038D01*
X006943Y026080D01*
X006879Y026113D01*
X006811Y026135D01*
X006740Y026146D01*
X006712Y026146D01*
X006712Y025698D01*
X006695Y025698D01*
X006695Y026146D01*
X006668Y026146D01*
X006597Y026135D01*
X006528Y026113D01*
X006464Y026080D01*
X006406Y026038D01*
X006355Y025987D01*
X006313Y025929D01*
X006280Y025864D01*
X006258Y025796D01*
X006247Y025725D01*
X006247Y025698D01*
X006695Y025698D01*
X006695Y025680D01*
X006712Y025680D01*
X006712Y025232D01*
X006740Y025232D01*
X006811Y025243D01*
X006879Y025265D01*
X006943Y025298D01*
X007002Y025340D01*
X007052Y025391D01*
X007095Y025449D01*
X007127Y025513D01*
X007150Y025582D01*
X007161Y025653D01*
X007161Y025680D01*
X006712Y025680D01*
X006712Y025698D01*
X007161Y025698D01*
X007161Y025725D01*
X007150Y025796D01*
X007127Y025864D01*
X007095Y025929D01*
X006967Y026063D02*
X015157Y026063D01*
X014998Y026221D02*
X006926Y026221D01*
X007126Y026380D02*
X014840Y026380D01*
X014324Y028282D02*
X016178Y028282D01*
X016020Y028440D02*
X014165Y028440D01*
X014007Y028599D02*
X015861Y028599D01*
X015703Y028757D02*
X013848Y028757D01*
X013690Y028916D02*
X015544Y028916D01*
X015386Y029074D02*
X013531Y029074D01*
X013373Y029233D02*
X015227Y029233D01*
X014909Y033195D02*
X023752Y033195D01*
X023758Y033354D02*
X006374Y033354D01*
X006239Y033512D02*
X012207Y033512D01*
X012220Y033500D02*
X012400Y033425D01*
X017595Y033425D01*
X020095Y033425D01*
X020275Y033500D01*
X020413Y033637D01*
X020487Y033817D01*
X020487Y034012D01*
X020413Y034193D01*
X020275Y034330D01*
X020095Y034405D01*
X012400Y034405D01*
X012220Y034330D01*
X012082Y034193D01*
X012007Y034012D01*
X012007Y033817D01*
X012082Y033637D01*
X012220Y033500D01*
X012068Y033671D02*
X007244Y033671D01*
X005889Y033512D02*
X005869Y033512D01*
X005869Y033667D02*
X005674Y033667D01*
X005384Y033377D01*
X005384Y033182D01*
X005869Y033182D01*
X005869Y033667D01*
X005869Y033354D02*
X005889Y033354D01*
X005889Y033195D02*
X005869Y033195D01*
X005519Y033512D02*
X002484Y033512D01*
X002484Y033354D02*
X005384Y033354D01*
X005384Y033195D02*
X002485Y033195D01*
X002485Y033037D02*
X005384Y033037D01*
X005473Y032878D02*
X002486Y032878D01*
X002486Y032720D02*
X002641Y032720D01*
X003117Y032720D02*
X005632Y032720D01*
X005483Y032561D02*
X003275Y032561D01*
X003434Y032403D02*
X005324Y032403D01*
X005324Y032244D02*
X003434Y032244D01*
X003434Y032086D02*
X005324Y032086D01*
X005339Y031927D02*
X003419Y031927D01*
X003260Y031769D02*
X005498Y031769D01*
X003386Y029550D02*
X009697Y029550D01*
X009697Y029391D02*
X003795Y029391D01*
X003994Y029233D02*
X009751Y029233D01*
X009873Y029074D02*
X004130Y029074D01*
X003021Y029550D02*
X002494Y029550D01*
X002494Y029708D02*
X009755Y029708D01*
X009884Y029867D02*
X002493Y029867D01*
X002493Y030025D02*
X009922Y030025D01*
X009771Y030184D02*
X002492Y030184D01*
X002492Y030342D02*
X009706Y030342D01*
X009697Y030501D02*
X002492Y030501D01*
X002491Y030659D02*
X009735Y030659D01*
X009835Y030818D02*
X002491Y030818D01*
X002490Y030976D02*
X010093Y030976D01*
X010943Y033829D02*
X012007Y033829D01*
X012007Y033988D02*
X011041Y033988D01*
X011138Y034146D02*
X012063Y034146D01*
X012194Y034305D02*
X011235Y034305D01*
X011333Y034463D02*
X023752Y034463D01*
X023752Y034305D02*
X020301Y034305D01*
X020432Y034146D02*
X023752Y034146D01*
X023752Y033988D02*
X020487Y033988D01*
X020487Y033829D02*
X023752Y033829D01*
X023752Y033671D02*
X020427Y033671D01*
X020288Y033512D02*
X023752Y033512D01*
X023752Y034622D02*
X011430Y034622D01*
X011527Y034780D02*
X023780Y034780D01*
X025892Y040328D02*
X012212Y040328D01*
X012211Y040486D02*
X025791Y040486D01*
X025757Y040645D02*
X012210Y040645D01*
X012210Y040803D02*
X025774Y040803D01*
X025851Y040962D02*
X012209Y040962D01*
X012209Y041120D02*
X026066Y041120D01*
X025810Y043339D02*
X026531Y043339D01*
X026485Y043498D02*
X025856Y043498D01*
X025856Y043656D02*
X026485Y043656D01*
X026485Y043815D02*
X025856Y043815D01*
X024516Y043815D02*
X023589Y043815D01*
X023589Y043656D02*
X024516Y043656D01*
X024516Y043498D02*
X023589Y043498D01*
X023542Y043339D02*
X024563Y043339D01*
X022295Y043339D02*
X021574Y043339D01*
X021620Y043498D02*
X022249Y043498D01*
X022249Y043656D02*
X021620Y043656D01*
X021620Y043815D02*
X022249Y043815D01*
X020280Y043815D02*
X019592Y043815D01*
X019592Y043877D02*
X019020Y043877D01*
X019020Y043305D01*
X019435Y043305D01*
X019481Y043317D01*
X019522Y043341D01*
X019556Y043374D01*
X019579Y043415D01*
X019592Y043461D01*
X019592Y043877D01*
X019592Y043656D02*
X020280Y043656D01*
X020280Y043498D02*
X019592Y043498D01*
X019519Y043339D02*
X020327Y043339D01*
X019020Y043339D02*
X018944Y043339D01*
X018944Y043305D02*
X018944Y043877D01*
X018372Y043877D01*
X018372Y043461D01*
X018384Y043415D01*
X018408Y043374D01*
X018441Y043341D01*
X018482Y043317D01*
X018528Y043305D01*
X018944Y043305D01*
X018944Y043498D02*
X019020Y043498D01*
X019020Y043656D02*
X018944Y043656D01*
X018944Y043815D02*
X019020Y043815D01*
X018372Y043815D02*
X017683Y043815D01*
X017683Y043656D02*
X018372Y043656D01*
X018372Y043498D02*
X017683Y043498D01*
X017637Y043339D02*
X018444Y043339D01*
X016390Y043339D02*
X015668Y043339D01*
X015715Y043498D02*
X016343Y043498D01*
X016343Y043656D02*
X015715Y043656D01*
X015715Y043815D02*
X016343Y043815D01*
X014375Y043815D02*
X013746Y043815D01*
X013746Y043656D02*
X014375Y043656D01*
X014375Y043498D02*
X013746Y043498D01*
X013700Y043339D02*
X014421Y043339D01*
X012453Y043339D02*
X012200Y043339D01*
X012200Y043181D02*
X048232Y043181D01*
X048073Y043339D02*
X047464Y043339D01*
X047510Y043498D02*
X047915Y043498D01*
X047756Y043656D02*
X047510Y043656D01*
X047510Y043815D02*
X047598Y043815D01*
X048390Y043022D02*
X012201Y043022D01*
X012202Y042864D02*
X048549Y042864D01*
X048707Y042705D02*
X012202Y042705D01*
X012203Y042547D02*
X048866Y042547D01*
X049024Y042388D02*
X012204Y042388D01*
X012204Y042230D02*
X049183Y042230D01*
X049262Y042071D02*
X012205Y042071D01*
X012205Y041913D02*
X048945Y041913D01*
X048740Y041754D02*
X012206Y041754D01*
X012207Y041596D02*
X048582Y041596D01*
X046216Y043339D02*
X045495Y043339D01*
X045541Y043498D02*
X046170Y043498D01*
X046170Y043656D02*
X045541Y043656D01*
X045541Y043815D02*
X046170Y043815D01*
X044201Y043815D02*
X043573Y043815D01*
X043573Y043656D02*
X044201Y043656D01*
X044201Y043498D02*
X043573Y043498D01*
X043527Y043339D02*
X044248Y043339D01*
X042279Y043339D02*
X041558Y043339D01*
X041604Y043498D02*
X042233Y043498D01*
X042233Y043656D02*
X041604Y043656D01*
X041604Y043815D02*
X042233Y043815D01*
X040264Y043815D02*
X039636Y043815D01*
X039636Y043656D02*
X040264Y043656D01*
X040264Y043498D02*
X039636Y043498D01*
X039590Y043339D02*
X040311Y043339D01*
X038342Y043339D02*
X037535Y043339D01*
X037538Y043341D02*
X037497Y043317D01*
X037451Y043305D01*
X037036Y043305D01*
X037036Y043877D01*
X037607Y043877D01*
X037607Y043461D01*
X037595Y043415D01*
X037572Y043374D01*
X037538Y043341D01*
X037607Y043498D02*
X038296Y043498D01*
X038296Y043656D02*
X037607Y043656D01*
X037607Y043815D02*
X038296Y043815D01*
X037036Y043815D02*
X036959Y043815D01*
X036959Y043656D02*
X037036Y043656D01*
X037036Y043498D02*
X036959Y043498D01*
X036959Y043339D02*
X037036Y043339D01*
X036460Y043339D02*
X035653Y043339D01*
X035699Y043498D02*
X036387Y043498D01*
X036387Y043656D02*
X035699Y043656D01*
X035699Y043815D02*
X036387Y043815D01*
X034359Y043815D02*
X033730Y043815D01*
X033730Y043656D02*
X034359Y043656D01*
X034359Y043498D02*
X033730Y043498D01*
X033684Y043339D02*
X034405Y043339D01*
X032437Y043339D02*
X031716Y043339D01*
X031762Y043498D02*
X032390Y043498D01*
X032390Y043656D02*
X031762Y043656D01*
X031762Y043815D02*
X032390Y043815D01*
X030422Y043815D02*
X029733Y043815D01*
X029733Y043877D02*
X029162Y043877D01*
X029162Y043305D01*
X029577Y043305D01*
X029623Y043317D01*
X029664Y043341D01*
X029698Y043374D01*
X029721Y043415D01*
X029733Y043461D01*
X029733Y043877D01*
X029733Y043656D02*
X030422Y043656D01*
X030422Y043498D02*
X029733Y043498D01*
X029661Y043339D02*
X030468Y043339D01*
X029162Y043339D02*
X029085Y043339D01*
X029085Y043498D02*
X029162Y043498D01*
X029162Y043656D02*
X029085Y043656D01*
X029085Y043815D02*
X029162Y043815D01*
X028513Y043815D02*
X027825Y043815D01*
X027825Y043656D02*
X028513Y043656D01*
X028513Y043498D02*
X027825Y043498D01*
X027779Y043339D02*
X028586Y043339D01*
X012406Y043498D02*
X012199Y043498D01*
X012199Y043656D02*
X012406Y043656D01*
X012406Y043815D02*
X012198Y043815D01*
X002498Y031769D02*
X002488Y031769D01*
X002494Y029391D02*
X002613Y029391D01*
X004132Y027806D02*
X006261Y027806D01*
X006247Y027680D02*
X006247Y027653D01*
X006258Y027582D01*
X006280Y027513D01*
X006313Y027449D01*
X006355Y027391D01*
X006406Y027340D01*
X006464Y027298D01*
X006528Y027265D01*
X006597Y027243D01*
X006668Y027232D01*
X006695Y027232D01*
X006695Y027680D01*
X006247Y027680D01*
X006247Y027648D02*
X005948Y027648D01*
X005997Y027627D02*
X005807Y027706D01*
X005601Y027706D01*
X005411Y027627D01*
X005265Y027482D01*
X005187Y027292D01*
X005187Y027086D01*
X005265Y026896D01*
X005411Y026751D01*
X005559Y026689D01*
X005411Y026627D01*
X005265Y026482D01*
X005187Y026292D01*
X005187Y026086D01*
X005265Y025896D01*
X005411Y025751D01*
X005559Y025689D01*
X005411Y025627D01*
X005265Y025482D01*
X005187Y025292D01*
X005187Y025086D01*
X005265Y024896D01*
X005411Y024751D01*
X005601Y024672D01*
X005807Y024672D01*
X005997Y024751D01*
X006142Y024896D01*
X006221Y025086D01*
X006221Y025292D01*
X006142Y025482D01*
X005997Y025627D01*
X005848Y025689D01*
X005997Y025751D01*
X006142Y025896D01*
X006221Y026086D01*
X006221Y026292D01*
X006142Y026482D01*
X005997Y026627D01*
X005848Y026689D01*
X005997Y026751D01*
X006142Y026896D01*
X006221Y027086D01*
X006221Y027292D01*
X006142Y027482D01*
X005997Y027627D01*
X006135Y027489D02*
X006293Y027489D01*
X006205Y027331D02*
X006419Y027331D01*
X006519Y027172D02*
X006221Y027172D01*
X006191Y027014D02*
X006297Y027014D01*
X006213Y026855D02*
X006101Y026855D01*
X006187Y026697D02*
X005867Y026697D01*
X006086Y026538D02*
X006206Y026538D01*
X006185Y026380D02*
X006282Y026380D01*
X006221Y026221D02*
X006482Y026221D01*
X006440Y026063D02*
X006211Y026063D01*
X006146Y025904D02*
X006300Y025904D01*
X006250Y025746D02*
X005985Y025746D01*
X006037Y025587D02*
X006257Y025587D01*
X006258Y025582D02*
X006280Y025513D01*
X006313Y025449D01*
X006355Y025391D01*
X006406Y025340D01*
X006464Y025298D01*
X006528Y025265D01*
X006597Y025243D01*
X006668Y025232D01*
X006695Y025232D01*
X006695Y025680D01*
X006247Y025680D01*
X006247Y025653D01*
X006258Y025582D01*
X006328Y025429D02*
X006164Y025429D01*
X006221Y025270D02*
X006519Y025270D01*
X006695Y025270D02*
X006712Y025270D01*
X006695Y025429D02*
X006712Y025429D01*
X006695Y025587D02*
X006712Y025587D01*
X006695Y025746D02*
X006712Y025746D01*
X006695Y025904D02*
X006712Y025904D01*
X006695Y026063D02*
X006712Y026063D01*
X007158Y025746D02*
X008736Y025746D01*
X008616Y025587D02*
X007151Y025587D01*
X007080Y025429D02*
X008579Y025429D01*
X008605Y025270D02*
X006889Y025270D01*
X006221Y025112D02*
X008697Y025112D01*
X008697Y024953D02*
X006166Y024953D01*
X006041Y024795D02*
X008697Y024795D01*
X008697Y024636D02*
X004310Y024636D01*
X004324Y024478D02*
X008697Y024478D01*
X008697Y024319D02*
X004324Y024319D01*
X004289Y024161D02*
X008697Y024161D01*
X008697Y024002D02*
X004245Y024002D01*
X004153Y023844D02*
X008697Y023844D01*
X008697Y023685D02*
X004034Y023685D01*
X003864Y023527D02*
X008697Y023527D01*
X008697Y023368D02*
X003535Y023368D01*
X003381Y023051D02*
X008697Y023051D01*
X008697Y022893D02*
X003792Y022893D01*
X003993Y022734D02*
X008697Y022734D01*
X008697Y022576D02*
X004129Y022576D01*
X004221Y022417D02*
X008697Y022417D01*
X008697Y022259D02*
X004278Y022259D01*
X004320Y022100D02*
X008697Y022100D01*
X008697Y021942D02*
X004324Y021942D01*
X004322Y021783D02*
X007650Y021783D01*
X007711Y021844D02*
X007569Y021701D01*
X007492Y021516D01*
X007492Y021314D01*
X007569Y021128D01*
X007711Y020986D01*
X007897Y020909D01*
X008098Y020909D01*
X008284Y020986D01*
X008426Y021128D01*
X008503Y021314D01*
X008503Y021516D01*
X008426Y021701D01*
X008284Y021844D01*
X008098Y021921D01*
X007897Y021921D01*
X007711Y021844D01*
X007537Y021625D02*
X006842Y021625D01*
X006811Y021635D02*
X006740Y021646D01*
X006712Y021646D01*
X006712Y021198D01*
X006695Y021198D01*
X006695Y021646D01*
X006668Y021646D01*
X006597Y021635D01*
X006528Y021613D01*
X006464Y021580D01*
X006406Y021538D01*
X006355Y021487D01*
X006313Y021429D01*
X006280Y021364D01*
X006258Y021296D01*
X006247Y021225D01*
X006247Y021198D01*
X006695Y021198D01*
X006695Y021180D01*
X006712Y021180D01*
X006712Y020732D01*
X006740Y020732D01*
X006811Y020743D01*
X006879Y020765D01*
X006943Y020798D01*
X007002Y020840D01*
X007052Y020891D01*
X007095Y020949D01*
X007127Y021013D01*
X007150Y021082D01*
X007161Y021153D01*
X007161Y021180D01*
X006712Y021180D01*
X006712Y021198D01*
X007161Y021198D01*
X007161Y021225D01*
X007150Y021296D01*
X007127Y021364D01*
X007095Y021429D01*
X007052Y021487D01*
X007002Y021538D01*
X006943Y021580D01*
X006879Y021613D01*
X006811Y021635D01*
X006712Y021625D02*
X006695Y021625D01*
X006565Y021625D02*
X004279Y021625D01*
X004224Y021466D02*
X006340Y021466D01*
X006262Y021308D02*
X004133Y021308D01*
X003998Y021149D02*
X005463Y021149D01*
X005411Y021127D02*
X005265Y020982D01*
X005187Y020792D01*
X005187Y020586D01*
X005265Y020396D01*
X005411Y020251D01*
X005559Y020189D01*
X005411Y020127D01*
X005265Y019982D01*
X005187Y019792D01*
X005187Y019586D01*
X005265Y019396D01*
X005411Y019251D01*
X005559Y019189D01*
X005411Y019127D01*
X005265Y018982D01*
X005187Y018792D01*
X005187Y018586D01*
X005265Y018396D01*
X005411Y018251D01*
X005601Y018172D01*
X005807Y018172D01*
X005997Y018251D01*
X006142Y018396D01*
X006221Y018586D01*
X006221Y018792D01*
X006142Y018982D01*
X005997Y019127D01*
X005848Y019189D01*
X005997Y019251D01*
X006142Y019396D01*
X006221Y019586D01*
X006221Y019792D01*
X006142Y019982D01*
X005997Y020127D01*
X005848Y020189D01*
X005997Y020251D01*
X006142Y020396D01*
X006221Y020586D01*
X006221Y020792D01*
X006142Y020982D01*
X005997Y021127D01*
X005807Y021206D01*
X005601Y021206D01*
X005411Y021127D01*
X005274Y020991D02*
X003801Y020991D01*
X003400Y020832D02*
X005203Y020832D01*
X005187Y020674D02*
X002497Y020674D01*
X002497Y020832D02*
X003007Y020832D01*
X002606Y020991D02*
X002497Y020991D01*
X002497Y020515D02*
X005216Y020515D01*
X005305Y020357D02*
X002497Y020357D01*
X002497Y020198D02*
X005537Y020198D01*
X005323Y020040D02*
X002497Y020040D01*
X002497Y019881D02*
X005224Y019881D01*
X005187Y019723D02*
X002497Y019723D01*
X002497Y019564D02*
X005196Y019564D01*
X005261Y019406D02*
X002497Y019406D01*
X002497Y019247D02*
X005419Y019247D01*
X005372Y019089D02*
X002497Y019089D01*
X002497Y018930D02*
X002680Y018930D01*
X003727Y018930D02*
X005244Y018930D01*
X005187Y018772D02*
X003955Y018772D01*
X004108Y018613D02*
X005187Y018613D01*
X005241Y018455D02*
X004199Y018455D01*
X004268Y018296D02*
X005365Y018296D01*
X006042Y018296D02*
X008594Y018296D01*
X008579Y018455D02*
X006166Y018455D01*
X006221Y018613D02*
X008627Y018613D01*
X008697Y018772D02*
X006892Y018772D01*
X006879Y018765D02*
X006943Y018798D01*
X007002Y018840D01*
X007052Y018891D01*
X007095Y018949D01*
X007127Y019013D01*
X007150Y019082D01*
X007161Y019153D01*
X007161Y019180D01*
X006712Y019180D01*
X006712Y018732D01*
X006740Y018732D01*
X006811Y018743D01*
X006879Y018765D01*
X006712Y018772D02*
X006695Y018772D01*
X006695Y018732D02*
X006695Y019180D01*
X006712Y019180D01*
X006712Y019198D01*
X006695Y019198D01*
X006695Y019646D01*
X006668Y019646D01*
X006597Y019635D01*
X006528Y019613D01*
X006464Y019580D01*
X006406Y019538D01*
X006355Y019487D01*
X006313Y019429D01*
X006280Y019364D01*
X006258Y019296D01*
X006247Y019225D01*
X006247Y019198D01*
X006695Y019198D01*
X006695Y019180D01*
X006247Y019180D01*
X006247Y019153D01*
X006258Y019082D01*
X006280Y019013D01*
X006313Y018949D01*
X006355Y018891D01*
X006406Y018840D01*
X006464Y018798D01*
X006528Y018765D01*
X006597Y018743D01*
X006668Y018732D01*
X006695Y018732D01*
X006516Y018772D02*
X006221Y018772D01*
X006164Y018930D02*
X006327Y018930D01*
X006257Y019089D02*
X006036Y019089D01*
X005988Y019247D02*
X006250Y019247D01*
X006301Y019406D02*
X006146Y019406D01*
X006212Y019564D02*
X006442Y019564D01*
X006478Y019723D02*
X006221Y019723D01*
X006184Y019881D02*
X006280Y019881D01*
X006265Y019896D02*
X006411Y019751D01*
X006601Y019672D01*
X006807Y019672D01*
X006997Y019751D01*
X007142Y019896D01*
X007221Y020086D01*
X007221Y020292D01*
X007142Y020482D01*
X006997Y020627D01*
X006807Y020706D01*
X006601Y020706D01*
X006411Y020627D01*
X006265Y020482D01*
X006187Y020292D01*
X006187Y020086D01*
X006265Y019896D01*
X006206Y020040D02*
X006085Y020040D01*
X006187Y020198D02*
X005870Y020198D01*
X006103Y020357D02*
X006213Y020357D01*
X006192Y020515D02*
X006299Y020515D01*
X006221Y020674D02*
X006522Y020674D01*
X006528Y020765D02*
X006597Y020743D01*
X006668Y020732D01*
X006695Y020732D01*
X006695Y021180D01*
X006247Y021180D01*
X006247Y021153D01*
X006258Y021082D01*
X006280Y021013D01*
X006313Y020949D01*
X006355Y020891D01*
X006406Y020840D01*
X006464Y020798D01*
X006528Y020765D01*
X006417Y020832D02*
X006204Y020832D01*
X006134Y020991D02*
X006292Y020991D01*
X006247Y021149D02*
X005944Y021149D01*
X006695Y021149D02*
X006712Y021149D01*
X006695Y020991D02*
X006712Y020991D01*
X006695Y020832D02*
X006712Y020832D01*
X006885Y020674D02*
X008697Y020674D01*
X008697Y020832D02*
X006990Y020832D01*
X007116Y020991D02*
X007707Y020991D01*
X007560Y021149D02*
X007160Y021149D01*
X007146Y021308D02*
X007495Y021308D01*
X007492Y021466D02*
X007068Y021466D01*
X006712Y021466D02*
X006695Y021466D01*
X006695Y021308D02*
X006712Y021308D01*
X007109Y020515D02*
X008697Y020515D01*
X008697Y020357D02*
X007194Y020357D01*
X007221Y020198D02*
X008697Y020198D01*
X008697Y020040D02*
X007202Y020040D01*
X007127Y019881D02*
X008697Y019881D01*
X008697Y019723D02*
X006929Y019723D01*
X006879Y019613D02*
X006811Y019635D01*
X006740Y019646D01*
X006712Y019646D01*
X006712Y019198D01*
X007161Y019198D01*
X007161Y019225D01*
X007150Y019296D01*
X007127Y019364D01*
X007095Y019429D01*
X007052Y019487D01*
X007002Y019538D01*
X006943Y019580D01*
X006879Y019613D01*
X006965Y019564D02*
X008697Y019564D01*
X008697Y019406D02*
X007106Y019406D01*
X007157Y019247D02*
X008697Y019247D01*
X008697Y019089D02*
X007151Y019089D01*
X007081Y018930D02*
X008697Y018930D01*
X009297Y018930D02*
X011442Y018930D01*
X011442Y018966D02*
X011442Y018764D01*
X011519Y018578D01*
X011661Y018436D01*
X011847Y018359D01*
X012048Y018359D01*
X012234Y018436D01*
X012376Y018578D01*
X012453Y018764D01*
X012453Y018966D01*
X012376Y019151D01*
X012234Y019294D01*
X012048Y019371D01*
X011847Y019371D01*
X011661Y019294D01*
X011519Y019151D01*
X011442Y018966D01*
X011493Y019089D02*
X009297Y019089D01*
X009297Y019247D02*
X011614Y019247D01*
X011442Y018772D02*
X009297Y018772D01*
X009368Y018613D02*
X011504Y018613D01*
X011643Y018455D02*
X009416Y018455D01*
X009401Y018296D02*
X013199Y018296D01*
X013192Y018455D02*
X012252Y018455D01*
X012391Y018613D02*
X013232Y018613D01*
X013339Y018772D02*
X012453Y018772D01*
X012453Y018930D02*
X013780Y018930D01*
X013577Y019089D02*
X012402Y019089D01*
X012281Y019247D02*
X013042Y019247D01*
X012940Y019406D02*
X009297Y019406D01*
X009297Y019564D02*
X012913Y019564D01*
X012945Y019723D02*
X009297Y019723D01*
X009297Y019881D02*
X013055Y019881D01*
X013351Y019558D02*
X013854Y019308D01*
X015247Y017915D01*
X014900Y019089D02*
X014526Y019089D01*
X014368Y019247D02*
X014741Y019247D01*
X014583Y019406D02*
X014209Y019406D01*
X014056Y019564D02*
X014424Y019564D01*
X014266Y019723D02*
X013757Y019723D01*
X013648Y019881D02*
X014107Y019881D01*
X013949Y020040D02*
X009297Y020040D01*
X009297Y020198D02*
X013790Y020198D01*
X013697Y020357D02*
X009297Y020357D01*
X009297Y020515D02*
X013697Y020515D01*
X013697Y020674D02*
X009297Y020674D01*
X009297Y020832D02*
X013697Y020832D01*
X013697Y020991D02*
X009297Y020991D01*
X009297Y021149D02*
X013644Y021149D01*
X013568Y021308D02*
X009297Y021308D01*
X009297Y021466D02*
X013559Y021466D01*
X013610Y021625D02*
X009297Y021625D01*
X009297Y021783D02*
X013746Y021783D01*
X013265Y018138D02*
X009312Y018138D01*
X008683Y018138D02*
X004310Y018138D01*
X004324Y017979D02*
X013428Y017979D01*
X011693Y015126D02*
X006838Y015126D01*
X006811Y015135D02*
X006740Y015146D01*
X006712Y015146D01*
X006712Y014698D01*
X007161Y014698D01*
X007161Y014725D01*
X007150Y014796D01*
X007127Y014864D01*
X007095Y014929D01*
X007052Y014987D01*
X007002Y015038D01*
X006943Y015080D01*
X006879Y015113D01*
X006811Y015135D01*
X006712Y015126D02*
X006695Y015126D01*
X006695Y014968D02*
X006712Y014968D01*
X006695Y014809D02*
X006712Y014809D01*
X006695Y014651D02*
X006712Y014651D01*
X006695Y014492D02*
X006712Y014492D01*
X006695Y014334D02*
X006712Y014334D01*
X006807Y014206D02*
X006601Y014206D01*
X006411Y014127D01*
X006265Y013982D01*
X006187Y013792D01*
X006187Y013586D01*
X006265Y013396D01*
X006411Y013251D01*
X006601Y013172D01*
X006807Y013172D01*
X006997Y013251D01*
X007142Y013396D01*
X007221Y013586D01*
X007221Y013792D01*
X007142Y013982D01*
X006997Y014127D01*
X006807Y014206D01*
X006882Y014175D02*
X008666Y014175D01*
X008587Y014017D02*
X007108Y014017D01*
X007194Y013858D02*
X008579Y013858D01*
X008634Y013700D02*
X007221Y013700D01*
X007202Y013541D02*
X008697Y013541D01*
X008697Y013383D02*
X007129Y013383D01*
X006933Y013224D02*
X008697Y013224D01*
X008697Y013066D02*
X006963Y013066D01*
X006943Y013080D02*
X006879Y013113D01*
X006811Y013135D01*
X006740Y013146D01*
X006712Y013146D01*
X006712Y012698D01*
X006695Y012698D01*
X006695Y013146D01*
X006668Y013146D01*
X006597Y013135D01*
X006528Y013113D01*
X006464Y013080D01*
X006406Y013038D01*
X006355Y012987D01*
X006313Y012929D01*
X006280Y012864D01*
X006258Y012796D01*
X006247Y012725D01*
X006247Y012698D01*
X006695Y012698D01*
X006695Y012680D01*
X006712Y012680D01*
X006712Y012232D01*
X006740Y012232D01*
X006811Y012243D01*
X006879Y012265D01*
X006943Y012298D01*
X007002Y012340D01*
X007052Y012391D01*
X007095Y012449D01*
X007127Y012513D01*
X007150Y012582D01*
X007161Y012653D01*
X007161Y012680D01*
X006712Y012680D01*
X006712Y012698D01*
X007161Y012698D01*
X007161Y012725D01*
X007150Y012796D01*
X007127Y012864D01*
X007095Y012929D01*
X007052Y012987D01*
X007002Y013038D01*
X006943Y013080D01*
X006712Y013066D02*
X006695Y013066D01*
X006695Y012907D02*
X006712Y012907D01*
X006695Y012749D02*
X006712Y012749D01*
X006695Y012680D02*
X006247Y012680D01*
X006247Y012653D01*
X006258Y012582D01*
X006280Y012513D01*
X006313Y012449D01*
X006355Y012391D01*
X006406Y012340D01*
X006464Y012298D01*
X006528Y012265D01*
X006597Y012243D01*
X006668Y012232D01*
X006695Y012232D01*
X006695Y012680D01*
X006695Y012590D02*
X006712Y012590D01*
X006695Y012432D02*
X006712Y012432D01*
X006695Y012273D02*
X006712Y012273D01*
X006895Y012273D02*
X008732Y012273D01*
X008697Y012432D02*
X007082Y012432D01*
X007151Y012590D02*
X008697Y012590D01*
X008697Y012749D02*
X007157Y012749D01*
X007106Y012907D02*
X008697Y012907D01*
X008874Y012115D02*
X006221Y012115D01*
X006221Y012273D02*
X006513Y012273D01*
X006326Y012432D02*
X006163Y012432D01*
X006257Y012590D02*
X006034Y012590D01*
X005992Y012749D02*
X006250Y012749D01*
X006302Y012907D02*
X006147Y012907D01*
X006212Y013066D02*
X006444Y013066D01*
X006475Y013224D02*
X006221Y013224D01*
X006183Y013383D02*
X006279Y013383D01*
X006205Y013541D02*
X006083Y013541D01*
X006187Y013700D02*
X005874Y013700D01*
X006104Y013858D02*
X006214Y013858D01*
X006192Y014017D02*
X006300Y014017D01*
X006221Y014175D02*
X006526Y014175D01*
X006415Y014334D02*
X006204Y014334D01*
X006132Y014492D02*
X006291Y014492D01*
X006992Y014334D02*
X011664Y014334D01*
X011542Y014492D02*
X007117Y014492D01*
X007161Y014651D02*
X011492Y014651D01*
X011492Y014809D02*
X007145Y014809D01*
X007066Y014968D02*
X011555Y014968D01*
X009032Y011956D02*
X006167Y011956D01*
X006044Y011798D02*
X009191Y011798D01*
X007568Y010847D02*
X004155Y010847D01*
X004037Y010688D02*
X007413Y010688D01*
X007348Y010530D02*
X003869Y010530D01*
X003546Y010371D02*
X007342Y010371D01*
X007384Y010213D02*
X002497Y010213D01*
X002497Y010371D02*
X002862Y010371D01*
X002539Y010530D02*
X002497Y010530D01*
X002497Y010054D02*
X003038Y010054D01*
X003369Y010054D02*
X007493Y010054D01*
X006712Y008628D02*
X006695Y008628D01*
X006574Y008628D02*
X004280Y008628D01*
X004226Y008469D02*
X006342Y008469D01*
X006263Y008311D02*
X004134Y008311D01*
X004001Y008152D02*
X005470Y008152D01*
X005411Y008127D02*
X005265Y007982D01*
X005187Y007792D01*
X005187Y007586D01*
X005265Y007396D01*
X005411Y007251D01*
X005559Y007189D01*
X005411Y007127D01*
X005265Y006982D01*
X005187Y006792D01*
X005187Y006586D01*
X005265Y006396D01*
X005411Y006251D01*
X005559Y006189D01*
X005411Y006127D01*
X005265Y005982D01*
X005187Y005792D01*
X005187Y005586D01*
X005265Y005396D01*
X005411Y005251D01*
X005601Y005172D01*
X005807Y005172D01*
X005997Y005251D01*
X006142Y005396D01*
X006221Y005586D01*
X006221Y005792D01*
X006142Y005982D01*
X005997Y006127D01*
X005848Y006189D01*
X005997Y006251D01*
X006142Y006396D01*
X006221Y006586D01*
X006221Y006792D01*
X006142Y006982D01*
X005997Y007127D01*
X005848Y007189D01*
X005997Y007251D01*
X006142Y007396D01*
X006221Y007586D01*
X006221Y007792D01*
X006142Y007982D01*
X005997Y008127D01*
X005807Y008206D01*
X005601Y008206D01*
X005411Y008127D01*
X005277Y007994D02*
X003806Y007994D01*
X003411Y007835D02*
X005205Y007835D01*
X005187Y007677D02*
X002497Y007677D01*
X002497Y007835D02*
X002996Y007835D01*
X002601Y007994D02*
X002497Y007994D01*
X002497Y007518D02*
X005215Y007518D01*
X005302Y007360D02*
X002497Y007360D01*
X002497Y007201D02*
X005530Y007201D01*
X005326Y007043D02*
X002497Y007043D01*
X002497Y006884D02*
X005225Y006884D01*
X005187Y006726D02*
X002497Y006726D01*
X002497Y006567D02*
X005194Y006567D01*
X005260Y006409D02*
X002497Y006409D01*
X002497Y006250D02*
X005412Y006250D01*
X005375Y006092D02*
X002497Y006092D01*
X002497Y005933D02*
X002686Y005933D01*
X003722Y005933D02*
X005245Y005933D01*
X005187Y005775D02*
X003952Y005775D01*
X004106Y005616D02*
X005187Y005616D01*
X005240Y005458D02*
X004198Y005458D01*
X004267Y005299D02*
X005362Y005299D01*
X006045Y005299D02*
X007998Y005299D01*
X007992Y005458D02*
X006168Y005458D01*
X006221Y005616D02*
X008033Y005616D01*
X008142Y005775D02*
X006897Y005775D01*
X006712Y005775D02*
X006695Y005775D01*
X006695Y005732D02*
X006695Y006180D01*
X006247Y006180D01*
X006247Y006153D01*
X006258Y006082D01*
X006280Y006013D01*
X006313Y005949D01*
X006355Y005891D01*
X006406Y005840D01*
X006464Y005798D01*
X006528Y005765D01*
X006597Y005743D01*
X006668Y005732D01*
X006695Y005732D01*
X006510Y005775D02*
X006221Y005775D01*
X006162Y005933D02*
X006325Y005933D01*
X006256Y006092D02*
X006033Y006092D01*
X005996Y006250D02*
X006251Y006250D01*
X006303Y006409D02*
X006147Y006409D01*
X006213Y006567D02*
X006446Y006567D01*
X006471Y006726D02*
X006221Y006726D01*
X006183Y006884D02*
X006277Y006884D01*
X006205Y007043D02*
X006082Y007043D01*
X006187Y007201D02*
X005877Y007201D01*
X006106Y007360D02*
X006215Y007360D01*
X006193Y007518D02*
X006302Y007518D01*
X006221Y007677D02*
X006530Y007677D01*
X006413Y007835D02*
X006203Y007835D01*
X006131Y007994D02*
X006290Y007994D01*
X006247Y008152D02*
X005937Y008152D01*
X006695Y008152D02*
X006712Y008152D01*
X006695Y007994D02*
X006712Y007994D01*
X006695Y007835D02*
X006712Y007835D01*
X006695Y008311D02*
X006712Y008311D01*
X006695Y008469D02*
X006712Y008469D01*
X006695Y006567D02*
X006712Y006567D01*
X006695Y006409D02*
X006712Y006409D01*
X006695Y006250D02*
X006712Y006250D01*
X006695Y006092D02*
X006712Y006092D01*
X006695Y005933D02*
X006712Y005933D01*
X008064Y005141D02*
X004309Y005141D01*
X004324Y004982D02*
X008221Y004982D01*
X005709Y002446D02*
X032692Y002446D01*
X032692Y002288D02*
X005867Y002288D01*
X006026Y002129D02*
X032692Y002129D01*
X032692Y001971D02*
X006184Y001971D01*
X006343Y001812D02*
X032692Y001812D01*
X032692Y001654D02*
X006501Y001654D01*
X006660Y001495D02*
X032692Y001495D01*
X032692Y002605D02*
X023997Y002605D01*
X024156Y002763D02*
X032692Y002763D01*
X032692Y002922D02*
X024314Y002922D01*
X024473Y003080D02*
X032692Y003080D01*
X032692Y003239D02*
X025746Y003239D01*
X025904Y003397D02*
X032692Y003397D01*
X032692Y003556D02*
X025970Y003556D01*
X025984Y003714D02*
X032692Y003714D01*
X032692Y003873D02*
X025954Y003873D01*
X025869Y004031D02*
X032692Y004031D01*
X032692Y004190D02*
X025652Y004190D01*
X025287Y004348D02*
X032692Y004348D01*
X032692Y004507D02*
X025287Y004507D01*
X025287Y004665D02*
X032692Y004665D01*
X032692Y004824D02*
X025287Y004824D01*
X025287Y004982D02*
X032692Y004982D01*
X032692Y005141D02*
X025287Y005141D01*
X025287Y005299D02*
X032692Y005299D01*
X032692Y005458D02*
X025287Y005458D01*
X025287Y005616D02*
X030110Y005616D01*
X029923Y005775D02*
X025287Y005775D01*
X025287Y005933D02*
X029855Y005933D01*
X029842Y006092D02*
X025287Y006092D01*
X025761Y006250D02*
X029877Y006250D01*
X029976Y006409D02*
X025909Y006409D01*
X025975Y006567D02*
X030047Y006567D01*
X030047Y006726D02*
X025984Y006726D01*
X025949Y006884D02*
X030047Y006884D01*
X030047Y007043D02*
X025857Y007043D01*
X025624Y007201D02*
X030047Y007201D01*
X030047Y007360D02*
X025287Y007360D01*
X025269Y007518D02*
X030047Y007518D01*
X030047Y007677D02*
X025146Y007677D01*
X024987Y007835D02*
X027992Y007835D01*
X027833Y007994D02*
X024829Y007994D01*
X024670Y008152D02*
X027827Y008152D01*
X028703Y007835D02*
X028992Y007835D01*
X029703Y007835D02*
X030047Y007835D01*
X030047Y007994D02*
X029861Y007994D01*
X029867Y008152D02*
X030047Y008152D01*
X030047Y008311D02*
X029867Y008311D01*
X029829Y008469D02*
X030047Y008469D01*
X030047Y008628D02*
X029670Y008628D01*
X029654Y008786D02*
X030047Y008786D01*
X030047Y008945D02*
X029812Y008945D01*
X029867Y009103D02*
X030047Y009103D01*
X030047Y009262D02*
X029867Y009262D01*
X029867Y009420D02*
X030047Y009420D01*
X030047Y009579D02*
X029719Y009579D01*
X029679Y009896D02*
X030041Y009896D01*
X030047Y009737D02*
X028605Y009737D01*
X028719Y009579D02*
X028976Y009579D01*
X029016Y009896D02*
X028764Y009896D01*
X028867Y010054D02*
X028887Y010054D01*
X028867Y010213D02*
X029337Y010213D01*
X029337Y010054D02*
X029357Y010054D01*
X029357Y009896D02*
X029337Y009896D01*
X029807Y010054D02*
X029879Y010054D01*
X029012Y010530D02*
X028768Y010530D01*
X028867Y010371D02*
X028887Y010371D01*
X028610Y010688D02*
X029233Y010688D01*
X031099Y010688D02*
X032692Y010688D01*
X032692Y010530D02*
X031257Y010530D01*
X031408Y010371D02*
X032692Y010371D01*
X032692Y010213D02*
X031447Y010213D01*
X031447Y010054D02*
X032692Y010054D01*
X032692Y009896D02*
X031447Y009896D01*
X031447Y009737D02*
X032692Y009737D01*
X032692Y009579D02*
X031447Y009579D01*
X031447Y009420D02*
X032692Y009420D01*
X032692Y009262D02*
X031447Y009262D01*
X031447Y009103D02*
X032692Y009103D01*
X032692Y008945D02*
X031447Y008945D01*
X031447Y008786D02*
X032692Y008786D01*
X032692Y008628D02*
X031447Y008628D01*
X031447Y008469D02*
X032692Y008469D01*
X032692Y008311D02*
X031447Y008311D01*
X031447Y008152D02*
X032692Y008152D01*
X032692Y007994D02*
X031447Y007994D01*
X031447Y007835D02*
X032692Y007835D01*
X032692Y007677D02*
X031447Y007677D01*
X031447Y007518D02*
X032692Y007518D01*
X032692Y007360D02*
X031468Y007360D01*
X031597Y007201D02*
X032692Y007201D01*
X032692Y007043D02*
X031653Y007043D01*
X031653Y006884D02*
X032692Y006884D01*
X032692Y006726D02*
X031596Y006726D01*
X031465Y006567D02*
X032692Y006567D01*
X032692Y006409D02*
X030719Y006409D01*
X030647Y006567D02*
X030830Y006567D01*
X030699Y006726D02*
X030647Y006726D01*
X030818Y006250D02*
X032692Y006250D01*
X032692Y006092D02*
X030853Y006092D01*
X030840Y005933D02*
X032692Y005933D01*
X032692Y005775D02*
X030772Y005775D01*
X030585Y005616D02*
X032692Y005616D01*
X025150Y003239D02*
X024746Y003239D01*
X024904Y003397D02*
X024992Y003397D01*
X020898Y002605D02*
X005550Y002605D01*
X005392Y002763D02*
X020739Y002763D01*
X020581Y002922D02*
X019239Y002922D01*
X019398Y003080D02*
X020422Y003080D01*
X020264Y003239D02*
X019517Y003239D01*
X019517Y003397D02*
X020105Y003397D01*
X019947Y003556D02*
X019517Y003556D01*
X018755Y002922D02*
X018239Y002922D01*
X018398Y003080D02*
X018597Y003080D01*
X017755Y002922D02*
X005233Y002922D01*
X005075Y003080D02*
X017597Y003080D01*
X017477Y003239D02*
X004916Y003239D01*
X004758Y003397D02*
X017477Y003397D01*
X017477Y003556D02*
X004599Y003556D01*
X004441Y003714D02*
X017561Y003714D01*
X017720Y003873D02*
X004282Y003873D01*
X002621Y009896D02*
X002497Y009896D01*
X002497Y014492D02*
X002604Y014492D01*
X006695Y018930D02*
X006712Y018930D01*
X006695Y019089D02*
X006712Y019089D01*
X006695Y019247D02*
X006712Y019247D01*
X006695Y019406D02*
X006712Y019406D01*
X006695Y019564D02*
X006712Y019564D01*
X008288Y020991D02*
X008697Y020991D01*
X008697Y021149D02*
X008435Y021149D01*
X008500Y021308D02*
X008697Y021308D01*
X008697Y021466D02*
X008503Y021466D01*
X008458Y021625D02*
X008697Y021625D01*
X008697Y021783D02*
X008345Y021783D01*
X008697Y023210D02*
X002497Y023210D01*
X002497Y023368D02*
X002873Y023368D01*
X003027Y023051D02*
X002497Y023051D01*
X002497Y022893D02*
X002616Y022893D01*
X002544Y023527D02*
X002497Y023527D01*
X004200Y024953D02*
X005242Y024953D01*
X005187Y025112D02*
X004109Y025112D01*
X003957Y025270D02*
X005187Y025270D01*
X005243Y025429D02*
X003730Y025429D01*
X004268Y024795D02*
X005367Y024795D01*
X005371Y025587D02*
X002497Y025587D01*
X002497Y025429D02*
X002678Y025429D01*
X002497Y025746D02*
X005423Y025746D01*
X005262Y025904D02*
X002497Y025904D01*
X002497Y026063D02*
X005196Y026063D01*
X005187Y026221D02*
X002497Y026221D01*
X002497Y026380D02*
X005223Y026380D01*
X005322Y026538D02*
X002497Y026538D01*
X002497Y026697D02*
X005541Y026697D01*
X005306Y026855D02*
X002497Y026855D01*
X002497Y027014D02*
X005217Y027014D01*
X005187Y027172D02*
X002497Y027172D01*
X002497Y027331D02*
X003013Y027331D01*
X003395Y027331D02*
X005203Y027331D01*
X005273Y027489D02*
X003799Y027489D01*
X003996Y027648D02*
X005460Y027648D01*
X006339Y027965D02*
X004223Y027965D01*
X002609Y027489D02*
X002497Y027489D01*
X006695Y027489D02*
X006712Y027489D01*
X006695Y027331D02*
X006712Y027331D01*
X006695Y027648D02*
X006712Y027648D01*
X006695Y027806D02*
X006712Y027806D01*
X006695Y027965D02*
X006712Y027965D01*
X009297Y024795D02*
X019019Y024795D01*
X018887Y025112D02*
X019348Y025112D01*
X019190Y025270D02*
X018968Y025270D01*
X018987Y025429D02*
X019031Y025429D01*
X018663Y024953D02*
X019507Y024953D01*
X019476Y024795D02*
X019665Y024795D01*
X019636Y024636D02*
X019630Y024636D01*
X028247Y017665D02*
X028247Y016915D01*
X017554Y014809D02*
X017547Y014809D01*
X018313Y007835D02*
X018682Y007835D01*
X018524Y007677D02*
X018471Y007677D01*
X019313Y007835D02*
X020507Y007835D01*
X020349Y007677D02*
X019471Y007677D01*
X019517Y007518D02*
X020190Y007518D01*
X020032Y007360D02*
X019517Y007360D01*
X019517Y007201D02*
X019873Y007201D01*
X019715Y007043D02*
X019360Y007043D01*
X019264Y006884D02*
X019556Y006884D01*
X046203Y015126D02*
X046203Y015126D01*
X046203Y015285D02*
X046203Y015285D01*
X046203Y015443D02*
X046203Y015443D01*
X046203Y015602D02*
X046203Y015602D01*
X046203Y015760D02*
X046203Y015760D01*
X046495Y015760D02*
X050497Y015760D01*
X050497Y015602D02*
X046597Y015602D01*
X046621Y015443D02*
X050497Y015443D01*
X050497Y015285D02*
X046583Y015285D01*
X046487Y016870D02*
X049458Y016870D01*
X049345Y017028D02*
X046600Y017028D01*
X046652Y017187D02*
X049292Y017187D01*
X049292Y017345D02*
X046652Y017345D01*
X046599Y017504D02*
X049346Y017504D01*
X049460Y017662D02*
X046485Y017662D01*
X050235Y017662D02*
X050497Y017662D01*
X050497Y017504D02*
X050349Y017504D01*
X050402Y017345D02*
X050497Y017345D01*
X050497Y017187D02*
X050402Y017187D01*
X050350Y017028D02*
X050497Y017028D01*
X050497Y016870D02*
X050237Y016870D01*
X050237Y023210D02*
X050497Y023210D01*
X050497Y023368D02*
X050320Y023368D01*
X049872Y023368D02*
X049822Y023368D01*
X049822Y023210D02*
X049872Y023210D01*
X049872Y023685D02*
X049822Y023685D01*
X049822Y023844D02*
X049872Y023844D01*
D29*
X031147Y006965D03*
X030347Y006065D03*
X035847Y005815D03*
X036097Y004915D03*
X044247Y003165D03*
X044547Y004265D03*
X013697Y014215D03*
X011997Y014715D03*
X013697Y018415D03*
X011947Y018865D03*
X007997Y021415D03*
X008997Y027165D03*
X007847Y010415D03*
X008497Y005415D03*
D30*
X034797Y005457D02*
X035498Y005457D01*
X035564Y005390D02*
X035748Y005314D01*
X035789Y005314D01*
X035673Y005199D01*
X035597Y005015D01*
X035597Y004815D01*
X035673Y004631D01*
X035814Y004490D01*
X035998Y004414D01*
X036197Y004414D01*
X036381Y004490D01*
X036522Y004631D01*
X036598Y004815D01*
X036598Y005015D01*
X036522Y005199D01*
X036381Y005339D01*
X036197Y005416D01*
X036156Y005416D01*
X036272Y005531D01*
X036348Y005715D01*
X036348Y005915D01*
X036272Y006099D01*
X036131Y006239D01*
X035947Y006316D01*
X035748Y006316D01*
X035564Y006239D01*
X035423Y006099D01*
X035347Y005915D01*
X035347Y005715D01*
X035423Y005531D01*
X035564Y005390D01*
X035782Y005308D02*
X034797Y005308D01*
X034797Y005160D02*
X035657Y005160D01*
X035597Y005011D02*
X034797Y005011D01*
X034797Y004863D02*
X035597Y004863D01*
X035639Y004714D02*
X034797Y004714D01*
X034797Y004566D02*
X035739Y004566D01*
X035991Y004417D02*
X034797Y004417D01*
X034797Y004269D02*
X044047Y004269D01*
X044047Y004365D02*
X044047Y004165D01*
X044123Y003981D01*
X044264Y003840D01*
X044448Y003764D01*
X044647Y003764D01*
X044831Y003840D01*
X044972Y003981D01*
X045048Y004165D01*
X045048Y004365D01*
X044972Y004549D01*
X044831Y004689D01*
X044647Y004766D01*
X044448Y004766D01*
X044264Y004689D01*
X044123Y004549D01*
X044047Y004365D01*
X044068Y004417D02*
X036204Y004417D01*
X036456Y004566D02*
X044140Y004566D01*
X044323Y004714D02*
X036556Y004714D01*
X036598Y004863D02*
X047862Y004863D01*
X047862Y005011D02*
X036598Y005011D01*
X036538Y005160D02*
X047902Y005160D01*
X047862Y005064D02*
X047862Y004711D01*
X047997Y004386D01*
X048246Y004137D01*
X048571Y004002D01*
X048923Y004002D01*
X049249Y004137D01*
X049498Y004386D01*
X049632Y004711D01*
X049632Y005064D01*
X049498Y005389D01*
X049249Y005638D01*
X048923Y005772D01*
X048571Y005772D01*
X048246Y005638D01*
X047997Y005389D01*
X047862Y005064D01*
X047964Y005308D02*
X036413Y005308D01*
X036197Y005457D02*
X048065Y005457D01*
X048213Y005605D02*
X036303Y005605D01*
X036348Y005754D02*
X048526Y005754D01*
X048969Y005754D02*
X050497Y005754D01*
X050497Y005902D02*
X036348Y005902D01*
X036292Y006051D02*
X050497Y006051D01*
X050497Y006199D02*
X036172Y006199D01*
X035523Y006199D02*
X034797Y006199D01*
X034797Y006051D02*
X035403Y006051D01*
X035347Y005902D02*
X034797Y005902D01*
X034797Y005754D02*
X035347Y005754D01*
X035392Y005605D02*
X034797Y005605D01*
X034797Y006348D02*
X046516Y006348D01*
X046577Y006286D02*
X046785Y006200D01*
X047010Y006200D01*
X047217Y006286D01*
X047287Y006356D01*
X047357Y006286D01*
X047565Y006200D01*
X047790Y006200D01*
X047997Y006286D01*
X048156Y006445D01*
X048242Y006653D01*
X048242Y006878D01*
X048156Y007085D01*
X047997Y007244D01*
X047887Y007290D01*
X047942Y007318D01*
X048006Y007364D01*
X048063Y007421D01*
X048109Y007485D01*
X048145Y007556D01*
X048170Y007631D01*
X048182Y007710D01*
X048182Y007735D01*
X047692Y007735D01*
X047692Y007765D01*
X047662Y007765D01*
X047662Y008255D01*
X047638Y008255D01*
X047559Y008242D01*
X047484Y008218D01*
X047413Y008182D01*
X047348Y008135D01*
X047330Y008116D01*
X047217Y008229D01*
X047010Y008315D01*
X046785Y008315D01*
X046577Y008229D01*
X046418Y008070D01*
X046332Y007862D01*
X046332Y007637D01*
X046418Y007430D01*
X046577Y007271D01*
X046609Y007257D01*
X046577Y007244D01*
X046418Y007085D01*
X046332Y006878D01*
X046332Y006653D01*
X046418Y006445D01*
X046577Y006286D01*
X046397Y006496D02*
X034797Y006496D01*
X034797Y006645D02*
X046336Y006645D01*
X046332Y006793D02*
X034797Y006793D01*
X034797Y006942D02*
X046359Y006942D01*
X046423Y007090D02*
X034797Y007090D01*
X034797Y007239D02*
X046572Y007239D01*
X046461Y007387D02*
X034797Y007387D01*
X034797Y007536D02*
X046374Y007536D01*
X046332Y007684D02*
X034797Y007684D01*
X034797Y007833D02*
X046332Y007833D01*
X046382Y007981D02*
X034797Y007981D01*
X034797Y008130D02*
X046478Y008130D01*
X046697Y008278D02*
X034797Y008278D01*
X034797Y008427D02*
X050497Y008427D01*
X050497Y008575D02*
X034797Y008575D01*
X034797Y008724D02*
X050497Y008724D01*
X050497Y008872D02*
X049236Y008872D01*
X049249Y008877D02*
X049498Y009126D01*
X049632Y009451D01*
X049632Y009804D01*
X049498Y010129D01*
X049249Y010378D01*
X048923Y010512D01*
X048571Y010512D01*
X048246Y010378D01*
X047997Y010129D01*
X047862Y009804D01*
X047862Y009451D01*
X047997Y009126D01*
X048246Y008877D01*
X048571Y008742D01*
X048923Y008742D01*
X049249Y008877D01*
X049392Y009021D02*
X050497Y009021D01*
X050497Y009169D02*
X049515Y009169D01*
X049577Y009318D02*
X050497Y009318D01*
X050497Y009466D02*
X049632Y009466D01*
X049632Y009615D02*
X050497Y009615D01*
X050497Y009763D02*
X049632Y009763D01*
X049588Y009912D02*
X050497Y009912D01*
X050497Y010060D02*
X049526Y010060D01*
X049418Y010209D02*
X050497Y010209D01*
X050497Y010357D02*
X049269Y010357D01*
X048940Y010506D02*
X050497Y010506D01*
X050497Y010654D02*
X034867Y010654D01*
X034797Y010585D02*
X035578Y011367D01*
X050497Y011415D01*
X050497Y004764D01*
X047162Y001414D01*
X034797Y001365D01*
X034797Y010585D01*
X034797Y010506D02*
X048555Y010506D01*
X048225Y010357D02*
X034797Y010357D01*
X034797Y010209D02*
X048077Y010209D01*
X047969Y010060D02*
X034797Y010060D01*
X034797Y009912D02*
X047907Y009912D01*
X047862Y009763D02*
X034797Y009763D01*
X034797Y009615D02*
X047862Y009615D01*
X047862Y009466D02*
X034797Y009466D01*
X034797Y009318D02*
X047918Y009318D01*
X047979Y009169D02*
X034797Y009169D01*
X034797Y009021D02*
X048103Y009021D01*
X048258Y008872D02*
X034797Y008872D01*
X035015Y010803D02*
X050497Y010803D01*
X050497Y010951D02*
X035163Y010951D01*
X035311Y011100D02*
X050497Y011100D01*
X050497Y011248D02*
X035459Y011248D01*
X034797Y004120D02*
X044065Y004120D01*
X044133Y003972D02*
X034797Y003972D01*
X034797Y003823D02*
X044306Y003823D01*
X044347Y003666D02*
X044148Y003666D01*
X043964Y003589D01*
X043823Y003449D01*
X043747Y003265D01*
X043747Y003065D01*
X043823Y002881D01*
X043964Y002740D01*
X044148Y002664D01*
X044347Y002664D01*
X044531Y002740D01*
X044672Y002881D01*
X044748Y003065D01*
X044748Y003265D01*
X044672Y003449D01*
X044531Y003589D01*
X044347Y003666D01*
X044595Y003526D02*
X049265Y003526D01*
X049117Y003378D02*
X044701Y003378D01*
X044748Y003229D02*
X048969Y003229D01*
X048821Y003081D02*
X044748Y003081D01*
X044693Y002932D02*
X048674Y002932D01*
X048526Y002784D02*
X044574Y002784D01*
X043921Y002784D02*
X034797Y002784D01*
X034797Y002932D02*
X043802Y002932D01*
X043747Y003081D02*
X034797Y003081D01*
X034797Y003229D02*
X043747Y003229D01*
X043794Y003378D02*
X034797Y003378D01*
X034797Y003526D02*
X043900Y003526D01*
X044789Y003823D02*
X049561Y003823D01*
X049709Y003972D02*
X044962Y003972D01*
X045029Y004120D02*
X048287Y004120D01*
X048115Y004269D02*
X045048Y004269D01*
X045026Y004417D02*
X047984Y004417D01*
X047923Y004566D02*
X044955Y004566D01*
X044772Y004714D02*
X047862Y004714D01*
X049207Y004120D02*
X049857Y004120D01*
X050005Y004269D02*
X049380Y004269D01*
X049510Y004417D02*
X050152Y004417D01*
X050300Y004566D02*
X049572Y004566D01*
X049632Y004714D02*
X050448Y004714D01*
X050497Y004863D02*
X049632Y004863D01*
X049632Y005011D02*
X050497Y005011D01*
X050497Y005160D02*
X049593Y005160D01*
X049531Y005308D02*
X050497Y005308D01*
X050497Y005457D02*
X049430Y005457D01*
X049281Y005605D02*
X050497Y005605D01*
X050497Y006348D02*
X048059Y006348D01*
X048177Y006496D02*
X050497Y006496D01*
X050497Y006645D02*
X048239Y006645D01*
X048242Y006793D02*
X050497Y006793D01*
X050497Y006942D02*
X048216Y006942D01*
X048152Y007090D02*
X050497Y007090D01*
X050497Y007239D02*
X048003Y007239D01*
X048029Y007387D02*
X050497Y007387D01*
X050497Y007536D02*
X048135Y007536D01*
X048178Y007684D02*
X050497Y007684D01*
X050497Y007833D02*
X048176Y007833D01*
X048170Y007868D02*
X048182Y007789D01*
X048182Y007765D01*
X047692Y007765D01*
X047692Y008255D01*
X047717Y008255D01*
X047796Y008242D01*
X047871Y008218D01*
X047942Y008182D01*
X048006Y008135D01*
X048063Y008079D01*
X048109Y008014D01*
X048145Y007943D01*
X048170Y007868D01*
X048126Y007981D02*
X050497Y007981D01*
X050497Y008130D02*
X048012Y008130D01*
X047692Y008130D02*
X047662Y008130D01*
X047662Y007981D02*
X047692Y007981D01*
X047692Y007833D02*
X047662Y007833D01*
X047343Y008130D02*
X047316Y008130D01*
X047098Y008278D02*
X050497Y008278D01*
X047296Y006348D02*
X047279Y006348D01*
X049413Y003675D02*
X034797Y003675D01*
X034797Y002635D02*
X048378Y002635D01*
X048230Y002487D02*
X034797Y002487D01*
X034797Y002338D02*
X048082Y002338D01*
X047934Y002190D02*
X034797Y002190D01*
X034797Y002041D02*
X047786Y002041D01*
X047638Y001893D02*
X034797Y001893D01*
X034797Y001744D02*
X047491Y001744D01*
X047343Y001596D02*
X034797Y001596D01*
X034797Y001447D02*
X047195Y001447D01*
X044734Y011397D02*
X050497Y011397D01*
D31*
X038515Y021665D02*
X038497Y022415D01*
X037015Y023433D01*
X036515Y023665D01*
X026997Y023665D01*
X026997Y014415D01*
X019997Y014415D01*
X017997Y016415D02*
X017997Y023415D01*
X018497Y023915D01*
X019771Y023915D01*
X019997Y024141D01*
X019997Y024415D01*
X019247Y024415D02*
X017997Y024415D01*
X017497Y023915D01*
X017497Y016415D01*
X016997Y015915D01*
X016997Y010915D01*
X017497Y010415D01*
X017747Y010415D01*
X017747Y011415D02*
X017497Y011415D01*
X017247Y011665D01*
X017247Y015665D01*
X017997Y016415D01*
X016497Y018415D02*
X015997Y018415D01*
X013997Y020415D01*
X013997Y021415D01*
X008997Y018415D02*
X008997Y025415D01*
X008997Y013915D02*
X008997Y012415D01*
X009997Y011415D01*
X027747Y012565D02*
X030347Y010015D01*
X030347Y006065D01*
X031147Y006965D02*
X031147Y010215D01*
X028247Y013115D01*
X027747Y014415D02*
X027747Y018915D01*
X028997Y019415D01*
X028247Y019665D02*
X027997Y019915D01*
X027997Y022415D01*
X029247Y028415D02*
X029247Y029415D01*
X027497Y029415D02*
X026497Y028415D01*
X031497Y029415D02*
X032997Y029415D01*
X032247Y028915D02*
X034747Y028915D01*
X034874Y029042D01*
X034874Y029377D01*
X034997Y019415D02*
X036497Y019415D01*
X037497Y018415D01*
X030997Y011415D02*
X027747Y014415D01*
D32*
X024497Y007915D02*
X020997Y007915D01*
X019497Y006415D01*
X018997Y006415D01*
X018697Y006115D02*
X018897Y005915D01*
X021297Y005915D01*
X021397Y005815D01*
X023797Y005815D01*
X024497Y006515D01*
X024397Y006615D01*
X024448Y006694D01*
X024997Y007415D02*
X024997Y004145D01*
X025448Y003694D01*
X024497Y003515D02*
X024397Y003615D01*
X024448Y003694D01*
X024497Y003515D02*
X023797Y002815D01*
X021097Y002815D01*
X019997Y003915D01*
X018897Y003915D01*
X018397Y004415D01*
X017997Y004415D01*
X017997Y005415D02*
X018697Y006115D01*
X018997Y005415D02*
X019097Y005315D01*
X019297Y005315D01*
X019997Y004615D01*
X021697Y004615D01*
X022397Y003915D01*
X022397Y003715D01*
X022448Y003694D01*
X022897Y004415D02*
X023397Y003915D01*
X023397Y003715D01*
X023448Y003694D01*
X022448Y006694D02*
X022397Y006715D01*
X022397Y006915D01*
X021897Y007415D01*
X024497Y007915D02*
X024997Y007415D01*
X009447Y035715D02*
X006079Y035715D01*
X006344Y035980D01*
X006344Y036132D01*
X005919Y036132D01*
X005919Y036212D01*
X006344Y036212D01*
X006344Y036365D01*
X006072Y036637D01*
X005919Y036637D01*
X005919Y036212D01*
X005839Y036212D01*
X005839Y036132D01*
X005414Y036132D01*
X005414Y035980D01*
X005679Y035715D01*
X002447Y035715D01*
X002497Y035915D01*
X002497Y037811D01*
X002662Y037647D01*
X003096Y037647D01*
X003404Y037955D01*
X003404Y038390D01*
X003096Y038697D01*
X002662Y038697D01*
X002497Y038533D01*
X002497Y041415D01*
X004889Y043806D01*
X004889Y043398D01*
X005012Y043275D01*
X006046Y043275D01*
X006169Y043398D01*
X006169Y043915D01*
X006857Y043915D01*
X006857Y043398D01*
X006980Y043275D01*
X008014Y043275D01*
X008137Y043398D01*
X008137Y043915D01*
X009497Y043915D01*
X010147Y042665D01*
X010147Y036915D01*
X009447Y035715D01*
X009459Y035735D02*
X008069Y035735D01*
X008066Y035732D02*
X008306Y035972D01*
X008306Y036112D01*
X007926Y036112D01*
X007926Y035732D01*
X008066Y035732D01*
X007926Y035735D02*
X007866Y035735D01*
X007866Y035732D02*
X007866Y036112D01*
X007486Y036112D01*
X007486Y035972D01*
X007726Y035732D01*
X007866Y035732D01*
X007866Y035834D02*
X007926Y035834D01*
X007926Y035932D02*
X007866Y035932D01*
X007866Y036031D02*
X007926Y036031D01*
X007926Y036112D02*
X007866Y036112D01*
X007866Y036172D01*
X007486Y036172D01*
X007486Y036312D01*
X007726Y036552D01*
X007866Y036552D01*
X007866Y036172D01*
X007926Y036172D01*
X008306Y036172D01*
X008306Y036312D01*
X008066Y036552D01*
X007926Y036552D01*
X007926Y036172D01*
X007926Y036112D01*
X007926Y036129D02*
X009689Y036129D01*
X009632Y036031D02*
X008306Y036031D01*
X008266Y035932D02*
X009574Y035932D01*
X009517Y035834D02*
X008168Y035834D01*
X008306Y036228D02*
X009747Y036228D01*
X009804Y036326D02*
X008292Y036326D01*
X008193Y036425D02*
X009862Y036425D01*
X009919Y036523D02*
X008095Y036523D01*
X007926Y036523D02*
X007866Y036523D01*
X007866Y036425D02*
X007926Y036425D01*
X007926Y036326D02*
X007866Y036326D01*
X007866Y036228D02*
X007926Y036228D01*
X007866Y036129D02*
X006344Y036129D01*
X006344Y036031D02*
X007486Y036031D01*
X007526Y035932D02*
X006296Y035932D01*
X006198Y035834D02*
X007625Y035834D01*
X007723Y035735D02*
X006099Y035735D01*
X005659Y035735D02*
X002453Y035735D01*
X002477Y035834D02*
X005560Y035834D01*
X005462Y035932D02*
X002497Y035932D01*
X002497Y036031D02*
X005414Y036031D01*
X005414Y036129D02*
X002497Y036129D01*
X002497Y036228D02*
X005414Y036228D01*
X005414Y036212D02*
X005839Y036212D01*
X005839Y036637D01*
X005686Y036637D01*
X005414Y036365D01*
X005414Y036212D01*
X005414Y036326D02*
X002497Y036326D01*
X002497Y036425D02*
X005474Y036425D01*
X005572Y036523D02*
X002497Y036523D01*
X002497Y036622D02*
X005671Y036622D01*
X005662Y036647D02*
X006096Y036647D01*
X006404Y036955D01*
X006404Y037390D01*
X006121Y037672D01*
X006404Y037955D01*
X006404Y038390D01*
X006096Y038697D01*
X005662Y038697D01*
X005354Y038390D01*
X005354Y037955D01*
X005637Y037672D01*
X005354Y037390D01*
X005354Y036955D01*
X005662Y036647D01*
X005589Y036720D02*
X002497Y036720D01*
X002497Y036819D02*
X005490Y036819D01*
X005392Y036917D02*
X002497Y036917D01*
X002497Y037016D02*
X005354Y037016D01*
X005354Y037114D02*
X002497Y037114D01*
X002497Y037213D02*
X005354Y037213D01*
X005354Y037311D02*
X002497Y037311D01*
X002497Y037410D02*
X005374Y037410D01*
X005472Y037508D02*
X002497Y037508D01*
X002497Y037607D02*
X005571Y037607D01*
X005604Y037705D02*
X003154Y037705D01*
X003253Y037804D02*
X005505Y037804D01*
X005407Y037902D02*
X003351Y037902D01*
X003404Y038001D02*
X005354Y038001D01*
X005354Y038099D02*
X003404Y038099D01*
X003404Y038198D02*
X005354Y038198D01*
X005354Y038296D02*
X003404Y038296D01*
X003399Y038395D02*
X005359Y038395D01*
X005457Y038493D02*
X003301Y038493D01*
X003202Y038592D02*
X005556Y038592D01*
X005654Y038690D02*
X003104Y038690D01*
X002654Y038690D02*
X002497Y038690D01*
X002497Y038592D02*
X002556Y038592D01*
X002497Y038789D02*
X010147Y038789D01*
X010147Y038887D02*
X002497Y038887D01*
X002497Y038986D02*
X010147Y038986D01*
X010147Y039084D02*
X002497Y039084D01*
X002497Y039183D02*
X010147Y039183D01*
X010147Y039281D02*
X002497Y039281D01*
X002497Y039380D02*
X002868Y039380D01*
X002903Y039345D02*
X003292Y039345D01*
X003567Y039620D01*
X003567Y040010D01*
X003292Y040285D01*
X002903Y040285D01*
X002627Y040010D01*
X002627Y039620D01*
X002903Y039345D01*
X002770Y039478D02*
X002497Y039478D01*
X002497Y039577D02*
X002671Y039577D01*
X002627Y039675D02*
X002497Y039675D01*
X002497Y039774D02*
X002627Y039774D01*
X002627Y039872D02*
X002497Y039872D01*
X002497Y039971D02*
X002627Y039971D01*
X002687Y040069D02*
X002497Y040069D01*
X002497Y040168D02*
X002786Y040168D01*
X002884Y040266D02*
X002497Y040266D01*
X002497Y040365D02*
X006007Y040365D01*
X006007Y040463D02*
X002497Y040463D01*
X002497Y040562D02*
X006036Y040562D01*
X006007Y040492D02*
X006082Y040673D01*
X006220Y040810D01*
X006400Y040885D01*
X006595Y040885D01*
X006775Y040810D01*
X006913Y040673D01*
X006987Y040492D01*
X006987Y039737D01*
X006913Y039557D01*
X006775Y039420D01*
X006595Y039345D01*
X006400Y039345D01*
X006220Y039420D01*
X006082Y039557D01*
X006007Y039737D01*
X006007Y040492D01*
X006077Y040660D02*
X002497Y040660D01*
X002497Y040759D02*
X006168Y040759D01*
X006333Y040857D02*
X002497Y040857D01*
X002497Y040956D02*
X007253Y040956D01*
X007220Y040970D02*
X007400Y040895D01*
X007595Y040895D01*
X007775Y040970D01*
X007913Y041107D01*
X007987Y041287D01*
X007987Y042042D01*
X007913Y042223D01*
X007775Y042360D01*
X007595Y042435D01*
X007400Y042435D01*
X007220Y042360D01*
X007082Y042223D01*
X007007Y042042D01*
X007007Y041287D01*
X007082Y041107D01*
X007220Y040970D01*
X007135Y041054D02*
X002497Y041054D01*
X002497Y041153D02*
X007063Y041153D01*
X007022Y041251D02*
X002497Y041251D01*
X002497Y041350D02*
X007007Y041350D01*
X007007Y041448D02*
X002531Y041448D01*
X002629Y041547D02*
X007007Y041547D01*
X007007Y041645D02*
X002728Y041645D01*
X002826Y041744D02*
X007007Y041744D01*
X007007Y041842D02*
X002925Y041842D01*
X003023Y041941D02*
X007007Y041941D01*
X007007Y042039D02*
X003122Y042039D01*
X003220Y042138D02*
X007047Y042138D01*
X007096Y042236D02*
X003319Y042236D01*
X003417Y042335D02*
X007194Y042335D01*
X007396Y042433D02*
X003516Y042433D01*
X003614Y042532D02*
X010147Y042532D01*
X010147Y042630D02*
X003713Y042630D01*
X003811Y042729D02*
X010114Y042729D01*
X010063Y042827D02*
X003910Y042827D01*
X004008Y042926D02*
X010012Y042926D01*
X009961Y043024D02*
X004107Y043024D01*
X004205Y043123D02*
X009909Y043123D01*
X009858Y043221D02*
X004304Y043221D01*
X004402Y043320D02*
X004967Y043320D01*
X004889Y043418D02*
X004501Y043418D01*
X004599Y043517D02*
X004889Y043517D01*
X004889Y043615D02*
X004698Y043615D01*
X004796Y043714D02*
X004889Y043714D01*
X006091Y043320D02*
X006936Y043320D01*
X006857Y043418D02*
X006169Y043418D01*
X006169Y043517D02*
X006857Y043517D01*
X006857Y043615D02*
X006169Y043615D01*
X006169Y043714D02*
X006857Y043714D01*
X006857Y043812D02*
X006169Y043812D01*
X006169Y043911D02*
X006857Y043911D01*
X008137Y043911D02*
X009500Y043911D01*
X009551Y043812D02*
X008137Y043812D01*
X008137Y043714D02*
X009602Y043714D01*
X009653Y043615D02*
X008137Y043615D01*
X008137Y043517D02*
X009705Y043517D01*
X009756Y043418D02*
X008137Y043418D01*
X008059Y043320D02*
X009807Y043320D01*
X010147Y042433D02*
X008599Y042433D01*
X008595Y042435D02*
X008400Y042435D01*
X008220Y042360D01*
X008082Y042223D01*
X008007Y042042D01*
X008007Y041287D01*
X008082Y041107D01*
X008220Y040970D01*
X008400Y040895D01*
X008595Y040895D01*
X008775Y040970D01*
X008913Y041107D01*
X008987Y041287D01*
X008987Y042042D01*
X008913Y042223D01*
X008775Y042360D01*
X008595Y042435D01*
X008396Y042433D02*
X007599Y042433D01*
X007801Y042335D02*
X008194Y042335D01*
X008096Y042236D02*
X007899Y042236D01*
X007948Y042138D02*
X008047Y042138D01*
X008007Y042039D02*
X007987Y042039D01*
X007987Y041941D02*
X008007Y041941D01*
X008007Y041842D02*
X007987Y041842D01*
X007987Y041744D02*
X008007Y041744D01*
X008007Y041645D02*
X007987Y041645D01*
X007987Y041547D02*
X008007Y041547D01*
X008007Y041448D02*
X007987Y041448D01*
X007987Y041350D02*
X008007Y041350D01*
X008022Y041251D02*
X007972Y041251D01*
X007932Y041153D02*
X008063Y041153D01*
X008135Y041054D02*
X007860Y041054D01*
X007742Y040956D02*
X008253Y040956D01*
X008333Y040857D02*
X006662Y040857D01*
X006827Y040759D02*
X007267Y040759D01*
X007272Y040763D02*
X007217Y040723D01*
X007169Y040675D01*
X007130Y040620D01*
X007099Y040560D01*
X007078Y040496D01*
X007067Y040429D01*
X007067Y040155D01*
X007457Y040155D01*
X007457Y040075D01*
X007067Y040075D01*
X007067Y039801D01*
X007078Y039734D01*
X007099Y039670D01*
X007130Y039610D01*
X007169Y039555D01*
X007217Y039507D01*
X007272Y039467D01*
X007332Y039436D01*
X007397Y039416D01*
X007457Y039406D01*
X007457Y040075D01*
X007537Y040075D01*
X007537Y039406D01*
X007598Y039416D01*
X007663Y039436D01*
X007723Y039467D01*
X007778Y039507D01*
X007825Y039555D01*
X007865Y039610D01*
X007896Y039670D01*
X007917Y039734D01*
X007927Y039801D01*
X007927Y040075D01*
X007537Y040075D01*
X007537Y040155D01*
X007457Y040155D01*
X007457Y040824D01*
X007397Y040814D01*
X007332Y040793D01*
X007272Y040763D01*
X007159Y040660D02*
X006918Y040660D01*
X006959Y040562D02*
X007100Y040562D01*
X007073Y040463D02*
X006987Y040463D01*
X006987Y040365D02*
X007067Y040365D01*
X007067Y040266D02*
X006987Y040266D01*
X006987Y040168D02*
X007067Y040168D01*
X007067Y040069D02*
X006987Y040069D01*
X006987Y039971D02*
X007067Y039971D01*
X007067Y039872D02*
X006987Y039872D01*
X006987Y039774D02*
X007072Y039774D01*
X007097Y039675D02*
X006962Y039675D01*
X006921Y039577D02*
X007154Y039577D01*
X007257Y039478D02*
X006834Y039478D01*
X006679Y039380D02*
X008316Y039380D01*
X008400Y039345D02*
X008595Y039345D01*
X008775Y039420D01*
X008913Y039557D01*
X008987Y039737D01*
X008987Y040492D01*
X008913Y040673D01*
X008775Y040810D01*
X008595Y040885D01*
X008400Y040885D01*
X008220Y040810D01*
X008082Y040673D01*
X008007Y040492D01*
X008007Y039737D01*
X008082Y039557D01*
X008220Y039420D01*
X008400Y039345D01*
X008161Y039478D02*
X007738Y039478D01*
X007841Y039577D02*
X008074Y039577D01*
X008033Y039675D02*
X007898Y039675D01*
X007923Y039774D02*
X008007Y039774D01*
X008007Y039872D02*
X007927Y039872D01*
X007927Y039971D02*
X008007Y039971D01*
X008007Y040069D02*
X007927Y040069D01*
X007927Y040155D02*
X007537Y040155D01*
X007537Y040824D01*
X007598Y040814D01*
X007663Y040793D01*
X007723Y040763D01*
X007778Y040723D01*
X007825Y040675D01*
X007865Y040620D01*
X007896Y040560D01*
X007917Y040496D01*
X007927Y040429D01*
X007927Y040155D01*
X007927Y040168D02*
X008007Y040168D01*
X008007Y040266D02*
X007927Y040266D01*
X007927Y040365D02*
X008007Y040365D01*
X008007Y040463D02*
X007922Y040463D01*
X007895Y040562D02*
X008036Y040562D01*
X008077Y040660D02*
X007836Y040660D01*
X007728Y040759D02*
X008168Y040759D01*
X008662Y040857D02*
X010147Y040857D01*
X010147Y040759D02*
X008827Y040759D01*
X008918Y040660D02*
X010147Y040660D01*
X010147Y040562D02*
X008959Y040562D01*
X008987Y040463D02*
X010147Y040463D01*
X010147Y040365D02*
X008987Y040365D01*
X008987Y040266D02*
X010147Y040266D01*
X010147Y040168D02*
X008987Y040168D01*
X008987Y040069D02*
X010147Y040069D01*
X010147Y039971D02*
X008987Y039971D01*
X008987Y039872D02*
X010147Y039872D01*
X010147Y039774D02*
X008987Y039774D01*
X008962Y039675D02*
X010147Y039675D01*
X010147Y039577D02*
X008921Y039577D01*
X008834Y039478D02*
X010147Y039478D01*
X010147Y039380D02*
X008679Y039380D01*
X008091Y038612D02*
X007702Y038612D01*
X007426Y038337D01*
X007426Y037948D01*
X007702Y037672D01*
X008091Y037672D01*
X008366Y037948D01*
X008366Y038337D01*
X008091Y038612D01*
X008111Y038592D02*
X010147Y038592D01*
X010147Y038690D02*
X006104Y038690D01*
X006202Y038592D02*
X007681Y038592D01*
X007583Y038493D02*
X006301Y038493D01*
X006399Y038395D02*
X007484Y038395D01*
X007426Y038296D02*
X006404Y038296D01*
X006404Y038198D02*
X007426Y038198D01*
X007426Y038099D02*
X006404Y038099D01*
X006404Y038001D02*
X007426Y038001D01*
X007471Y037902D02*
X006351Y037902D01*
X006253Y037804D02*
X007570Y037804D01*
X007668Y037705D02*
X006154Y037705D01*
X006187Y037607D02*
X010147Y037607D01*
X010147Y037705D02*
X008124Y037705D01*
X008222Y037804D02*
X010147Y037804D01*
X010147Y037902D02*
X008321Y037902D01*
X008366Y038001D02*
X010147Y038001D01*
X010147Y038099D02*
X008366Y038099D01*
X008366Y038198D02*
X010147Y038198D01*
X010147Y038296D02*
X008366Y038296D01*
X008308Y038395D02*
X010147Y038395D01*
X010147Y038493D02*
X008210Y038493D01*
X007537Y039478D02*
X007457Y039478D01*
X007457Y039577D02*
X007537Y039577D01*
X007537Y039675D02*
X007457Y039675D01*
X007457Y039774D02*
X007537Y039774D01*
X007537Y039872D02*
X007457Y039872D01*
X007457Y039971D02*
X007537Y039971D01*
X007537Y040069D02*
X007457Y040069D01*
X007457Y040168D02*
X007537Y040168D01*
X007537Y040266D02*
X007457Y040266D01*
X007457Y040365D02*
X007537Y040365D01*
X007537Y040463D02*
X007457Y040463D01*
X007457Y040562D02*
X007537Y040562D01*
X007537Y040660D02*
X007457Y040660D01*
X007457Y040759D02*
X007537Y040759D01*
X008742Y040956D02*
X010147Y040956D01*
X010147Y041054D02*
X008860Y041054D01*
X008932Y041153D02*
X010147Y041153D01*
X010147Y041251D02*
X008972Y041251D01*
X008987Y041350D02*
X010147Y041350D01*
X010147Y041448D02*
X008987Y041448D01*
X008987Y041547D02*
X010147Y041547D01*
X010147Y041645D02*
X008987Y041645D01*
X008987Y041744D02*
X010147Y041744D01*
X010147Y041842D02*
X008987Y041842D01*
X008987Y041941D02*
X010147Y041941D01*
X010147Y042039D02*
X008987Y042039D01*
X008948Y042138D02*
X010147Y042138D01*
X010147Y042236D02*
X008899Y042236D01*
X008801Y042335D02*
X010147Y042335D01*
X006007Y040266D02*
X003311Y040266D01*
X003409Y040168D02*
X004870Y040168D01*
X004928Y040225D02*
X004687Y039985D01*
X004687Y039845D01*
X005067Y039845D01*
X005067Y039785D01*
X004687Y039785D01*
X004687Y039645D01*
X004928Y039405D01*
X005067Y039405D01*
X005067Y039785D01*
X005127Y039785D01*
X005127Y039405D01*
X005267Y039405D01*
X005507Y039645D01*
X005507Y039785D01*
X005127Y039785D01*
X005127Y039845D01*
X005067Y039845D01*
X005067Y040225D01*
X004928Y040225D01*
X005067Y040168D02*
X005127Y040168D01*
X005127Y040225D02*
X005267Y040225D01*
X005507Y039985D01*
X005507Y039845D01*
X005127Y039845D01*
X005127Y040225D01*
X005127Y040069D02*
X005067Y040069D01*
X005067Y039971D02*
X005127Y039971D01*
X005127Y039872D02*
X005067Y039872D01*
X005067Y039774D02*
X005127Y039774D01*
X005127Y039675D02*
X005067Y039675D01*
X005067Y039577D02*
X005127Y039577D01*
X005127Y039478D02*
X005067Y039478D01*
X004854Y039478D02*
X003425Y039478D01*
X003327Y039380D02*
X006316Y039380D01*
X006161Y039478D02*
X005341Y039478D01*
X005439Y039577D02*
X006074Y039577D01*
X006033Y039675D02*
X005507Y039675D01*
X005507Y039774D02*
X006007Y039774D01*
X006007Y039872D02*
X005507Y039872D01*
X005507Y039971D02*
X006007Y039971D01*
X006007Y040069D02*
X005423Y040069D01*
X005325Y040168D02*
X006007Y040168D01*
X004772Y040069D02*
X003508Y040069D01*
X003567Y039971D02*
X004687Y039971D01*
X004687Y039872D02*
X003567Y039872D01*
X003567Y039774D02*
X004687Y039774D01*
X004687Y039675D02*
X003567Y039675D01*
X003524Y039577D02*
X004756Y039577D01*
X006286Y037508D02*
X010147Y037508D01*
X010147Y037410D02*
X006384Y037410D01*
X006404Y037311D02*
X010147Y037311D01*
X010147Y037213D02*
X006404Y037213D01*
X006404Y037114D02*
X010147Y037114D01*
X010147Y037016D02*
X006404Y037016D01*
X006366Y036917D02*
X010147Y036917D01*
X010091Y036819D02*
X006268Y036819D01*
X006169Y036720D02*
X010034Y036720D01*
X009976Y036622D02*
X006087Y036622D01*
X006186Y036523D02*
X007697Y036523D01*
X007599Y036425D02*
X006284Y036425D01*
X006344Y036326D02*
X007500Y036326D01*
X007486Y036228D02*
X006344Y036228D01*
X005919Y036228D02*
X005839Y036228D01*
X005839Y036326D02*
X005919Y036326D01*
X005919Y036425D02*
X005839Y036425D01*
X005839Y036523D02*
X005919Y036523D01*
X005919Y036622D02*
X005839Y036622D01*
X002604Y037705D02*
X002497Y037705D01*
X002497Y037804D02*
X002505Y037804D01*
D33*
X024497Y033915D02*
X025497Y033915D01*
X028497Y033915D01*
X033497Y033915D01*
X036497Y033915D01*
X037497Y033915D01*
X041497Y033915D01*
X045497Y033915D01*
X045997Y033915D01*
X046997Y034915D01*
X046997Y038415D01*
X049497Y040915D01*
X050371Y040915D01*
X050497Y040789D01*
M02*
