G75*
G70*
%OFA0B0*%
%FSLAX24Y24*%
%IPPOS*%
%LPD*%
%AMOC8*
5,1,8,0,0,1.08239X$1,22.5*
%
%ADD10R,0.0591X0.0512*%
%ADD11R,0.0591X0.0157*%
%ADD12R,0.0709X0.0236*%
%ADD13R,0.0512X0.0591*%
%ADD14R,0.0709X0.0630*%
%ADD15R,0.0260X0.0800*%
%ADD16R,0.0710X0.0630*%
%ADD17R,0.1181X0.0472*%
%ADD18R,0.0630X0.0710*%
%ADD19R,0.0787X0.2165*%
%ADD20R,0.0630X0.0138*%
%ADD21R,0.0551X0.1181*%
%ADD22R,0.2362X0.2559*%
%ADD23R,0.0870X0.0240*%
%ADD24R,0.1063X0.0630*%
%ADD25R,0.0630X0.1063*%
%ADD26R,0.0118X0.0630*%
%ADD27R,0.0630X0.0118*%
%ADD28R,0.0709X0.0669*%
%ADD29R,0.0630X0.0709*%
%ADD30R,0.0236X0.0354*%
%ADD31R,0.0354X0.0236*%
%ADD32R,0.0394X0.0433*%
%ADD33R,0.0098X0.0394*%
%ADD34R,0.0394X0.0098*%
%ADD35R,0.0551X0.0394*%
D10*
X010941Y002667D03*
X010941Y003415D03*
X019998Y011139D03*
X019998Y011887D03*
X020948Y011887D03*
X020948Y011139D03*
X021798Y011139D03*
X021798Y011887D03*
X022698Y011887D03*
X022698Y011139D03*
X023548Y011139D03*
X023548Y011887D03*
X024448Y011887D03*
X024448Y011139D03*
X025348Y011139D03*
X026092Y011139D03*
X026092Y011887D03*
X025348Y011887D03*
X029247Y011541D03*
X029247Y012289D03*
X029997Y012289D03*
X029997Y011541D03*
X026997Y008289D03*
X026997Y007541D03*
X016955Y015240D03*
X016955Y015988D03*
X014018Y016761D03*
X014018Y017509D03*
X014009Y013390D03*
X014009Y012642D03*
X018258Y023665D03*
X018258Y024413D03*
X022997Y025041D03*
X022997Y025789D03*
X028247Y026541D03*
X028247Y027289D03*
X028655Y023212D03*
X028655Y022464D03*
X028747Y020789D03*
X028747Y020041D03*
X028905Y018513D03*
X028905Y017765D03*
X035247Y026291D03*
X035247Y027039D03*
X036247Y027039D03*
X036247Y026291D03*
X037247Y026291D03*
X037247Y027039D03*
X040497Y027250D03*
X040497Y026580D03*
X041247Y026580D03*
X041247Y027250D03*
X041247Y028330D03*
X041247Y029000D03*
X040497Y029000D03*
X040497Y028330D03*
X040497Y030080D03*
X040497Y030750D03*
X041247Y030750D03*
X041247Y030080D03*
X042747Y033791D03*
X042747Y034539D03*
X038747Y034539D03*
X038747Y033791D03*
X034747Y033791D03*
X034747Y034539D03*
X030747Y034539D03*
X030747Y033791D03*
X026747Y033791D03*
X026747Y034539D03*
X022747Y034539D03*
X022747Y033791D03*
X019997Y037080D03*
X019997Y037750D03*
X018997Y037750D03*
X018997Y037080D03*
X017997Y037080D03*
X017997Y037750D03*
X016997Y037750D03*
X016997Y037080D03*
X015247Y037041D03*
X015247Y037789D03*
X014247Y037789D03*
X014247Y037041D03*
X012247Y039541D03*
X012247Y040289D03*
X011141Y027865D03*
X011141Y027117D03*
X032997Y027291D03*
X032997Y028039D03*
X039497Y022289D03*
X039497Y021541D03*
X040448Y021447D03*
X040448Y022195D03*
X039734Y019830D03*
X039734Y019082D03*
X042997Y017789D03*
X042997Y017041D03*
X043997Y021541D03*
X043997Y022289D03*
X041906Y009236D03*
X041906Y008488D03*
X043476Y008470D03*
X043476Y009219D03*
X043483Y004992D03*
X043483Y004244D03*
D11*
X041116Y004140D03*
X041116Y004396D03*
X041116Y004652D03*
X041116Y004907D03*
X041116Y005163D03*
X041116Y005419D03*
X041116Y005675D03*
X041116Y005931D03*
X041116Y003884D03*
X041116Y003628D03*
X041116Y003372D03*
X041116Y003116D03*
X041116Y002860D03*
X041116Y002604D03*
X038262Y002604D03*
X038262Y002860D03*
X038262Y003116D03*
X038262Y003372D03*
X038262Y003628D03*
X038262Y003884D03*
X038262Y004140D03*
X038262Y004396D03*
X038262Y004652D03*
X038262Y004907D03*
X038262Y005163D03*
X038262Y005419D03*
X038262Y005675D03*
X038262Y005931D03*
D12*
X034736Y005783D03*
X034736Y005283D03*
X034736Y004783D03*
X034736Y006283D03*
X032814Y006283D03*
X032814Y005783D03*
X032814Y005283D03*
X032814Y004783D03*
D13*
X032147Y003021D03*
X031399Y003021D03*
X035444Y002963D03*
X036192Y002963D03*
X038123Y001665D03*
X038871Y001665D03*
X037983Y008535D03*
X037235Y008535D03*
X037257Y009719D03*
X038005Y009719D03*
X042397Y011080D03*
X043145Y011080D03*
X038521Y017515D03*
X037773Y017515D03*
X036385Y017502D03*
X035637Y017502D03*
X034371Y017415D03*
X033623Y017415D03*
X033623Y018415D03*
X034371Y018415D03*
X034371Y019415D03*
X033623Y019415D03*
X032234Y017570D03*
X031486Y017570D03*
X034373Y021665D03*
X035121Y021665D03*
X032992Y022620D03*
X032244Y022620D03*
X024610Y025085D03*
X023862Y025085D03*
X021332Y031915D03*
X020663Y031915D03*
X019832Y031915D03*
X019163Y031915D03*
X018332Y031915D03*
X017663Y031915D03*
X016832Y031915D03*
X016163Y031915D03*
X016163Y032915D03*
X016832Y032915D03*
X017663Y032915D03*
X018332Y032915D03*
X019163Y032915D03*
X019832Y032915D03*
X020663Y032915D03*
X021332Y032915D03*
X023373Y032415D03*
X024121Y032415D03*
X025373Y032415D03*
X026121Y032415D03*
X029373Y032415D03*
X030121Y032415D03*
X033373Y032415D03*
X034121Y032415D03*
X037373Y032415D03*
X038121Y032415D03*
X041373Y032415D03*
X042121Y032415D03*
X042413Y030915D03*
X043082Y030915D03*
X043082Y029165D03*
X042413Y029165D03*
X042413Y027415D03*
X043082Y027415D03*
X043623Y025915D03*
X044371Y025915D03*
X044371Y024915D03*
X043623Y024915D03*
X043623Y023915D03*
X044371Y023915D03*
X025871Y014165D03*
X025123Y014165D03*
X020757Y013318D03*
X020009Y013318D03*
X015871Y035915D03*
X015123Y035915D03*
X014371Y035915D03*
X013623Y035915D03*
X014010Y039496D03*
X014758Y039496D03*
X014741Y040434D03*
X013993Y040434D03*
X015934Y040445D03*
X016683Y040445D03*
X016708Y039496D03*
X015960Y039496D03*
D14*
X040262Y009570D03*
X040262Y008467D03*
D15*
X037765Y019292D03*
X037265Y019292D03*
X036765Y019292D03*
X036265Y019292D03*
X036265Y021712D03*
X036765Y021712D03*
X037265Y021712D03*
X037765Y021712D03*
D16*
X009796Y004749D03*
X009796Y005869D03*
X012171Y005862D03*
X012171Y004743D03*
X012323Y024461D03*
X012323Y025581D03*
X009941Y025601D03*
X009941Y024481D03*
X042997Y020025D03*
X042997Y018905D03*
D17*
X012305Y020537D03*
X012305Y021521D03*
X012305Y022506D03*
X009942Y022506D03*
X009942Y021521D03*
X009942Y020537D03*
X009840Y009687D03*
X009840Y008702D03*
X009840Y007718D03*
X012202Y007718D03*
X012202Y008702D03*
X012202Y009687D03*
D18*
X034917Y009951D03*
X036037Y009951D03*
X036012Y008344D03*
X034892Y008344D03*
D19*
X030618Y018643D03*
X030618Y022383D03*
D20*
X030257Y028515D03*
X030257Y028771D03*
X030257Y029027D03*
X030257Y029283D03*
X030257Y029539D03*
X030257Y029795D03*
X030257Y030051D03*
X028053Y030051D03*
X028053Y029795D03*
X028053Y029539D03*
X028053Y029283D03*
X028053Y029027D03*
X028053Y028771D03*
X028053Y028515D03*
X033946Y028509D03*
X033946Y028765D03*
X033946Y029021D03*
X033946Y029277D03*
X033946Y029533D03*
X033946Y029789D03*
X033946Y030044D03*
X036151Y030044D03*
X036151Y029789D03*
X036151Y029533D03*
X036151Y029277D03*
X036151Y029021D03*
X036151Y028765D03*
X036151Y028509D03*
D21*
X036560Y035679D03*
X034749Y035679D03*
X032492Y035691D03*
X030681Y035691D03*
X028486Y035679D03*
X026675Y035679D03*
X024486Y035691D03*
X022675Y035691D03*
X038738Y035655D03*
X040549Y035655D03*
X042738Y035628D03*
X044549Y035628D03*
D22*
X043643Y038088D03*
X039643Y038116D03*
X035655Y038139D03*
X031586Y038152D03*
X027580Y038139D03*
X023580Y038152D03*
D23*
X035467Y024915D03*
X035467Y024415D03*
X035467Y023915D03*
X035467Y023415D03*
X037527Y023415D03*
X037527Y023915D03*
X037527Y024415D03*
X037527Y024915D03*
X040467Y024915D03*
X040467Y024415D03*
X040467Y023915D03*
X040467Y023415D03*
X042527Y023415D03*
X042527Y023915D03*
X042527Y024415D03*
X042527Y024915D03*
X012153Y017921D03*
X012153Y017421D03*
X012153Y016921D03*
X012153Y016421D03*
X010093Y016421D03*
X010093Y016921D03*
X010093Y017421D03*
X010093Y017921D03*
X009994Y013728D03*
X009994Y013228D03*
X009994Y012728D03*
X009994Y012228D03*
X012054Y012228D03*
X012054Y012728D03*
X012054Y013228D03*
X012054Y013728D03*
D24*
X008088Y031974D03*
X008088Y033076D03*
X009708Y036590D03*
X009708Y037692D03*
X048797Y015516D03*
X048797Y014414D03*
D25*
X049196Y024915D03*
X050299Y024915D03*
X004607Y041605D03*
X003505Y041605D03*
D26*
X019181Y023580D03*
X019377Y023580D03*
X019574Y023580D03*
X019771Y023580D03*
X019968Y023580D03*
X020165Y023580D03*
X020362Y023580D03*
X020558Y023580D03*
X020755Y023580D03*
X020952Y023580D03*
X021149Y023580D03*
X021346Y023580D03*
X021543Y023580D03*
X021740Y023580D03*
X021936Y023580D03*
X022133Y023580D03*
X022330Y023580D03*
X022527Y023580D03*
X022724Y023580D03*
X022921Y023580D03*
X023118Y023580D03*
X023314Y023580D03*
X023511Y023580D03*
X023708Y023580D03*
X023905Y023580D03*
X024102Y023580D03*
X024299Y023580D03*
X024495Y023580D03*
X024692Y023580D03*
X024889Y023580D03*
X025086Y023580D03*
X025283Y023580D03*
X025480Y023580D03*
X025677Y023580D03*
X025873Y023580D03*
X026070Y023580D03*
X026070Y015233D03*
X025873Y015233D03*
X025677Y015233D03*
X025480Y015233D03*
X025283Y015233D03*
X025086Y015233D03*
X024889Y015233D03*
X024692Y015233D03*
X024495Y015233D03*
X024299Y015233D03*
X024102Y015233D03*
X023905Y015233D03*
X023708Y015233D03*
X023511Y015233D03*
X023314Y015233D03*
X023118Y015233D03*
X022921Y015233D03*
X022724Y015233D03*
X022527Y015233D03*
X022330Y015233D03*
X022133Y015233D03*
X021936Y015233D03*
X021740Y015233D03*
X021543Y015233D03*
X021346Y015233D03*
X021149Y015233D03*
X020952Y015233D03*
X020755Y015233D03*
X020558Y015233D03*
X020362Y015233D03*
X020165Y015233D03*
X019968Y015233D03*
X019771Y015233D03*
X019574Y015233D03*
X019377Y015233D03*
X019181Y015233D03*
D27*
X018452Y015962D03*
X018452Y016158D03*
X018452Y016355D03*
X018452Y016552D03*
X018452Y016749D03*
X018452Y016946D03*
X018452Y017143D03*
X018452Y017340D03*
X018452Y017536D03*
X018452Y017733D03*
X018452Y017930D03*
X018452Y018127D03*
X018452Y018324D03*
X018452Y018521D03*
X018452Y018717D03*
X018452Y018914D03*
X018452Y019111D03*
X018452Y019308D03*
X018452Y019505D03*
X018452Y019702D03*
X018452Y019899D03*
X018452Y020095D03*
X018452Y020292D03*
X018452Y020489D03*
X018452Y020686D03*
X018452Y020883D03*
X018452Y021080D03*
X018452Y021277D03*
X018452Y021473D03*
X018452Y021670D03*
X018452Y021867D03*
X018452Y022064D03*
X018452Y022261D03*
X018452Y022458D03*
X018452Y022654D03*
X018452Y022851D03*
X026799Y022851D03*
X026799Y022654D03*
X026799Y022458D03*
X026799Y022261D03*
X026799Y022064D03*
X026799Y021867D03*
X026799Y021670D03*
X026799Y021473D03*
X026799Y021277D03*
X026799Y021080D03*
X026799Y020883D03*
X026799Y020686D03*
X026799Y020489D03*
X026799Y020292D03*
X026799Y020095D03*
X026799Y019899D03*
X026799Y019702D03*
X026799Y019505D03*
X026799Y019308D03*
X026799Y019111D03*
X026799Y018914D03*
X026799Y018717D03*
X026799Y018521D03*
X026799Y018324D03*
X026799Y018127D03*
X026799Y017930D03*
X026799Y017733D03*
X026799Y017536D03*
X026799Y017340D03*
X026799Y017143D03*
X026799Y016946D03*
X026799Y016749D03*
X026799Y016552D03*
X026799Y016355D03*
X026799Y016158D03*
X026799Y015962D03*
D28*
X027690Y040665D03*
X029305Y040665D03*
X031690Y040665D03*
X033305Y040665D03*
X035690Y040665D03*
X037305Y040665D03*
X039690Y040665D03*
X041305Y040665D03*
X043690Y040665D03*
X045305Y040665D03*
X025305Y040665D03*
X023690Y040665D03*
D29*
X009049Y028415D03*
X007946Y028415D03*
D30*
X038623Y027868D03*
X038997Y027868D03*
X039371Y027868D03*
X039371Y026962D03*
X038997Y026962D03*
X038623Y026962D03*
X038623Y029462D03*
X038997Y029462D03*
X039371Y029462D03*
X039371Y030368D03*
X038997Y030368D03*
X038623Y030368D03*
D31*
X020450Y035041D03*
X020450Y035415D03*
X020450Y035789D03*
X019545Y035789D03*
X019545Y035415D03*
X019545Y035041D03*
X017950Y035041D03*
X017950Y035415D03*
X017950Y035789D03*
X017045Y035789D03*
X017045Y035415D03*
X017045Y035041D03*
D32*
X046997Y039330D03*
X046997Y040000D03*
D33*
X044891Y029997D03*
X044694Y029997D03*
X044497Y029997D03*
X044301Y029997D03*
X044104Y029997D03*
X044104Y028333D03*
X044301Y028333D03*
X044497Y028333D03*
X044694Y028333D03*
X044891Y028333D03*
D34*
X020329Y039521D03*
X020329Y039718D03*
X020329Y039915D03*
X020329Y040112D03*
X020329Y040309D03*
X018666Y040309D03*
X018666Y040112D03*
X018666Y039915D03*
X018666Y039718D03*
X018666Y039521D03*
D35*
X046314Y038289D03*
X046314Y037541D03*
X047181Y037915D03*
M02*
