G75*
G70*
%OFA0B0*%
%FSLAX24Y24*%
%IPPOS*%
%LPD*%
%AMOC8*
5,1,8,0,0,1.08239X$1,22.5*
%
%ADD10C,0.0000*%
%ADD11R,0.0433X0.0394*%
%ADD12R,0.0394X0.0433*%
%ADD13R,0.0118X0.0630*%
%ADD14R,0.0630X0.0118*%
%ADD15C,0.0640*%
%ADD16R,0.0591X0.0591*%
%ADD17R,0.0512X0.0591*%
%ADD18R,0.0110X0.0560*%
%ADD19R,0.0740X0.0620*%
%ADD20C,0.0600*%
%ADD21R,0.0315X0.0894*%
%ADD22R,0.0787X0.0252*%
%ADD23R,0.0787X0.0756*%
%ADD24R,0.0420X0.0100*%
%ADD25R,0.0580X0.0140*%
%ADD26R,0.1004X0.2598*%
%ADD27R,0.0236X0.0866*%
%ADD28R,0.0646X0.0646*%
%ADD29C,0.0646*%
%ADD30R,0.0472X0.1378*%
%ADD31R,0.0642X0.0642*%
%ADD32C,0.0642*%
%ADD33R,0.0236X0.0433*%
%ADD34R,0.0492X0.0098*%
%ADD35C,0.0120*%
%ADD36C,0.0396*%
%ADD37C,0.0240*%
%ADD38C,0.0100*%
%ADD39C,0.0317*%
%ADD40C,0.0394*%
%ADD41C,0.0160*%
%ADD42C,0.0278*%
%ADD43C,0.0400*%
%ADD44C,0.0357*%
%ADD45C,0.0531*%
%ADD46C,0.0500*%
%ADD47C,0.0475*%
%ADD48C,0.0709*%
%ADD49C,0.0436*%
%ADD50C,0.0320*%
%ADD51C,0.0260*%
%ADD52C,0.0260*%
D10*
X019175Y009887D02*
X019175Y033509D01*
X055474Y033509D01*
X055474Y009887D01*
X019175Y009887D01*
X027216Y010871D02*
X027218Y010920D01*
X027224Y010969D01*
X027234Y011018D01*
X027247Y011065D01*
X027264Y011111D01*
X027285Y011156D01*
X027310Y011199D01*
X027337Y011239D01*
X027368Y011278D01*
X027402Y011314D01*
X027439Y011347D01*
X027478Y011377D01*
X027519Y011404D01*
X027562Y011427D01*
X027607Y011447D01*
X027654Y011464D01*
X027701Y011476D01*
X027750Y011485D01*
X027799Y011490D01*
X027848Y011491D01*
X027898Y011488D01*
X027946Y011481D01*
X027994Y011470D01*
X028042Y011456D01*
X028087Y011438D01*
X028132Y011416D01*
X028174Y011391D01*
X028214Y011362D01*
X028252Y011331D01*
X028287Y011296D01*
X028320Y011259D01*
X028349Y011219D01*
X028375Y011177D01*
X028398Y011134D01*
X028417Y011088D01*
X028432Y011041D01*
X028444Y010993D01*
X028452Y010945D01*
X028456Y010896D01*
X028456Y010846D01*
X028452Y010797D01*
X028444Y010749D01*
X028432Y010701D01*
X028417Y010654D01*
X028398Y010608D01*
X028375Y010565D01*
X028349Y010523D01*
X028320Y010483D01*
X028287Y010446D01*
X028252Y010411D01*
X028214Y010380D01*
X028174Y010351D01*
X028132Y010326D01*
X028087Y010304D01*
X028042Y010286D01*
X027994Y010272D01*
X027946Y010261D01*
X027898Y010254D01*
X027848Y010251D01*
X027799Y010252D01*
X027750Y010257D01*
X027701Y010266D01*
X027654Y010278D01*
X027607Y010295D01*
X027562Y010315D01*
X027519Y010338D01*
X027478Y010365D01*
X027439Y010395D01*
X027402Y010428D01*
X027368Y010464D01*
X027337Y010503D01*
X027310Y010543D01*
X027285Y010586D01*
X027264Y010631D01*
X027247Y010677D01*
X027234Y010724D01*
X027224Y010773D01*
X027218Y010822D01*
X027216Y010871D01*
X027216Y028391D02*
X027218Y028440D01*
X027224Y028489D01*
X027234Y028538D01*
X027247Y028585D01*
X027264Y028631D01*
X027285Y028676D01*
X027310Y028719D01*
X027337Y028759D01*
X027368Y028798D01*
X027402Y028834D01*
X027439Y028867D01*
X027478Y028897D01*
X027519Y028924D01*
X027562Y028947D01*
X027607Y028967D01*
X027654Y028984D01*
X027701Y028996D01*
X027750Y029005D01*
X027799Y029010D01*
X027848Y029011D01*
X027898Y029008D01*
X027946Y029001D01*
X027994Y028990D01*
X028042Y028976D01*
X028087Y028958D01*
X028132Y028936D01*
X028174Y028911D01*
X028214Y028882D01*
X028252Y028851D01*
X028287Y028816D01*
X028320Y028779D01*
X028349Y028739D01*
X028375Y028697D01*
X028398Y028654D01*
X028417Y028608D01*
X028432Y028561D01*
X028444Y028513D01*
X028452Y028465D01*
X028456Y028416D01*
X028456Y028366D01*
X028452Y028317D01*
X028444Y028269D01*
X028432Y028221D01*
X028417Y028174D01*
X028398Y028128D01*
X028375Y028085D01*
X028349Y028043D01*
X028320Y028003D01*
X028287Y027966D01*
X028252Y027931D01*
X028214Y027900D01*
X028174Y027871D01*
X028132Y027846D01*
X028087Y027824D01*
X028042Y027806D01*
X027994Y027792D01*
X027946Y027781D01*
X027898Y027774D01*
X027848Y027771D01*
X027799Y027772D01*
X027750Y027777D01*
X027701Y027786D01*
X027654Y027798D01*
X027607Y027815D01*
X027562Y027835D01*
X027519Y027858D01*
X027478Y027885D01*
X027439Y027915D01*
X027402Y027948D01*
X027368Y027984D01*
X027337Y028023D01*
X027310Y028063D01*
X027285Y028106D01*
X027264Y028151D01*
X027247Y028197D01*
X027234Y028244D01*
X027224Y028293D01*
X027218Y028342D01*
X027216Y028391D01*
X053594Y028391D02*
X053596Y028440D01*
X053602Y028489D01*
X053612Y028538D01*
X053625Y028585D01*
X053642Y028631D01*
X053663Y028676D01*
X053688Y028719D01*
X053715Y028759D01*
X053746Y028798D01*
X053780Y028834D01*
X053817Y028867D01*
X053856Y028897D01*
X053897Y028924D01*
X053940Y028947D01*
X053985Y028967D01*
X054032Y028984D01*
X054079Y028996D01*
X054128Y029005D01*
X054177Y029010D01*
X054226Y029011D01*
X054276Y029008D01*
X054324Y029001D01*
X054372Y028990D01*
X054420Y028976D01*
X054465Y028958D01*
X054510Y028936D01*
X054552Y028911D01*
X054592Y028882D01*
X054630Y028851D01*
X054665Y028816D01*
X054698Y028779D01*
X054727Y028739D01*
X054753Y028697D01*
X054776Y028654D01*
X054795Y028608D01*
X054810Y028561D01*
X054822Y028513D01*
X054830Y028465D01*
X054834Y028416D01*
X054834Y028366D01*
X054830Y028317D01*
X054822Y028269D01*
X054810Y028221D01*
X054795Y028174D01*
X054776Y028128D01*
X054753Y028085D01*
X054727Y028043D01*
X054698Y028003D01*
X054665Y027966D01*
X054630Y027931D01*
X054592Y027900D01*
X054552Y027871D01*
X054510Y027846D01*
X054465Y027824D01*
X054420Y027806D01*
X054372Y027792D01*
X054324Y027781D01*
X054276Y027774D01*
X054226Y027771D01*
X054177Y027772D01*
X054128Y027777D01*
X054079Y027786D01*
X054032Y027798D01*
X053985Y027815D01*
X053940Y027835D01*
X053897Y027858D01*
X053856Y027885D01*
X053817Y027915D01*
X053780Y027948D01*
X053746Y027984D01*
X053715Y028023D01*
X053688Y028063D01*
X053663Y028106D01*
X053642Y028151D01*
X053625Y028197D01*
X053612Y028244D01*
X053602Y028293D01*
X053596Y028342D01*
X053594Y028391D01*
X053594Y010871D02*
X053596Y010920D01*
X053602Y010969D01*
X053612Y011018D01*
X053625Y011065D01*
X053642Y011111D01*
X053663Y011156D01*
X053688Y011199D01*
X053715Y011239D01*
X053746Y011278D01*
X053780Y011314D01*
X053817Y011347D01*
X053856Y011377D01*
X053897Y011404D01*
X053940Y011427D01*
X053985Y011447D01*
X054032Y011464D01*
X054079Y011476D01*
X054128Y011485D01*
X054177Y011490D01*
X054226Y011491D01*
X054276Y011488D01*
X054324Y011481D01*
X054372Y011470D01*
X054420Y011456D01*
X054465Y011438D01*
X054510Y011416D01*
X054552Y011391D01*
X054592Y011362D01*
X054630Y011331D01*
X054665Y011296D01*
X054698Y011259D01*
X054727Y011219D01*
X054753Y011177D01*
X054776Y011134D01*
X054795Y011088D01*
X054810Y011041D01*
X054822Y010993D01*
X054830Y010945D01*
X054834Y010896D01*
X054834Y010846D01*
X054830Y010797D01*
X054822Y010749D01*
X054810Y010701D01*
X054795Y010654D01*
X054776Y010608D01*
X054753Y010565D01*
X054727Y010523D01*
X054698Y010483D01*
X054665Y010446D01*
X054630Y010411D01*
X054592Y010380D01*
X054552Y010351D01*
X054510Y010326D01*
X054465Y010304D01*
X054420Y010286D01*
X054372Y010272D01*
X054324Y010261D01*
X054276Y010254D01*
X054226Y010251D01*
X054177Y010252D01*
X054128Y010257D01*
X054079Y010266D01*
X054032Y010278D01*
X053985Y010295D01*
X053940Y010315D01*
X053897Y010338D01*
X053856Y010365D01*
X053817Y010395D01*
X053780Y010428D01*
X053746Y010464D01*
X053715Y010503D01*
X053688Y010543D01*
X053663Y010586D01*
X053642Y010631D01*
X053625Y010677D01*
X053612Y010724D01*
X053602Y010773D01*
X053596Y010822D01*
X053594Y010871D01*
D11*
X047594Y016390D03*
X046924Y016390D03*
X042001Y016493D03*
X041331Y016493D03*
X035775Y019252D03*
X035775Y019921D03*
X030193Y015643D03*
X030193Y014973D03*
X029380Y015243D03*
X029380Y014573D03*
X028555Y014764D03*
X028555Y014094D03*
X027710Y014163D03*
X027710Y013494D03*
X026810Y013658D03*
X026810Y012989D03*
X025955Y013299D03*
X025955Y012630D03*
X029403Y012469D03*
X030233Y012764D03*
X030233Y013433D03*
X029403Y013138D03*
X031133Y013348D03*
X031133Y014017D03*
X031952Y014073D03*
X031952Y014742D03*
X035276Y011487D03*
X035945Y011487D03*
X031183Y025194D03*
X031183Y025864D03*
X030649Y026934D03*
X030649Y027603D03*
X031400Y028316D03*
X031400Y028985D03*
X029214Y026552D03*
X029214Y025883D03*
D12*
X026596Y026115D03*
X025927Y026115D03*
X025927Y025154D03*
X026596Y025154D03*
X026596Y024229D03*
X025927Y024229D03*
X025927Y023269D03*
X026596Y023269D03*
X026596Y022308D03*
X025927Y022308D03*
X025927Y021379D03*
X026596Y021379D03*
X026596Y020444D03*
X025927Y020444D03*
X025927Y019493D03*
X026596Y019493D03*
X026596Y018556D03*
X025927Y018556D03*
X025927Y017595D03*
X026596Y017595D03*
X026596Y016650D03*
X025927Y016650D03*
X027340Y015487D03*
X028010Y015487D03*
X031568Y015463D03*
X032238Y015463D03*
X028737Y012645D03*
X028068Y012645D03*
X030869Y021614D03*
X031538Y021614D03*
X037587Y025144D03*
X038256Y025144D03*
X033498Y028264D03*
X033498Y028933D03*
X030573Y028475D03*
X029904Y028475D03*
X025488Y031547D03*
X024819Y031547D03*
X024610Y030667D03*
X024610Y029997D03*
X043572Y029721D03*
X044242Y029721D03*
X044252Y028890D03*
X043583Y028890D03*
X043600Y028063D03*
X044270Y028063D03*
X048277Y031624D03*
X048947Y031624D03*
X049880Y023268D03*
X050549Y023268D03*
X050549Y022382D03*
X049880Y022382D03*
X049880Y021496D03*
X050549Y021496D03*
X050549Y020510D03*
X049880Y020510D03*
X049578Y019194D03*
X050247Y019194D03*
X050245Y018388D03*
X049575Y018388D03*
X049569Y017525D03*
X050238Y017525D03*
X050236Y016705D03*
X049567Y016705D03*
X045786Y012509D03*
X045786Y011839D03*
X044924Y011825D03*
X044924Y012494D03*
X049396Y010994D03*
X050065Y010994D03*
D13*
X047075Y017583D03*
X046879Y017583D03*
X046682Y017583D03*
X046485Y017583D03*
X046288Y017583D03*
X046091Y017583D03*
X045894Y017583D03*
X045697Y017583D03*
X045501Y017583D03*
X045304Y017583D03*
X045107Y017583D03*
X044910Y017583D03*
X044713Y017583D03*
X044516Y017583D03*
X044319Y017583D03*
X044123Y017583D03*
X043926Y017583D03*
X043729Y017583D03*
X043532Y017583D03*
X043335Y017583D03*
X043138Y017583D03*
X042942Y017583D03*
X042745Y017583D03*
X042548Y017583D03*
X042351Y017583D03*
X042154Y017583D03*
X041957Y017583D03*
X041760Y017583D03*
X041564Y017583D03*
X041367Y017583D03*
X041170Y017583D03*
X040973Y017583D03*
X040776Y017583D03*
X040579Y017583D03*
X040382Y017583D03*
X040186Y017583D03*
X040186Y025930D03*
X040382Y025930D03*
X040579Y025930D03*
X040776Y025930D03*
X040973Y025930D03*
X041170Y025930D03*
X041367Y025930D03*
X041564Y025930D03*
X041760Y025930D03*
X041957Y025930D03*
X042154Y025930D03*
X042351Y025930D03*
X042548Y025930D03*
X042745Y025930D03*
X042942Y025930D03*
X043138Y025930D03*
X043335Y025930D03*
X043532Y025930D03*
X043729Y025930D03*
X043926Y025930D03*
X044123Y025930D03*
X044319Y025930D03*
X044516Y025930D03*
X044713Y025930D03*
X044910Y025930D03*
X045107Y025930D03*
X045304Y025930D03*
X045501Y025930D03*
X045697Y025930D03*
X045894Y025930D03*
X046091Y025930D03*
X046288Y025930D03*
X046485Y025930D03*
X046682Y025930D03*
X046879Y025930D03*
X047075Y025930D03*
D14*
X047804Y025202D03*
X047804Y025005D03*
X047804Y024808D03*
X047804Y024611D03*
X047804Y024414D03*
X047804Y024217D03*
X047804Y024020D03*
X047804Y023824D03*
X047804Y023627D03*
X047804Y023430D03*
X047804Y023233D03*
X047804Y023036D03*
X047804Y022839D03*
X047804Y022643D03*
X047804Y022446D03*
X047804Y022249D03*
X047804Y022052D03*
X047804Y021855D03*
X047804Y021658D03*
X047804Y021461D03*
X047804Y021265D03*
X047804Y021068D03*
X047804Y020871D03*
X047804Y020674D03*
X047804Y020477D03*
X047804Y020280D03*
X047804Y020083D03*
X047804Y019887D03*
X047804Y019690D03*
X047804Y019493D03*
X047804Y019296D03*
X047804Y019099D03*
X047804Y018902D03*
X047804Y018706D03*
X047804Y018509D03*
X047804Y018312D03*
X039457Y018312D03*
X039457Y018509D03*
X039457Y018706D03*
X039457Y018902D03*
X039457Y019099D03*
X039457Y019296D03*
X039457Y019493D03*
X039457Y019690D03*
X039457Y019887D03*
X039457Y020083D03*
X039457Y020280D03*
X039457Y020477D03*
X039457Y020674D03*
X039457Y020871D03*
X039457Y021068D03*
X039457Y021265D03*
X039457Y021461D03*
X039457Y021658D03*
X039457Y021855D03*
X039457Y022052D03*
X039457Y022249D03*
X039457Y022446D03*
X039457Y022643D03*
X039457Y022839D03*
X039457Y023036D03*
X039457Y023233D03*
X039457Y023430D03*
X039457Y023627D03*
X039457Y023824D03*
X039457Y024020D03*
X039457Y024217D03*
X039457Y024414D03*
X039457Y024611D03*
X039457Y024808D03*
X039457Y025005D03*
X039457Y025202D03*
D15*
X051067Y031040D03*
X052067Y031040D03*
X052067Y032040D03*
X051067Y032040D03*
X023607Y032040D03*
X022607Y032040D03*
X022607Y031040D03*
X023607Y031040D03*
X020990Y026713D03*
X020990Y025713D03*
X020990Y024713D03*
X020990Y023713D03*
X019990Y023713D03*
X019990Y024713D03*
X019990Y025713D03*
X019990Y026713D03*
X019990Y022713D03*
X019990Y021713D03*
X019990Y020713D03*
X019990Y019713D03*
X019990Y018713D03*
X019990Y017713D03*
X019990Y016713D03*
X020990Y016713D03*
X020990Y017713D03*
X020990Y018713D03*
X020990Y019713D03*
X020990Y020713D03*
X020990Y021713D03*
X020990Y022713D03*
X020990Y015713D03*
X020990Y014713D03*
X020990Y013713D03*
X020990Y012713D03*
X019990Y012713D03*
X019990Y013713D03*
X019990Y014713D03*
X019990Y015713D03*
D16*
X045054Y028109D03*
X045054Y028890D03*
X045054Y029721D03*
X046174Y029721D03*
X046174Y028890D03*
X046174Y028109D03*
X049623Y012962D03*
X049623Y011842D03*
D17*
X026454Y027147D03*
X025706Y027147D03*
D18*
X032078Y027678D03*
X032268Y027678D03*
X032468Y027678D03*
X032668Y027678D03*
X032858Y027678D03*
X032858Y025958D03*
X032668Y025958D03*
X032468Y025958D03*
X032268Y025958D03*
X032078Y025958D03*
D19*
X032468Y026818D03*
D20*
X051293Y023488D02*
X051893Y023488D01*
X051893Y022488D02*
X051293Y022488D01*
X051293Y021488D02*
X051893Y021488D01*
X051893Y020488D02*
X051293Y020488D01*
X048715Y012287D02*
X048115Y012287D01*
X048115Y011287D02*
X048715Y011287D01*
D21*
X031718Y022868D03*
X031718Y024364D03*
D22*
X028554Y030002D03*
X026068Y030002D03*
X026068Y030986D03*
D23*
X028556Y030734D03*
D24*
X041567Y029094D03*
X041567Y028894D03*
X041567Y028694D03*
X041567Y028494D03*
X042687Y028494D03*
X042687Y028694D03*
X042687Y028894D03*
X042687Y029094D03*
D25*
X045916Y015028D03*
X045916Y014768D03*
X045916Y014518D03*
X045916Y014258D03*
X045916Y013998D03*
X045916Y013748D03*
X045916Y013488D03*
X048216Y013488D03*
X048216Y013748D03*
X048216Y013998D03*
X048216Y014258D03*
X048216Y014518D03*
X048216Y014768D03*
X048216Y015028D03*
X043460Y013290D03*
X043460Y013030D03*
X043460Y012780D03*
X043460Y012520D03*
X043460Y012260D03*
X043460Y012010D03*
X043460Y011750D03*
X041160Y011750D03*
X041160Y012010D03*
X041160Y012260D03*
X041160Y012520D03*
X041160Y012780D03*
X041160Y013030D03*
X041160Y013290D03*
X038089Y013349D03*
X038089Y013599D03*
X038089Y013859D03*
X038089Y014119D03*
X038089Y014369D03*
X038089Y014629D03*
X038089Y013089D03*
X035789Y013089D03*
X035789Y013349D03*
X035789Y013599D03*
X035789Y013859D03*
X035789Y014119D03*
X035789Y014369D03*
X035789Y014629D03*
D26*
X035464Y024079D03*
X033909Y024083D03*
D27*
X049354Y025829D03*
X050354Y025829D03*
X051354Y025829D03*
X052354Y025829D03*
X052354Y029329D03*
X051354Y029329D03*
X050354Y029329D03*
X049354Y029329D03*
D28*
X038817Y029292D03*
D29*
X037817Y029292D03*
X037817Y028292D03*
X038817Y028292D03*
X036817Y028292D03*
X036817Y029292D03*
D30*
X037518Y023605D03*
X037518Y021440D03*
D31*
X023006Y011717D03*
D32*
X024006Y011717D03*
X024006Y012717D03*
X023006Y012717D03*
X023006Y013717D03*
X024006Y013717D03*
X024006Y014717D03*
X023006Y014717D03*
X023006Y015717D03*
X024006Y015717D03*
X024006Y016717D03*
X023006Y016717D03*
X023006Y017717D03*
X024006Y017717D03*
X024006Y018717D03*
X023006Y018717D03*
X023006Y019717D03*
X024006Y019717D03*
X024006Y020717D03*
X023006Y020717D03*
X023006Y021717D03*
X024006Y021717D03*
X024006Y022717D03*
X023006Y022717D03*
X023006Y023717D03*
X024006Y023717D03*
X024006Y024717D03*
X023006Y024717D03*
X023006Y025717D03*
X024006Y025717D03*
X024006Y026717D03*
X023006Y026717D03*
D33*
X053801Y022479D03*
X054175Y022479D03*
X054549Y022479D03*
X054549Y021494D03*
X054175Y021494D03*
X053801Y021494D03*
D34*
X034804Y021304D03*
X034804Y021107D03*
X034804Y020910D03*
X034804Y020713D03*
X034804Y020516D03*
X034804Y020319D03*
X034804Y020122D03*
X034804Y019926D03*
X034804Y019729D03*
X034804Y019532D03*
X034804Y019335D03*
X034804Y019138D03*
X034804Y018941D03*
X034804Y018744D03*
X034804Y018548D03*
X034804Y018351D03*
X034804Y018154D03*
X034804Y017957D03*
X034804Y017760D03*
X034804Y017563D03*
X034804Y017367D03*
X034804Y017170D03*
X032146Y017170D03*
X032146Y017367D03*
X032146Y017563D03*
X032146Y017760D03*
X032146Y017957D03*
X032146Y018154D03*
X032146Y018351D03*
X032146Y018548D03*
X032146Y018744D03*
X032146Y018941D03*
X032146Y019138D03*
X032146Y019335D03*
X032146Y019532D03*
X032146Y019729D03*
X032146Y019926D03*
X032146Y020122D03*
X032146Y020319D03*
X032146Y020516D03*
X032146Y020713D03*
X032146Y020910D03*
X032146Y021107D03*
X032146Y021304D03*
D35*
X035245Y018941D02*
X035625Y018537D01*
X035625Y018187D01*
X035275Y018941D02*
X035486Y019252D01*
X035775Y019252D01*
X036340Y019252D01*
X036375Y019287D01*
X038931Y019493D02*
X039457Y019493D01*
X038931Y019493D02*
X035725Y016287D01*
X027975Y016287D01*
X027340Y015652D01*
X027340Y015487D01*
X026775Y015487D01*
X025075Y013787D01*
X025075Y012787D01*
X024006Y011717D01*
X033923Y011558D02*
X033923Y014119D01*
X035789Y014119D01*
X035789Y014369D02*
X035789Y014629D01*
X035789Y013859D02*
X034376Y013859D01*
X034375Y011487D01*
X034375Y010687D01*
X034375Y011487D02*
X035276Y011487D01*
X034809Y011852D02*
X034809Y013599D01*
X035789Y013599D01*
X035789Y013349D02*
X035789Y013089D01*
X035596Y012721D02*
X035596Y012150D01*
X035596Y012721D02*
X038805Y012721D01*
X038805Y013599D01*
X038089Y013599D01*
X038089Y013349D02*
X038089Y013089D01*
X038089Y013859D02*
X039317Y013859D01*
X039317Y013430D01*
X039789Y014119D02*
X038089Y014119D01*
X038089Y014369D02*
X038089Y014629D01*
X039789Y014119D02*
X039789Y012485D01*
X036285Y012485D01*
X036088Y012446D01*
X040122Y011761D02*
X040372Y012780D01*
X041160Y012780D01*
X041160Y012260D02*
X040566Y012260D01*
X040516Y012057D01*
X043460Y012260D02*
X043927Y012260D01*
X044174Y011914D01*
X043840Y012773D02*
X043460Y012780D01*
X043460Y012520D02*
X043471Y012520D01*
X043840Y012773D02*
X044144Y012957D01*
X045325Y012970D02*
X045786Y012509D01*
X045688Y012459D01*
X045325Y012970D02*
X045325Y014258D01*
X045916Y014258D01*
X045916Y013748D02*
X045916Y013488D01*
X045916Y014768D02*
X045916Y015028D01*
X047596Y014258D02*
X048216Y014258D01*
X048216Y013748D02*
X048216Y013488D01*
X048216Y014768D02*
X048216Y015028D01*
X047075Y017583D02*
X046879Y017583D01*
X047083Y018509D02*
X047005Y018587D01*
X047083Y018509D02*
X047804Y018509D01*
X047804Y018312D01*
X048525Y021613D02*
X048382Y021855D01*
X047804Y021855D01*
X047804Y023233D02*
X048921Y023233D01*
X051354Y025665D01*
X051354Y025829D01*
X051354Y025665D02*
X051354Y025065D01*
X051350Y025062D01*
X050354Y025215D02*
X048568Y023430D01*
X047804Y023430D01*
X047804Y024020D02*
X046768Y024020D01*
X046768Y024060D01*
X047804Y024217D02*
X048504Y024217D01*
X048734Y024344D01*
X049354Y024964D01*
X049354Y025829D01*
X050354Y025829D02*
X050354Y025215D01*
X049919Y023268D02*
X049821Y023110D01*
X049880Y023268D01*
X049825Y022487D02*
X049880Y022382D01*
X049825Y022487D02*
X049725Y022487D01*
X044319Y025930D02*
X044319Y026520D01*
X043352Y026865D01*
X042351Y026761D02*
X042351Y025930D01*
X042154Y025930D02*
X042154Y026457D01*
X041725Y026687D01*
X042025Y027087D02*
X041023Y027087D01*
X038817Y029292D01*
X037817Y028292D02*
X038256Y027703D01*
X038256Y025144D01*
X038325Y025044D01*
X038325Y022187D01*
X038702Y021843D01*
X038993Y022052D02*
X038696Y022340D01*
X038993Y022052D02*
X039457Y022052D01*
X039457Y022249D02*
X040312Y022249D01*
X040312Y022328D01*
X040312Y021343D02*
X040233Y021265D01*
X039457Y021265D01*
X039457Y021461D02*
X038883Y021457D01*
X038793Y021411D01*
X038706Y021411D01*
X038594Y021068D02*
X039457Y021068D01*
X039457Y020871D02*
X038198Y020871D01*
X037596Y021536D01*
X037518Y021440D01*
X038055Y021607D02*
X038055Y022218D01*
X037518Y023605D01*
X038055Y021607D02*
X038594Y021068D01*
X039457Y021461D02*
X039457Y021658D01*
X039457Y020674D02*
X040408Y020674D01*
X043068Y018391D02*
X043138Y018320D01*
X043138Y017583D01*
X042942Y017583D02*
X042942Y016690D01*
X042831Y016580D01*
X042001Y016493D02*
X041957Y016493D01*
X041957Y017583D01*
X041760Y017583D02*
X041760Y017119D01*
X041331Y016493D01*
X041886Y025083D02*
X041957Y025154D01*
X041957Y025930D01*
X042351Y026761D02*
X042025Y027087D01*
X041494Y028127D02*
X041494Y028421D01*
X042417Y029094D02*
X042419Y029488D01*
X042420Y029587D01*
X042417Y029094D02*
X042687Y029094D01*
X044123Y025930D02*
X044123Y025154D01*
X044052Y025083D01*
X051354Y029329D02*
X051350Y030450D01*
X051565Y030762D01*
X051565Y031640D01*
X051067Y032040D01*
X032468Y028543D02*
X032468Y027678D01*
X032468Y028543D02*
X032225Y028737D01*
X031870Y028737D01*
X031400Y028316D01*
X031400Y028985D02*
X030573Y028475D01*
D36*
X030575Y029162D03*
X030625Y029987D03*
X029525Y029187D03*
X030150Y027912D03*
X028230Y026548D03*
X027146Y026115D03*
X027146Y025127D03*
X027146Y024230D03*
X027146Y023264D03*
X027146Y022308D03*
X027146Y021387D03*
X027146Y020452D03*
X027146Y019498D03*
X027146Y018553D03*
X027088Y017580D03*
X027146Y016639D03*
X034125Y022087D03*
X036297Y021787D03*
X036416Y022562D03*
X036947Y024187D03*
X038925Y026687D03*
X042887Y024550D03*
X045387Y023850D03*
X045981Y020517D03*
X041650Y018942D03*
X042831Y016580D03*
X050225Y015987D03*
X052350Y024987D03*
X051350Y025062D03*
X048291Y029887D03*
X048941Y030887D03*
X043725Y030387D03*
X032901Y025131D03*
X032268Y025106D03*
X031025Y022862D03*
X032371Y029433D03*
X026075Y030487D03*
X026075Y031987D03*
D37*
X028556Y030734D02*
X029350Y030737D01*
X030028Y029984D01*
X030625Y029987D01*
X030004Y029562D02*
X032275Y029562D01*
X032371Y029433D01*
X030004Y029562D02*
X029904Y028475D01*
X029675Y028075D01*
X029675Y027147D01*
X026454Y027147D01*
X029525Y029187D02*
X028904Y030007D01*
X028554Y030002D01*
X030150Y027912D02*
X030342Y027603D01*
X030649Y027603D01*
X032925Y025905D02*
X033496Y025905D01*
X031718Y024364D02*
X031183Y025194D01*
X031025Y022862D02*
X031718Y022868D01*
X034125Y022287D02*
X034125Y022087D01*
X035364Y022287D02*
X035389Y022562D01*
X036416Y022562D01*
X036297Y021787D02*
X037596Y021536D01*
X037518Y023605D02*
X036947Y024187D01*
X036817Y028292D02*
X036719Y028292D01*
X036025Y028987D01*
X036025Y029987D01*
X036425Y030387D01*
X042425Y030387D01*
X043725Y030387D01*
X045708Y030387D01*
X046174Y029721D01*
X046174Y028890D01*
X046174Y028109D01*
X046175Y028087D02*
X046175Y027187D01*
X046775Y026687D01*
X047975Y026687D01*
X048700Y025887D01*
X048700Y024512D01*
X048734Y024344D01*
X045054Y028063D02*
X044270Y028063D01*
X045054Y028063D02*
X045054Y028109D01*
X045054Y028890D02*
X044252Y028890D01*
X044242Y029721D02*
X045054Y029721D01*
X042420Y029587D02*
X042425Y030387D01*
X050245Y019097D02*
X050245Y018388D01*
X050238Y018431D02*
X050238Y017525D01*
X050236Y017574D02*
X050236Y016705D01*
X050225Y016694D01*
X050225Y015987D01*
X047038Y012509D02*
X045786Y012509D01*
X045786Y011839D02*
X045772Y011825D01*
X045375Y011825D01*
X045356Y011806D01*
X045356Y011313D01*
X045375Y011825D02*
X044924Y011825D01*
X044938Y011839D01*
X047038Y012509D02*
X047356Y012190D01*
X041804Y015946D02*
X042001Y016493D01*
X041804Y015946D02*
X041749Y015891D01*
X039780Y015891D01*
X038497Y017120D01*
X033175Y014687D02*
X032575Y014687D01*
X032575Y015226D01*
X032238Y015463D01*
X032238Y015987D01*
X030537Y015987D01*
X030193Y015643D01*
X029780Y015643D01*
X029380Y015243D01*
X029033Y015243D01*
X028555Y014764D01*
X028310Y014764D01*
X027710Y014163D01*
X027315Y014163D01*
X026810Y013658D01*
X026314Y013658D01*
X025955Y013299D01*
X023041Y014682D02*
X023041Y014713D01*
X023041Y014737D01*
X028737Y012645D02*
X028979Y012470D01*
X029403Y012469D01*
X029738Y012469D01*
X030233Y012764D01*
X030548Y012764D01*
X031133Y013348D01*
X031227Y013348D01*
X031952Y014073D01*
X032161Y014073D01*
X032575Y014487D01*
X032575Y014687D01*
X027146Y024230D02*
X026596Y024229D01*
D38*
X027146Y024230D02*
X027732Y024230D01*
X029540Y019922D01*
X032146Y019926D01*
X032146Y020122D02*
X029692Y020119D01*
X027771Y024690D01*
X024033Y024690D01*
X024006Y024717D01*
X024088Y025635D02*
X024006Y025717D01*
X024088Y025635D02*
X027769Y025635D01*
X029991Y020513D01*
X032146Y020516D01*
X032146Y020319D02*
X029846Y020316D01*
X027785Y025127D01*
X027146Y025127D01*
X027146Y026115D02*
X027775Y026115D01*
X030125Y020709D01*
X032146Y020713D01*
X032146Y020910D02*
X030275Y020906D01*
X027825Y026580D01*
X024144Y026580D01*
X024006Y026717D01*
X024033Y023745D02*
X024006Y023717D01*
X024033Y023745D02*
X027722Y023745D01*
X029392Y019725D01*
X032146Y019729D01*
X032146Y019532D02*
X029233Y019528D01*
X027697Y023264D01*
X027146Y023264D01*
X027674Y022800D02*
X029042Y019331D01*
X032146Y019335D01*
X032146Y019138D02*
X028877Y019135D01*
X027659Y022303D01*
X027146Y022308D01*
X027630Y021855D02*
X028722Y018938D01*
X032146Y018941D01*
X032146Y018744D02*
X028571Y018741D01*
X027599Y021388D01*
X027146Y021387D01*
X027576Y020910D02*
X028418Y018544D01*
X032146Y018548D01*
X032146Y018351D02*
X028268Y018347D01*
X027539Y020452D01*
X027146Y020452D01*
X027493Y019965D02*
X028132Y018150D01*
X032146Y018154D01*
X032146Y017957D02*
X027975Y017954D01*
X027430Y019498D01*
X027146Y019498D01*
X027374Y019020D02*
X027838Y017757D01*
X032146Y017760D01*
X032146Y017563D02*
X027683Y017560D01*
X027325Y018568D01*
X027160Y018568D01*
X027160Y018567D02*
X027155Y018566D01*
X027150Y018563D01*
X027147Y018558D01*
X027146Y018553D01*
X027374Y019020D02*
X024677Y019020D01*
X024147Y018706D01*
X024018Y018706D01*
X024006Y018717D01*
X024010Y017721D02*
X024006Y017717D01*
X024010Y017721D02*
X024487Y017721D01*
X024774Y018076D01*
X027286Y018076D01*
X027549Y017363D01*
X032146Y017367D01*
X032146Y017170D02*
X027309Y017166D01*
X027088Y017580D01*
X026846Y017131D02*
X027007Y016969D01*
X032558Y016969D01*
X032758Y017170D01*
X034804Y017170D01*
X034804Y017367D02*
X035195Y017367D01*
X035375Y017187D01*
X035375Y016987D01*
X035175Y016787D01*
X027275Y016787D01*
X027146Y016657D01*
X027146Y016639D01*
X027377Y016186D02*
X027827Y016580D01*
X035268Y016580D01*
X035575Y016887D01*
X035575Y017287D01*
X035298Y017563D01*
X034804Y017563D01*
X034804Y017760D02*
X035676Y017760D01*
X035875Y017587D01*
X034804Y017957D02*
X034804Y018154D01*
X034804Y017957D02*
X034320Y017957D01*
X034175Y017687D01*
X034342Y018744D02*
X034804Y018744D01*
X034804Y018941D02*
X035245Y018941D01*
X035275Y018941D01*
X034804Y019138D02*
X034348Y019138D01*
X034150Y019537D01*
X034286Y019926D01*
X034804Y019926D01*
X034804Y020122D01*
X034804Y020319D01*
X034804Y020516D01*
X034804Y020713D02*
X035174Y020713D01*
X035375Y020487D01*
X035775Y020326D02*
X035775Y020687D01*
X035552Y020910D01*
X034804Y020910D01*
X034804Y021107D02*
X034395Y021107D01*
X034175Y020887D01*
X034175Y020462D01*
X034186Y020423D01*
X034804Y021304D02*
X035711Y021304D01*
X036591Y020816D01*
X036590Y020817D01*
X037242Y020477D01*
X039457Y020477D01*
X039457Y020280D02*
X036910Y020280D01*
X036304Y020387D01*
X036275Y020387D01*
X035995Y020106D02*
X035960Y020106D01*
X035775Y019921D01*
X035995Y020106D02*
X035775Y020326D01*
X035995Y020106D02*
X036018Y020083D01*
X039457Y020083D01*
X039457Y019887D02*
X036896Y019887D01*
X036389Y019788D01*
X034342Y018744D02*
X034175Y018787D01*
X032146Y021107D02*
X030425Y021103D01*
X028230Y026548D01*
X031073Y026533D02*
X036113Y026533D01*
X036113Y026435D02*
X034175Y026435D01*
X034175Y026462D02*
X034175Y025935D01*
X036113Y025935D01*
X036113Y028009D01*
X034126Y028009D01*
X034126Y027165D01*
X031073Y027165D01*
X031073Y026460D01*
X034175Y026462D01*
X034175Y026336D02*
X036113Y026336D01*
X036113Y026238D02*
X034175Y026238D01*
X034175Y026139D02*
X036113Y026139D01*
X036113Y026041D02*
X034175Y026041D01*
X034175Y025942D02*
X036113Y025942D01*
X036113Y026632D02*
X031073Y026632D01*
X031073Y026730D02*
X036113Y026730D01*
X036113Y026829D02*
X031073Y026829D01*
X031073Y026927D02*
X036113Y026927D01*
X036113Y027026D02*
X031073Y027026D01*
X031073Y027124D02*
X036113Y027124D01*
X036113Y027223D02*
X034126Y027223D01*
X034126Y027321D02*
X036113Y027321D01*
X036113Y027420D02*
X034126Y027420D01*
X034126Y027518D02*
X036113Y027518D01*
X036113Y027617D02*
X034126Y027617D01*
X034126Y027715D02*
X036113Y027715D01*
X036113Y027814D02*
X034126Y027814D01*
X034126Y027912D02*
X036113Y027912D01*
X033498Y027637D02*
X033496Y027637D01*
X032858Y027678D02*
X032858Y028583D01*
X033498Y028933D01*
X032668Y028911D02*
X032371Y029433D01*
X032668Y028911D02*
X032668Y027678D01*
X032472Y027682D02*
X032468Y027678D01*
X032268Y027678D02*
X032268Y028179D01*
X032071Y028376D01*
X032078Y027678D02*
X031424Y027684D01*
X032468Y026818D02*
X032668Y026818D01*
X032668Y025958D01*
X032858Y025958D02*
X032925Y025958D01*
X032925Y025905D01*
X032866Y025958D02*
X032858Y025958D01*
X032468Y025958D02*
X032472Y025432D01*
X032901Y025131D01*
X032268Y025106D02*
X032268Y025958D01*
X027674Y022800D02*
X024088Y022800D01*
X024006Y022717D01*
X024323Y021855D02*
X027630Y021855D01*
X027576Y020910D02*
X024299Y020910D01*
X024006Y020713D01*
X024010Y020713D01*
X024006Y020717D01*
X024359Y019965D02*
X027493Y019965D01*
X024359Y019965D02*
X024026Y019729D01*
X024018Y019729D01*
X024006Y019717D01*
X024057Y021698D02*
X024108Y021698D01*
X024323Y021855D01*
X024932Y017131D02*
X024402Y016698D01*
X024025Y016698D01*
X024006Y016717D01*
X024932Y017131D02*
X026846Y017131D01*
X027377Y016186D02*
X025071Y016186D01*
X024677Y015713D01*
X024010Y015713D01*
X024006Y015717D01*
X032146Y021304D02*
X032153Y021310D01*
X032153Y021487D01*
X032153Y021746D01*
X032153Y021310D02*
X032153Y021300D01*
X038702Y021843D02*
X039011Y021855D01*
X039457Y021855D01*
X041650Y018942D02*
X041760Y018942D01*
X041760Y017583D01*
X043335Y017583D02*
X043335Y015547D01*
X043185Y015397D01*
X037224Y015397D01*
X035789Y014629D01*
X036246Y013351D02*
X037427Y015141D01*
X043229Y015141D01*
X043532Y015444D01*
X043532Y017583D01*
X043729Y017583D02*
X043729Y015341D01*
X043314Y014926D01*
X037545Y014926D01*
X037545Y013351D01*
X038087Y013351D01*
X038089Y013349D01*
X038089Y014629D02*
X043317Y014629D01*
X043926Y015237D01*
X043926Y017583D01*
X044123Y017583D02*
X044123Y015134D01*
X043403Y014414D01*
X042283Y014414D01*
X041160Y013290D01*
X041160Y013030D01*
X041160Y013290D02*
X041160Y013292D01*
X041160Y012520D02*
X041991Y012520D01*
X041991Y012446D01*
X042475Y012287D02*
X042039Y011750D01*
X041160Y011750D01*
X041160Y012010D01*
X042475Y012287D02*
X042475Y013587D01*
X043048Y014210D01*
X043448Y014210D01*
X044319Y015031D01*
X044319Y017583D01*
X044516Y017583D02*
X044516Y014928D01*
X043575Y013987D01*
X043175Y013987D01*
X042775Y013587D01*
X042775Y012387D01*
X043151Y012010D01*
X043460Y012010D01*
X043460Y011750D01*
X043460Y013030D02*
X043460Y013290D01*
X044713Y014544D01*
X044713Y017583D01*
X044910Y017583D02*
X044910Y016034D01*
X045916Y015028D01*
X045916Y014518D02*
X045165Y014518D01*
X044765Y013975D01*
X045916Y013998D02*
X046573Y013998D01*
X046573Y014247D01*
X046875Y013948D02*
X046675Y013748D01*
X045916Y013748D01*
X046875Y013948D02*
X046875Y014687D01*
X045304Y016258D01*
X045304Y017583D01*
X045697Y017583D02*
X045697Y016364D01*
X047175Y014887D01*
X047175Y014087D01*
X047513Y013748D01*
X048216Y013748D01*
X048216Y013998D02*
X048589Y013998D01*
X048792Y014011D01*
X048721Y014518D02*
X048216Y014518D01*
X048721Y014518D02*
X048871Y014595D01*
X048216Y015028D02*
X047503Y015028D01*
X046091Y016440D01*
X046091Y017583D01*
X048525Y017747D02*
X049567Y016705D01*
X049514Y016705D01*
X049526Y016694D01*
X049515Y017483D02*
X049569Y017525D01*
X049386Y017525D01*
X048725Y018187D01*
X048725Y020187D01*
X048434Y020477D01*
X047804Y020477D01*
X047804Y020280D02*
X048231Y020280D01*
X048525Y019987D01*
X048525Y017747D01*
X049225Y018387D02*
X049574Y018387D01*
X049575Y018388D01*
X049576Y018355D01*
X049225Y018387D02*
X048925Y018687D01*
X048925Y020287D01*
X048538Y020674D01*
X047804Y020674D01*
X047804Y020871D02*
X048641Y020871D01*
X049125Y020387D01*
X049125Y019487D01*
X049425Y019187D01*
X049571Y019187D01*
X049578Y019194D01*
X049562Y019190D01*
X049880Y020510D02*
X049038Y022052D01*
X047804Y022052D01*
X047804Y022249D02*
X049327Y022249D01*
X049880Y021496D01*
X049880Y022382D02*
X049816Y022446D01*
X047804Y022446D01*
X047804Y022643D02*
X049355Y022643D01*
X049880Y023268D01*
X048525Y021613D02*
X048525Y021587D01*
X045697Y025930D02*
X045697Y026814D01*
X045600Y027087D01*
X045175Y027487D02*
X044725Y027487D01*
X045501Y026511D01*
X045501Y025930D01*
X045304Y025930D02*
X045304Y026408D01*
X044625Y027287D01*
X041625Y027287D01*
X041025Y027887D01*
X041025Y029159D01*
X041100Y029184D01*
X041100Y029094D01*
X041567Y029094D01*
X041567Y028894D02*
X042136Y028894D01*
X042136Y028105D01*
X042454Y027788D01*
X043311Y027788D01*
X043600Y028063D01*
X043139Y028494D02*
X042687Y028494D01*
X042687Y028694D02*
X042331Y028694D01*
X042331Y028250D01*
X042828Y028153D01*
X043139Y028494D02*
X043583Y028890D01*
X043059Y028894D02*
X042687Y028894D01*
X043059Y028894D02*
X043356Y029696D01*
X043572Y029721D01*
X042420Y029587D02*
X042420Y029389D01*
X042419Y029488D01*
X041950Y028694D02*
X041950Y027987D01*
X042425Y027487D01*
X044725Y027487D01*
X041950Y028694D02*
X041567Y028694D01*
X041567Y028494D02*
X041494Y028421D01*
X036246Y013351D02*
X035791Y013351D01*
X035789Y013349D01*
X035945Y011487D02*
X036255Y011468D01*
X036495Y011368D01*
D39*
X041991Y012446D03*
X047596Y014258D03*
X048125Y016387D03*
X047925Y017585D03*
X048525Y021587D03*
X054175Y021987D03*
X045600Y027087D03*
X045175Y027487D03*
X043352Y026865D03*
X041725Y026687D03*
X041494Y028127D03*
X041100Y029184D03*
X042419Y029488D03*
X042828Y028153D03*
X038696Y022340D03*
X036590Y020817D03*
X036275Y020387D03*
X036389Y019788D03*
X036375Y019287D03*
X035375Y020487D03*
X034186Y020423D03*
X032071Y028376D03*
D40*
X022607Y031040D02*
X022561Y031087D01*
X021975Y031087D01*
X021675Y031387D01*
X021675Y032487D01*
X022175Y032887D01*
X051791Y032887D01*
X052067Y032610D01*
X052067Y032040D01*
D41*
X052975Y031132D01*
X052975Y028787D01*
X052675Y028487D01*
X050096Y028487D01*
X049354Y029329D01*
X048849Y029329D01*
X048291Y029887D01*
X048941Y030887D02*
X048947Y031624D01*
X048277Y031624D02*
X048277Y032187D01*
X049575Y032187D01*
X049675Y032087D01*
X049675Y031487D01*
X050354Y030808D01*
X050354Y029329D01*
X051037Y031040D02*
X051067Y031040D01*
X051037Y031040D02*
X049891Y032187D01*
X049575Y032187D01*
X050091Y032487D02*
X024954Y032487D01*
X023607Y031040D01*
X024331Y030487D02*
X022875Y030487D01*
X022607Y030854D01*
X022607Y031040D01*
X024331Y030487D02*
X024610Y030667D01*
X024610Y031138D01*
X024819Y031547D01*
X025488Y031547D02*
X025807Y031247D01*
X026068Y030986D01*
X026075Y030487D02*
X026068Y030380D01*
X026068Y030002D01*
X026064Y029997D01*
X024610Y029997D01*
X026075Y031987D02*
X026375Y032187D01*
X048277Y032187D01*
X050091Y032487D02*
X050537Y032040D01*
X051067Y032040D01*
X052067Y031040D02*
X052367Y030715D01*
X052354Y029329D01*
X052354Y025829D02*
X052350Y025825D01*
X052350Y024987D01*
X051593Y023488D02*
X051068Y023488D01*
X050549Y023268D01*
X050459Y022488D02*
X051593Y022488D01*
X053801Y022488D01*
X053801Y022479D01*
X054175Y022479D02*
X054175Y021987D01*
X054175Y021494D01*
X054549Y021494D02*
X054549Y020961D01*
X054075Y020487D01*
X051594Y020487D01*
X051593Y020488D01*
X050475Y020488D01*
X050549Y020510D01*
X050557Y021488D02*
X051593Y021488D01*
X053701Y021488D01*
X053801Y021494D01*
X054549Y022479D02*
X054549Y023013D01*
X053975Y023487D01*
X051375Y023487D01*
X051375Y023488D01*
X051593Y023488D01*
X050459Y022488D02*
X050549Y022382D01*
X050549Y021496D02*
X050557Y021488D01*
X050247Y019194D02*
X050245Y019097D01*
X050238Y018431D02*
X050245Y018388D01*
X050236Y017574D02*
X050238Y017525D01*
X048125Y016387D02*
X047597Y016387D01*
X047594Y016390D01*
X047075Y016741D02*
X047075Y017583D01*
X047077Y017585D01*
X047925Y017585D01*
X047075Y016741D02*
X046924Y016390D01*
X046821Y018194D02*
X046812Y018263D01*
X042546Y021513D01*
X042382Y021491D01*
X042281Y021359D01*
X042304Y021195D01*
X046243Y018194D01*
X043774Y018194D01*
X043776Y018217D01*
X041899Y020510D01*
X041735Y020527D01*
X041606Y020422D01*
X041590Y020257D01*
X043278Y018194D01*
X040115Y018194D01*
X040115Y020120D01*
X040799Y020120D01*
X040916Y020237D01*
X040916Y022374D01*
X040799Y022491D01*
X040633Y022491D01*
X040516Y022374D01*
X040516Y020520D01*
X040115Y020520D01*
X040115Y025280D01*
X042046Y025280D01*
X041087Y022979D01*
X041150Y022826D01*
X041303Y022762D01*
X041456Y022825D01*
X042479Y025280D01*
X044700Y025280D01*
X041988Y022568D01*
X041988Y022402D01*
X042105Y022285D01*
X042270Y022285D01*
X045262Y025276D01*
X045262Y025280D01*
X047201Y025280D01*
X047201Y023580D01*
X042936Y022158D01*
X042862Y022010D01*
X042915Y021853D01*
X043063Y021779D01*
X047201Y023158D01*
X047201Y018194D01*
X046821Y018194D01*
X046780Y018287D02*
X047201Y018287D01*
X047201Y018446D02*
X046572Y018446D01*
X046364Y018604D02*
X047201Y018604D01*
X047201Y018763D02*
X046156Y018763D01*
X045948Y018921D02*
X047201Y018921D01*
X047201Y019080D02*
X045740Y019080D01*
X045532Y019238D02*
X047201Y019238D01*
X047201Y019397D02*
X045324Y019397D01*
X045116Y019555D02*
X047201Y019555D01*
X047201Y019714D02*
X044908Y019714D01*
X044700Y019872D02*
X047201Y019872D01*
X047201Y020031D02*
X044492Y020031D01*
X044284Y020189D02*
X047201Y020189D01*
X047201Y020348D02*
X044076Y020348D01*
X043868Y020506D02*
X047201Y020506D01*
X047201Y020665D02*
X043660Y020665D01*
X043452Y020823D02*
X047201Y020823D01*
X047201Y020982D02*
X043244Y020982D01*
X043036Y021140D02*
X047201Y021140D01*
X047201Y021299D02*
X042828Y021299D01*
X042620Y021457D02*
X047201Y021457D01*
X047201Y021616D02*
X040916Y021616D01*
X040916Y021774D02*
X047201Y021774D01*
X047201Y021933D02*
X043525Y021933D01*
X043211Y022250D02*
X040916Y022250D01*
X040916Y022091D02*
X042903Y022091D01*
X042888Y021933D02*
X040916Y021933D01*
X040516Y021933D02*
X040115Y021933D01*
X040115Y022091D02*
X040516Y022091D01*
X040516Y022250D02*
X040115Y022250D01*
X040115Y022408D02*
X040550Y022408D01*
X040882Y022408D02*
X041988Y022408D01*
X041988Y022567D02*
X040115Y022567D01*
X040115Y022725D02*
X042145Y022725D01*
X042303Y022884D02*
X041480Y022884D01*
X041546Y023042D02*
X042462Y023042D01*
X042620Y023201D02*
X041612Y023201D01*
X041679Y023359D02*
X042779Y023359D01*
X042937Y023518D02*
X041745Y023518D01*
X041811Y023676D02*
X043096Y023676D01*
X043254Y023835D02*
X041877Y023835D01*
X041943Y023993D02*
X043413Y023993D01*
X043571Y024152D02*
X042009Y024152D01*
X042075Y024310D02*
X043730Y024310D01*
X043888Y024469D02*
X042141Y024469D01*
X042207Y024627D02*
X044047Y024627D01*
X044205Y024786D02*
X042273Y024786D01*
X042339Y024944D02*
X044364Y024944D01*
X044522Y025103D02*
X042405Y025103D01*
X042471Y025261D02*
X044681Y025261D01*
X044930Y024944D02*
X047201Y024944D01*
X047201Y024786D02*
X044771Y024786D01*
X044613Y024627D02*
X047201Y024627D01*
X047201Y024469D02*
X044454Y024469D01*
X044296Y024310D02*
X047201Y024310D01*
X047201Y024152D02*
X044137Y024152D01*
X043979Y023993D02*
X047201Y023993D01*
X047201Y023835D02*
X043820Y023835D01*
X043662Y023676D02*
X047201Y023676D01*
X047015Y023518D02*
X043503Y023518D01*
X043345Y023359D02*
X046540Y023359D01*
X046854Y023042D02*
X047201Y023042D01*
X047201Y022884D02*
X046378Y022884D01*
X046064Y023201D02*
X043186Y023201D01*
X043028Y023042D02*
X045589Y023042D01*
X045903Y022725D02*
X047201Y022725D01*
X047201Y022567D02*
X045427Y022567D01*
X045113Y022884D02*
X042869Y022884D01*
X042711Y022725D02*
X044638Y022725D01*
X044952Y022408D02*
X047201Y022408D01*
X047201Y022250D02*
X044476Y022250D01*
X044162Y022567D02*
X042552Y022567D01*
X042394Y022408D02*
X043687Y022408D01*
X044001Y022091D02*
X047201Y022091D01*
X044456Y019555D02*
X042681Y019555D01*
X042811Y019397D02*
X044664Y019397D01*
X044872Y019238D02*
X042940Y019238D01*
X043070Y019080D02*
X045080Y019080D01*
X045288Y018921D02*
X043200Y018921D01*
X043329Y018763D02*
X045496Y018763D01*
X045704Y018604D02*
X043459Y018604D01*
X043589Y018446D02*
X045912Y018446D01*
X046120Y018287D02*
X043718Y018287D01*
X043202Y018287D02*
X040115Y018287D01*
X040115Y018446D02*
X043072Y018446D01*
X042942Y018604D02*
X040115Y018604D01*
X040115Y018763D02*
X042813Y018763D01*
X042683Y018921D02*
X040115Y018921D01*
X040115Y019080D02*
X042553Y019080D01*
X042424Y019238D02*
X040115Y019238D01*
X040115Y019397D02*
X042294Y019397D01*
X042164Y019555D02*
X040115Y019555D01*
X040115Y019714D02*
X042034Y019714D01*
X041905Y019872D02*
X040115Y019872D01*
X040115Y020031D02*
X041775Y020031D01*
X041645Y020189D02*
X040868Y020189D01*
X040916Y020348D02*
X041599Y020348D01*
X041709Y020506D02*
X040916Y020506D01*
X040916Y020665D02*
X043000Y020665D01*
X042792Y020823D02*
X040916Y020823D01*
X040916Y020982D02*
X042584Y020982D01*
X042376Y021140D02*
X040916Y021140D01*
X040916Y021299D02*
X042290Y021299D01*
X042356Y021457D02*
X040916Y021457D01*
X040516Y021457D02*
X040115Y021457D01*
X040115Y021299D02*
X040516Y021299D01*
X040516Y021140D02*
X040115Y021140D01*
X040115Y020982D02*
X040516Y020982D01*
X040516Y020823D02*
X040115Y020823D01*
X040115Y020665D02*
X040516Y020665D01*
X040516Y021616D02*
X040115Y021616D01*
X040115Y021774D02*
X040516Y021774D01*
X041903Y020506D02*
X043208Y020506D01*
X043416Y020348D02*
X042033Y020348D01*
X042162Y020189D02*
X043624Y020189D01*
X043832Y020031D02*
X042292Y020031D01*
X042422Y019872D02*
X044040Y019872D01*
X044248Y019714D02*
X042551Y019714D01*
X041126Y022884D02*
X040115Y022884D01*
X040115Y023042D02*
X041113Y023042D01*
X041179Y023201D02*
X040115Y023201D01*
X040115Y023359D02*
X041245Y023359D01*
X041311Y023518D02*
X040115Y023518D01*
X040115Y023676D02*
X041377Y023676D01*
X041443Y023835D02*
X040115Y023835D01*
X040115Y023993D02*
X041509Y023993D01*
X041575Y024152D02*
X040115Y024152D01*
X040115Y024310D02*
X041641Y024310D01*
X041707Y024469D02*
X040115Y024469D01*
X040115Y024627D02*
X041774Y024627D01*
X041840Y024786D02*
X040115Y024786D01*
X040115Y024944D02*
X041906Y024944D01*
X041972Y025103D02*
X040115Y025103D01*
X040115Y025261D02*
X042038Y025261D01*
X041725Y026687D02*
X038925Y026687D01*
X037587Y025144D02*
X036817Y025144D01*
X036817Y025239D01*
X033498Y027637D02*
X033498Y028264D01*
X031400Y028316D02*
X031387Y028203D01*
X030649Y027603D01*
X030649Y026934D02*
X031282Y026934D01*
X031467Y026850D01*
X031183Y025864D02*
X032268Y025106D01*
X029893Y025883D02*
X029893Y025916D01*
X029675Y027147D01*
X029214Y026552D02*
X029214Y026548D01*
X028230Y026548D01*
X029214Y025883D02*
X029893Y025883D01*
X029893Y025916D02*
X030575Y021614D01*
X030869Y021614D01*
X030875Y021614D01*
X030875Y022287D01*
X031538Y021614D02*
X031921Y021614D01*
X032153Y021746D01*
X025927Y021379D02*
X025002Y021383D01*
X024471Y021383D01*
X024275Y021212D01*
X023475Y021212D01*
X023006Y020717D01*
X023500Y020212D02*
X024300Y020212D01*
X024532Y020444D01*
X025927Y020444D01*
X025927Y019493D02*
X024659Y019493D01*
X024254Y019203D01*
X023491Y019203D01*
X023006Y018717D01*
X023482Y018219D02*
X023006Y017717D01*
X023482Y018219D02*
X024208Y018219D01*
X024570Y018556D01*
X025927Y018556D01*
X025919Y017603D02*
X024874Y017603D01*
X024426Y017209D01*
X023498Y017209D01*
X023006Y016717D01*
X023466Y016221D02*
X024499Y016221D01*
X025010Y016658D01*
X025919Y016658D01*
X025927Y016650D01*
X025927Y017595D02*
X025919Y017603D01*
X023466Y016221D02*
X023112Y015713D01*
X023112Y015717D01*
X023006Y015717D01*
X023112Y015713D02*
X023112Y015687D01*
X023112Y015650D01*
X021972Y014703D02*
X021972Y014687D01*
X021975Y014687D01*
X021172Y014692D02*
X020990Y014713D01*
X025955Y012630D02*
X025955Y012143D01*
X025966Y012132D01*
X026810Y012472D02*
X026810Y012989D01*
X027341Y012747D02*
X027544Y012645D01*
X028068Y012645D01*
X027729Y013043D02*
X027710Y013261D01*
X027710Y013494D01*
X028416Y013339D02*
X028617Y013138D01*
X029403Y013138D01*
X029191Y013833D02*
X029191Y013833D01*
X030233Y013433D01*
X030374Y014017D02*
X030066Y014325D01*
X030453Y014522D02*
X030193Y014782D01*
X030193Y014973D01*
X030840Y014817D02*
X030916Y014742D01*
X031952Y014742D01*
X031568Y015463D02*
X031380Y015463D01*
X031128Y015111D01*
X031133Y014017D02*
X030374Y014017D01*
X029478Y014128D02*
X029380Y014227D01*
X029380Y014573D01*
X028555Y014764D02*
X028555Y014942D01*
X028010Y015487D01*
X028555Y014094D02*
X028555Y013785D01*
X028703Y013636D01*
X026826Y012456D02*
X026810Y012472D01*
X023006Y019717D02*
X023500Y020212D01*
X024006Y021698D02*
X024006Y021717D01*
X024006Y021698D02*
X024057Y021698D01*
X024400Y022212D02*
X023500Y022212D01*
X023006Y021717D01*
X024400Y022212D02*
X024496Y022308D01*
X025927Y022308D01*
X025953Y023219D02*
X025927Y023269D01*
X025953Y023219D02*
X023482Y023219D01*
X023006Y022717D01*
X023006Y023717D02*
X023516Y024228D01*
X025809Y024228D01*
X025927Y024229D01*
X025927Y025154D02*
X025810Y025212D01*
X023451Y025212D01*
X023006Y024717D01*
X023006Y025717D02*
X023474Y026236D01*
X025907Y026236D01*
X025927Y026115D01*
X030573Y028475D02*
X030573Y029084D01*
X030575Y029162D01*
X045088Y025103D02*
X047201Y025103D01*
X047201Y025261D02*
X045247Y025261D01*
X044924Y012520D02*
X043460Y012520D01*
X044924Y012520D02*
X044924Y012494D01*
X045786Y012494D01*
X045786Y012509D01*
X044924Y012494D02*
X044924Y012509D01*
X048415Y012287D02*
X048525Y012397D01*
X049623Y012962D01*
X049623Y011842D02*
X050065Y011365D01*
X050065Y010994D01*
X049396Y010994D02*
X049103Y011287D01*
X048415Y011287D01*
D42*
X038706Y021411D03*
X038702Y021843D03*
D43*
X033496Y025905D03*
X034519Y027007D03*
X034519Y027637D03*
X035219Y027637D03*
X035794Y027632D03*
X035519Y026457D03*
X033496Y027637D03*
X031467Y026850D03*
D44*
X031424Y027684D03*
X030875Y022287D03*
X032153Y021746D03*
X034150Y019537D03*
X034175Y018787D03*
X034175Y017687D03*
X035625Y018187D03*
X035875Y017587D03*
X039317Y013430D03*
X036495Y011368D03*
X045356Y011313D03*
D45*
X026121Y015698D03*
D46*
X025290Y014717D01*
X024006Y014717D01*
X024002Y014713D01*
X023041Y014713D01*
X023041Y014682D02*
X021972Y014703D01*
X023006Y014717D01*
X023006Y015717D02*
X020990Y015713D01*
X020986Y014690D02*
X021172Y014692D01*
X021972Y014703D01*
X021975Y014687D02*
X021975Y012087D01*
X023006Y011717D01*
X023000Y010787D01*
X026375Y010787D01*
X033175Y010987D02*
X033775Y010687D01*
X034375Y010687D01*
X047059Y010687D01*
X047356Y012190D01*
X047375Y012287D01*
X047916Y012287D01*
X048415Y012287D01*
X038497Y017120D02*
X037564Y015987D01*
X036725Y015987D01*
X033175Y014687D01*
X033175Y010987D01*
X023006Y016717D02*
X020990Y016713D01*
X020990Y017713D02*
X023006Y017717D01*
X023006Y018717D02*
X020990Y018713D01*
X020990Y019713D02*
X023006Y019717D01*
X023006Y020717D02*
X020990Y020713D01*
X020990Y021713D02*
X023006Y021717D01*
X023006Y022717D02*
X020990Y022713D01*
X020990Y023713D02*
X023002Y023713D01*
X023006Y023717D01*
X023002Y024713D02*
X023006Y024717D01*
X023002Y024713D02*
X020990Y024713D01*
X020990Y025713D02*
X023002Y025713D01*
X023006Y025717D01*
X023006Y026717D02*
X020990Y026713D01*
X035364Y023987D02*
X036817Y025239D01*
X036817Y028292D01*
D47*
X026375Y010787D03*
D48*
X038497Y017120D03*
D49*
X048734Y024344D03*
D50*
X035464Y024079D02*
X035364Y023987D01*
X035364Y022287D01*
X034125Y022287D01*
X032753Y022287D01*
X032125Y024362D01*
X031718Y024362D01*
X031718Y024364D01*
X033596Y025189D02*
X033496Y025905D01*
X033596Y025189D02*
X033672Y025003D01*
X033909Y024083D01*
X027146Y023264D02*
X027142Y023269D01*
X026596Y023269D01*
X026596Y022308D02*
X027146Y022308D01*
X027146Y021387D02*
X027137Y021379D01*
X026596Y021379D01*
X026596Y020444D02*
X027138Y020444D01*
X027146Y020452D01*
X027146Y019498D02*
X027141Y019493D01*
X026596Y019493D01*
X026596Y018556D02*
X027143Y018556D01*
X027146Y018553D01*
X027030Y017595D02*
X026596Y017595D01*
X027030Y017595D02*
X027088Y017580D01*
X027101Y016650D02*
X026596Y016650D01*
X027101Y016650D02*
X027146Y016639D01*
X027146Y025127D02*
X027118Y025154D01*
X026596Y025154D01*
X026596Y026115D02*
X027146Y026115D01*
X025706Y027147D02*
X024814Y027147D01*
X024475Y027487D01*
X023575Y027487D01*
X023006Y026717D01*
D51*
X031128Y015111D03*
X030840Y014817D03*
X030453Y014522D03*
X030066Y014325D03*
X029478Y014128D03*
X029191Y013833D03*
X028703Y013636D03*
X028416Y013339D03*
X027729Y013043D03*
X026826Y012456D03*
X025966Y012132D03*
X033923Y011558D03*
X034809Y011852D03*
X035596Y012150D03*
X036088Y012446D03*
X040122Y011761D03*
X040516Y012057D03*
X044144Y012957D03*
X044174Y011914D03*
X044765Y013975D03*
X046573Y014247D03*
X048792Y014011D03*
X048871Y014595D03*
D52*
X027341Y012747D03*
M02*
