%
M48
M72
T01C0.0100
T02C0.0100
T03C0.0118
T04C0.0157
T05C0.0197
T06C0.0236
T07C0.0276
T08C0.0315
T09C0.0354
T10C0.0360
T11C0.0400
T12C0.0402
T13C0.0406
T14C0.0472
T15C0.1240
%
T01
X25966Y12132
X26826Y12456
X27729Y13043
X28416Y13339
X28703Y13636
X29191Y13833
X29478Y14128
X30066Y14325
X30453Y14522
X30840Y14817
X31128Y15111
X34809Y11852
X35596Y12150
X36088Y12446
X33923Y11558
X40122Y11761
X40516Y12057
X44144Y12957
X44174Y11914
X44765Y13975
X46573Y14247
X48792Y14011
X48871Y14595
T02
X27341Y12747
T03
X38706Y21411
X38702Y21843
T04
X38696Y22340
X36590Y20817
X36275Y20387
X36389Y19788
X36375Y19287
X35375Y20487
X34186Y20423
X41725Y26687
X43352Y26865
X42828Y28153
X41494Y28127
X41100Y29184
X42419Y29488
X45175Y27487
X45600Y27087
X48525Y21587
X47925Y17585
X48125Y16387
X47596Y14258
X41991Y12446
X54175Y21987
X32071Y28376
T05
X31424Y27684
X31467Y26850
X33496Y27637
X34519Y27637
X34519Y27007
X35219Y27637
X35794Y27632
X35519Y26457
X33496Y25905
X30875Y22287
X32153Y21746
X34150Y19537
X34175Y18787
X34175Y17687
X35625Y18187
X35875Y17587
X39317Y13430
X36495Y11368
X45356Y11313
T06
X50225Y15987
X45981Y20517
X41650Y18942
X42831Y16580
X36297Y21787
X36416Y22562
X36947Y24187
X38925Y26687
X42887Y24550
X45387Y23850
X51350Y25062
X52350Y24987
X48291Y29887
X48941Y30887
X43725Y30387
X32901Y25131
X32268Y25106
X31025Y22862
X34125Y22087
X28230Y26548
X27146Y26115
X27146Y25127
X27146Y24230
X27146Y23264
X27146Y22308
X27146Y21387
X27146Y20452
X27146Y19498
X27146Y18553
X27088Y17580
X27146Y16639
X30150Y27912
X30575Y29162
X30625Y29987
X29525Y29187
X32371Y29433
X26075Y30487
X26075Y31987
T07
X48734Y24344
T08
X26375Y10787
T09
X26121Y15698
T10
X48415Y12287
X48415Y11287
X51593Y20488
X51593Y21488
X51593Y22488
X51593Y23488
T11
X19990Y12713
X20990Y12713
X20990Y13713
X19990Y13713
X19990Y14713
X20990Y14713
X20990Y15713
X19990Y15713
X19990Y16713
X20990Y16713
X20990Y17713
X19990Y17713
X19990Y18713
X20990Y18713
X20990Y19713
X19990Y19713
X19990Y20713
X20990Y20713
X20990Y21713
X19990Y21713
X19990Y22713
X20990Y22713
X20990Y23713
X19990Y23713
X19990Y24713
X20990Y24713
X20990Y25713
X19990Y25713
X19990Y26713
X20990Y26713
X22607Y31040
X23607Y31040
X23607Y32040
X22607Y32040
X51067Y32040
X52067Y32040
X52067Y31040
X51067Y31040
T12
X24006Y26717
X23006Y26717
X23006Y25717
X24006Y25717
X24006Y24717
X23006Y24717
X23006Y23717
X24006Y23717
X24006Y22717
X23006Y22717
X23006Y21717
X24006Y21717
X24006Y20717
X23006Y20717
X23006Y19717
X24006Y19717
X24006Y18717
X23006Y18717
X23006Y17717
X24006Y17717
X24006Y16717
X23006Y16717
X23006Y15717
X24006Y15717
X24006Y14717
X23006Y14717
X23006Y13717
X24006Y13717
X24006Y12717
X23006Y12717
X23006Y11717
X24006Y11717
T13
X36817Y28292
X36817Y29292
X37817Y29292
X38817Y29292
X38817Y28292
X37817Y28292
T14
X38497Y17120
T15
X27836Y10871
X27836Y28391
X54214Y28391
X54214Y10871
M30
