G75*
G70*
%OFA0B0*%
%FSLAX24Y24*%
%IPPOS*%
%LPD*%
%AMOC8*
5,1,8,0,0,1.08239X$1,22.5*
%
%ADD10C,0.0787*%
%ADD11C,0.0160*%
%ADD12C,0.0040*%
%ADD13C,0.0030*%
%ADD14C,0.0050*%
%ADD15C,0.0100*%
%ADD16C,0.0010*%
%ADD17C,0.0157*%
D10*
X019875Y028787D02*
X027675Y028787D01*
X027675Y031587D01*
X035475Y031587D01*
X042475Y031587D02*
X047291Y031587D01*
X047291Y027587D01*
X054591Y027587D01*
D11*
X042375Y031587D02*
X035675Y031587D01*
D12*
X036337Y031167D02*
X036644Y031167D01*
X036644Y030707D01*
X036337Y030707D01*
X036491Y030937D02*
X036644Y030937D01*
X036798Y030937D02*
X036951Y030937D01*
X036798Y030937D02*
X036798Y030783D01*
X036874Y030707D01*
X037028Y030707D01*
X037105Y030783D01*
X037105Y031090D01*
X037028Y031167D01*
X036874Y031167D01*
X036798Y031090D01*
X037258Y031014D02*
X037258Y030707D01*
X037258Y030937D02*
X037565Y030937D01*
X037565Y031014D02*
X037411Y031167D01*
X037258Y031014D01*
X037565Y031014D02*
X037565Y030707D01*
X037872Y030707D02*
X037872Y031167D01*
X038025Y031167D02*
X037718Y031167D01*
X038179Y030707D02*
X038486Y030707D01*
X038486Y031167D01*
X038639Y031090D02*
X038716Y031167D01*
X038869Y031167D01*
X038946Y031090D01*
X038946Y030783D01*
X038869Y030707D01*
X038716Y030707D01*
X038639Y030783D01*
X038639Y031090D01*
X039100Y031167D02*
X039100Y030860D01*
X039253Y030707D01*
X039407Y030860D01*
X039407Y031167D01*
X040020Y031167D02*
X040020Y030707D01*
X040020Y030937D02*
X040327Y030937D01*
X040481Y030937D02*
X040634Y030937D01*
X040481Y030937D02*
X040481Y030783D01*
X040557Y030707D01*
X040711Y030707D01*
X040788Y030783D01*
X040788Y031090D01*
X040711Y031167D01*
X040557Y031167D01*
X040481Y031090D01*
X040327Y031167D02*
X040327Y030707D01*
X040941Y030707D02*
X041095Y030707D01*
X041018Y030707D02*
X041018Y031167D01*
X041095Y031167D02*
X040941Y031167D01*
X041248Y031167D02*
X041248Y030707D01*
X041248Y030937D02*
X041555Y030937D01*
X041555Y030707D02*
X041555Y031167D01*
X041355Y031907D02*
X041048Y031907D01*
X040895Y031983D02*
X040895Y032290D01*
X040818Y032367D01*
X040664Y032367D01*
X040588Y032290D01*
X040588Y031983D01*
X040664Y031907D01*
X040818Y031907D01*
X040895Y031983D01*
X041355Y031907D02*
X041355Y032367D01*
X040434Y032367D02*
X040434Y031907D01*
X040281Y032060D01*
X040127Y031907D01*
X040127Y032367D01*
X039513Y032367D02*
X039513Y032060D01*
X039360Y031907D01*
X039207Y032060D01*
X039207Y032367D01*
X039053Y032290D02*
X039053Y031983D01*
X038976Y031907D01*
X038823Y031907D01*
X038746Y031983D01*
X038746Y032290D01*
X038823Y032367D01*
X038976Y032367D01*
X039053Y032290D01*
X038593Y032367D02*
X038593Y031907D01*
X038286Y031907D01*
X037979Y031907D02*
X037979Y032367D01*
X038132Y032367D02*
X037825Y032367D01*
X037672Y032214D02*
X037518Y032367D01*
X037365Y032214D01*
X037365Y031907D01*
X037211Y031983D02*
X037135Y031907D01*
X036981Y031907D01*
X036905Y031983D01*
X036905Y032137D01*
X037058Y032137D01*
X036905Y032290D02*
X036981Y032367D01*
X037135Y032367D01*
X037211Y032290D01*
X037211Y031983D01*
X037365Y032137D02*
X037672Y032137D01*
X037672Y032214D02*
X037672Y031907D01*
X036751Y031907D02*
X036444Y031907D01*
X036598Y032137D02*
X036751Y032137D01*
X036751Y032367D02*
X036751Y031907D01*
X036751Y032367D02*
X036444Y032367D01*
X036672Y027653D02*
X036595Y027576D01*
X036595Y027423D01*
X036672Y027346D01*
X036979Y027346D01*
X037055Y027423D01*
X037055Y027576D01*
X036979Y027653D01*
X036979Y027193D02*
X037055Y027116D01*
X037055Y026963D01*
X036979Y026886D01*
X036672Y026886D01*
X036595Y026963D01*
X036595Y027116D01*
X036672Y027193D01*
X036748Y026732D02*
X037055Y026732D01*
X036748Y026732D02*
X036595Y026579D01*
X036748Y026425D01*
X037055Y026425D01*
X035532Y025113D02*
X035412Y024993D01*
X035472Y024865D02*
X035532Y024805D01*
X035532Y024625D01*
X035172Y024625D01*
X035172Y024805D01*
X035232Y024865D01*
X035472Y024865D01*
X035532Y025113D02*
X035172Y025113D01*
X035172Y024993D02*
X035172Y025233D01*
X025502Y032007D02*
X025502Y032467D01*
X025655Y032467D02*
X025348Y032467D01*
X025195Y032467D02*
X025195Y032160D01*
X025041Y032007D01*
X024888Y032160D01*
X024888Y032467D01*
X024734Y032390D02*
X024734Y032314D01*
X024657Y032237D01*
X024504Y032237D01*
X024427Y032160D01*
X024427Y032083D01*
X024504Y032007D01*
X024657Y032007D01*
X024734Y032083D01*
X024734Y032390D02*
X024657Y032467D01*
X024504Y032467D01*
X024427Y032390D01*
X049835Y019836D02*
X049835Y019749D01*
X049922Y019749D01*
X049922Y019836D01*
X049835Y019836D01*
X050095Y019836D02*
X050095Y019749D01*
X050182Y019749D01*
X050182Y019836D01*
X050095Y019836D01*
X050095Y019580D02*
X049922Y019580D01*
X049835Y019493D01*
X049835Y019233D01*
X049662Y019233D02*
X050182Y019233D01*
X050182Y019493D01*
X050095Y019580D01*
X049922Y019064D02*
X050355Y019064D01*
X050355Y018718D02*
X049922Y018718D01*
X049835Y018804D01*
X049835Y018978D01*
X049922Y019064D01*
X050095Y018549D02*
X050095Y018202D01*
X049835Y018032D02*
X049835Y017858D01*
X049835Y017945D02*
X050355Y017945D01*
X050355Y017858D01*
X050355Y017601D02*
X049835Y017601D01*
X049835Y017514D02*
X049835Y017688D01*
X049835Y017346D02*
X050182Y017346D01*
X050355Y017514D02*
X050355Y017601D01*
X049835Y017346D02*
X049835Y017085D01*
X049922Y016999D01*
X050182Y016999D01*
X050269Y016830D02*
X050095Y016830D01*
X050008Y016743D01*
X050008Y016483D01*
X049835Y016483D02*
X050355Y016483D01*
X050355Y016743D01*
X050269Y016830D01*
X052835Y016827D02*
X052835Y017000D01*
X052835Y016914D02*
X053355Y016914D01*
X053355Y016827D01*
X053355Y016570D02*
X052835Y016570D01*
X052835Y016483D02*
X052835Y016657D01*
X052835Y016314D02*
X053182Y016314D01*
X053355Y016483D02*
X053355Y016570D01*
X052835Y016314D02*
X052835Y016054D01*
X052922Y015967D01*
X053182Y015967D01*
X053269Y015799D02*
X053095Y015799D01*
X053008Y015712D01*
X053008Y015452D01*
X052835Y015452D02*
X053355Y015452D01*
X053355Y015712D01*
X053269Y015799D01*
X053095Y017171D02*
X053095Y017518D01*
X052835Y017686D02*
X052835Y017946D01*
X052922Y018033D01*
X053269Y018033D01*
X053355Y017946D01*
X053355Y017686D01*
X052835Y017686D01*
X052922Y018202D02*
X052835Y018289D01*
X052835Y018462D01*
X052922Y018549D01*
X053095Y018549D01*
X053182Y018462D01*
X053182Y018289D01*
X053095Y018202D01*
X052922Y018202D01*
X052922Y018718D02*
X052835Y018804D01*
X052922Y018891D01*
X052835Y018978D01*
X052922Y019064D01*
X053182Y019064D01*
X053182Y019233D02*
X053182Y019493D01*
X053095Y019580D01*
X052835Y019580D01*
X052835Y019749D02*
X052922Y019749D01*
X052922Y019836D01*
X052835Y019836D01*
X052835Y019749D01*
X053095Y019749D02*
X053182Y019749D01*
X053182Y019836D01*
X053095Y019836D01*
X053095Y019749D01*
X053182Y019233D02*
X052835Y019233D01*
X052922Y018718D02*
X053182Y018718D01*
X050655Y012527D02*
X050655Y012180D01*
X050482Y012007D01*
X050308Y012180D01*
X050308Y012527D01*
X050139Y012440D02*
X050053Y012527D01*
X049879Y012527D01*
X049792Y012440D01*
X049624Y012440D02*
X049624Y012093D01*
X049537Y012007D01*
X049363Y012007D01*
X049277Y012093D01*
X049277Y012440D02*
X049363Y012527D01*
X049537Y012527D01*
X049624Y012440D01*
X049792Y012093D02*
X049879Y012007D01*
X050053Y012007D01*
X050139Y012093D01*
X050139Y012440D01*
X050239Y011527D02*
X049892Y011007D01*
X049892Y011527D01*
X049724Y011527D02*
X049463Y011527D01*
X049377Y011440D01*
X049377Y011093D01*
X049463Y011007D01*
X049724Y011007D01*
X049724Y011527D01*
X050239Y011527D02*
X050239Y011007D01*
X050408Y011093D02*
X050408Y011267D01*
X050582Y011267D01*
X050755Y011440D02*
X050755Y011093D01*
X050668Y011007D01*
X050495Y011007D01*
X050408Y011093D01*
X050408Y011440D02*
X050495Y011527D01*
X050668Y011527D01*
X050755Y011440D01*
D13*
X024585Y016570D02*
X024585Y016632D01*
X024647Y016693D01*
X024832Y016693D01*
X024832Y016570D01*
X024770Y016508D01*
X024647Y016508D01*
X024585Y016570D01*
X024709Y016817D02*
X024585Y016879D01*
X024709Y016817D02*
X024832Y016693D01*
X024953Y016755D02*
X024953Y016817D01*
X025015Y016879D01*
X025139Y016879D01*
X025200Y016817D01*
X025322Y016817D02*
X025384Y016879D01*
X025507Y016879D01*
X025569Y016817D01*
X025569Y016570D01*
X025507Y016508D01*
X025384Y016508D01*
X025322Y016570D01*
X025200Y016508D02*
X024953Y016755D01*
X024953Y016508D02*
X025200Y016508D01*
X025159Y017345D02*
X024912Y017591D01*
X024912Y017653D01*
X024973Y017715D01*
X025097Y017715D01*
X025159Y017653D01*
X025280Y017653D02*
X025342Y017715D01*
X025465Y017715D01*
X025527Y017653D01*
X025527Y017406D01*
X025465Y017345D01*
X025342Y017345D01*
X025280Y017406D01*
X025159Y017345D02*
X024912Y017345D01*
X024790Y017406D02*
X024729Y017345D01*
X024605Y017345D01*
X024543Y017406D01*
X024543Y017530D01*
X024605Y017591D01*
X024667Y017591D01*
X024790Y017530D01*
X024790Y017715D01*
X024543Y017715D01*
X024625Y018368D02*
X024625Y018739D01*
X024810Y018554D01*
X024563Y018554D01*
X024931Y018615D02*
X025178Y018368D01*
X024931Y018368D01*
X024931Y018615D02*
X024931Y018677D01*
X024993Y018739D01*
X025117Y018739D01*
X025178Y018677D01*
X025300Y018677D02*
X025361Y018739D01*
X025485Y018739D01*
X025547Y018677D01*
X025547Y018430D01*
X025485Y018368D01*
X025361Y018368D01*
X025300Y018430D01*
X025361Y019313D02*
X025300Y019375D01*
X025361Y019313D02*
X025485Y019313D01*
X025547Y019375D01*
X025547Y019622D01*
X025485Y019684D01*
X025361Y019684D01*
X025300Y019622D01*
X025178Y019622D02*
X025117Y019684D01*
X024993Y019684D01*
X024931Y019622D01*
X024931Y019560D01*
X025178Y019313D01*
X024931Y019313D01*
X024810Y019375D02*
X024748Y019313D01*
X024625Y019313D01*
X024563Y019375D01*
X024563Y019437D01*
X024625Y019498D01*
X024687Y019498D01*
X024625Y019498D02*
X024563Y019560D01*
X024563Y019622D01*
X024625Y019684D01*
X024748Y019684D01*
X024810Y019622D01*
X024810Y020217D02*
X024563Y020217D01*
X024563Y020464D02*
X024563Y020526D01*
X024625Y020587D01*
X024748Y020587D01*
X024810Y020526D01*
X024931Y020526D02*
X024993Y020587D01*
X025117Y020587D01*
X025178Y020526D01*
X025300Y020526D02*
X025361Y020587D01*
X025485Y020587D01*
X025547Y020526D01*
X025547Y020279D01*
X025485Y020217D01*
X025361Y020217D01*
X025300Y020279D01*
X025178Y020217D02*
X024931Y020464D01*
X024931Y020526D01*
X024931Y020217D02*
X025178Y020217D01*
X024810Y020217D02*
X024563Y020464D01*
X024587Y021152D02*
X024587Y021522D01*
X024710Y021398D01*
X024831Y021398D02*
X024831Y021460D01*
X024893Y021522D01*
X025017Y021522D01*
X025078Y021460D01*
X025200Y021460D02*
X025261Y021522D01*
X025385Y021522D01*
X025447Y021460D01*
X025447Y021213D01*
X025385Y021152D01*
X025261Y021152D01*
X025200Y021213D01*
X025078Y021152D02*
X024831Y021398D01*
X024831Y021152D02*
X025078Y021152D01*
X024710Y021152D02*
X024463Y021152D01*
X024575Y022119D02*
X024698Y022119D01*
X024760Y022181D01*
X024513Y022428D01*
X024513Y022181D01*
X024575Y022119D01*
X024760Y022181D02*
X024760Y022428D01*
X024698Y022489D01*
X024575Y022489D01*
X024513Y022428D01*
X024881Y022428D02*
X024943Y022489D01*
X025067Y022489D01*
X025128Y022428D01*
X025250Y022428D02*
X025311Y022489D01*
X025435Y022489D01*
X025497Y022428D01*
X025497Y022181D01*
X025435Y022119D01*
X025311Y022119D01*
X025250Y022181D01*
X025128Y022119D02*
X024881Y022366D01*
X024881Y022428D01*
X024881Y022119D02*
X025128Y022119D01*
X025128Y023029D02*
X024881Y023029D01*
X025005Y023029D02*
X025005Y023400D01*
X025128Y023276D01*
X025250Y023338D02*
X025311Y023400D01*
X025435Y023400D01*
X025497Y023338D01*
X025497Y023091D01*
X025435Y023029D01*
X025311Y023029D01*
X025250Y023091D01*
X024760Y023091D02*
X024698Y023029D01*
X024575Y023029D01*
X024513Y023091D01*
X024513Y023338D01*
X024575Y023400D01*
X024698Y023400D01*
X024760Y023338D01*
X024760Y023276D01*
X024698Y023215D01*
X024513Y023215D01*
X024575Y024095D02*
X024698Y024095D01*
X024760Y024157D01*
X024760Y024218D01*
X024698Y024280D01*
X024575Y024280D01*
X024513Y024218D01*
X024513Y024157D01*
X024575Y024095D01*
X024575Y024280D02*
X024513Y024342D01*
X024513Y024403D01*
X024575Y024465D01*
X024698Y024465D01*
X024760Y024403D01*
X024760Y024342D01*
X024698Y024280D01*
X024881Y024095D02*
X025128Y024095D01*
X025005Y024095D02*
X025005Y024465D01*
X025128Y024342D01*
X025250Y024403D02*
X025311Y024465D01*
X025435Y024465D01*
X025497Y024403D01*
X025497Y024157D01*
X025435Y024095D01*
X025311Y024095D01*
X025250Y024157D01*
X025311Y024988D02*
X025250Y025050D01*
X025311Y024988D02*
X025435Y024988D01*
X025497Y025050D01*
X025497Y025296D01*
X025435Y025358D01*
X025311Y025358D01*
X025250Y025296D01*
X025128Y025235D02*
X025005Y025358D01*
X025005Y024988D01*
X025128Y024988D02*
X024881Y024988D01*
X024760Y024988D02*
X024760Y025050D01*
X024513Y025296D01*
X024513Y025358D01*
X024760Y025358D01*
X024698Y025765D02*
X024575Y025765D01*
X024513Y025826D01*
X024513Y025888D01*
X024575Y025950D01*
X024760Y025950D01*
X024760Y025826D01*
X024698Y025765D01*
X024881Y025765D02*
X025128Y025765D01*
X025005Y025765D02*
X025005Y026135D01*
X025128Y026011D01*
X025250Y026073D02*
X025311Y026135D01*
X025435Y026135D01*
X025497Y026073D01*
X025497Y025826D01*
X025435Y025765D01*
X025311Y025765D01*
X025250Y025826D01*
X024760Y025950D02*
X024637Y026073D01*
X024513Y026135D01*
X024625Y026681D02*
X024748Y026681D01*
X024810Y026742D01*
X024810Y026866D02*
X024687Y026928D01*
X024625Y026928D01*
X024563Y026866D01*
X024563Y026742D01*
X024625Y026681D01*
X024810Y026866D02*
X024810Y027051D01*
X024563Y027051D01*
X025055Y027051D02*
X025055Y026681D01*
X025178Y026681D02*
X024931Y026681D01*
X025178Y026928D02*
X025055Y027051D01*
X025300Y026989D02*
X025361Y027051D01*
X025485Y027051D01*
X025547Y026989D01*
X025547Y026742D01*
X025485Y026681D01*
X025361Y026681D01*
X025300Y026742D01*
X027527Y026018D02*
X027527Y025957D01*
X027589Y025895D01*
X027527Y025833D01*
X027527Y025772D01*
X027589Y025710D01*
X027712Y025710D01*
X027774Y025772D01*
X027895Y025772D02*
X027895Y026018D01*
X027957Y026080D01*
X028142Y026080D01*
X028142Y025710D01*
X027957Y025710D01*
X027895Y025772D01*
X027651Y025895D02*
X027589Y025895D01*
X027527Y026018D02*
X027589Y026080D01*
X027712Y026080D01*
X027774Y026018D01*
X027957Y025293D02*
X027895Y025232D01*
X027895Y024985D01*
X027957Y024923D01*
X028142Y024923D01*
X028142Y025293D01*
X027957Y025293D01*
X027774Y025108D02*
X027527Y025108D01*
X027589Y024923D02*
X027589Y025293D01*
X027774Y025108D01*
X027699Y024421D02*
X027699Y024236D01*
X027576Y024298D01*
X027514Y024298D01*
X027452Y024236D01*
X027452Y024113D01*
X027514Y024051D01*
X027637Y024051D01*
X027699Y024113D01*
X027820Y024113D02*
X027820Y024360D01*
X027882Y024421D01*
X028067Y024421D01*
X028067Y024051D01*
X027882Y024051D01*
X027820Y024113D01*
X027699Y024421D02*
X027452Y024421D01*
X027477Y023456D02*
X027601Y023394D01*
X027724Y023271D01*
X027539Y023271D01*
X027477Y023209D01*
X027477Y023147D01*
X027539Y023086D01*
X027662Y023086D01*
X027724Y023147D01*
X027724Y023271D01*
X027845Y023394D02*
X027907Y023456D01*
X028092Y023456D01*
X028092Y023086D01*
X027907Y023086D01*
X027845Y023147D01*
X027845Y023394D01*
X027882Y022471D02*
X028067Y022471D01*
X028067Y022100D01*
X027882Y022100D01*
X027820Y022162D01*
X027820Y022409D01*
X027882Y022471D01*
X027699Y022471D02*
X027452Y022471D01*
X027452Y022409D01*
X027699Y022162D01*
X027699Y022100D01*
X030477Y021535D02*
X030477Y021473D01*
X030539Y021411D01*
X030662Y021411D01*
X030724Y021473D01*
X030724Y021535D01*
X030662Y021597D01*
X030539Y021597D01*
X030477Y021535D01*
X030539Y021411D02*
X030477Y021350D01*
X030477Y021288D01*
X030539Y021226D01*
X030662Y021226D01*
X030724Y021288D01*
X030724Y021350D01*
X030662Y021411D01*
X030845Y021288D02*
X030845Y021535D01*
X030907Y021597D01*
X031092Y021597D01*
X031092Y021226D01*
X030907Y021226D01*
X030845Y021288D01*
X030762Y020532D02*
X030824Y020470D01*
X030824Y020409D01*
X030762Y020347D01*
X030577Y020347D01*
X030577Y020224D02*
X030577Y020470D01*
X030639Y020532D01*
X030762Y020532D01*
X030945Y020470D02*
X031007Y020532D01*
X031192Y020532D01*
X031192Y020162D01*
X031007Y020162D01*
X030945Y020224D01*
X030945Y020470D01*
X030824Y020224D02*
X030762Y020162D01*
X030639Y020162D01*
X030577Y020224D01*
X030689Y019645D02*
X030627Y019583D01*
X030874Y019337D01*
X030812Y019275D01*
X030689Y019275D01*
X030627Y019337D01*
X030627Y019583D01*
X030689Y019645D02*
X030812Y019645D01*
X030874Y019583D01*
X030874Y019337D01*
X030995Y019275D02*
X031242Y019275D01*
X031119Y019275D02*
X031119Y019645D01*
X031242Y019522D01*
X031364Y019583D02*
X031425Y019645D01*
X031611Y019645D01*
X031611Y019275D01*
X031425Y019275D01*
X031364Y019337D01*
X031364Y019583D01*
X032110Y020008D02*
X032110Y020378D01*
X032295Y020193D01*
X032048Y020193D01*
X032417Y020008D02*
X032664Y020008D01*
X032540Y020008D02*
X032540Y020378D01*
X032664Y020255D01*
X032785Y020317D02*
X032847Y020378D01*
X033032Y020378D01*
X033032Y020008D01*
X032847Y020008D01*
X032785Y020070D01*
X032785Y020317D01*
X034554Y020782D02*
X034924Y020782D01*
X034924Y020967D01*
X034862Y021029D01*
X034739Y021029D01*
X034677Y020967D01*
X034677Y020782D01*
X034677Y020905D02*
X034554Y021029D01*
X034615Y021150D02*
X034554Y021212D01*
X034554Y021335D01*
X034615Y021397D01*
X034677Y021397D01*
X034739Y021335D01*
X034739Y021273D01*
X034739Y021335D02*
X034801Y021397D01*
X034862Y021397D01*
X034924Y021335D01*
X034924Y021212D01*
X034862Y021150D01*
X034924Y021518D02*
X034739Y021518D01*
X034801Y021642D01*
X034801Y021703D01*
X034739Y021765D01*
X034615Y021765D01*
X034554Y021703D01*
X034554Y021580D01*
X034615Y021518D01*
X034924Y021518D02*
X034924Y021765D01*
X033379Y022745D02*
X033009Y022745D01*
X033133Y022745D02*
X033133Y022930D01*
X033194Y022991D01*
X033318Y022991D01*
X033379Y022930D01*
X033379Y022745D01*
X033133Y022868D02*
X033009Y022991D01*
X033009Y023113D02*
X033009Y023360D01*
X033009Y023236D02*
X033379Y023236D01*
X033256Y023113D01*
X032843Y022565D02*
X032905Y022504D01*
X032905Y022257D01*
X032843Y022195D01*
X032719Y022195D01*
X032658Y022257D01*
X032536Y022195D02*
X032289Y022195D01*
X032168Y022257D02*
X032106Y022195D01*
X031983Y022195D01*
X031921Y022257D01*
X031921Y022504D01*
X031983Y022565D01*
X032106Y022565D01*
X032168Y022504D01*
X032168Y022442D01*
X032106Y022380D01*
X031921Y022380D01*
X032289Y022442D02*
X032289Y022504D01*
X032351Y022565D01*
X032474Y022565D01*
X032536Y022504D01*
X032658Y022504D02*
X032719Y022565D01*
X032843Y022565D01*
X032536Y022195D02*
X032289Y022442D01*
X031395Y023323D02*
X031271Y023323D01*
X031209Y023385D01*
X031088Y023323D02*
X030841Y023323D01*
X030965Y023323D02*
X030965Y023693D01*
X031088Y023570D01*
X031209Y023631D02*
X031271Y023693D01*
X031395Y023693D01*
X031456Y023631D01*
X031456Y023385D01*
X031395Y023323D01*
X031400Y024273D02*
X031277Y024273D01*
X031215Y024335D01*
X031093Y024273D02*
X030847Y024520D01*
X030847Y024582D01*
X030908Y024644D01*
X031032Y024644D01*
X031093Y024582D01*
X031215Y024582D02*
X031277Y024644D01*
X031400Y024644D01*
X031462Y024582D01*
X031462Y024335D01*
X031400Y024273D01*
X031093Y024273D02*
X030847Y024273D01*
X032004Y025560D02*
X032374Y025560D01*
X032374Y025745D01*
X032313Y025807D01*
X032189Y025807D01*
X032128Y025745D01*
X032128Y025560D01*
X032128Y025684D02*
X032004Y025807D01*
X032066Y025929D02*
X032004Y025990D01*
X032004Y026114D01*
X032066Y026175D01*
X032128Y026175D01*
X032189Y026114D01*
X032189Y026052D01*
X032189Y026114D02*
X032251Y026175D01*
X032313Y026175D01*
X032374Y026114D01*
X032374Y025990D01*
X032313Y025929D01*
X032164Y026920D02*
X032164Y027290D01*
X032350Y027105D01*
X032103Y027105D01*
X032471Y027105D02*
X032533Y027043D01*
X032718Y027043D01*
X032718Y026920D02*
X032718Y027290D01*
X032533Y027290D01*
X032471Y027228D01*
X032471Y027105D01*
X032594Y027043D02*
X032471Y026920D01*
X029942Y026919D02*
X029757Y026919D01*
X029695Y026981D01*
X029695Y027228D01*
X029757Y027290D01*
X029942Y027290D01*
X029942Y026919D01*
X029574Y026919D02*
X029327Y027166D01*
X029327Y027228D01*
X029389Y027290D01*
X029512Y027290D01*
X029574Y027228D01*
X029574Y026919D02*
X029327Y026919D01*
X029838Y028355D02*
X029961Y028355D01*
X030023Y028416D01*
X030145Y028416D02*
X030206Y028355D01*
X030330Y028355D01*
X030391Y028416D01*
X030391Y028663D01*
X030330Y028725D01*
X030206Y028725D01*
X030145Y028663D01*
X030023Y028663D02*
X029961Y028725D01*
X029838Y028725D01*
X029776Y028663D01*
X029776Y028601D01*
X029838Y028540D01*
X029776Y028478D01*
X029776Y028416D01*
X029838Y028355D01*
X029838Y028540D02*
X029900Y028540D01*
X031189Y030229D02*
X031560Y030229D01*
X031560Y030414D01*
X031498Y030476D01*
X031375Y030476D01*
X031313Y030414D01*
X031313Y030229D01*
X031313Y030352D02*
X031189Y030476D01*
X031189Y030597D02*
X031251Y030597D01*
X031498Y030844D01*
X031560Y030844D01*
X031560Y030597D01*
X033052Y030544D02*
X033052Y030421D01*
X033114Y030359D01*
X033237Y030359D01*
X033299Y030421D01*
X033421Y030421D02*
X033482Y030359D01*
X033606Y030359D01*
X033667Y030421D01*
X033667Y030668D01*
X033606Y030729D01*
X033482Y030729D01*
X033421Y030668D01*
X033299Y030729D02*
X033299Y030544D01*
X033176Y030606D01*
X033114Y030606D01*
X033052Y030544D01*
X033052Y030729D02*
X033299Y030729D01*
X034392Y030651D02*
X034516Y030589D01*
X034639Y030466D01*
X034454Y030466D01*
X034392Y030404D01*
X034392Y030342D01*
X034454Y030281D01*
X034577Y030281D01*
X034639Y030342D01*
X034639Y030466D01*
X034761Y030589D02*
X034822Y030651D01*
X034946Y030651D01*
X035007Y030589D01*
X035007Y030342D01*
X034946Y030281D01*
X034822Y030281D01*
X034761Y030342D01*
X041382Y029381D02*
X041382Y029258D01*
X041444Y029196D01*
X041505Y029196D01*
X041567Y029258D01*
X041567Y029381D01*
X041505Y029443D01*
X041444Y029443D01*
X041382Y029381D01*
X041567Y029381D02*
X041629Y029443D01*
X041691Y029443D01*
X041752Y029381D01*
X041752Y029258D01*
X041691Y029196D01*
X041629Y029196D01*
X041567Y029258D01*
X041505Y029074D02*
X041444Y029074D01*
X041382Y029013D01*
X041382Y028889D01*
X041444Y028828D01*
X041444Y028706D02*
X041382Y028644D01*
X041382Y028521D01*
X041444Y028459D01*
X041691Y028459D01*
X041752Y028521D01*
X041752Y028644D01*
X041691Y028706D01*
X041691Y028828D02*
X041752Y028889D01*
X041752Y029013D01*
X041691Y029074D01*
X041629Y029074D01*
X041567Y029013D01*
X041505Y029074D01*
X041567Y029013D02*
X041567Y028951D01*
X043269Y028333D02*
X043516Y028333D01*
X043331Y028518D01*
X043331Y028148D01*
X043638Y028210D02*
X043638Y028333D01*
X043699Y028395D01*
X043761Y028395D01*
X043885Y028333D01*
X043885Y028518D01*
X043638Y028518D01*
X043638Y028210D02*
X043699Y028148D01*
X043823Y028148D01*
X043885Y028210D01*
X044006Y028148D02*
X044129Y028272D01*
X044068Y028272D02*
X044253Y028272D01*
X044253Y028148D02*
X044253Y028518D01*
X044068Y028518D01*
X044006Y028457D01*
X044006Y028333D01*
X044068Y028272D01*
X044789Y028318D02*
X044789Y028194D01*
X044850Y028133D01*
X044974Y028133D01*
X045035Y028194D01*
X045157Y028194D02*
X045219Y028133D01*
X045342Y028133D01*
X045404Y028194D01*
X045404Y028318D02*
X045280Y028379D01*
X045219Y028379D01*
X045157Y028318D01*
X045157Y028194D01*
X045035Y028318D02*
X044912Y028379D01*
X044850Y028379D01*
X044789Y028318D01*
X044789Y028503D02*
X045035Y028503D01*
X045035Y028318D01*
X045157Y028503D02*
X045404Y028503D01*
X045404Y028318D01*
X045525Y028318D02*
X045587Y028256D01*
X045772Y028256D01*
X045649Y028256D02*
X045525Y028133D01*
X045525Y028318D02*
X045525Y028441D01*
X045587Y028503D01*
X045772Y028503D01*
X045772Y028133D01*
X045103Y029554D02*
X045103Y029924D01*
X044918Y029924D01*
X044856Y029862D01*
X044856Y029739D01*
X044918Y029677D01*
X045103Y029677D01*
X044979Y029677D02*
X044856Y029554D01*
X044735Y029615D02*
X044673Y029554D01*
X044549Y029554D01*
X044488Y029615D01*
X044488Y029739D01*
X044549Y029800D01*
X044611Y029800D01*
X044735Y029739D01*
X044735Y029924D01*
X044488Y029924D01*
X044366Y029862D02*
X044305Y029924D01*
X044181Y029924D01*
X044119Y029862D01*
X044119Y029800D01*
X044181Y029739D01*
X044119Y029677D01*
X044119Y029615D01*
X044181Y029554D01*
X044305Y029554D01*
X044366Y029615D01*
X044243Y029739D02*
X044181Y029739D01*
X048087Y032055D02*
X048087Y032179D01*
X048149Y032241D01*
X048149Y032362D02*
X048211Y032362D01*
X048272Y032424D01*
X048272Y032547D01*
X048211Y032609D01*
X048149Y032609D01*
X048087Y032547D01*
X048087Y032424D01*
X048149Y032362D01*
X048272Y032424D02*
X048334Y032362D01*
X048396Y032362D01*
X048458Y032424D01*
X048458Y032547D01*
X048396Y032609D01*
X048334Y032609D01*
X048272Y032547D01*
X048396Y032241D02*
X048458Y032179D01*
X048458Y032055D01*
X048396Y031994D01*
X048149Y031994D01*
X048087Y032055D01*
X049414Y032068D02*
X049784Y032068D01*
X049784Y032253D01*
X049722Y032315D01*
X049599Y032315D01*
X049537Y032253D01*
X049537Y032068D01*
X049537Y032191D02*
X049414Y032315D01*
X049599Y032436D02*
X049599Y032683D01*
X049660Y032805D02*
X049784Y032928D01*
X049414Y032928D01*
X049414Y032805D02*
X049414Y033051D01*
X049414Y032621D02*
X049784Y032621D01*
X049599Y032436D01*
X050079Y030073D02*
X050017Y030011D01*
X050264Y029764D01*
X050202Y029702D01*
X050079Y029702D01*
X050017Y029764D01*
X050017Y030011D01*
X050079Y030073D02*
X050202Y030073D01*
X050264Y030011D01*
X050264Y029764D01*
X050385Y029888D02*
X050632Y029888D01*
X050447Y030073D01*
X050447Y029702D01*
X050753Y029764D02*
X050815Y029702D01*
X050939Y029702D01*
X051000Y029764D01*
X051000Y030011D01*
X050939Y030073D01*
X050815Y030073D01*
X050753Y030011D01*
X052681Y030802D02*
X052681Y031172D01*
X052928Y031172D02*
X052681Y030802D01*
X052928Y030802D02*
X052928Y031172D01*
X053050Y031048D02*
X053173Y031172D01*
X053297Y031048D01*
X053297Y030802D01*
X053418Y030863D02*
X053480Y030802D01*
X053603Y030802D01*
X053665Y030863D01*
X053665Y031110D01*
X053603Y031172D01*
X053480Y031172D01*
X053418Y031110D01*
X053297Y030987D02*
X053050Y030987D01*
X053050Y031048D02*
X053050Y030802D01*
X053786Y030740D02*
X054033Y030740D01*
X054155Y030863D02*
X054155Y031110D01*
X054216Y031172D01*
X054402Y031172D01*
X054402Y030802D01*
X054216Y030802D01*
X054155Y030863D01*
X054523Y030802D02*
X054523Y031172D01*
X054770Y031172D02*
X054523Y030802D01*
X054770Y030802D02*
X054770Y031172D01*
X054891Y031110D02*
X054953Y031172D01*
X055076Y031172D01*
X055138Y031110D01*
X055138Y030863D01*
X055076Y030802D01*
X054953Y030802D01*
X054891Y030863D01*
X054891Y030987D01*
X055015Y030987D01*
X054708Y031902D02*
X054770Y031963D01*
X054708Y031902D02*
X054585Y031902D01*
X054523Y031963D01*
X054523Y032087D01*
X054585Y032148D01*
X054646Y032148D01*
X054770Y032087D01*
X054770Y032272D01*
X054523Y032272D01*
X054402Y032272D02*
X054402Y032025D01*
X054278Y031902D01*
X054155Y032025D01*
X054155Y032272D01*
X054033Y031840D02*
X053786Y031840D01*
X053665Y031963D02*
X053603Y031902D01*
X053480Y031902D01*
X053418Y031963D01*
X053297Y031902D02*
X053297Y032148D01*
X053173Y032272D01*
X053050Y032148D01*
X053050Y031902D01*
X052928Y031902D02*
X052928Y032272D01*
X052681Y031902D01*
X052681Y032272D01*
X053050Y032087D02*
X053297Y032087D01*
X053418Y032210D02*
X053480Y032272D01*
X053603Y032272D01*
X053665Y032210D01*
X053665Y031963D01*
X049797Y026205D02*
X049859Y026143D01*
X049859Y025896D01*
X049797Y025834D01*
X049674Y025834D01*
X049612Y025896D01*
X049491Y026019D02*
X049244Y026019D01*
X049122Y026081D02*
X048999Y026205D01*
X048999Y025834D01*
X049122Y025834D02*
X048876Y025834D01*
X049306Y025834D02*
X049306Y026205D01*
X049491Y026019D01*
X049612Y026143D02*
X049674Y026205D01*
X049797Y026205D01*
X050694Y024651D02*
X050817Y024589D01*
X050941Y024466D01*
X050756Y024466D01*
X050694Y024404D01*
X050694Y024342D01*
X050756Y024281D01*
X050879Y024281D01*
X050941Y024342D01*
X050941Y024466D01*
X051062Y024466D02*
X051062Y024342D01*
X051124Y024281D01*
X051248Y024281D01*
X051309Y024342D01*
X051309Y024466D02*
X051186Y024528D01*
X051124Y024528D01*
X051062Y024466D01*
X051062Y024651D02*
X051309Y024651D01*
X051309Y024466D01*
X051431Y024466D02*
X051492Y024404D01*
X051678Y024404D01*
X051678Y024281D02*
X051678Y024651D01*
X051492Y024651D01*
X051431Y024589D01*
X051431Y024466D01*
X051554Y024404D02*
X051431Y024281D01*
X053626Y023722D02*
X053626Y023660D01*
X053873Y023413D01*
X053873Y023352D01*
X053995Y023413D02*
X054057Y023352D01*
X054180Y023352D01*
X054242Y023413D01*
X054242Y023537D02*
X054118Y023598D01*
X054057Y023598D01*
X053995Y023537D01*
X053995Y023413D01*
X054242Y023537D02*
X054242Y023722D01*
X053995Y023722D01*
X053873Y023722D02*
X053626Y023722D01*
X054363Y023660D02*
X054363Y023537D01*
X054425Y023475D01*
X054610Y023475D01*
X054610Y023352D02*
X054610Y023722D01*
X054425Y023722D01*
X054363Y023660D01*
X054487Y023475D02*
X054363Y023352D01*
X054342Y022722D02*
X054342Y022537D01*
X054218Y022598D01*
X054157Y022598D01*
X054095Y022537D01*
X054095Y022413D01*
X054157Y022352D01*
X054280Y022352D01*
X054342Y022413D01*
X054463Y022352D02*
X054587Y022475D01*
X054525Y022475D02*
X054710Y022475D01*
X054710Y022352D02*
X054710Y022722D01*
X054525Y022722D01*
X054463Y022660D01*
X054463Y022537D01*
X054525Y022475D01*
X054342Y022722D02*
X054095Y022722D01*
X053973Y022660D02*
X053912Y022722D01*
X053788Y022722D01*
X053726Y022660D01*
X053726Y022598D01*
X053788Y022537D01*
X053912Y022537D01*
X053973Y022598D01*
X053973Y022660D01*
X053912Y022537D02*
X053973Y022475D01*
X053973Y022413D01*
X053912Y022352D01*
X053788Y022352D01*
X053726Y022413D01*
X053726Y022475D01*
X053788Y022537D01*
X053788Y021622D02*
X053912Y021622D01*
X053973Y021560D01*
X053973Y021498D01*
X053912Y021437D01*
X053726Y021437D01*
X053726Y021560D02*
X053788Y021622D01*
X053726Y021560D02*
X053726Y021313D01*
X053788Y021252D01*
X053912Y021252D01*
X053973Y021313D01*
X054095Y021313D02*
X054157Y021252D01*
X054280Y021252D01*
X054342Y021313D01*
X054342Y021437D02*
X054218Y021498D01*
X054157Y021498D01*
X054095Y021437D01*
X054095Y021313D01*
X054342Y021437D02*
X054342Y021622D01*
X054095Y021622D01*
X054463Y021560D02*
X054463Y021437D01*
X054525Y021375D01*
X054710Y021375D01*
X054710Y021252D02*
X054710Y021622D01*
X054525Y021622D01*
X054463Y021560D01*
X054587Y021375D02*
X054463Y021252D01*
X054525Y020722D02*
X054463Y020660D01*
X054463Y020537D01*
X054525Y020475D01*
X054710Y020475D01*
X054710Y020352D02*
X054710Y020722D01*
X054525Y020722D01*
X054587Y020475D02*
X054463Y020352D01*
X054342Y020413D02*
X054280Y020352D01*
X054157Y020352D01*
X054095Y020413D01*
X054095Y020475D01*
X054157Y020537D01*
X054342Y020537D01*
X054342Y020413D01*
X054342Y020537D02*
X054218Y020660D01*
X054095Y020722D01*
X053973Y020660D02*
X053912Y020722D01*
X053788Y020722D01*
X053726Y020660D01*
X053973Y020413D01*
X053912Y020352D01*
X053788Y020352D01*
X053726Y020413D01*
X053726Y020660D01*
X053973Y020660D02*
X053973Y020413D01*
X049310Y020352D02*
X049310Y020722D01*
X049125Y020722D01*
X049063Y020660D01*
X049063Y020537D01*
X049125Y020475D01*
X049310Y020475D01*
X049187Y020475D02*
X049063Y020352D01*
X048942Y020413D02*
X048880Y020352D01*
X048757Y020352D01*
X048695Y020413D01*
X048695Y020475D01*
X048757Y020537D01*
X048942Y020537D01*
X048942Y020413D01*
X048942Y020537D02*
X048818Y020660D01*
X048695Y020722D01*
X048573Y020537D02*
X048326Y020537D01*
X048388Y020722D02*
X048573Y020537D01*
X048388Y020352D02*
X048388Y020722D01*
X048940Y020947D02*
X049310Y020947D01*
X049310Y021132D01*
X049249Y021194D01*
X049125Y021194D01*
X049063Y021132D01*
X049063Y020947D01*
X049063Y021070D02*
X048940Y021194D01*
X049002Y021315D02*
X048940Y021377D01*
X048940Y021500D01*
X049002Y021562D01*
X049063Y021562D01*
X049125Y021500D01*
X049125Y021315D01*
X049002Y021315D01*
X049125Y021315D02*
X049249Y021438D01*
X049310Y021562D01*
X049249Y021683D02*
X049310Y021745D01*
X049310Y021868D01*
X049249Y021930D01*
X049187Y021930D01*
X049125Y021868D01*
X049063Y021930D01*
X049002Y021930D01*
X048940Y021868D01*
X048940Y021745D01*
X049002Y021683D01*
X049125Y021807D02*
X049125Y021868D01*
X049063Y022352D02*
X049187Y022475D01*
X049125Y022475D02*
X049310Y022475D01*
X049310Y022352D02*
X049310Y022722D01*
X049125Y022722D01*
X049063Y022660D01*
X049063Y022537D01*
X049125Y022475D01*
X048942Y022413D02*
X048880Y022352D01*
X048757Y022352D01*
X048695Y022413D01*
X048695Y022475D01*
X048757Y022537D01*
X048942Y022537D01*
X048942Y022413D01*
X048942Y022537D02*
X048818Y022660D01*
X048695Y022722D01*
X048573Y022660D02*
X048512Y022722D01*
X048388Y022722D01*
X048326Y022660D01*
X048326Y022598D01*
X048573Y022352D01*
X048326Y022352D01*
X048326Y023352D02*
X048573Y023352D01*
X048450Y023352D02*
X048450Y023722D01*
X048573Y023598D01*
X048695Y023475D02*
X048757Y023537D01*
X048942Y023537D01*
X048942Y023413D01*
X048880Y023352D01*
X048757Y023352D01*
X048695Y023413D01*
X048695Y023475D01*
X048818Y023660D02*
X048942Y023537D01*
X049063Y023537D02*
X049125Y023475D01*
X049310Y023475D01*
X049310Y023352D02*
X049310Y023722D01*
X049125Y023722D01*
X049063Y023660D01*
X049063Y023537D01*
X049187Y023475D02*
X049063Y023352D01*
X048818Y023660D02*
X048695Y023722D01*
X047236Y023811D02*
X047051Y023625D01*
X047051Y023872D01*
X047175Y023994D02*
X047236Y024055D01*
X047236Y024179D01*
X047175Y024241D01*
X047113Y024241D01*
X046866Y023994D01*
X046866Y024241D01*
X046866Y023811D02*
X047236Y023811D01*
X047175Y023504D02*
X047236Y023442D01*
X047236Y023319D01*
X047175Y023257D01*
X046928Y023257D01*
X046866Y023319D01*
X046866Y023442D01*
X046928Y023504D01*
X044743Y025858D02*
X044496Y025858D01*
X044434Y025920D01*
X044434Y026043D01*
X044496Y026105D01*
X044496Y026227D02*
X044434Y026288D01*
X044434Y026412D01*
X044496Y026473D01*
X044558Y026473D01*
X044619Y026412D01*
X044619Y026350D01*
X044619Y026412D02*
X044681Y026473D01*
X044743Y026473D01*
X044804Y026412D01*
X044804Y026288D01*
X044743Y026227D01*
X044743Y026105D02*
X044804Y026043D01*
X044804Y025920D01*
X044743Y025858D01*
X044743Y026595D02*
X044681Y026595D01*
X044619Y026657D01*
X044619Y026842D01*
X044496Y026842D02*
X044743Y026842D01*
X044804Y026780D01*
X044804Y026657D01*
X044743Y026595D01*
X044496Y026595D02*
X044434Y026657D01*
X044434Y026780D01*
X044496Y026842D01*
X042654Y025795D02*
X042654Y025672D01*
X042592Y025610D01*
X042531Y025610D01*
X042469Y025672D01*
X042469Y025857D01*
X042592Y025857D02*
X042654Y025795D01*
X042592Y025857D02*
X042345Y025857D01*
X042284Y025795D01*
X042284Y025672D01*
X042345Y025610D01*
X042345Y025489D02*
X042284Y025427D01*
X042284Y025303D01*
X042345Y025242D01*
X042592Y025242D01*
X042654Y025303D01*
X042654Y025427D01*
X042592Y025489D01*
X039296Y023698D02*
X039296Y023452D01*
X039234Y023390D01*
X039111Y023390D01*
X039049Y023452D01*
X038928Y023452D02*
X038866Y023390D01*
X038742Y023390D01*
X038681Y023452D01*
X038681Y023513D01*
X038742Y023575D01*
X038804Y023575D01*
X038742Y023575D02*
X038681Y023637D01*
X038681Y023698D01*
X038742Y023760D01*
X038866Y023760D01*
X038928Y023698D01*
X039049Y023698D02*
X039111Y023760D01*
X039234Y023760D01*
X039296Y023698D01*
X038559Y023575D02*
X038312Y023575D01*
X038374Y023760D02*
X038559Y023575D01*
X038374Y023390D02*
X038374Y023760D01*
X037819Y022987D02*
X037881Y022926D01*
X037881Y022679D01*
X037819Y022617D01*
X037696Y022617D01*
X037634Y022679D01*
X037512Y022617D02*
X037265Y022864D01*
X037265Y022926D01*
X037327Y022987D01*
X037451Y022987D01*
X037512Y022926D01*
X037634Y022926D02*
X037696Y022987D01*
X037819Y022987D01*
X037512Y022617D02*
X037265Y022617D01*
X037144Y022617D02*
X037144Y022679D01*
X036897Y022926D01*
X036897Y022987D01*
X037144Y022987D01*
X037203Y021381D02*
X037080Y021381D01*
X037018Y021319D01*
X037018Y021258D01*
X037080Y021196D01*
X037203Y021196D01*
X037265Y021258D01*
X037265Y021319D01*
X037203Y021381D01*
X037203Y021196D02*
X037265Y021134D01*
X037265Y021072D01*
X037203Y021011D01*
X037080Y021011D01*
X037018Y021072D01*
X037018Y021134D01*
X037080Y021196D01*
X037386Y021258D02*
X037386Y021319D01*
X037448Y021381D01*
X037572Y021381D01*
X037633Y021319D01*
X037755Y021319D02*
X037816Y021381D01*
X037940Y021381D01*
X038002Y021319D01*
X038002Y021072D01*
X037940Y021011D01*
X037816Y021011D01*
X037755Y021072D01*
X037633Y021011D02*
X037386Y021258D01*
X037386Y021011D02*
X037633Y021011D01*
X038546Y020496D02*
X038669Y020434D01*
X038793Y020310D01*
X038608Y020310D01*
X038546Y020249D01*
X038546Y020187D01*
X038608Y020125D01*
X038731Y020125D01*
X038793Y020187D01*
X038793Y020310D01*
X038914Y020249D02*
X038914Y020187D01*
X038976Y020125D01*
X039099Y020125D01*
X039161Y020187D01*
X039282Y020187D02*
X039344Y020125D01*
X039468Y020125D01*
X039529Y020187D01*
X039529Y020434D01*
X039468Y020496D01*
X039344Y020496D01*
X039282Y020434D01*
X039161Y020434D02*
X039099Y020496D01*
X038976Y020496D01*
X038914Y020434D01*
X038914Y020372D01*
X038976Y020310D01*
X038914Y020249D01*
X038976Y020310D02*
X039038Y020310D01*
X039711Y021500D02*
X039649Y021562D01*
X039649Y021686D01*
X039711Y021747D01*
X039711Y021869D02*
X039649Y021930D01*
X039649Y022054D01*
X039711Y022116D01*
X039773Y022116D01*
X039835Y022054D01*
X039835Y021992D01*
X039835Y022054D02*
X039896Y022116D01*
X039958Y022116D01*
X040020Y022054D01*
X040020Y021930D01*
X039958Y021869D01*
X039958Y021747D02*
X040020Y021686D01*
X040020Y021562D01*
X039958Y021500D01*
X039711Y021500D01*
X039711Y022237D02*
X039649Y022299D01*
X039649Y022422D01*
X039711Y022484D01*
X039835Y022484D01*
X039896Y022422D01*
X039896Y022361D01*
X039835Y022237D01*
X040020Y022237D01*
X040020Y022484D01*
X037049Y019030D02*
X036987Y019030D01*
X036925Y018968D01*
X036925Y018845D01*
X036987Y018783D01*
X037049Y018783D01*
X037110Y018845D01*
X037110Y018968D01*
X037049Y019030D01*
X036925Y018968D02*
X036863Y019030D01*
X036802Y019030D01*
X036740Y018968D01*
X036740Y018845D01*
X036802Y018783D01*
X036863Y018783D01*
X036925Y018845D01*
X036863Y018662D02*
X036925Y018600D01*
X036925Y018415D01*
X036802Y018415D01*
X036740Y018477D01*
X036740Y018600D01*
X036802Y018662D01*
X036863Y018662D01*
X037049Y018538D02*
X036925Y018415D01*
X036925Y018294D02*
X036863Y018232D01*
X036863Y018047D01*
X036740Y018047D02*
X037110Y018047D01*
X037110Y018232D01*
X037049Y018294D01*
X036925Y018294D01*
X036863Y018170D02*
X036740Y018294D01*
X037049Y018538D02*
X037110Y018662D01*
X037640Y018745D02*
X037640Y018868D01*
X037702Y018930D01*
X037763Y018930D01*
X037825Y018868D01*
X037825Y018683D01*
X037702Y018683D01*
X037640Y018745D01*
X037702Y018562D02*
X037640Y018500D01*
X037640Y018377D01*
X037702Y018315D01*
X037825Y018315D01*
X037825Y018500D01*
X037763Y018562D01*
X037702Y018562D01*
X037825Y018683D02*
X037949Y018807D01*
X038010Y018930D01*
X038010Y018562D02*
X037949Y018438D01*
X037825Y018315D01*
X037825Y018194D02*
X037763Y018132D01*
X037763Y017947D01*
X037640Y017947D02*
X038010Y017947D01*
X038010Y018132D01*
X037949Y018194D01*
X037825Y018194D01*
X037763Y018070D02*
X037640Y018194D01*
X035502Y019369D02*
X035502Y019616D01*
X035440Y019677D01*
X035316Y019677D01*
X035255Y019616D01*
X035133Y019616D02*
X035072Y019677D01*
X034948Y019677D01*
X034886Y019616D01*
X034886Y019554D01*
X034948Y019492D01*
X034886Y019431D01*
X034886Y019369D01*
X034948Y019307D01*
X035072Y019307D01*
X035133Y019369D01*
X035255Y019369D02*
X035316Y019307D01*
X035440Y019307D01*
X035502Y019369D01*
X035010Y019492D02*
X034948Y019492D01*
X034765Y019554D02*
X034641Y019677D01*
X034641Y019307D01*
X034518Y019307D02*
X034765Y019307D01*
X034799Y017086D02*
X034799Y016839D01*
X035046Y017086D01*
X035108Y017086D01*
X035169Y017024D01*
X035169Y016901D01*
X035108Y016839D01*
X035108Y016718D02*
X035046Y016718D01*
X034984Y016656D01*
X034922Y016718D01*
X034861Y016718D01*
X034799Y016656D01*
X034799Y016533D01*
X034861Y016471D01*
X034861Y016349D02*
X034799Y016288D01*
X034799Y016164D01*
X034861Y016103D01*
X035108Y016103D01*
X035169Y016164D01*
X035169Y016288D01*
X035108Y016349D01*
X035108Y016471D02*
X035169Y016533D01*
X035169Y016656D01*
X035108Y016718D01*
X034984Y016656D02*
X034984Y016594D01*
X032260Y015292D02*
X032067Y015292D01*
X032163Y015292D02*
X032163Y015002D01*
X031965Y015002D02*
X031772Y015002D01*
X031869Y015002D02*
X031869Y015292D01*
X031965Y015195D01*
X031671Y015195D02*
X031574Y015292D01*
X031574Y015002D01*
X031671Y015002D02*
X031477Y015002D01*
X031469Y014792D02*
X031469Y014502D01*
X031565Y014502D02*
X031372Y014502D01*
X031271Y014550D02*
X031077Y014743D01*
X031077Y014550D01*
X031126Y014502D01*
X031222Y014502D01*
X031271Y014550D01*
X031271Y014743D01*
X031222Y014792D01*
X031126Y014792D01*
X031077Y014743D01*
X031063Y014392D02*
X031063Y014102D01*
X030865Y014150D02*
X030817Y014102D01*
X030720Y014102D01*
X030672Y014150D01*
X030672Y014343D01*
X030720Y014392D01*
X030817Y014392D01*
X030865Y014343D01*
X030865Y014295D01*
X030817Y014247D01*
X030672Y014247D01*
X030967Y014392D02*
X031160Y014392D01*
X031565Y014695D02*
X031469Y014792D01*
X031667Y014792D02*
X031860Y014792D01*
X031763Y014792D02*
X031763Y014502D01*
X029960Y014892D02*
X029767Y014892D01*
X029863Y014892D02*
X029863Y014602D01*
X029665Y014650D02*
X029665Y014698D01*
X029617Y014747D01*
X029520Y014747D01*
X029472Y014698D01*
X029472Y014650D01*
X029520Y014602D01*
X029617Y014602D01*
X029665Y014650D01*
X029617Y014747D02*
X029665Y014795D01*
X029665Y014843D01*
X029617Y014892D01*
X029520Y014892D01*
X029472Y014843D01*
X029472Y014795D01*
X029520Y014747D01*
X029260Y014592D02*
X029067Y014592D01*
X029163Y014592D02*
X029163Y014302D01*
X028965Y014302D02*
X028965Y014350D01*
X028772Y014543D01*
X028772Y014592D01*
X028965Y014592D01*
X028660Y014092D02*
X028467Y014092D01*
X028563Y014092D02*
X028563Y013802D01*
X028365Y013850D02*
X028317Y013802D01*
X028220Y013802D01*
X028172Y013850D01*
X028172Y013947D01*
X028220Y013995D01*
X028269Y013995D01*
X028365Y013947D01*
X028365Y014092D01*
X028172Y014092D01*
X028720Y013292D02*
X028865Y013147D01*
X028672Y013147D01*
X028720Y013002D02*
X028720Y013292D01*
X028967Y013292D02*
X029160Y013292D01*
X029063Y013292D02*
X029063Y013002D01*
X028460Y012892D02*
X028267Y012892D01*
X028363Y012892D02*
X028363Y012602D01*
X028165Y012650D02*
X028117Y012602D01*
X028020Y012602D01*
X027972Y012650D01*
X027972Y012698D01*
X028020Y012747D01*
X028069Y012747D01*
X028020Y012747D02*
X027972Y012795D01*
X027972Y012843D01*
X028020Y012892D01*
X028117Y012892D01*
X028165Y012843D01*
X027960Y012592D02*
X027767Y012592D01*
X027863Y012592D02*
X027863Y012302D01*
X027665Y012302D02*
X027472Y012495D01*
X027472Y012543D01*
X027520Y012592D01*
X027617Y012592D01*
X027665Y012543D01*
X027665Y012302D02*
X027472Y012302D01*
X027260Y012192D02*
X027067Y012192D01*
X027163Y012192D02*
X027163Y011902D01*
X026965Y011902D02*
X026772Y011902D01*
X026869Y011902D02*
X026869Y012192D01*
X026965Y012095D01*
X026460Y011892D02*
X026267Y011892D01*
X026363Y011892D02*
X026363Y011602D01*
X026165Y011650D02*
X025972Y011843D01*
X025972Y011650D01*
X026020Y011602D01*
X026117Y011602D01*
X026165Y011650D01*
X026165Y011843D01*
X026117Y011892D01*
X026020Y011892D01*
X025972Y011843D01*
X029472Y013550D02*
X029472Y013598D01*
X029520Y013647D01*
X029665Y013647D01*
X029665Y013550D01*
X029617Y013502D01*
X029520Y013502D01*
X029472Y013550D01*
X029569Y013743D02*
X029665Y013647D01*
X029569Y013743D02*
X029472Y013792D01*
X029767Y013792D02*
X029960Y013792D01*
X029863Y013792D02*
X029863Y013502D01*
X030620Y016422D02*
X030744Y016422D01*
X030805Y016484D01*
X030927Y016422D02*
X031174Y016422D01*
X031050Y016422D02*
X031050Y016793D01*
X031174Y016669D01*
X031295Y016731D02*
X031295Y016484D01*
X031357Y016422D01*
X031542Y016422D01*
X031542Y016793D01*
X031357Y016793D01*
X031295Y016731D01*
X030805Y016731D02*
X030744Y016793D01*
X030620Y016793D01*
X030559Y016731D01*
X030559Y016669D01*
X030620Y016608D01*
X030559Y016546D01*
X030559Y016484D01*
X030620Y016422D01*
X030620Y016608D02*
X030682Y016608D01*
X030631Y017606D02*
X030878Y017606D01*
X030631Y017852D01*
X030631Y017914D01*
X030693Y017976D01*
X030816Y017976D01*
X030878Y017914D01*
X031123Y017976D02*
X031123Y017606D01*
X031246Y017606D02*
X030999Y017606D01*
X031246Y017852D02*
X031123Y017976D01*
X031367Y017914D02*
X031429Y017976D01*
X031614Y017976D01*
X031614Y017606D01*
X031429Y017606D01*
X031367Y017667D01*
X031367Y017914D01*
X031425Y018439D02*
X031364Y018501D01*
X031364Y018748D01*
X031425Y018809D01*
X031611Y018809D01*
X031611Y018439D01*
X031425Y018439D01*
X031242Y018439D02*
X030995Y018439D01*
X030874Y018439D02*
X030627Y018439D01*
X030751Y018439D02*
X030751Y018809D01*
X030874Y018686D01*
X031119Y018809D02*
X031119Y018439D01*
X031242Y018686D02*
X031119Y018809D01*
X041267Y017365D02*
X041267Y017303D01*
X041514Y017056D01*
X041514Y016995D01*
X041635Y017056D02*
X041697Y016995D01*
X041821Y016995D01*
X041882Y017056D01*
X042004Y017056D02*
X042065Y016995D01*
X042189Y016995D01*
X042251Y017056D01*
X042251Y017303D01*
X042189Y017365D01*
X042065Y017365D01*
X042004Y017303D01*
X041882Y017303D02*
X041821Y017365D01*
X041697Y017365D01*
X041635Y017303D01*
X041635Y017241D01*
X041697Y017180D01*
X041635Y017118D01*
X041635Y017056D01*
X041697Y017180D02*
X041759Y017180D01*
X041514Y017365D02*
X041267Y017365D01*
X025601Y030153D02*
X025539Y030091D01*
X025416Y030091D01*
X025354Y030153D01*
X025354Y030461D01*
X025232Y030338D02*
X025109Y030461D01*
X025109Y030091D01*
X025232Y030091D02*
X024986Y030091D01*
X024864Y030153D02*
X024802Y030091D01*
X024679Y030091D01*
X024617Y030153D01*
X024617Y030400D01*
X024864Y030153D01*
X024864Y030400D01*
X024802Y030461D01*
X024679Y030461D01*
X024617Y030400D01*
X025601Y030461D02*
X025601Y030153D01*
X022138Y031963D02*
X022076Y031902D01*
X021953Y031902D01*
X021891Y031963D01*
X021891Y032087D01*
X022015Y032087D01*
X022138Y032210D02*
X022138Y031963D01*
X022138Y032210D02*
X022076Y032272D01*
X021953Y032272D01*
X021891Y032210D01*
X021770Y032272D02*
X021523Y031902D01*
X021523Y032272D01*
X021402Y032272D02*
X021402Y031902D01*
X021216Y031902D01*
X021155Y031963D01*
X021155Y032210D01*
X021216Y032272D01*
X021402Y032272D01*
X021770Y032272D02*
X021770Y031902D01*
X021723Y031172D02*
X021970Y031172D01*
X021970Y030987D01*
X021846Y031048D01*
X021785Y031048D01*
X021723Y030987D01*
X021723Y030863D01*
X021785Y030802D01*
X021908Y030802D01*
X021970Y030863D01*
X021602Y030925D02*
X021478Y030802D01*
X021355Y030925D01*
X021355Y031172D01*
X021602Y031172D02*
X021602Y030925D01*
X021233Y030740D02*
X020986Y030740D01*
X020865Y030863D02*
X020803Y030802D01*
X020680Y030802D01*
X020618Y030863D01*
X020497Y030802D02*
X020497Y031048D01*
X020373Y031172D01*
X020250Y031048D01*
X020250Y030802D01*
X020128Y030802D02*
X020128Y031172D01*
X019881Y030802D01*
X019881Y031172D01*
X020250Y030987D02*
X020497Y030987D01*
X020618Y031110D02*
X020680Y031172D01*
X020803Y031172D01*
X020865Y031110D01*
X020865Y030863D01*
X020786Y031840D02*
X021033Y031840D01*
X020665Y031963D02*
X020665Y032210D01*
X020603Y032272D01*
X020480Y032272D01*
X020418Y032210D01*
X020297Y032148D02*
X020173Y032272D01*
X020050Y032148D01*
X020050Y031902D01*
X019928Y031902D02*
X019928Y032272D01*
X019681Y031902D01*
X019681Y032272D01*
X020050Y032087D02*
X020297Y032087D01*
X020297Y032148D02*
X020297Y031902D01*
X020418Y031963D02*
X020480Y031902D01*
X020603Y031902D01*
X020665Y031963D01*
D14*
X024798Y031504D02*
X024798Y031023D01*
X024839Y030706D02*
X024959Y030706D01*
X024963Y030706D02*
X025318Y030706D01*
X025318Y031122D01*
X025321Y031397D02*
X025321Y031824D01*
X024843Y031824D01*
X034211Y025362D02*
X034368Y025028D01*
X034624Y025028D01*
X034624Y025126D01*
X034545Y025126D01*
X034368Y025028D02*
X034526Y025343D01*
X034526Y025362D02*
X034211Y025362D01*
X034152Y025028D02*
X034152Y024929D01*
X034231Y024929D01*
X034152Y025028D02*
X034368Y025028D01*
X041880Y030370D02*
X041938Y030312D01*
X042055Y030312D01*
X042113Y030370D01*
X042113Y030604D01*
X042055Y030662D01*
X041938Y030662D01*
X041880Y030604D01*
X042248Y030604D02*
X042307Y030662D01*
X042423Y030662D01*
X042482Y030604D01*
X042482Y030370D01*
X042423Y030312D01*
X042307Y030312D01*
X042248Y030370D01*
X042616Y030428D02*
X042616Y030662D01*
X042616Y030428D02*
X042733Y030312D01*
X042850Y030428D01*
X042850Y030662D01*
D15*
X043075Y030487D02*
X043275Y030487D01*
X042425Y030187D02*
X042425Y029787D01*
X034939Y026071D02*
X034939Y024260D01*
X033837Y024260D02*
X033837Y026071D01*
D16*
X029754Y026498D02*
X029504Y026648D01*
X029754Y026798D01*
X029754Y026498D01*
X029754Y026505D02*
X029743Y026505D01*
X029754Y026513D02*
X029729Y026513D01*
X029714Y026522D02*
X029754Y026522D01*
X029754Y026530D02*
X029700Y026530D01*
X029686Y026539D02*
X029754Y026539D01*
X029754Y026547D02*
X029672Y026547D01*
X029658Y026556D02*
X029754Y026556D01*
X029754Y026564D02*
X029644Y026564D01*
X029629Y026573D02*
X029754Y026573D01*
X029754Y026581D02*
X029615Y026581D01*
X029601Y026590D02*
X029754Y026590D01*
X029754Y026598D02*
X029587Y026598D01*
X029573Y026607D02*
X029754Y026607D01*
X029754Y026615D02*
X029559Y026615D01*
X029544Y026624D02*
X029754Y026624D01*
X029754Y026632D02*
X029530Y026632D01*
X029516Y026641D02*
X029754Y026641D01*
X029754Y026649D02*
X029506Y026649D01*
X029520Y026658D02*
X029754Y026658D01*
X029754Y026666D02*
X029534Y026666D01*
X029548Y026675D02*
X029754Y026675D01*
X029754Y026683D02*
X029562Y026683D01*
X029576Y026692D02*
X029754Y026692D01*
X029754Y026700D02*
X029591Y026700D01*
X029605Y026709D02*
X029754Y026709D01*
X029754Y026717D02*
X029619Y026717D01*
X029633Y026726D02*
X029754Y026726D01*
X029754Y026734D02*
X029647Y026734D01*
X029661Y026743D02*
X029754Y026743D01*
X029754Y026751D02*
X029676Y026751D01*
X029690Y026760D02*
X029754Y026760D01*
X029754Y026768D02*
X029704Y026768D01*
X029718Y026777D02*
X029754Y026777D01*
X029754Y026785D02*
X029732Y026785D01*
X029746Y026794D02*
X029754Y026794D01*
X029554Y025989D02*
X029304Y025839D01*
X029554Y025689D01*
X029554Y025989D01*
X029554Y025986D02*
X029550Y025986D01*
X029554Y025978D02*
X029535Y025978D01*
X029521Y025969D02*
X029554Y025969D01*
X029554Y025961D02*
X029507Y025961D01*
X029493Y025952D02*
X029554Y025952D01*
X029554Y025944D02*
X029479Y025944D01*
X029465Y025935D02*
X029554Y025935D01*
X029554Y025927D02*
X029450Y025927D01*
X029436Y025918D02*
X029554Y025918D01*
X029554Y025910D02*
X029422Y025910D01*
X029408Y025901D02*
X029554Y025901D01*
X029554Y025893D02*
X029394Y025893D01*
X029380Y025884D02*
X029554Y025884D01*
X029554Y025876D02*
X029365Y025876D01*
X029351Y025867D02*
X029554Y025867D01*
X029554Y025859D02*
X029337Y025859D01*
X029323Y025850D02*
X029554Y025850D01*
X029554Y025842D02*
X029309Y025842D01*
X029313Y025833D02*
X029554Y025833D01*
X029554Y025825D02*
X029327Y025825D01*
X029341Y025816D02*
X029554Y025816D01*
X029554Y025808D02*
X029355Y025808D01*
X029370Y025799D02*
X029554Y025799D01*
X029554Y025791D02*
X029384Y025791D01*
X029398Y025782D02*
X029554Y025782D01*
X029554Y025774D02*
X029412Y025774D01*
X029426Y025765D02*
X029554Y025765D01*
X029554Y025757D02*
X029440Y025757D01*
X029455Y025748D02*
X029554Y025748D01*
X029554Y025740D02*
X029469Y025740D01*
X029483Y025731D02*
X029554Y025731D01*
X029554Y025723D02*
X029497Y025723D01*
X029511Y025714D02*
X029554Y025714D01*
X029554Y025706D02*
X029525Y025706D01*
X029540Y025697D02*
X029554Y025697D01*
X029454Y025277D02*
X029204Y025127D01*
X029454Y024977D01*
X029454Y025277D01*
X029454Y025272D02*
X029446Y025272D01*
X029454Y025264D02*
X029432Y025264D01*
X029418Y025255D02*
X029454Y025255D01*
X029454Y025247D02*
X029403Y025247D01*
X029389Y025238D02*
X029454Y025238D01*
X029454Y025230D02*
X029375Y025230D01*
X029361Y025221D02*
X029454Y025221D01*
X029454Y025213D02*
X029347Y025213D01*
X029333Y025204D02*
X029454Y025204D01*
X029454Y025196D02*
X029318Y025196D01*
X029304Y025187D02*
X029454Y025187D01*
X029454Y025179D02*
X029290Y025179D01*
X029276Y025170D02*
X029454Y025170D01*
X029454Y025162D02*
X029262Y025162D01*
X029248Y025153D02*
X029454Y025153D01*
X029454Y025145D02*
X029233Y025145D01*
X029219Y025136D02*
X029454Y025136D01*
X029454Y025128D02*
X029205Y025128D01*
X029217Y025119D02*
X029454Y025119D01*
X029454Y025111D02*
X029231Y025111D01*
X029245Y025102D02*
X029454Y025102D01*
X029454Y025094D02*
X029259Y025094D01*
X029273Y025085D02*
X029454Y025085D01*
X029454Y025077D02*
X029287Y025077D01*
X029302Y025068D02*
X029454Y025068D01*
X029454Y025060D02*
X029316Y025060D01*
X029330Y025051D02*
X029454Y025051D01*
X029454Y025043D02*
X029344Y025043D01*
X029358Y025034D02*
X029454Y025034D01*
X029454Y025026D02*
X029372Y025026D01*
X029387Y025017D02*
X029454Y025017D01*
X029454Y025009D02*
X029401Y025009D01*
X029415Y025000D02*
X029454Y025000D01*
X029454Y024992D02*
X029429Y024992D01*
X029443Y024983D02*
X029454Y024983D01*
X029354Y024380D02*
X029104Y024230D01*
X029354Y024080D01*
X029354Y024380D01*
X029353Y024380D01*
X029354Y024371D02*
X029339Y024371D01*
X029325Y024363D02*
X029354Y024363D01*
X029354Y024354D02*
X029311Y024354D01*
X029297Y024346D02*
X029354Y024346D01*
X029354Y024337D02*
X029282Y024337D01*
X029268Y024329D02*
X029354Y024329D01*
X029354Y024320D02*
X029254Y024320D01*
X029240Y024312D02*
X029354Y024312D01*
X029354Y024303D02*
X029226Y024303D01*
X029212Y024295D02*
X029354Y024295D01*
X029354Y024286D02*
X029197Y024286D01*
X029183Y024278D02*
X029354Y024278D01*
X029354Y024269D02*
X029169Y024269D01*
X029155Y024261D02*
X029354Y024261D01*
X029354Y024252D02*
X029141Y024252D01*
X029127Y024244D02*
X029354Y024244D01*
X029354Y024235D02*
X029112Y024235D01*
X029109Y024227D02*
X029354Y024227D01*
X029354Y024218D02*
X029123Y024218D01*
X029138Y024210D02*
X029354Y024210D01*
X029354Y024201D02*
X029152Y024201D01*
X029166Y024193D02*
X029354Y024193D01*
X029354Y024184D02*
X029180Y024184D01*
X029194Y024176D02*
X029354Y024176D01*
X029354Y024167D02*
X029208Y024167D01*
X029223Y024159D02*
X029354Y024159D01*
X029354Y024150D02*
X029237Y024150D01*
X029251Y024142D02*
X029354Y024142D01*
X029354Y024133D02*
X029265Y024133D01*
X029279Y024125D02*
X029354Y024125D01*
X029354Y024116D02*
X029293Y024116D01*
X029308Y024108D02*
X029354Y024108D01*
X029354Y024099D02*
X029322Y024099D01*
X029336Y024091D02*
X029354Y024091D01*
X029350Y024082D02*
X029354Y024082D01*
X029354Y023414D02*
X029104Y023264D01*
X029354Y023114D01*
X029354Y023414D01*
X029354Y023411D02*
X029347Y023411D01*
X029354Y023402D02*
X029333Y023402D01*
X029319Y023394D02*
X029354Y023394D01*
X029354Y023385D02*
X029305Y023385D01*
X029291Y023377D02*
X029354Y023377D01*
X029354Y023368D02*
X029276Y023368D01*
X029262Y023360D02*
X029354Y023360D01*
X029354Y023351D02*
X029248Y023351D01*
X029234Y023343D02*
X029354Y023343D01*
X029354Y023334D02*
X029220Y023334D01*
X029206Y023326D02*
X029354Y023326D01*
X029354Y023317D02*
X029191Y023317D01*
X029177Y023309D02*
X029354Y023309D01*
X029354Y023300D02*
X029163Y023300D01*
X029149Y023292D02*
X029354Y023292D01*
X029354Y023283D02*
X029135Y023283D01*
X029121Y023275D02*
X029354Y023275D01*
X029354Y023266D02*
X029106Y023266D01*
X029115Y023258D02*
X029354Y023258D01*
X029354Y023249D02*
X029129Y023249D01*
X029144Y023241D02*
X029354Y023241D01*
X029354Y023232D02*
X029158Y023232D01*
X029172Y023224D02*
X029354Y023224D01*
X029354Y023215D02*
X029186Y023215D01*
X029200Y023206D02*
X029354Y023206D01*
X029354Y023198D02*
X029214Y023198D01*
X029229Y023189D02*
X029354Y023189D01*
X029354Y023181D02*
X029243Y023181D01*
X029257Y023172D02*
X029354Y023172D01*
X029354Y023164D02*
X029271Y023164D01*
X029285Y023155D02*
X029354Y023155D01*
X029354Y023147D02*
X029299Y023147D01*
X029314Y023138D02*
X029354Y023138D01*
X029354Y023130D02*
X029328Y023130D01*
X029342Y023121D02*
X029354Y023121D01*
X029354Y022454D02*
X029104Y022304D01*
X029354Y022154D01*
X029354Y022454D01*
X029354Y022450D02*
X029347Y022450D01*
X029354Y022441D02*
X029333Y022441D01*
X029319Y022433D02*
X029354Y022433D01*
X029354Y022424D02*
X029305Y022424D01*
X029290Y022416D02*
X029354Y022416D01*
X029354Y022407D02*
X029276Y022407D01*
X029262Y022399D02*
X029354Y022399D01*
X029354Y022390D02*
X029248Y022390D01*
X029234Y022382D02*
X029354Y022382D01*
X029354Y022373D02*
X029220Y022373D01*
X029205Y022365D02*
X029354Y022365D01*
X029354Y022356D02*
X029191Y022356D01*
X029177Y022348D02*
X029354Y022348D01*
X029354Y022339D02*
X029163Y022339D01*
X029149Y022331D02*
X029354Y022331D01*
X029354Y022322D02*
X029135Y022322D01*
X029120Y022314D02*
X029354Y022314D01*
X029354Y022305D02*
X029106Y022305D01*
X029115Y022297D02*
X029354Y022297D01*
X029354Y022288D02*
X029130Y022288D01*
X029144Y022280D02*
X029354Y022280D01*
X029354Y022271D02*
X029158Y022271D01*
X029172Y022263D02*
X029354Y022263D01*
X029354Y022254D02*
X029186Y022254D01*
X029200Y022246D02*
X029354Y022246D01*
X029354Y022237D02*
X029215Y022237D01*
X029229Y022229D02*
X029354Y022229D01*
X029354Y022220D02*
X029243Y022220D01*
X029257Y022212D02*
X029354Y022212D01*
X029354Y022203D02*
X029271Y022203D01*
X029285Y022195D02*
X029354Y022195D01*
X029354Y022186D02*
X029300Y022186D01*
X029314Y022178D02*
X029354Y022178D01*
X029354Y022169D02*
X029328Y022169D01*
X029342Y022161D02*
X029354Y022161D01*
X029354Y021580D02*
X029104Y021430D01*
X029354Y021430D01*
X029354Y021438D02*
X029118Y021438D01*
X029104Y021430D02*
X029354Y021280D01*
X029354Y021580D01*
X029354Y021574D02*
X029345Y021574D01*
X029354Y021566D02*
X029330Y021566D01*
X029316Y021557D02*
X029354Y021557D01*
X029354Y021549D02*
X029302Y021549D01*
X029288Y021540D02*
X029354Y021540D01*
X029354Y021532D02*
X029274Y021532D01*
X029260Y021523D02*
X029354Y021523D01*
X029354Y021515D02*
X029245Y021515D01*
X029231Y021506D02*
X029354Y021506D01*
X029354Y021498D02*
X029217Y021498D01*
X029203Y021489D02*
X029354Y021489D01*
X029354Y021481D02*
X029189Y021481D01*
X029175Y021472D02*
X029354Y021472D01*
X029354Y021464D02*
X029160Y021464D01*
X029146Y021455D02*
X029354Y021455D01*
X029354Y021447D02*
X029132Y021447D01*
X029118Y021421D02*
X029354Y021421D01*
X029354Y021413D02*
X029132Y021413D01*
X029146Y021404D02*
X029354Y021404D01*
X029354Y021396D02*
X029160Y021396D01*
X029175Y021387D02*
X029354Y021387D01*
X029354Y021379D02*
X029189Y021379D01*
X029203Y021370D02*
X029354Y021370D01*
X029354Y021362D02*
X029217Y021362D01*
X029231Y021353D02*
X029354Y021353D01*
X029354Y021345D02*
X029245Y021345D01*
X029260Y021336D02*
X029354Y021336D01*
X029354Y021328D02*
X029274Y021328D01*
X029288Y021319D02*
X029354Y021319D01*
X029354Y021311D02*
X029302Y021311D01*
X029316Y021302D02*
X029354Y021302D01*
X029354Y021294D02*
X029330Y021294D01*
X029345Y021285D02*
X029354Y021285D01*
X029354Y020541D02*
X029104Y020391D01*
X029354Y020241D01*
X029354Y020541D01*
X029354Y020537D02*
X029349Y020537D01*
X029354Y020529D02*
X029334Y020529D01*
X029320Y020520D02*
X029354Y020520D01*
X029354Y020512D02*
X029306Y020512D01*
X029292Y020503D02*
X029354Y020503D01*
X029354Y020495D02*
X029278Y020495D01*
X029264Y020486D02*
X029354Y020486D01*
X029354Y020478D02*
X029249Y020478D01*
X029235Y020469D02*
X029354Y020469D01*
X029354Y020461D02*
X029221Y020461D01*
X029207Y020452D02*
X029354Y020452D01*
X029354Y020444D02*
X029193Y020444D01*
X029179Y020435D02*
X029354Y020435D01*
X029354Y020427D02*
X029164Y020427D01*
X029150Y020418D02*
X029354Y020418D01*
X029354Y020410D02*
X029136Y020410D01*
X029122Y020401D02*
X029354Y020401D01*
X029354Y020393D02*
X029108Y020393D01*
X029114Y020384D02*
X029354Y020384D01*
X029354Y020376D02*
X029128Y020376D01*
X029142Y020367D02*
X029354Y020367D01*
X029354Y020359D02*
X029156Y020359D01*
X029171Y020350D02*
X029354Y020350D01*
X029354Y020342D02*
X029185Y020342D01*
X029199Y020333D02*
X029354Y020333D01*
X029354Y020325D02*
X029213Y020325D01*
X029227Y020316D02*
X029354Y020316D01*
X029354Y020308D02*
X029241Y020308D01*
X029256Y020299D02*
X029354Y020299D01*
X029354Y020291D02*
X029270Y020291D01*
X029284Y020282D02*
X029354Y020282D01*
X029354Y020274D02*
X029298Y020274D01*
X029312Y020265D02*
X029354Y020265D01*
X029354Y020257D02*
X029326Y020257D01*
X029341Y020248D02*
X029354Y020248D01*
X029354Y019604D02*
X029104Y019454D01*
X029354Y019304D01*
X029354Y019604D01*
X029352Y019602D02*
X029354Y019602D01*
X029354Y019594D02*
X029338Y019594D01*
X029323Y019585D02*
X029354Y019585D01*
X029354Y019577D02*
X029309Y019577D01*
X029295Y019568D02*
X029354Y019568D01*
X029354Y019560D02*
X029281Y019560D01*
X029267Y019551D02*
X029354Y019551D01*
X029354Y019543D02*
X029253Y019543D01*
X029238Y019534D02*
X029354Y019534D01*
X029354Y019526D02*
X029224Y019526D01*
X029210Y019517D02*
X029354Y019517D01*
X029354Y019509D02*
X029196Y019509D01*
X029182Y019500D02*
X029354Y019500D01*
X029354Y019492D02*
X029168Y019492D01*
X029153Y019483D02*
X029354Y019483D01*
X029354Y019475D02*
X029139Y019475D01*
X029125Y019466D02*
X029354Y019466D01*
X029354Y019458D02*
X029111Y019458D01*
X029111Y019449D02*
X029354Y019449D01*
X029354Y019441D02*
X029125Y019441D01*
X029139Y019432D02*
X029354Y019432D01*
X029354Y019424D02*
X029153Y019424D01*
X029167Y019415D02*
X029354Y019415D01*
X029354Y019407D02*
X029181Y019407D01*
X029196Y019398D02*
X029354Y019398D01*
X029354Y019390D02*
X029210Y019390D01*
X029224Y019381D02*
X029354Y019381D01*
X029354Y019373D02*
X029238Y019373D01*
X029252Y019364D02*
X029354Y019364D01*
X029354Y019356D02*
X029266Y019356D01*
X029281Y019347D02*
X029354Y019347D01*
X029354Y019339D02*
X029295Y019339D01*
X029309Y019330D02*
X029354Y019330D01*
X029354Y019322D02*
X029323Y019322D01*
X029337Y019313D02*
X029354Y019313D01*
X029352Y019305D02*
X029354Y019305D01*
X029354Y018718D02*
X029104Y018568D01*
X029354Y018418D01*
X029354Y018718D01*
X029354Y018710D02*
X029341Y018710D01*
X029354Y018701D02*
X029326Y018701D01*
X029312Y018693D02*
X029354Y018693D01*
X029354Y018684D02*
X029298Y018684D01*
X029284Y018676D02*
X029354Y018676D01*
X029354Y018667D02*
X029270Y018667D01*
X029256Y018659D02*
X029354Y018659D01*
X029354Y018650D02*
X029241Y018650D01*
X029227Y018642D02*
X029354Y018642D01*
X029354Y018633D02*
X029213Y018633D01*
X029199Y018625D02*
X029354Y018625D01*
X029354Y018616D02*
X029185Y018616D01*
X029171Y018608D02*
X029354Y018608D01*
X029354Y018599D02*
X029156Y018599D01*
X029142Y018591D02*
X029354Y018591D01*
X029354Y018582D02*
X029128Y018582D01*
X029114Y018574D02*
X029354Y018574D01*
X029354Y018565D02*
X029108Y018565D01*
X029122Y018557D02*
X029354Y018557D01*
X029354Y018548D02*
X029136Y018548D01*
X029150Y018540D02*
X029354Y018540D01*
X029354Y018531D02*
X029164Y018531D01*
X029178Y018523D02*
X029354Y018523D01*
X029354Y018514D02*
X029193Y018514D01*
X029207Y018506D02*
X029354Y018506D01*
X029354Y018497D02*
X029221Y018497D01*
X029235Y018489D02*
X029354Y018489D01*
X029354Y018480D02*
X029249Y018480D01*
X029263Y018472D02*
X029354Y018472D01*
X029354Y018463D02*
X029278Y018463D01*
X029292Y018455D02*
X029354Y018455D01*
X029354Y018446D02*
X029306Y018446D01*
X029320Y018438D02*
X029354Y018438D01*
X029354Y018429D02*
X029334Y018429D01*
X029348Y018421D02*
X029354Y018421D01*
X029354Y017730D02*
X029104Y017580D01*
X029354Y017430D01*
X029354Y017730D01*
X029354Y017724D02*
X029344Y017724D01*
X029354Y017715D02*
X029330Y017715D01*
X029316Y017707D02*
X029354Y017707D01*
X029354Y017698D02*
X029302Y017698D01*
X029288Y017690D02*
X029354Y017690D01*
X029354Y017681D02*
X029273Y017681D01*
X029259Y017673D02*
X029354Y017673D01*
X029354Y017664D02*
X029245Y017664D01*
X029231Y017656D02*
X029354Y017656D01*
X029354Y017647D02*
X029217Y017647D01*
X029203Y017639D02*
X029354Y017639D01*
X029354Y017630D02*
X029188Y017630D01*
X029174Y017622D02*
X029354Y017622D01*
X029354Y017613D02*
X029160Y017613D01*
X029146Y017605D02*
X029354Y017605D01*
X029354Y017596D02*
X029132Y017596D01*
X029118Y017588D02*
X029354Y017588D01*
X029354Y017579D02*
X029104Y017579D01*
X029118Y017571D02*
X029354Y017571D01*
X029354Y017562D02*
X029132Y017562D01*
X029147Y017554D02*
X029354Y017554D01*
X029354Y017545D02*
X029161Y017545D01*
X029175Y017537D02*
X029354Y017537D01*
X029354Y017528D02*
X029189Y017528D01*
X029203Y017520D02*
X029354Y017520D01*
X029354Y017511D02*
X029217Y017511D01*
X029232Y017503D02*
X029354Y017503D01*
X029354Y017494D02*
X029246Y017494D01*
X029260Y017486D02*
X029354Y017486D01*
X029354Y017477D02*
X029274Y017477D01*
X029288Y017469D02*
X029354Y017469D01*
X029354Y017460D02*
X029302Y017460D01*
X029317Y017452D02*
X029354Y017452D01*
X029354Y017443D02*
X029331Y017443D01*
X029345Y017435D02*
X029354Y017435D01*
X029354Y016789D02*
X029104Y016639D01*
X029354Y016489D01*
X029354Y016789D01*
X029354Y016780D02*
X029340Y016780D01*
X029326Y016772D02*
X029354Y016772D01*
X029354Y016763D02*
X029312Y016763D01*
X029297Y016755D02*
X029354Y016755D01*
X029354Y016746D02*
X029283Y016746D01*
X029269Y016738D02*
X029354Y016738D01*
X029354Y016729D02*
X029255Y016729D01*
X029241Y016721D02*
X029354Y016721D01*
X029354Y016712D02*
X029227Y016712D01*
X029212Y016704D02*
X029354Y016704D01*
X029354Y016695D02*
X029198Y016695D01*
X029184Y016687D02*
X029354Y016687D01*
X029354Y016678D02*
X029170Y016678D01*
X029156Y016670D02*
X029354Y016670D01*
X029354Y016661D02*
X029142Y016661D01*
X029127Y016653D02*
X029354Y016653D01*
X029354Y016644D02*
X029113Y016644D01*
X029108Y016636D02*
X029354Y016636D01*
X029354Y016627D02*
X029123Y016627D01*
X029137Y016619D02*
X029354Y016619D01*
X029354Y016610D02*
X029151Y016610D01*
X029165Y016602D02*
X029354Y016602D01*
X029354Y016593D02*
X029179Y016593D01*
X029193Y016585D02*
X029354Y016585D01*
X029354Y016576D02*
X029208Y016576D01*
X029222Y016568D02*
X029354Y016568D01*
X029354Y016559D02*
X029236Y016559D01*
X029250Y016551D02*
X029354Y016551D01*
X029354Y016542D02*
X029264Y016542D01*
X029278Y016534D02*
X029354Y016534D01*
X029354Y016525D02*
X029293Y016525D01*
X029307Y016517D02*
X029354Y016517D01*
X029354Y016508D02*
X029321Y016508D01*
X029335Y016500D02*
X029354Y016500D01*
X029354Y016491D02*
X029349Y016491D01*
X032225Y020887D02*
X032475Y020737D01*
X032475Y021037D01*
X032225Y020887D01*
X032226Y020886D02*
X032475Y020886D01*
X032475Y020894D02*
X032238Y020894D01*
X032240Y020877D02*
X032475Y020877D01*
X032475Y020869D02*
X032254Y020869D01*
X032269Y020860D02*
X032475Y020860D01*
X032475Y020852D02*
X032283Y020852D01*
X032297Y020843D02*
X032475Y020843D01*
X032475Y020835D02*
X032311Y020835D01*
X032325Y020826D02*
X032475Y020826D01*
X032475Y020818D02*
X032339Y020818D01*
X032354Y020809D02*
X032475Y020809D01*
X032475Y020801D02*
X032368Y020801D01*
X032382Y020792D02*
X032475Y020792D01*
X032475Y020784D02*
X032396Y020784D01*
X032410Y020775D02*
X032475Y020775D01*
X032475Y020767D02*
X032424Y020767D01*
X032439Y020758D02*
X032475Y020758D01*
X032475Y020750D02*
X032453Y020750D01*
X032467Y020741D02*
X032475Y020741D01*
X032475Y020903D02*
X032252Y020903D01*
X032266Y020911D02*
X032475Y020911D01*
X032475Y020920D02*
X032281Y020920D01*
X032295Y020928D02*
X032475Y020928D01*
X032475Y020937D02*
X032309Y020937D01*
X032323Y020945D02*
X032475Y020945D01*
X032475Y020954D02*
X032337Y020954D01*
X032351Y020962D02*
X032475Y020962D01*
X032475Y020971D02*
X032366Y020971D01*
X032380Y020979D02*
X032475Y020979D01*
X032475Y020988D02*
X032394Y020988D01*
X032408Y020996D02*
X032475Y020996D01*
X032475Y021005D02*
X032422Y021005D01*
X032436Y021013D02*
X032475Y021013D01*
X032475Y021022D02*
X032451Y021022D01*
X032465Y021030D02*
X032475Y021030D01*
D17*
X034900Y024043D03*
M02*
